<svg xmlns="http://www.w3.org/2000/svg" width="512" height="512" viewBox="0 0 512 512"><g fill="none" opacity=".15" transform="translate(10 34)"><path fill="#131415" stroke="#FFF" stroke-width="8" d="M230.822741,-1.71784377 C243.8046,-5.70777863 257.252592,-4.29840372 268.501305,1.20000464 C279.819236,6.73224679 288.904519,16.3955229 293.112678,28.8459092 C297.340009,41.3558521 295.854447,54.3171351 290.027885,65.1588051 C284.664709,75.1382382 275.613715,83.3263718 263.941849,87.6629772 L263.941849,87.6629772 L263.941849,108.646481 L338.324689,108.646481 C363.303634,108.646481 382.477678,114.70094 396.839139,124.374186 C412.966638,135.236957 423.097893,150.701738 428.4642,167.67164 C444.746502,170.214139 459.379378,177.405492 470.79883,187.801986 C482.872586,198.794171 491.355849,213.367217 494.427487,229.834114 C498.320466,250.701163 492.986236,271.101796 481.196503,287.212199 C470.007733,302.5014 452.995815,313.926414 432.555397,318.165094 C430.193244,339.492695 421.43639,360.390081 404.127817,375.241357 C389.174582,388.071682 367.78068,396.471402 338.324689,396.471402 L338.324689,396.471402 L153.475318,396.471402 C129.640932,396.471402 105.02713,389.921946 86.8683413,374.341159 C72.1830189,361.740711 61.6144298,343.247115 59.1428228,317.360195 L59.103,316.936 L58.3401864,316.774036 C43.0127485,313.438653 29.4270954,305.96608 18.8863311,295.673028 L18.3529906,295.147228 C6.80656109,283.654885 -0.988600652,268.739711 -3.29296846,252.161835 C-6.2127206,231.153623 0.0603886329,211.000364 12.5847801,195.405665 C24.5515152,180.505331 42.2334539,169.768293 63.0339975,166.478026 C68.9448851,147.259084 80.2743764,133.385009 94.3789743,123.915175 C111.509984,112.413408 132.799643,107.447231 153.475318,107.447231 L153.475318,107.447231 L227.997878,107.447231 L227.997878,87.6613868 C214.146768,82.5016335 203.416829,71.6410543 198.827021,58.056889 C194.599747,45.5462024 196.085285,32.5851134 201.911664,21.7437846 C207.699991,10.9732601 217.784134,2.28953232 230.822741,-1.71784377 Z"/><path fill="#FFF" d="M310.075331 342.301764 125.225961 342.301764C101.613305 342.301764 62.2123056 334.440016 62.2123056 282.206031L62.2123056 175.606061C62.2123056 123.238826 101.753025 115.510328 125.225961 115.510328L310.075331 115.510328C364.985235 115.510328 373.088987 153.220067 373.088987 175.606061L373.088987 282.206031C373.088987 304.725275 364.845515 342.301764 310.075331 342.301764ZM34.2683342 263.417786C8.8428133 256.14567-5.58675491 230.591658 2.03845627 206.343496 6.68064851 191.581066 18.7908671 180.033291 34.2683342 175.606061L34.2683342 263.417786ZM433.402556 232.678686C428.760364 247.441116 416.650145 258.988891 401.172678 263.416121L401.172678 175.604395C426.598199 182.878178 441.027767 208.430524 433.402556 232.678686ZM199.619352 18.5476054C199.224965 8.70224372 206.953877.405451435 216.879578.0143270551 226.805278-.376797325 235.173061 7.28817865 235.567448 17.1317705 235.961835 26.9771322 228.232923 35.2739245 218.307223 35.6650488 218.121629 35.672128 217.936035 35.6774374 217.750441 35.6792184 208.062087 35.689826 200.076199 28.1451959 199.619352 18.5476054Z" transform="translate(28.25 23.786)"/><path fill="#131415" d="M326.245622 309.832542C301.404823 318.210771 275.647395 322.399886 248.973339 322.399886 222.299282 322.399886 196.541854 318.210771 171.701055 309.832542 164.039723 309.832542 157.828113 315.45957 157.828113 322.399886 157.828113 329.340202 164.708999 332.205481 171.701055 334.96723 196.541854 342.079222 222.299282 345.635219 248.973339 345.635219 275.647395 345.635219 301.404823 342.079222 326.245622 334.96723 334.674099 331.86834 340.118564 329.340202 340.118564 322.399886 340.118564 315.45957 333.906954 309.832542 326.245622 309.832542ZM296.622619 291.033819C309.313267 291.033819 320.530892 288.352165 330.275497 282.988855 340.020101 277.625546 347.611828 270.184899 353.050677 260.666913 358.489526 251.148927 361.20895 240.27123 361.20895 228.033819 361.20895 216.249647 358.602835 205.598568 353.390605 196.080582 348.178374 186.562596 340.775497 179.00864 331.181972 173.418712 321.588446 167.828784 310.295281 165.033819 297.302475 165.033819 284.762907 165.033819 274.187367 167.602165 265.575857 172.738855 256.964346 177.875546 250.392403 184.900726 245.860029 193.814395 241.327655 185.051805 234.793482 178.064395 226.257511 172.852165 217.72154 167.639935 207.18377 165.033819 194.644202 165.033819 181.651396 165.033819 170.358231 167.791014 160.764705 173.305402 151.17118 178.819791 143.768303 186.335978 138.556072 195.853963 133.343842 205.371949 130.737727 216.098568 130.737727 228.033819 130.737727 239.969071 133.343842 250.69569 138.556072 260.213676 143.768303 269.731661 151.095641 277.247848 160.538087 282.762237 169.980533 288.276625 181.122619 291.033819 193.964346 291.033819 206.352835 291.033819 216.928374 288.427704 225.690964 283.215474 234.453554 278.003244 241.176576 270.940294 245.860029 262.026625 250.392403 270.789215 256.888806 277.814395 265.349238 283.102165 273.809669 288.389935 284.23413 291.033819 296.622619 291.033819ZM192.378015 274.264035C184.824058 274.264035 177.912187 272.375546 171.642403 268.598568 165.372619 264.821589 160.424777 259.49605 156.798878 252.621949 153.172979 245.747848 151.360029 237.702884 151.360029 228.487057 151.360029 214.285618 155.250317 202.954683 163.030892 194.494251 170.811468 186.033819 181.122619 181.803604 193.964346 181.803604 206.503914 181.803604 216.588446 186.071589 224.217943 194.607561 231.847439 203.143532 235.662187 214.361158 235.662187 228.260438 235.662187 241.857561 231.922979 252.924107 224.444562 261.460078 216.966144 269.99605 206.277295 274.264035 192.378015 274.264035ZM321.324058 267.918712C318.302475 251.602165 311.315065 238.722668 300.361828 229.280222 289.40859 219.837776 275.47154 214.210078 258.550677 212.397129 260.816864 202.879143 265.387008 195.400726 272.261108 189.961877 279.135209 184.523028 288.388806 181.803604 300.0219 181.803604 308.029094 181.803604 315.054274 183.767632 321.097439 187.69569 327.140605 191.623748 331.861828 197.062596 335.261108 204.012237 338.660389 210.961877 340.360029 219.12015 340.360029 228.487057 340.360029 237.400726 338.660389 245.256841 335.261108 252.055402 331.861828 258.853963 327.216144 264.141733 321.324058 267.918712ZM193.737727 242.537417C197.514705 242.537417 200.838446 241.291014 203.70895 238.798208 206.579454 236.305402 208.014705 232.415114 208.014705 227.127345 208.014705 221.839575 206.617223 217.987057 203.822259 215.569791 201.027295 213.152525 197.665785 211.943891 193.737727 211.943891 189.507511 211.943891 186.108231 213.114755 183.539885 215.456481 180.97154 217.798208 179.687367 221.688496 179.687367 227.127345 179.687367 232.415114 181.00931 236.305402 183.653195 238.798208 186.29708 241.291014 189.65859 242.537417 193.737727 242.537417ZM299.115425 274.264035C286.424777 274.264035 276.226936 270.147129 268.5219 261.913316 260.816864 253.679503 256.888806 242.612956 256.737727 228.713676 271.543482 230.375546 283.063267 235.247848 291.29708 243.330582 299.530892 251.413316 303.798878 261.648927 304.101036 274.037417 302.439166 274.188496 300.777295 274.264035 299.115425 274.264035Z"/></g></svg>