<svg xmlns="http://www.w3.org/2000/svg" width="512" height="512" viewBox="0 0 512 512"><g fill="none" fill-rule="evenodd" transform="translate(1 41.85)"><path fill="#ED5F3B" d="M12.9824956,176.729417 C-40.1358682,352.005395 77.5733406,478.752354 223.796387,408.636678 L422.401388,408.636678 C438.285278,408.636678 452.75801,402.118222 463.247438,391.635841 L463.324955,391.560086 C472.380322,382.499434 478.481244,370.475526 479.969919,357.128548 C522.08971,320.64634 517.761104,255.266233 480.329314,203.625973 L480.329314,121.551574 C480.329314,105.662399 473.814383,91.1914279 463.324955,80.7002384 L463.247438,80.6244833 C452.75801,70.1368173 438.285278,63.6218855 422.401388,63.6218855 L354.496701,63.6218855 L354.496701,52.2004947 C354.496701,37.8352287 348.626568,24.7666067 339.171284,15.3201317 C329.726571,5.87013326 316.657949,0 302.292683,0 L232.909892,0 C218.534056,0 205.481289,5.87013326 196.031291,15.3201317 C186.581292,24.7666067 180.711159,37.8352287 180.711159,52.2004947 L180.711159,63.6218855 L112.809996,63.6218855 C96.9137737,63.6218855 82.4533734,70.1368173 71.9621838,80.6244833 L71.8864288,80.7002384 C61.3987627,91.1914279 54.8855927,105.662399 54.8855927,121.551574 L54.8855927,206.050134 C40.2824911,198.354833 26.3189028,187.590573 12.9824956,176.729417 Z M221.492025,63.6218855 L313.71055,63.6218855 L313.71055,52.2004947 C313.71055,49.0769214 312.422715,46.2193716 310.349141,44.1457981 C308.277329,42.0792716 305.414494,40.7808658 302.292683,40.7808658 L232.909892,40.7808658 C229.791604,40.7808658 226.930531,42.0792716 224.862242,44.1457981 C222.788669,46.2193716 221.492025,49.0769214 221.492025,52.2004947 L221.492025,63.6218855 Z"/><path fill="#000" d="M285.885555 367.855812C323.595699 337.308921 359.861213 304.87344 401.482431 294.935438 416.030919 294.221931 428.78595 299.255236 439.543163 306.725033L439.543163 350.710513C439.543163 355.419656 437.640479 359.702457 434.580329 362.808413L434.502812 362.88593C431.395094 365.951366 427.112293 367.855812 422.401388 367.855812L285.885555 367.855812ZM439.543163 163.074134C377.70064 118.538991 279.661311 106.361811 163.668041 185.332016 150.668127 194.179498 138.927861 202.167249 129.948248 207.385536 118.188602 214.199965 106.767212 217.138555 95.6664584 217.249545L95.6664584 121.551574C95.6664584 116.840669 97.5691427 112.557867 100.634578 109.453673L100.712095 109.372633C103.819813 106.307197 108.099091 104.404513 112.809996 104.404513L422.401388 104.404513C427.112293 104.404513 431.395094 106.307197 434.502812 109.372633L434.580329 109.453673C437.640479 112.557867 439.543163 116.840669 439.543163 121.551574L439.543163 163.074134Z"/><path fill="#FFF" d="M296.29218,215.819008 C264.874988,236.301052 241.378599,256.601636 202.680115,274.911448 C202.680115,274.911448 232.811234,219.083521 240.414924,185.495859 C197.035485,230.487294 108.84607,291.528224 47.7100066,255.188716 C44.9634467,311.545167 67.1279564,353.594489 122.543635,374.323177 C190.904614,399.887853 267.508796,341.480732 310.026742,283.681413 C289.638071,290.742486 273.607956,300.072685 249.420963,299.903558 C269.337487,278.736196 288.640923,248.930999 296.29218,215.819008 L296.29218,215.819008 Z"/></g></svg>