<svg xmlns="http://www.w3.org/2000/svg" width="512" height="512" viewBox="0 0 512 512"><g fill="none" fill-rule="evenodd"><rect width="512" height="512" fill="#000"/><path fill="#3A5AC4" fill-rule="nonzero" d="M481.642163,95.5064176 C468.847403,98.1100042 460.542893,110.562414 463.040349,123.399383 C464.259651,129.627617 467.910456,135.11062 473.182326,138.631227 C478.454197,142.151834 484.910921,143.41874 491.119181,142.150705 C491.718196,142.030696 492.988108,141.790679 494.976838,141.214639 C501.031868,139.418462 506.124692,135.282877 509.131709,129.720297 C512.138725,124.157716 512.812825,117.625261 511.005283,111.564149 C507.268367,99.0508618 494.167061,91.887719 481.639168,95.5082177 L481.642163,95.5064176 Z M207.110713,138.71403 C253.273544,155.883901 293.11978,192.372965 326.64942,248.181223 C352.81302,206.456309 371.525085,183.330967 382.785615,178.805197 C399.67641,172.016541 424.143533,192.254929 405.043768,210.190759 C373.59471,239.723318 359.43201,267.285609 349.536827,286.120969 C375.77138,288.241228 394.570873,293.972743 394.570873,300.710422 C394.570873,304.812963 387.459133,308.747494 374.799517,311.648453 C362.1399,314.549412 344.969667,316.179164 327.066116,316.179178 C309.162565,316.179164 291.992331,314.549412 279.332715,311.648453 C266.673098,308.747494 259.561359,304.812963 259.561359,300.710422 C259.561359,294.178556 277.229873,288.592323 302.212634,286.324197 C280.269759,254.062506 247.525624,199.38516 192.194367,178.805197 C186.882142,176.816156 182.578467,172.791262 180.233214,167.618855 C177.887961,162.446447 177.693943,156.551772 179.69398,151.235852 C183.829969,140.209987 196.088729,134.611143 207.110713,138.71403 Z M454.138944,147.849224 C455.761876,153.291298 455.156625,159.156577 452.456722,164.151037 C449.75682,169.145496 445.18414,172.858702 439.747526,174.471431 C437.96191,174.988639 436.821697,175.204143 436.283861,175.311894 C430.709668,176.450422 424.912385,175.312909 420.178945,172.15187 C415.445504,168.990832 412.167565,164.067823 411.072794,158.475695 C408.83041,146.949799 416.286759,135.769186 427.772067,133.433127 C439.020453,130.182399 450.783689,136.613951 454.138944,147.849224 Z M88.1498562,0 C39.6997046,0.00745953633 0.0074467664,39.758334 0,88.301018 C-0.0074467664,136.843205 39.6738891,176.686577 88.1240407,176.679118 C136.574689,176.671161 176.26645,136.817345 176.273897,88.2751583 C176.281344,39.7334689 136.600504,-0.0069622339 88.1498562,0 Z" transform="translate(0 98)"/></g></svg>