<svg xmlns="http://www.w3.org/2000/svg" width="428" height="267" viewBox="0 0 428 267"><g fill="none" fill-rule="evenodd"><path fill="#FFF" fill-rule="nonzero" d="M129.878748,6.08048545 C186.37047,6.07234642 234.770411,42.8348658 252.502895,93.7128434 C271.099249,74.2498239 297.219311,62.0849301 326.012044,62.0804854 C382.081898,62.0724072 428.00283,108.183054 427.994212,164.505762 C427.985594,220.829046 382.052023,267.071253 325.982168,267.080485 C286.893015,267.08652 252.735978,244.619162 235.635527,211.925949 C212.031347,245.219286 173.330924,267.073324 129.840712,267.080485 C105.522434,267.084239 82.703494,260.256194 63.1849159,248.415653 C57.7079493,259.44209 46.3562178,267.078341 33.3307575,267.080485 C15.0056757,267.083314 -0.00281655679,251.973968 4.54747351e-13,233.56587 C0.00200345016,220.471838 7.59843647,209.064701 18.5794405,203.568739 C6.79108719,183.930953 -0.00374111323,160.974248 0,136.523551 C0.01097196,64.8136583 58.4929818,6.09150508 129.878748,6.08048545 Z M407.631773,28.9172186 C408.988443,33.4783971 408.482491,38.3942769 406.225541,42.5802951 C403.968592,46.7663134 400.146117,49.8784717 395.601447,51.230152 C394.108784,51.6636408 393.155638,51.8442611 392.70604,51.9345713 C388.046363,52.8888079 383.200197,51.9354214 379.243337,49.2860527 C375.286476,46.6366841 372.546324,42.5105509 371.631164,37.8236074 C369.756671,28.1633811 375.989713,18.7925479 385.590712,16.8346211 C394.99366,14.1100811 404.82699,19.5005731 407.631773,28.9172186 Z" opacity=".05"/><path fill="#FFF" fill-rule="nonzero" d="M0 60.2816901 0 0 15.6718671 0 15.6718671 19.1142344C17.1116707 18.1366935 18.5045872 17.3415929 19.8506168 16.7289327 21.1966463 16.1162725 22.562385 15.6567774 23.9478329 15.3504473 25.3332807 15.0441172 26.7434168 14.8909521 28.1782412 14.8909521 31.0246539 14.8909521 33.4080059 15.4149378 35.3282972 16.4629092 37.2485884 17.5108806 38.7060264 19.0174986 39.7006112 20.9827631 40.6951959 22.9480277 41.1924883 25.3456335 41.1924883 28.1755805L41.1924883 60.2816901 25.4633609 60.2816901 25.4633609 33.3013061C25.4633609 31.4743568 25.100713 30.186243 24.3754172 29.4369647 23.6501213 28.6876864 22.6576112 28.3130472 21.3978869 28.3130472 20.7763233 28.3130472 20.1597389 28.3777499 19.5481336 28.5071553 18.9365283 28.6365606 18.3133049 28.816031 17.6784636 29.0455665 17.0436223 29.2751019 16.3747568 29.551096 15.6718671 29.8735487L15.6718671 60.2816901 0 60.2816901ZM47.2206573 36.5922751C47.2206573 33.1930128 47.5659784 30.1117568 48.2566207 27.3485069 48.9472629 24.5852571 50.1028234 22.2164014 51.723302 20.2419398 53.3437806 18.2674782 55.5489785 16.7444942 58.3388957 15.6729876 61.1288129 14.601481 64.6230464 14.0657277 68.8215962 14.0657277 73.0201461 14.0657277 76.5047874 14.601481 79.2755201 15.6729876 82.0462527 16.7444942 84.2514506 18.2674782 85.8911137 20.2419398 87.5307769 22.2164014 88.6959295 24.5852571 89.3865718 27.3485069 90.0772141 30.1117568 90.4225352 33.1930128 90.4225352 36.5922751 90.4225352 40.0438465 90.0510905 43.1682783 89.3082011 45.9655706 88.5653116 48.7628629 87.3572999 51.1487398 85.684166 53.1232014 84.011032 55.097663 81.7927723 56.6169107 79.0293869 57.6809445 76.2660015 58.7449784 72.8634046 59.2769953 68.8215962 59.2769953 64.7797879 59.2769953 61.3769869 58.7449784 58.6131933 57.6809445 55.8493997 56.6169107 53.63114 55.097663 51.9584142 53.1232014 50.2856885 51.1487398 49.0778809 48.7628629 48.3349914 45.9655706 47.592102 43.1682783 47.2206573 40.0438465 47.2206573 36.5922751ZM63.0760404 36.5922751C63.0760404 39.3937189 63.2613545 41.587173 63.6319829 43.1726374 64.0026113 44.7581018 64.6148828 45.872369 65.4687974 46.5154391 66.3227121 47.1585091 67.4403117 47.4800441 68.8215962 47.4800441 70.2175753 47.4800441 71.3292563 47.1585091 72.1566392 46.5154391 72.9840221 45.872369 73.59262 44.7581018 73.9824328 43.1726374 74.3722457 41.587173 74.5671521 39.3937189 74.5671521 36.5922751 74.5671521 33.8049465 74.3889811 31.6318348 74.0326391 30.0729401 73.6762971 28.5140454 73.0844346 27.413063 72.2570517 26.769993 71.4296688 26.126923 70.284517 25.805388 68.8215962 25.805388 67.3586755 25.805388 66.2135237 26.126923 65.3861408 26.769993 64.5587579 27.413063 63.9668954 28.5140454 63.6105534 30.0729401 63.2542114 31.6318348 63.0760404 33.8049465 63.0760404 36.5922751ZM94.4413146 77.3615023 94.4413146 15.8138406 108.548253 15.8138406 109.040356 19.3076521C111.393997 17.8461885 113.674528 16.7746176 115.881947 16.0929396 118.089367 15.4112616 120.351257 15.0704225 122.667618 15.0704225 127.514911 15.0704225 131.222663 16.9735814 133.790875 20.779899 136.359087 24.5862167 137.643192 30.1121644 137.643192 37.3577423 137.643192 42.6589309 136.869415 47.0703858 135.32186 50.5921071 133.774306 54.1138284 131.41093 56.7494106 128.231732 58.4988535 125.052534 60.2482965 121.03349 61.123018 116.174599 61.123018 115.264127 61.123018 114.287378 61.0775587 113.244353 60.9866401 112.201327 60.8957215 111.160373 60.7842933 110.12149 60.6523556L110.12149 77.3615023 94.4413146 77.3615023ZM115.114591 49.5810077C116.564388 49.5810077 117.750736 49.2568724 118.673635 48.6086016 119.596534 47.9603309 120.286638 46.8572557 120.743945 45.2993761 121.201252 43.7414965 121.429906 41.6296478 121.429906 38.9638299 121.429906 36.2100536 121.246817 34.0569744 120.88064 32.5045922 120.514463 30.95221 119.958362 29.840043 119.212338 29.1680911 118.466314 28.4961392 117.513797 28.1601633 116.354788 28.1601633 115.763271 28.1601633 115.127846 28.2200004 114.448512 28.3396747 113.769179 28.4593489 113.073898 28.636323 112.362669 28.870597 111.65144 29.104871 110.895267 29.4127256 110.094151 29.7941608L110.094151 48.7284873C110.93669 49.0033575 111.783579 49.2141618 112.634816 49.3609002 113.486054 49.5076385 114.312646 49.5810077 115.114591 49.5810077ZM141.661972 51.772831C141.661972 49.2354131 142.359167 47.3400156 143.753558 46.0866385 145.147949 44.8332613 147.464838 44.2065728 150.704225 44.2065728 153.968449 44.2065728 156.291547 44.8332613 157.67352 46.0866385 159.055492 47.3400156 159.746479 49.2354131 159.746479 51.772831 159.746479 54.268853 159.055492 56.1435525 157.67352 57.3969296 156.291547 58.6503067 153.968449 59.2769953 150.704225 59.2769953 147.4675 59.2769953 145.151276 58.6503067 143.755554 57.3969296 142.359833 56.1435525 141.661972 54.268853 141.661972 51.772831ZM182.430453 77.3615023C175.983361 77.3615023 171.093273 76.4642285 167.760189 74.6696807 164.427105 72.8751329 162.760563 70.1720796 162.760563 66.560521 162.760563 65.1079107 163.020407 63.7921586 163.540095 62.6132646 164.059782 61.4343707 164.833549 60.3811034 165.861394 59.4534628 166.889239 58.5258222 168.148514 57.7466873 169.639218 57.1160581L176.947789 59.9176991C176.454456 60.2055589 176.039571 60.4948746 175.703133 60.7856462 175.366695 61.0764179 175.112616 61.3952684 174.940897 61.7421976 174.769178 62.0891269 174.683318 62.5121809 174.683318 63.0113597 174.683318 63.8433244 174.942132 64.5049443 175.459761 64.9962194 175.97739 65.4874946 176.880254 65.8481513 178.168355 66.0781895 179.456456 66.3082277 181.228417 66.4232468 183.484241 66.4232468 185.602524 66.4232468 187.369544 66.2911724 188.785302 66.0270237 190.201059 65.7628749 191.267407 65.3874508 191.984346 64.9007515 192.701284 64.4140522 193.059753 63.8042221 193.059753 63.0712612 193.059753 62.5196686 192.949598 62.1005664 192.729286 61.8139546 192.508975 61.5273427 192.052086 61.3143598 191.35862 61.1750057 190.665155 61.0356516 189.62372 60.9659746 188.234318 60.9659746L180.283344 60.9659746C177.110037 60.9659746 174.341733 60.6161334 171.97843 59.9164512 169.615128 59.2167689 167.78325 58.1327189 166.482795 56.6643013 165.182341 55.1958836 164.532114 53.3156435 164.532114 51.0235808 164.532114 48.664129 165.144455 46.6948686 166.369139 45.1157997 167.593823 43.5367307 169.200243 42.233874 171.188398 41.2072296L178.750224 43.1016132C177.902746 43.6107756 177.274962 44.1230578 176.866871 44.6384599 176.45878 45.153862 176.254735 45.7980107 176.254735 46.5709059 176.254735 47.3587764 176.551023 47.9513432 177.143598 48.3486064 177.736174 48.7458695 178.646863 48.9445011 179.875665 48.9445011L193.536614 48.9445011C197.987315 48.9445011 201.440849 50.0254312 203.897217 52.1872914 206.353586 54.3491516 207.58177 57.3361127 207.58177 61.1481748 207.58177 64.6199634 206.642049 67.5661583 204.762608 69.9867595 202.883168 72.4073607 200.080272 74.2416348 196.353922 75.4895818 192.627572 76.7375288 187.986416 77.3615023 182.430453 77.3615023ZM184.005576 45.6287059C177.607076 45.6287059 172.793376 44.3501842 169.564477 41.7931408 166.335578 39.2360973 164.721128 35.4612656 164.721128 30.4686457 164.721128 25.4236119 166.335578 21.6321409 169.564477 19.0942327 172.793376 16.5563244 177.607076 15.2873703 184.005576 15.2873703 190.404075 15.2873703 195.217775 16.5563244 198.446674 19.0942327 201.675573 21.6321409 203.290023 25.4236119 203.290023 30.4686457 203.290023 35.4612656 201.675573 39.2360973 198.446674 41.7931408 195.217775 44.3501842 190.404075 45.6287059 184.005576 45.6287059ZM184.005576 35.9733399C185.616525 35.9733399 186.801882 35.5852284 187.561647 34.8090053 188.321413 34.0327823 188.701295 32.5859957 188.701295 30.4686457 188.701295 28.2988818 188.321413 26.8219365 187.561647 26.0378098 186.801882 25.2536831 185.616525 24.8616198 184.005576 24.8616198 182.409451 24.8616198 181.2278 25.2536831 180.460622 26.0378098 179.693445 26.8219365 179.309856 28.2988818 179.309856 30.4686457 179.309856 32.5859957 179.693445 34.0327823 180.460622 34.8090053 181.2278 35.5852284 182.409451 35.9733399 184.005576 35.9733399ZM200.858774 27.1341313 195.10556 19.1822129C195.881385 17.1031332 197.045123 15.5631666 198.596774 14.5623131 200.148425 13.5614596 202.092518 13.0610329 204.429053 13.0610329 205.30371 13.0610329 206.129568 13.1201024 206.906629 13.2382413 207.68369 13.3563803 208.373655 13.5335888 208.976526 13.7698668L207.186445 25.4980727C206.741704 25.3915812 206.263196 25.302145 205.750921 25.2297641 205.238646 25.1573832 204.707428 25.1211927 204.157267 25.1211927 203.496745 25.1211927 202.885021 25.280306 202.322094 25.5985325 201.759168 25.9167589 201.271395 26.4286252 200.858774 27.1341313ZM239.455666 59.6160798 237.691792 56.4625939C235.643662 57.7310211 233.575879 58.684644 231.488442 59.3234624 229.401005 59.9622809 227.211162 60.2816901 224.918912 60.2816901 220.106014 60.2816901 216.413175 58.3907707 213.840393 54.6089319 211.267611 50.8270931 209.981221 45.3565297 209.981221 38.1972418 209.981221 32.9167332 210.753303 28.5423337 212.297469 25.0740434 213.841634 21.6057531 216.201328 19.0084077 219.376549 17.282007 222.551771 15.5556064 226.561967 14.6924061 231.407138 14.6924061 232.396032 14.6924061 233.41327 14.7267332 234.458851 14.7953873 235.504431 14.8640415 236.517531 14.9745579 237.498151 15.1269366L237.498151 0 253.183099 0 253.183099 59.6160798 239.455666 59.6160798ZM237.498151 45.628216 237.498151 26.9057277C236.616834 26.6085055 235.765309 26.402543 234.943575 26.2878404 234.12184 26.1731377 233.295554 26.1157864 232.464717 26.1157864 231.035578 26.1157864 229.854283 26.4339397 228.920833 27.0702465 227.987382 27.7065532 227.293087 28.7796929 226.837947 30.2896655 226.382807 31.7996381 226.155237 33.9092879 226.155237 36.618615 226.155237 39.2551017 226.339362 41.3519836 226.707611 42.9092606 227.075861 44.4665376 227.640234 45.5807023 228.400732 46.2517547 229.161229 46.9228071 230.102955 47.2583333 231.225909 47.2583333 231.850692 47.2583333 232.494715 47.1993075 233.157978 47.0812559 233.821241 46.9632042 234.520294 46.7788009 235.255139 46.5280458 235.989983 46.2772907 236.737653 45.9773474 237.498151 45.628216ZM259.211268 59.2769953 259.211268 14.8771242 273.345506 14.8771242 273.345506 18.7046337C275.11519 17.5838923 276.763272 16.6888205 278.28975 16.0194184 279.816227 15.3500163 281.318633 14.8570506 282.796968 14.5405214 284.275302 14.2239923 285.812571 14.0657277 287.408773 14.0657277 290.352161 14.0657277 292.786516 14.6140543 294.711837 15.7107074 296.637157 16.8073605 298.067141 18.321756 299.001787 20.253894 299.936433 22.1860319 300.403756 24.4558292 300.403756 27.0632857L300.403756 59.2769953 284.720629 59.2769953 284.720629 32.3804685C284.720629 30.5497551 284.350215 29.2639874 283.609388 28.5231655 282.86856 27.7823436 281.885563 27.4119326 280.660397 27.4119326 280.057774 27.4119326 279.444776 27.4820846 278.821402 27.6223886 278.198028 27.7626926 277.566354 27.9452568 276.926378 28.1700813 276.286403 28.3949057 275.609075 28.668752 274.894395 28.9916202L274.894395 59.2769953 259.211268 59.2769953Z" transform="translate(127.596 98.033)"/><path fill="#3A5AC4" fill-rule="nonzero" d="M102.073372,20.029836 C99.3618067,20.5758665 97.60185,23.1874159 98.1311303,25.879616 C98.3895343,27.1858162 99.1632413,28.3357247 100.280497,29.074075 C101.397753,29.8124252 102.766113,30.0781237 104.081816,29.8121883 C104.208764,29.7870199 104.477893,29.7366829 104.899361,29.6158743 C106.18259,29.2391757 107.261901,28.371851 107.899172,27.2052532 C108.536442,26.0386554 108.679302,24.6686531 108.296234,23.3975022 C107.504278,20.7731854 104.727746,19.2709138 102.072737,20.0302136 L102.073372,20.029836 Z M43.8925213,29.0914406 C53.6757093,32.6923473 62.120235,40.3449217 69.2260984,52.049164 C74.7708931,43.2985146 78.7365002,38.4486122 81.1229197,37.4994568 C84.702549,36.0757236 89.8878129,40.320167 85.8400414,44.0817124 C79.1751723,50.2752952 76.1736961,56.0556763 74.0766341,60.0058706 C79.6369658,60.4508131 83.6205438,61.6527708 83.6205438,63.0657142 C83.6205438,63.926109 82.1133683,64.7512684 79.4304434,65.3596645 C76.7475185,65.9680606 73.1086684,66.3098561 69.3144079,66.3098592 C65.5201475,66.3098561 61.8812973,65.9680606 59.1983724,65.3596645 C56.5154476,64.7512684 55.0082721,63.926109 55.0082721,63.0657142 C55.0082721,61.6958904 58.752422,60.5243712 64.0466279,60.0486575 C59.397017,53.2826983 52.4576148,41.8155544 40.7313326,37.4994568 C39.6055243,37.0823103 38.693456,36.2381997 38.1964316,35.1534301 C37.6994073,34.0686604 37.6582893,32.8324149 38.082153,31.7175474 C38.958684,29.4051764 41.5566563,28.2309733 43.8925213,29.0914406 Z M96.244675,31.0072955 C96.5886195,32.1486204 96.4603498,33.3787008 95.8881654,34.4261509 C95.315981,35.473601 94.3469028,36.2523436 93.1947331,36.590569 C92.8163114,36.6990391 92.5746687,36.744235 92.4606863,36.7668329 C91.2793596,37.0056076 90.0507542,36.7670457 89.0476064,36.104105 C88.0444587,35.4411644 87.3497723,34.4086991 87.1177598,33.2359045 C86.6425363,30.8186659 88.222744,28.4738408 90.6568003,27.9839169 C93.0406462,27.3021664 95.533603,28.6510071 96.244675,31.0072955 Z M18.6814066,0 C8.41347173,0.00156443193 0.00157817695,8.33821361 0,18.5187023 C-0.00157817695,28.6990866 8.40800071,37.0551347 18.6759356,37.0535703 C28.9439756,37.0519016 37.355764,28.6936633 37.3573421,18.5132789 C37.3589203,8.33299883 28.9494466,-0.00146013647 18.6814066,0 Z" transform="translate(0 91)"/><g transform="translate(196 210)"><path fill="#FFF" fill-rule="nonzero" d="M28.1326584,10.7495935 C28.0947761,10.8262547 28.0474233,11.4299621 27.9905999,12.5607154 C27.9337765,13.6914688 27.9053648,14.8413875 27.9053648,16.0104715 C27.9053648,17.1987209 27.9337765,18.1953171 27.9905999,19.0002602 C28.0474233,19.5177236 28.1989523,20.020813 28.445187,20.5095285 C28.6914216,20.9982439 28.9850091,21.3288455 29.3259494,21.5013333 C29.9888888,21.539664 30.4908287,21.233019 30.831769,20.5813984 L30.8033573,20.5813984 C30.9738275,20.2172575 31.0590625,19.6710461 31.0590625,18.9427642 C31.0590625,18.3678049 31.0969448,17.9174201 31.1727093,17.5916098 C31.6462375,17.668271 32.1008245,17.7066016 32.5364705,17.7066016 L33.8434083,17.6778537 C34.5252889,17.6778537 35.1692872,17.7545149 35.7754033,17.9078374 C36.0026968,18.5786233 36.1163436,19.2781572 36.1163436,20.006439 C36.1163436,21.0988618 35.8464325,22.1337886 35.3066104,23.1112195 C34.7667882,24.0886504 34.023349,24.8840108 33.0762926,25.4973008 C32.1292362,26.1105908 31.0780037,26.4364011 29.9225949,26.4747317 C29.5816546,26.5322276 29.1838909,26.5609756 28.7293039,26.5609756 C27.2518959,26.5609756 25.9544287,26.2255827 24.8369022,25.5547967 C23.7193757,24.8840108 23.0943185,23.877832 22.9617306,22.5362602 C22.8670249,20.619729 22.8196721,18.559458 22.8196721,16.3554472 C22.8196721,14.5347425 22.8291427,13.0398482 22.8480838,11.8707642 L22.8764955,10.5771057 C22.8575544,10.289626 22.8812308,9.95902439 22.9475247,9.58530081 C23.0138187,9.21157724 23.103789,8.88097561 23.2174358,8.59349593 C23.387906,8.15269377 23.6104642,7.7118916 23.8851105,7.27108943 C24.1597569,6.83028726 24.4486091,6.46614634 24.7516671,6.17866667 C25.1494308,5.85285637 25.7366057,5.57495935 26.513192,5.34497561 C27.2518959,5.11499187 28.0190116,5 28.8145389,5 C30.1025356,5 31.3147678,5.30185366 32.4512354,5.90556098 C33.587703,6.50926829 34.4968772,7.33337669 35.1787577,8.37788618 C35.8606383,9.42239566 36.2015786,10.5579404 36.2015786,11.7845203 C36.2015786,12.5128022 36.0689907,13.241084 35.803815,13.9693659 C35.0082876,14.1418537 34.3453481,14.2280976 33.8149966,14.2280976 C33.0952337,14.2280976 32.1008245,14.103523 30.831769,13.854374 L30.7465339,12.7619512 C30.7086517,11.8803469 30.5997402,11.2143523 30.4197995,10.7639675 C30.2398588,10.3135827 29.856301,10.0979729 29.269126,10.1171382 C29.2501849,10.1171382 29.2265085,10.1219295 29.1980968,10.1315122 C29.1696851,10.1410949 29.1270675,10.1458862 29.0702442,10.1458862 L29.0986559,10.1458862 C28.5114809,10.2417127 28.1894817,10.4429485 28.1326584,10.7495935 Z M49.5554993,24.3651709 C49.5741565,24.5875309 49.5834851,24.9118058 49.5834851,25.3379958 C49.5834851,25.7271257 49.550835,26.0004432 49.4855346,26.1579482 C49.4202343,26.3154531 49.3222837,26.4127356 49.1916831,26.4497956 C49.0610824,26.4868556 48.8371955,26.5053856 48.5200224,26.5053856 L48.3241213,26.5053856 L47.8763475,26.4775906 L47.1487151,26.5053856 C45.9919661,26.5424456 44.2848285,26.5609756 42.0273023,26.5609756 C39.8817195,26.5609756 38.1745819,26.5517106 36.9058895,26.5331806 L36.9058895,25.8938957 C37.0364902,22.8364461 37.1017905,19.7604665 37.1017905,16.665957 C37.1017905,15.7579871 37.0831333,14.1922023 37.0458188,11.9686026 L37.0458188,11.3015227 L37.0458188,10.2731078 C37.0271616,9.95809789 37.0178329,9.39293297 37.0178329,8.57761308 L36.9898471,6.77093833 C37.2510485,6.67828834 37.6148647,6.59953585 38.0812957,6.53468086 C38.5477268,6.46982587 39.0141578,6.43739837 39.4805888,6.43739837 C40.0029916,6.43739837 40.5253944,6.47445837 41.0477971,6.54857836 C41.5701999,6.62269835 41.9899878,6.72461333 42.3071609,6.85432332 C42.2698464,8.18848313 42.2511892,9.25395799 42.2511892,10.0507479 C42.2511892,11.1625477 42.2698464,12.8302475 42.3071609,15.0538472 C42.3258182,16.165647 42.3351468,17.8055518 42.3351468,19.9735615 L42.3351468,21.7802363 C42.9508358,21.7802363 43.706454,21.8080313 44.6020016,21.8636213 L46.0852523,21.9192112 C46.8688565,21.9748012 47.6058175,22.0025962 48.2961355,22.0025962 C48.7812237,22.0025962 49.2103403,21.9840662 49.5834851,21.9470062 C49.5834851,22.3731962 49.5741565,22.6511461 49.5554993,22.7808561 L49.5554993,22.7530611 C49.5181848,23.2533711 49.5088562,23.614706 49.5275134,23.837066 L49.5554993,24.3651709 Z M62.9653916,23.8892012 C62.9653916,24.8555877 62.8634519,25.717756 62.6595724,26.4757062 C61.8440546,26.4757062 60.6393123,26.494655 59.0453456,26.5325525 L55.403317,26.5609756 C53.7537468,26.5609756 52.1041767,26.5041293 50.4546065,26.3904368 C50.473141,25.7840767 50.4453392,23.4249567 50.3712012,19.313077 C50.3155977,16.9823802 50.287796,15.1917229 50.287796,13.9411051 C50.287796,11.3451258 50.3526667,8.92915959 50.4824082,6.69320656 L52.9289617,6.60793716 C55.6720672,6.49424464 57.7664653,6.43739837 59.2121561,6.43739837 C60.4539673,6.43739837 61.6587096,6.48477026 62.8263829,6.57951403 C62.9005209,6.97743788 62.9375899,7.44168236 62.9375899,7.97224749 C62.9375899,8.2564788 62.9190554,8.72072329 62.8819864,9.36498094 C62.8449174,9.97134108 62.8263829,10.4450599 62.8263829,10.7861375 C61.7143131,11.0324713 60.4725018,11.1556382 59.1009491,11.1556382 L55.4867223,11.1840614 C55.3940498,12.0746528 55.3477135,12.8136542 55.3477135,13.4010656 C55.3477135,13.8558357 55.403317,14.2537596 55.514524,14.5948372 L57.3494392,14.3674521 C57.6089221,14.3674521 57.9981466,14.3864009 58.5171125,14.4242984 L58.8785351,14.4527215 C58.9712076,15.0211841 59.0175439,15.6370187 59.0175439,16.3002251 L58.9619404,18.5740756 C58.3688365,18.7446144 57.5718531,18.8298838 56.5709903,18.8298838 L55.848145,18.8014607 C55.7184035,18.8014607 55.6349982,18.8204094 55.5979292,18.8583069 L55.4867223,20.3363098 C55.4867223,21.1132087 55.5237913,21.7574664 55.5979292,22.2690827 C56.5617231,22.2690827 57.4977151,22.2975059 58.4059055,22.3543521 C58.7209919,22.3733009 59.1102163,22.3922496 59.5735788,22.4111984 C60.0369412,22.4301471 60.5837088,22.4396215 61.2138817,22.4396215 L62.9097881,22.3827753 C62.9468571,23.254418 62.9653916,23.7565599 62.9653916,23.8892012 Z M75.6429872,6.77799489 C75.0734141,9.90012958 74.4303477,12.9371151 73.7137879,15.8889516 C72.9972282,18.840788 72.0969351,22.3602853 71.0129088,26.4474434 C70.6086957,26.4474434 70.3330957,26.4569045 70.1861091,26.4758265 L69.9105092,26.5042095 C69.5797893,26.5420536 69.2398828,26.5609756 68.8907896,26.5609756 C67.73327,26.5609756 66.832977,26.4474434 66.1899105,26.2203791 C64.5914311,20.4113164 63.5165914,14.0062097 62.9653916,7.00505923 C63.1307516,6.81583894 63.4706581,6.67392373 63.9851113,6.57931359 C64.4995644,6.48470345 65.0691376,6.43739837 65.6938307,6.43739837 C66.2817771,6.43739837 66.9432169,6.50362547 67.67815,6.63607967 L67.8435099,9.16217047 C67.9537499,11.0354513 68.0731765,12.6580152 68.2017898,14.0298623 C68.3304031,15.4017093 68.5141364,16.7593649 68.7529896,18.1028289 C68.9734695,17.0621173 69.3133761,15.1699145 69.7727093,12.4262204 C70.3239091,9.07702134 70.6913756,7.08074734 70.8751089,6.43739837 C71.5916686,6.5887746 72.4092817,6.66446272 73.327948,6.66446272 C74.2466144,6.66446272 74.8988675,6.70230677 75.2847074,6.77799489 L75.6429872,6.77799489 Z M89.0248937,23.8892012 C89.0248937,24.8555877 88.922954,25.717756 88.7190746,26.4757062 C87.9035567,26.4757062 86.6988144,26.494655 85.1048477,26.5325525 L81.4628192,26.5609756 C79.813249,26.5609756 78.1636788,26.5041293 76.5141086,26.3904368 C76.5326431,25.7840767 76.5048413,23.4249567 76.4307034,19.313077 C76.3750999,16.9823802 76.3472981,15.1917229 76.3472981,13.9411051 C76.3472981,11.3451258 76.4121689,8.92915959 76.5419103,6.69320656 L78.9884639,6.60793716 C81.7315694,6.49424464 83.8259675,6.43739837 85.2716582,6.43739837 C86.5134695,6.43739837 87.7182117,6.48477026 88.885885,6.57951403 C88.960023,6.97743788 88.997092,7.44168236 88.997092,7.97224749 C88.997092,8.2564788 88.9785575,8.72072329 88.9414885,9.36498094 C88.9044195,9.97134108 88.885885,10.4450599 88.885885,10.7861375 C87.7738152,11.0324713 86.532004,11.1556382 85.1604512,11.1556382 L81.5462244,11.1840614 C81.4535519,12.0746528 81.4072157,12.8136542 81.4072157,13.4010656 C81.4072157,13.8558357 81.4628192,14.2537596 81.5740261,14.5948372 L83.4089413,14.3674521 C83.6684242,14.3674521 84.0576487,14.3864009 84.5766146,14.4242984 L84.9380373,14.4527215 C85.0307097,15.0211841 85.077046,15.6370187 85.077046,16.3002251 L85.0214425,18.5740756 C84.4283386,18.7446144 83.6313553,18.8298838 82.6304924,18.8298838 L81.9076471,18.8014607 C81.7779056,18.8014607 81.6945004,18.8204094 81.6574314,18.8583069 L81.5462244,20.3363098 C81.5462244,21.1132087 81.5832934,21.7574664 81.6574314,22.2690827 C82.6212252,22.2690827 83.5572173,22.2975059 84.4654076,22.3543521 C84.780494,22.3733009 85.1697185,22.3922496 85.6330809,22.4111984 C86.0964433,22.4301471 86.6432109,22.4396215 87.2733838,22.4396215 L88.9692903,22.3827753 C89.0063592,23.254418 89.0248937,23.7565599 89.0248937,23.8892012 Z M101.510032,21.2536585 C102.274401,22.3777778 102.890673,23.3268293 103.358848,24.100813 C103.827024,24.8747967 104.213985,25.6579946 104.519733,26.4504065 L104.061112,26.4504065 C103.831801,26.4504065 103.315853,26.4688347 102.513266,26.5056911 C101.710679,26.5425474 101.070521,26.5609756 100.59279,26.5609756 C100.325261,26.5609756 99.9239679,26.5425474 99.3889101,26.5056911 L98.9016252,26.4780488 C97.6595266,23.7506775 96.5511924,21.7051491 95.5766228,20.3414634 L95.5766228,21.0601626 C95.5766228,22.20271 95.643505,23.6769648 95.7772695,25.4829268 L95.7772695,25.4552846 C95.7963787,25.5842818 95.8059333,25.8054201 95.8059333,26.1186992 C95.1562201,26.4135501 94.0861044,26.5609756 92.5955861,26.5609756 L91.9076545,26.5333333 L90.3884723,26.5333333 C90.178271,26.5333333 90.0731704,24.8655827 90.0731704,21.5300813 C90.0731704,18.5078591 90.0445066,15.4810298 89.9871789,12.4495935 C89.9298513,9.41815718 89.8438599,7.59837398 89.7292046,6.9902439 L90.5031276,6.8796748 C91.6496802,6.73224932 92.5955861,6.62168022 93.3408452,6.54796748 C94.0861044,6.47425474 94.8504728,6.43739837 95.6339504,6.43739837 C96.4747556,6.43739837 97.191351,6.47425474 97.7837365,6.54796748 C98.8920706,6.67696477 99.9287452,7.04552846 100.89376,7.65365854 C101.858775,8.26178862 102.632698,9.00813008 103.215529,9.89268293 C103.79836,10.7772358 104.089776,11.6894309 104.089776,12.6292683 C104.089776,13.5322493 103.784028,14.5181572 103.172534,15.5869919 C102.790349,16.2504065 102.283955,16.803252 101.653351,17.2455285 C101.022747,17.6878049 100.267934,17.9550136 99.3889101,18.0471545 C99.9048587,18.9317073 100.506799,19.8531165 101.19473,20.8113821 C101.328495,21.0325203 101.433595,21.1799458 101.510032,21.2536585 Z M97.3824431,14.204878 C97.649972,14.1311653 97.8601733,13.9468835 98.013047,13.6520325 C98.1659207,13.3571816 98.2423575,13.0070461 98.2423575,12.601626 C98.2423575,11.8460705 98.0512654,11.3577236 97.6690812,11.1365854 C97.4206615,10.9891599 97.1674645,10.897019 96.9094901,10.8601626 C96.6515158,10.8233062 96.3601003,10.804878 96.0352438,10.804878 L94.8026998,10.998374 C94.8409182,11.5512195 94.8600274,12.0211382 94.8600274,12.4081301 C94.8600274,13.403252 94.8886912,14.0113821 94.9460188,14.2325203 C95.2708754,14.2693767 95.6721688,14.2878049 96.149899,14.2878049 C96.5894109,14.2878049 97.0002589,14.2601626 97.3824431,14.204878 Z M115.444776,5 C116.732772,5 117.945005,5.30185366 119.081472,5.90556098 C120.21794,6.50926829 121.127114,7.33337669 121.808995,8.37788618 C122.490875,9.42239566 122.831815,10.5579404 122.831815,11.7845203 C122.831815,12.5128022 122.699228,13.241084 122.434052,13.9693659 C121.638524,14.1418537 120.975585,14.2280976 120.445233,14.2280976 C119.725471,14.2280976 118.731061,14.103523 117.462006,13.854374 L117.376771,12.7619512 C117.338888,11.8803469 117.229977,11.2143523 117.050036,10.7639675 C116.870096,10.3135827 116.486538,10.0979729 115.899363,10.1171382 C115.880422,10.1171382 115.856745,10.1219295 115.828334,10.1315122 C115.799922,10.1410949 115.757304,10.1458862 115.700481,10.1458862 L115.728893,10.1458862 C115.141718,10.2417127 114.819719,10.4429485 114.762895,10.7495935 C114.725013,10.8262547 114.67766,11.4299621 114.620837,12.5607154 C114.564013,13.6914688 114.535602,14.8413875 114.535602,16.0104715 C114.535602,17.1987209 114.564013,18.1953171 114.620837,19.0002602 C114.67766,19.5177236 114.829189,20.020813 115.075424,20.5095285 C115.321658,20.9982439 115.615246,21.3288455 115.956186,21.5013333 C116.619126,21.539664 117.121066,21.233019 117.462006,20.5813984 L117.433594,20.5813984 C117.604064,20.2172575 117.689299,19.6710461 117.689299,18.9427642 C117.689299,18.3678049 117.727182,17.9174201 117.802946,17.5916098 C118.276474,17.668271 118.731061,17.7066016 119.166707,17.7066016 L120.473645,17.6778537 C121.155526,17.6778537 121.799524,17.7545149 122.40564,17.9078374 C122.632934,18.5786233 122.74658,19.2781572 122.74658,20.006439 C122.74658,21.0988618 122.476669,22.1337886 121.936847,23.1112195 C121.397025,24.0886504 120.653586,24.8840108 119.706529,25.4973008 C118.759473,26.1105908 117.70824,26.4364011 116.552832,26.4747317 C116.211891,26.5322276 115.814128,26.5609756 115.359541,26.5609756 C113.882133,26.5609756 112.584666,26.2255827 111.467139,25.5547967 C110.349612,24.8840108 109.724555,23.877832 109.591967,22.5362602 C109.497262,20.619729 109.449909,18.559458 109.449909,16.3554472 C109.449909,14.5347425 109.459379,13.0398482 109.478321,11.8707642 L109.506732,10.5771057 C109.487791,10.289626 109.511468,9.95902439 109.577762,9.58530081 C109.644055,9.21157724 109.734026,8.88097561 109.847673,8.59349593 C110.018143,8.15269377 110.240701,7.7118916 110.515347,7.27108943 C110.789994,6.83028726 111.078846,6.46614634 111.381904,6.17866667 C111.779668,5.85285637 112.366843,5.57495935 113.143429,5.34497561 C113.882133,5.11499187 114.649248,5 115.444776,5 Z M131.88855,6.43739837 C132.120774,7.31193201 132.333646,8.17251033 132.527166,9.01913332 C132.720686,9.86575631 132.894854,10.6239956 133.04967,11.2938511 C133.668934,13.8802379 134.085002,15.6013945 134.297874,16.457321 L136.213722,26.3656011 C135.594458,26.4958508 134.926814,26.5609756 134.21079,26.5609756 C133.359302,26.5609756 132.430406,26.4586366 131.424102,26.2539585 C131.288638,25.9004236 131.075766,25.1561397 130.785487,24.0211066 C130.495207,22.8674665 130.262983,22.1045755 130.088815,21.7324335 L129.508255,21.7045229 L129.014779,21.7324335 C128.937371,21.9557187 128.811583,22.5046281 128.637415,23.3791617 C128.501951,24.1048386 128.366487,24.695614 128.231023,25.1514879 C128.095559,25.6073618 127.902039,26.0213697 127.650463,26.3935117 C127.456943,26.4307259 127.166663,26.449333 126.779623,26.449333 C126.605455,26.449333 126.228091,26.4307259 125.647531,26.3935117 C123.963907,26.3190833 123.025335,26.2818691 122.831815,26.2818691 C122.831815,26.1888336 122.851167,25.9702002 122.889871,25.6259689 C122.928575,25.2817376 122.986631,24.8956403 123.064039,24.467677 L123.702655,20.9509354 C124.205807,18.0668351 124.684769,15.5548767 125.139541,13.4150604 C125.594313,11.275244 126.189387,9.01448154 126.924763,6.63277291 C127.195691,6.59555871 127.563379,6.57695161 128.027827,6.57695161 L128.201995,6.57695161 C129.459875,6.57695161 130.688727,6.53043387 131.88855,6.43739837 Z M151.403259,6.43739837 C152.073311,6.43739837 152.628498,6.56004559 153.068818,6.80534001 C153.241117,7.50348568 153.504352,8.37145057 153.858523,9.40923467 C154.212693,10.4470188 154.552506,11.3715901 154.87796,12.1829486 C154.973682,11.9942605 155.279991,11.13573 155.796889,9.60735709 C156.37122,7.90916492 156.696674,6.98459363 156.773251,6.83364321 C157.826191,6.62608639 158.869559,6.52230798 159.903354,6.52230798 C160.535118,6.52230798 161.090304,6.56004559 161.568913,6.63552079 C161.109449,8.33371297 160.54469,9.97058153 159.874637,11.5461265 C159.204585,13.1216715 158.295228,15.0981785 157.146566,17.4756475 C156.227637,19.3247901 155.461863,20.9427898 154.849243,22.3296468 C154.236624,23.7165037 153.69101,25.1269467 153.212401,26.5609756 C152.752936,26.5043692 152.312616,26.476066 151.89144,26.476066 C151.604275,26.476066 151.211815,26.4949348 150.714062,26.5326724 L149.507967,26.5609756 C149.172711,26.5609756 148.793422,26.5392762 148.3701,26.4958773 C148.175084,26.5355481 147.904799,26.5554258 147.558327,26.5554258 C147.463788,26.5739251 146.962735,26.5461761 146.055166,26.4721788 C145.828274,26.4536795 145.539932,26.4351801 145.19014,26.4166808 C144.840348,26.3981815 144.637091,26.3981815 144.580368,26.4166808 L143.445907,23.9470195 C142.254724,21.3941112 141.470055,19.6274246 141.091902,18.6469599 L141.091902,23.9747685 C141.091902,25.1217273 141.101356,25.9079491 141.120263,26.3334338 C140.609756,26.4814285 140.05198,26.5554258 139.446934,26.5554258 C139.257857,26.5554258 138.974242,26.5369265 138.596089,26.4999278 C138.18012,26.4629291 137.877597,26.4444298 137.688521,26.4444298 L136.298806,26.3889318 L136.298806,24.3077565 C136.298806,23.1237991 136.279899,21.4403595 136.242083,19.2574379 C136.223176,18.1659771 136.213722,16.5102866 136.213722,14.2903663 C136.213722,11.3119733 136.298806,8.814563 136.468976,6.79813542 C136.979483,6.66864007 137.546713,6.60389239 138.170666,6.60389239 C138.586635,6.60389239 139.092415,6.64089107 139.688007,6.71488841 C140.283599,6.78888575 140.694841,6.89988176 140.921733,7.04787645 C141.18644,7.52885917 141.512598,8.19946009 141.900205,9.05967919 C142.287812,9.9198983 142.661239,10.7754926 143.020485,11.626462 L144.154945,14.1793703 C144.121331,13.0283005 144.102657,11.6945213 144.098922,10.1780325 L144.098801,9.01748938 C144.101116,7.90526402 144.110377,7.11923103 144.126584,6.6593904 C144.901798,6.51139572 145.724282,6.43739837 146.594035,6.43739837 C147.255668,6.43739837 147.940133,6.50441725 148.647431,6.63845499 C148.998487,6.63855272 149.467077,6.60841749 150.053582,6.55061119 C150.666201,6.47513598 151.116094,6.43739837 151.403259,6.43739837 Z M148.891,8.394 L148.891411,24.5072318 C149.374939,23.2019007 150.020778,21.5184473 150.828928,19.4568717 L152.006306,16.5133386 C151.814863,15.7585865 151.575558,15.017986 151.288393,14.2915372 C151.001227,13.5650883 150.637485,12.7018406 150.197164,11.7017941 C149.680267,10.4375844 149.292593,9.46584108 149.034145,8.78656421 L148.891,8.394 Z M129.508255,12.2986345 C129.508255,12.2986345 129.488903,12.5219196 129.450199,12.96849 C129.392143,14.3640224 129.305059,15.4711448 129.188947,16.2898571 L128.927695,18.1598706 L130.146871,18.1598706 C129.721127,14.4384508 129.517931,12.5777409 129.537283,12.5777409 L129.508255,12.2986345 Z M174.163468,11.3225702 C174.218828,11.8962078 174.246509,12.4790977 174.246509,13.0712397 L174.218828,13.5708595 L174.218828,14.0704794 C174.181921,14.6811259 174.163468,15.5785912 174.163468,16.7628752 C174.163468,18.0766904 174.135787,19.0759301 174.080427,19.7605943 L173.997386,20.6765641 C173.905118,22.1754236 173.52682,23.4522299 172.862492,24.5069829 C172.585688,24.8955761 172.170483,25.2379082 171.616877,25.5339793 C171.06327,25.8300503 170.454302,26.070608 169.789974,26.2556524 C169.107192,26.4592012 168.304463,26.5609756 167.381785,26.5609756 C166.957353,26.5609756 166.662096,26.5517234 166.496014,26.533219 C165.591789,26.4592012 164.784446,26.2602785 164.073984,25.9364508 C163.363522,25.6126231 162.842209,25.1361338 162.510045,24.5069829 C162.067159,23.6742832 161.827263,22.6287824 161.790356,21.3704805 L161.734995,20.4822675 C161.716542,20.3342319 161.707315,20.0289087 161.707315,19.5662977 C161.615047,18.0489337 161.568913,16.5963353 161.568913,15.2085024 C161.568913,14.3572982 161.596594,13.506094 161.651954,12.6548898 C161.707315,11.7296679 161.868784,10.8275765 162.13636,9.94861564 C162.403937,9.0696548 162.814528,8.29709448 163.368135,7.63093468 L163.977103,7.29785478 C165.158131,6.72421718 166.44988,6.43739837 167.85235,6.43739837 C168.738121,6.43739837 169.573145,6.55305112 170.357421,6.7843566 C171.141697,7.01566209 171.829092,7.3533681 172.419606,7.79747463 C173.065481,8.38961667 173.489913,8.97250649 173.692902,9.5461441 C173.914345,10.1382861 174.0712,10.7304282 174.163468,11.3225702 Z M169.873015,14.348046 L169.762294,12.9046997 C169.725387,12.3865755 169.600825,11.9285906 169.388609,11.5307452 C169.176393,11.1328997 168.904203,10.850707 168.572039,10.6841671 C168.424411,10.6286538 168.276782,10.6008971 168.129154,10.6008971 C167.686268,10.6008971 167.25261,10.7489326 166.828178,11.0450036 C166.606735,11.230048 166.389906,11.4937363 166.17769,11.8360684 C165.965474,12.1784005 165.804005,12.5253588 165.693284,12.8769431 C165.508748,13.6911384 165.41648,14.727387 165.41648,15.9856888 C165.41648,16.6148397 165.425707,17.0867029 165.444161,17.4012784 L165.444161,17.3735217 C165.517975,17.7436105 165.573336,18.2339781 165.610243,18.8446246 L165.637923,19.2332178 C165.711737,20.1584398 165.813232,20.843104 165.942407,21.2872105 L165.942407,21.2594539 C166.108489,21.6295427 166.352999,21.9117354 166.675936,22.106032 C166.998873,22.3003286 167.344877,22.3974769 167.713949,22.3974769 C168.009206,22.3974769 168.309076,22.3280852 168.61356,22.1893019 C168.918043,22.0505186 169.181007,21.8515959 169.402449,21.5925338 C169.586985,21.3519761 169.70232,21.1484272 169.748454,20.9818873 C169.794587,20.8153474 169.817654,20.5562852 169.817654,20.2047009 C169.817654,19.8901254 169.826881,19.6588199 169.845335,19.5107844 L169.873015,19.1499479 L169.900695,18.6225713 L169.900695,18.2339781 L169.928376,17.7066016 L169.928376,16.374282 L169.873015,14.4868293 L169.873015,14.348046 Z M182.183005,23.9470195 C180.991822,21.3941112 180.207153,19.6274246 179.829,18.6469599 L179.829,23.9747685 C179.829,25.1217273 179.838453,25.9079491 179.857361,26.3334338 C179.346854,26.4814285 178.789078,26.5554258 178.184032,26.5554258 C177.994955,26.5554258 177.71134,26.5369265 177.333187,26.4999278 C176.917218,26.4629291 176.614695,26.4444298 176.425618,26.4444298 L175.035904,26.3889318 L175.035904,24.3077565 C175.035904,23.1237991 175.016997,21.4403595 174.979181,19.2574379 C174.960274,18.1659771 174.95082,16.5102866 174.95082,14.2903663 C174.95082,11.3119733 175.035904,8.814563 175.206073,6.79813542 C175.71658,6.66864007 176.283811,6.60389239 176.907764,6.60389239 C177.323733,6.60389239 177.829513,6.64089107 178.425105,6.71488841 C179.020697,6.78888575 179.431938,6.89988176 179.658831,7.04787645 C179.923538,7.52885917 180.249695,8.19946009 180.637303,9.05967919 C181.02491,9.9198983 181.398337,10.7754926 181.757582,11.626462 L182.892043,14.1793703 C182.854228,12.8844168 182.83532,11.3582216 182.83532,9.60078476 C182.83532,8.17633592 182.844774,7.19587113 182.863681,6.6593904 C183.638896,6.51139572 184.46138,6.43739837 185.331133,6.43739837 C186.068532,6.43739837 186.834293,6.52064538 187.628415,6.6871394 L187.628415,26.3611828 C187.571692,26.3611828 187.458246,26.3889318 187.288077,26.4444298 C187.099,26.5184271 186.768116,26.5554258 186.295424,26.5554258 C186.200886,26.5739251 185.699833,26.5461761 184.792264,26.4721788 C184.565372,26.4536795 184.27703,26.4351801 183.927238,26.4166808 C183.577446,26.3981815 183.374189,26.3981815 183.317466,26.4166808 L182.183005,23.9470195 Z M116.63388,57 L116.63388,37.0473363 L117.601382,37.0473363 L117.618792,38.6114249 C118.461107,38.032071 119.271504,37.6063864 120.049982,37.334371 C120.828461,37.0623556 121.608045,36.9263479 122.388734,36.9263479 C123.872182,36.9263479 125.019795,37.5337238 125.831573,38.7484756 C126.643352,39.9632274 127.049241,41.6866175 127.049241,43.9186457 C127.049241,45.714003 126.830648,47.1838736 126.393462,48.3282574 C125.956276,49.4726412 125.287094,50.3139976 124.385917,50.8523267 C123.484739,51.3906558 122.338162,51.6598203 120.946186,51.6598203 C120.470864,51.6598203 119.963278,51.6263746 119.423427,51.5594833 C118.883577,51.492592 118.294606,51.396288 117.656514,51.2705712 L117.656514,57 L116.63388,57 Z M120.83758,50.8370988 C122.034729,50.8370988 123.011213,50.6091677 123.76703,50.1533055 C124.522848,49.6974433 125.08529,48.9645593 125.454355,47.9546534 C125.823421,46.9447475 126.007954,45.6177685 126.007954,43.9737163 C126.007954,42.6486842 125.854303,41.5315576 125.547002,40.6223363 C125.2397,39.7131151 124.792773,39.0197957 124.20622,38.542378 C123.619667,38.0649604 122.916563,37.8262516 122.096908,37.8262516 C121.610808,37.8262516 121.13742,37.880905 120.676745,37.9902118 C120.216069,38.0995186 119.744477,38.2721705 119.26197,38.5081675 C118.779462,38.7441645 118.244034,39.0646448 117.655685,39.4696085 L117.655685,50.4253209 C118.315332,50.562163 118.901471,50.6650032 119.414101,50.7338415 C119.92673,50.8026797 120.401223,50.8370988 120.83758,50.8370988 Z M131.105555,37.1933569 L131.105555,39.0065148 C131.632555,38.5211703 132.145876,38.1274711 132.645517,37.8254172 C133.145158,37.5233633 133.649497,37.2980049 134.158534,37.1493421 C134.667571,37.0006793 135.182411,36.9263479 135.703055,36.9263479 C136.107355,36.9263479 136.49694,36.9532574 136.871809,37.0070764 C137.246678,37.0608954 137.572011,37.1348096 137.847809,37.228819 L137.654225,38.1616816 C137.341121,38.0735131 137.008602,38.0043967 136.65667,37.9543325 C136.304738,37.9042683 135.9707,37.8792362 135.654556,37.8792362 C134.936874,37.8792362 134.206826,38.0438917 133.464411,38.3732028 C132.721997,38.7025139 131.95326,39.261564 131.1582,40.050353 L131.1582,51.3928113 L130.139297,51.3928113 L130.139297,37.1933569 L131.105555,37.1933569 Z M139.095874,44.2661746 C139.095874,42.9503209 139.19916,41.8259628 139.405732,40.8931001 C139.612304,39.9602375 139.942197,39.2041988 140.395411,38.624984 C140.848625,38.0457691 141.441673,37.6178594 142.174554,37.3412548 C142.907434,37.0646502 143.807507,36.9263479 144.874771,36.9263479 C145.941759,36.9263479 146.845355,37.0646502 147.585559,37.3412548 C148.325763,37.6178594 148.922472,38.0457691 149.375686,38.624984 C149.828901,39.2041988 150.158794,39.9602375 150.365365,40.8931001 C150.571937,41.8259628 150.675223,42.9503209 150.675223,44.2661746 C150.675223,45.61457 150.563094,46.7604835 150.338836,47.7039153 C150.114578,48.647347 149.770591,49.4086703 149.306875,49.9878851 C148.843159,50.5670999 148.24569,50.9905595 147.514468,51.2582638 C146.783245,51.5259681 145.903346,51.6598203 144.874771,51.6598203 C143.860566,51.6598203 142.987852,51.5259681 142.25663,51.2582638 C141.525407,50.9905595 140.927938,50.5670999 140.464222,49.9878851 C140.000507,49.4086703 139.65652,48.647347 139.432262,47.7039153 C139.208004,46.7604835 139.095874,45.61457 139.095874,44.2661746 Z M140.132602,44.2661746 C140.132602,45.8626658 140.293922,47.1389549 140.61656,48.0950417 C140.939199,49.0511286 141.452451,49.7396502 142.156314,50.1606065 C142.860178,50.5815629 143.766331,50.7920411 144.874771,50.7920411 C146.000898,50.7920411 146.915064,50.5815629 147.61727,50.1606065 C148.319476,49.7396502 148.831898,49.0511286 149.154537,48.0950417 C149.477176,47.1389549 149.638495,45.8626658 149.638495,44.2661746 C149.638495,42.7022251 149.489681,41.4467266 149.192052,40.4996791 C148.894422,39.5526316 148.398098,38.8649444 147.703077,38.4366175 C147.008056,38.0082905 146.065288,37.7941271 144.874771,37.7941271 C143.698625,37.7941271 142.763041,38.0082905 142.068021,38.4366175 C141.373,38.8649444 140.876675,39.5526316 140.579046,40.4996791 C140.281417,41.4467266 140.132602,42.7022251 140.132602,44.2661746 Z M162.60403,51.3978177 L162.423712,49.9993582 C161.576422,50.5851091 160.780119,51.0082905 160.034803,51.2689024 C159.289486,51.5295143 158.527727,51.6598203 157.749525,51.6598203 C156.251431,51.6598203 155.089585,51.0558515 154.263989,49.847914 C153.438393,48.6399765 153.025595,46.9154044 153.025595,44.6741977 C153.025595,42.8649337 153.242599,41.3906825 153.676607,40.2514442 C154.110615,39.1122058 154.779313,38.2732135 155.682702,37.7344673 C156.586091,37.195721 157.731424,36.9263479 159.118702,36.9263479 C159.62691,36.9263479 160.160818,36.9550653 160.720427,37.0125 C161.280037,37.0699347 161.846278,37.1651262 162.419152,37.2980745 L162.419152,31.6341463 L163.446346,31.6341463 L163.446346,51.3978177 L162.60403,51.3978177 Z M162.419152,49.1165597 L162.419152,38.1658537 C161.770834,38.0265083 161.186837,37.9236682 160.667161,37.8573331 C160.147484,37.7909981 159.667395,37.7578306 159.226893,37.7578306 C158.054063,37.7578306 157.083521,37.9873609 156.315268,38.4464217 C155.547014,38.9054825 154.981049,39.6357242 154.617372,40.637147 C154.253695,41.6385697 154.071857,42.9665918 154.071857,44.6212131 C154.071857,45.937623 154.228755,47.0531504 154.54255,47.9677953 C154.856346,48.8824401 155.303619,49.5745774 155.884369,50.0442073 C156.465118,50.5138372 157.161728,50.7486521 157.974198,50.7486521 C158.469693,50.7486521 158.947088,50.6948331 159.406382,50.5871951 C159.865676,50.4795571 160.337406,50.3055145 160.821572,50.0650674 C161.305737,49.8246202 161.838264,49.508451 162.419152,49.1165597 Z M170.937696,51.6598203 C170.181602,51.6598203 169.529554,51.5231868 168.981552,51.2499198 C168.433549,50.9766528 168.010941,50.572454 167.713726,50.0373235 C167.416512,49.502193 167.267904,48.8373128 167.267904,48.0426829 L167.267904,37.1933569 L168.289709,37.1933569 L168.289709,47.9091784 C168.289709,48.7847454 168.53801,49.4778562 169.034611,49.9885109 C169.531212,50.4991656 170.273903,50.7544929 171.262684,50.7544929 C171.81649,50.7544929 172.345631,50.691426 172.850109,50.565292 C173.354586,50.4391581 173.853467,50.2651851 174.346752,50.0433729 C174.840037,49.8215608 175.344376,49.572561 175.859769,49.2963736 L175.859769,37.1933569 L176.88033,37.1933569 L176.88033,49.044801 C176.88033,49.4689559 176.93035,49.8090447 177.030389,50.0650674 C177.130427,50.3210901 177.268188,50.5005563 177.44367,50.603466 C177.619153,50.7063757 177.810663,50.7578306 178.018202,50.7578306 C178.28488,50.7578306 178.550038,50.6953894 178.813676,50.5705071 L179.011819,51.3598524 C178.869775,51.4227107 178.7278,51.4765297 178.585895,51.5213094 C178.443989,51.566089 178.302774,51.6003691 178.16225,51.6241496 C178.021726,51.64793 177.880027,51.6598203 177.737154,51.6598203 C177.341697,51.6598203 176.975257,51.5331996 176.637833,51.2799583 C176.30041,51.0267169 176.083475,50.6355905 175.987028,50.1065789 C175.43875,50.402792 174.896758,50.670844 174.361053,50.9107349 C173.825348,51.1506258 173.280317,51.3354461 172.725958,51.4651958 C172.1716,51.5949454 171.575513,51.6598203 170.937696,51.6598203 Z M180.325112,44.5285944 C180.325112,42.7871951 180.565813,41.3550118 181.047215,40.2320443 C181.528617,39.1090768 182.234623,38.2773855 183.165232,37.7369705 C184.095841,37.1965554 185.220103,36.9263479 186.538016,36.9263479 C186.934855,36.9263479 187.358638,36.9485986 187.809365,36.9931001 C188.260093,37.0376016 188.712132,37.0962184 189.165485,37.1689506 C189.618837,37.2416827 190.034399,37.3331194 190.412169,37.4432606 L190.243872,38.3494223 C189.866102,38.2459564 189.464979,38.159387 189.040505,38.0897144 C188.616032,38.0200417 188.192387,37.963789 187.769571,37.9209564 C187.346755,37.8781237 186.940797,37.8567073 186.551696,37.8567073 C185.453204,37.8567073 184.516308,38.0995881 183.741007,38.5853498 C182.965707,39.0711115 182.376183,39.8078199 181.972435,40.795475 C181.568688,41.7831301 181.366814,43.0461382 181.366814,44.5844994 C181.366814,45.9787869 181.565855,47.1292897 181.963938,48.0360077 C182.36202,48.9427257 182.945879,49.6190789 183.715514,50.0650674 C184.485149,50.5110558 185.419213,50.7340501 186.517705,50.7340501 C186.924492,50.7340501 187.355391,50.7126337 187.810402,50.669801 C188.265412,50.6269683 188.724844,50.5626498 189.188698,50.4768453 C189.652552,50.3910409 190.082207,50.3036371 190.477664,50.2146341 L190.655496,51.1020218 C190.064106,51.2538832 189.378274,51.3848149 188.598,51.4948171 C187.817725,51.6048192 187.075656,51.6598203 186.371792,51.6598203 C184.386769,51.6598203 182.882733,51.0788671 181.859684,49.9169608 C180.836636,48.7550546 180.325112,46.9589324 180.325112,44.5285944 Z M197.818176,51.6598203 C196.989678,51.6598203 196.311515,51.5044127 195.783686,51.1935976 C195.255857,50.8827824 194.870349,50.4261553 194.627161,49.8237163 C194.383972,49.2212773 194.262378,48.4839431 194.262378,47.6117137 L194.262378,38.0515404 L191.607759,38.0515404 L191.607759,37.3573171 L194.262378,37.1933569 L194.434821,33.6525674 L195.282525,33.6525674 L195.282525,37.1933569 L200.665135,37.1933569 L200.665135,38.0532092 L195.282525,38.0532092 L195.282525,47.566656 C195.282525,48.6574989 195.499391,49.4579696 195.933122,49.968068 C196.366854,50.4781665 197.073136,50.7332157 198.051968,50.7332157 C198.546911,50.7332157 199.030041,50.6889923 199.501356,50.6005456 C199.972671,50.5120988 200.435765,50.3906932 200.890637,50.2363286 L201.076344,51.0924262 C200.46644,51.2918485 199.88417,51.4362698 199.329535,51.52569 C198.7749,51.6151102 198.271114,51.6598203 197.818176,51.6598203 Z M203.754535,33.5749679 C203.460778,33.5749679 203.265607,33.5325524 203.169023,33.4477214 C203.072439,33.3628905 203.024148,33.1794608 203.024148,32.8974326 C203.024148,32.61457 203.070437,32.4307231 203.163015,32.3458922 C203.255593,32.2610612 203.452915,32.2186457 203.75498,32.2186457 C204.067432,32.2186457 204.267127,32.2610612 204.354068,32.3458922 C204.441008,32.4307231 204.484478,32.61457 204.484478,32.8974326 C204.484478,33.1794608 204.441231,33.3628905 204.354735,33.4477214 C204.26824,33.5325524 204.068173,33.5749679 203.754535,33.5749679 Z M203.206633,51.3928113 L203.206633,37.1933569 L204.301992,37.1933569 L204.301992,51.3928113 L203.206633,51.3928113 Z M207.302986,44.2661746 C207.302986,42.9503209 207.406272,41.8259628 207.612843,40.8931001 C207.819415,39.9602375 208.149308,39.2041988 208.602523,38.624984 C209.055737,38.0457691 209.648784,37.6178594 210.381665,37.3412548 C211.114546,37.0646502 212.014618,36.9263479 213.081882,36.9263479 C214.14887,36.9263479 215.052466,37.0646502 215.79267,37.3412548 C216.532874,37.6178594 217.129583,38.0457691 217.582798,38.624984 C218.036012,39.2041988 218.365905,39.9602375 218.572477,40.8931001 C218.779048,41.8259628 218.882334,42.9503209 218.882334,44.2661746 C218.882334,45.61457 218.770205,46.7604835 218.545947,47.7039153 C218.321689,48.647347 217.977702,49.4086703 217.513986,49.9878851 C217.050271,50.5670999 216.452802,50.9905595 215.721579,51.2582638 C214.990357,51.5259681 214.110458,51.6598203 213.081882,51.6598203 C212.067677,51.6598203 211.194963,51.5259681 210.463741,51.2582638 C209.732518,50.9905595 209.135049,50.5670999 208.671334,49.9878851 C208.207618,49.4086703 207.863631,48.647347 207.639373,47.7039153 C207.415115,46.7604835 207.302986,45.61457 207.302986,44.2661746 Z M208.339714,44.2661746 C208.339714,45.8626658 208.501033,47.1389549 208.823672,48.0950417 C209.146311,49.0511286 209.659562,49.7396502 210.363426,50.1606065 C211.06729,50.5815629 211.973442,50.7920411 213.081882,50.7920411 C214.208009,50.7920411 215.122176,50.5815629 215.824382,50.1606065 C216.526587,49.7396502 217.03901,49.0511286 217.361648,48.0950417 C217.684287,47.1389549 217.845607,45.8626658 217.845607,44.2661746 C217.845607,42.7022251 217.696792,41.4467266 217.399163,40.4996791 C217.101534,39.5526316 216.605209,38.8649444 215.910188,38.4366175 C215.215168,38.0082905 214.272399,37.7941271 213.081882,37.7941271 C211.905736,37.7941271 210.970153,38.0082905 210.275132,38.4366175 C209.580111,38.8649444 209.083786,39.5526316 208.786157,40.4996791 C208.488528,41.4467266 208.339714,42.7022251 208.339714,44.2661746 Z M221.970976,51.3928113 L221.970976,37.1933569 L222.938478,37.1933569 L222.938478,38.4487163 C223.519642,38.1455499 224.0854,37.8804183 224.635752,37.6533216 C225.186103,37.4262249 225.752275,37.2482884 226.334269,37.1195122 C226.916262,36.990736 227.534319,36.9263479 228.18844,36.9263479 C228.994001,36.9263479 229.680524,37.066319 230.248009,37.3462612 C230.815494,37.6262035 231.249364,38.0456996 231.549618,38.6047497 C231.849873,39.1637997 232,39.8627514 232,40.7016046 L232,51.3928113 L230.978195,51.3928113 L230.978195,40.8847561 C230.978195,39.926027 230.726164,39.1781237 230.222101,38.6410462 C229.718038,38.1039688 228.928506,37.83543 227.853504,37.83543 C227.268747,37.83543 226.710589,37.8975931 226.179029,38.0219191 C225.64747,38.1462452 225.121921,38.316672 224.602382,38.5331996 C224.082844,38.7497272 223.54631,39.006932 222.992781,39.3048139 L222.992781,51.3928113 L221.970976,51.3928113 Z M0,31.6341463 L11.4098361,31.6341463 L11.4098361,32.902439 L0,32.902439 Z M19.9804189,39.2439024 L19.9804189,50.6585366 L19.3201275,50.6585366 L19.3201275,39.2439024 L19.9804189,39.2439024 Z M0,19.2570966 C0,18.3710335 0.184363727,17.6497426 0.553091182,17.0932237 C0.921818636,16.5367048 1.46502006,16.0920931 2.18269546,15.7593885 C2.90037087,15.4266839 3.77862113,15.1637955 4.81744625,14.9707234 C5.85627136,14.7776513 7.05286479,14.610868 8.40722653,14.4703736 L8.40722653,11.732025 C8.40722653,10.7017325 8.11942132,9.90638746 7.5438109,9.34598992 C6.96820048,8.78559239 6.10090913,8.50539362 4.94193687,8.50539362 C4.59980483,8.50539362 4.22392735,8.52378144 3.81430443,8.56055708 C3.4046815,8.59733272 2.97788515,8.66169009 2.53391538,8.75362918 C2.08994561,8.84556828 1.6269982,8.97428302 1.14507315,9.1397734 L0.921751814,8.22311185 C1.63247766,7.99584989 2.3305072,7.82461332 3.01584043,7.70940214 C3.70117366,7.59419096 4.34855162,7.53658537 4.95797431,7.53658537 C5.89643179,7.53658537 6.6943612,7.69029605 7.35176256,7.99771741 C8.00916392,8.30513877 8.5115367,8.76627081 8.8588809,9.38111353 C9.20622511,9.99595625 9.37989721,10.7780132 9.37989721,11.7272844 L9.37989721,19.9914601 C9.37989721,20.6904846 9.4736494,21.1658385 9.6611538,21.4175217 C9.84865819,21.669205 10.1097343,21.7950467 10.4443822,21.7950467 C10.5718799,21.7950467 10.6989766,21.7820459 10.8256723,21.7560444 C10.9523681,21.7300429 11.0881518,21.6819903 11.2330233,21.6118867 L11.4098361,22.4432173 C11.2032204,22.5518204 11.0017501,22.6311178 10.8054251,22.6811097 C10.6091001,22.7311016 10.4108373,22.7560976 10.2106366,22.7560976 C9.65574116,22.7560976 9.22640555,22.5696336 8.92262973,22.1967056 C8.6188539,21.8237776 8.45146313,21.2477217 8.42045741,20.4685379 C8.02112518,20.848074 7.55744272,21.2113052 7.02941004,21.5582317 C6.50137735,21.9051581 5.92082206,22.191534 5.28774415,22.4173594 C4.65466624,22.6431849 3.96792973,22.7560976 3.22753462,22.7560976 C2.73625441,22.7560976 2.29281921,22.6829772 1.89722905,22.5367366 C1.50163888,22.390496 1.16238022,22.1728589 0.879453068,21.8838254 C0.596525913,21.5947918 0.379218613,21.2314169 0.227531168,20.7937006 C0.0758437225,20.3559843 0,19.843783 0,19.2570966 Z M0.998330586,19.1041042 C0.998330586,20.0223459 1.22165193,20.7185691 1.6682946,21.1927737 C2.11493728,21.6669784 2.71406928,21.9040807 3.46569059,21.9040807 C4.05239358,21.9040807 4.6371587,21.8020858 5.21998597,21.5980959 C5.80281323,21.394106 6.36572735,21.1168522 6.90872831,20.7663343 C7.45172927,20.4158165 7.95122867,20.0240698 8.40722653,19.5910941 L8.40722653,15.243093 C7.32897603,15.3433641 6.33899828,15.4674819 5.43729327,15.6154463 C4.53558825,15.7634108 3.75169159,15.9754454 3.08560329,16.25155 C2.41951498,16.5276546 1.90511412,16.8952673 1.54240071,17.3543882 C1.17968729,17.8135091 0.998330586,18.3967477 0.998330586,19.1041042 Z M29.1584699,44.3170732 L40.568306,44.3170732 L40.568306,45.5853659 L29.1584699,45.5853659 Z M50.7103825,44.3170732 L62.1202186,44.3170732 L62.1202186,45.5853659 L50.7103825,45.5853659 Z M72.2622951,44.3170732 L83.6721311,44.3170732 L83.6721311,45.5853659 L72.2622951,45.5853659 Z M92.5464481,44.3170732 L103.956284,44.3170732 L103.956284,45.5853659 L92.5464481,45.5853659 Z"/><g transform="translate(199)"><path fill="#ED5F3B" d="M0.814587956,11.5535916 C-2.51832898,23.0121655 4.86734686,31.2981805 14.0421262,26.7144054 L26.5036165,26.7144054 C27.5002527,26.7144054 28.4083457,26.2882649 29.0665059,25.6029848 L29.0713697,25.5980324 C29.6395496,25.005697 30.0223526,24.2196405 30.1157596,23.3470889 C32.7585701,20.9620839 32.4869712,16.6878942 30.1383099,13.3119397 L30.1383099,7.94636949 C30.1383099,6.90762311 29.7295299,5.96159109 29.0713697,5.27573516 L29.0665059,5.27078271 C28.4083457,4.58515712 27.5002527,4.15924692 26.5036165,4.15924692 L22.2429303,4.15924692 L22.2429303,3.41257958 C22.2429303,2.47345795 21.8746082,1.61910374 21.2813355,1.00154546 C20.688726,0.38375684 19.868734,0 18.967384,0 L14.613954,0 C13.7119407,0 12.8929436,0.38375684 12.3000026,1.00154546 C11.7070615,1.61910374 11.3387394,2.47345795 11.3387394,3.41257958 L11.3387394,4.15924692 L7.07827425,4.15924692 C6.08086423,4.15924692 5.17354499,4.58515712 4.51527428,5.27078271 L4.51052102,5.27573516 C3.85247139,5.96159109 3.44380189,6.90762311 3.44380189,7.94636949 L3.44380189,13.4704179 C2.52752885,12.9673417 1.65138213,12.2636339 0.814587956,11.5535916 Z M13.8975388,4.15924692 L19.6837992,4.15924692 L19.6837992,3.41257958 C19.6837992,3.20837763 19.6029939,3.02156683 19.4728873,2.88600807 C19.3428913,2.75091 19.1632624,2.66602741 18.967384,2.66602741 L14.613954,2.66602741 C14.4182967,2.66602741 14.2387784,2.75091 14.1090034,2.88600807 C13.9788969,3.02156683 13.8975388,3.20837763 13.8975388,3.41257958 L13.8975388,4.15924692 Z"/><path fill="#000" d="M17.6716418 24C20.0159208 21.9073925 22.2703933 19.6854077 24.8578071 19.0046072 25.7622245 18.9557286 26.5551505 19.3005339 27.2238806 19.8122506L27.2238806 22.8254654C27.2238806 23.1480641 27.1055988 23.4414564 26.9153623 23.6542292L26.9105434 23.6595394C26.7173499 23.8695364 26.4511064 24 26.1582494 24L17.6716418 24ZM27.7014925 10.399349C23.8362911 7.43941736 17.7087636 6.63008758 10.4591022 11.8786708 9.64659843 12.4666995 8.91282347 12.9975879 8.35159133 13.3444101 7.61660515 13.7973163 6.90276015 13.9926233 6.20895522 14L6.20895522 7.63964217C6.20895522 7.32654208 6.32787434 7.04189499 6.51946624 6.83558147L6.52431109 6.83019531C6.71854564 6.62645778 6.98600353 6.5 7.28043844 6.5L26.6301194 6.5C26.9245543 6.5 27.1922325 6.62645778 27.386467 6.83019531L27.3913119 6.83558147C27.5825734 7.04189499 27.7014925 7.32654208 27.7014925 7.63964217L27.7014925 10.399349Z"/><path fill="#FFF" d="M18.7325779,14.0215055 C16.7893583,15.3869496 15.336057,16.7402966 12.9424742,17.960928 C12.9424742,17.960928 14.8061475,14.2391357 15.2764517,12 C12.5933419,14.999373 7.13864047,19.0686923 3.35724592,16.6461037 C3.18736539,20.4031303 4.55828709,23.2063661 7.98586376,24.5882528 C12.2141346,26.2925328 16.9522649,22.3987974 19.5820896,18.5455814 C18.3210072,19.0163108 17.3295108,19.6383125 15.8334943,19.6270375 C17.0653733,18.2159064 18.2593315,16.2289304 18.7325779,14.0215055 L18.7325779,14.0215055 Z"/></g></g></g></svg>