<svg xmlns="http://www.w3.org/2000/svg" width="428" height="267" viewBox="0 0 428 267"><g fill="none" fill-rule="evenodd"><g transform="translate(88)"><path fill="#ED5F3B" d="M6.44033603,87.4771939 C-19.9105385,174.234967 38.4824611,236.971938 111.020561,202.266213 L209.544218,202.266213 C217.423873,202.266213 224.603484,199.03972 229.807062,193.851171 L229.845517,193.813674 C234.337689,189.328849 237.364225,183.377278 238.102724,176.770816 C258.997444,158.712921 256.850116,126.351199 238.281013,100.7904 L238.281013,60.165369 C238.281013,52.300575 235.049096,45.1377611 229.845517,39.9448519 L229.807062,39.9073548 C224.603484,34.7161897 217.423873,31.491441 209.544218,31.491441 L175.858167,31.491441 L175.858167,25.8381025 C175.858167,18.7276102 172.946121,12.2589283 168.255559,7.58312992 C163.57024,2.9055875 157.087179,0 149.96088,0 L115.541574,0 C108.410032,0 101.934836,2.9055875 97.2468953,7.58312992 C92.5589549,12.2589283 89.6469084,18.7276102 89.6469084,25.8381025 L89.6469084,31.491441 L55.9626058,31.491441 C48.0768328,31.491441 40.9033401,34.7161897 35.6988873,39.9073548 L35.6613068,39.9448519 C30.4586019,45.1377611 27.2275587,52.300575 27.2275587,60.165369 L27.2275587,101.990307 C19.983275,98.1813015 13.05624,92.8532284 6.44033603,87.4771939 Z M109.877416,31.491441 L155.625038,31.491441 L155.625038,25.8381025 C155.625038,24.2920021 154.98617,22.8775774 153.957515,21.8512039 C152.929734,20.8283186 151.509543,20.1856361 149.96088,20.1856361 L115.541574,20.1856361 C113.994658,20.1856361 112.575342,20.8283186 111.549309,21.8512039 C110.520653,22.8775774 109.877416,24.2920021 109.877416,25.8381025 L109.877416,31.491441 Z"/><path fill="#000" d="M142 181C160.65167 165.933226 178.588817 149.934935 199.174927 145.033172 206.370699 144.681246 212.679416 147.163844 218 150.848205L218 172.543351C218 174.866062 217.058921 176.978486 215.545351 178.51045L215.507011 178.548684C213.969915 180.060662 211.851615 181 209.521572 181L142 181ZM217 81.115139C186.42733 59.0143163 137.96029 52.9713206 80.6174824 92.1607419 74.1908029 96.5513559 68.3868467 100.515323 63.9476564 103.104929 58.1341199 106.486628 52.4878043 107.944921 47 108L47 60.5093282C47 58.1715142 47.9406171 56.0461493 49.4560559 54.505675L49.4943773 54.4654583C51.0307186 52.9442181 53.1462363 52 55.4751346 52L208.525736 52C210.854635 52 212.971894 52.9442181 214.508236 54.4654583L214.546557 54.505675C216.059383 56.0461493 217 58.1715142 217 60.5093282L217 81.115139Z"/><path fill="#FFF" d="M147.146909,107.083541 C131.47077,117.271855 119.74685,127.369905 100.437588,136.477693 C100.437588,136.477693 115.472019,108.707397 119.266008,92 C97.6211046,114.379937 53.6175068,144.74332 23.1126355,126.667082 C21.742193,154.70028 32.8015494,175.616731 60.4521381,185.927732 C94.5620027,198.644283 132.784953,169.591027 154,140.840107 C143.826728,144.352473 135.828232,148.993562 123.759723,148.909434 C133.697409,138.380225 143.329185,123.554327 147.146909,107.083541 L147.146909,107.083541 Z"/></g><g fill-rule="nonzero" transform="translate(0 211)"><path fill="gray" d="M5.29120938 5.69311164C5.2534824 5.76901979 5.20632367 6.36679652 5.1497332 7.48644181 5.09314272 8.60608709 5.06484749 9.74470942 5.06484749 10.9023088 5.06484749 12.0788852 5.09314272 13.0656912 5.1497332 13.8627268 5.20632367 14.3751069 5.3572316 14.8732542 5.602457 15.3571686 5.84768239 15.8410831 6.1400665 16.1684371 6.47960935 16.3392304 7.13983156 16.3771845 7.63971408 16.0735519 7.97925693 15.4283325L7.95096169 15.4283325C8.12073312 15.0677688 8.20561883 14.5269232 8.20561883 13.8057957 8.20561883 13.2364846 8.24334581 12.7905241 8.31879978 12.4679145 8.79038707 12.5438226 9.24311087 12.5817767 9.67697117 12.5817767L10.9785521 12.5533112C11.6576378 12.5533112 12.2989965 12.6292193 12.9026282 12.7810356 13.1289901 13.445232 13.2421711 14.1378939 13.2421711 14.8590214 13.2421711 15.9407126 12.9733663 16.9654727 12.4357568 17.9333017 11.8981473 18.9011306 11.1577553 19.6886778 10.2145807 20.295943 9.2714061 20.9032082 8.22448232 21.2258179 7.07380934 21.263772 6.73426649 21.3207031 6.33813317 21.3491686 5.88540937 21.3491686 4.41405703 21.3491686 3.12190785 21.0170705 2.00896185 20.3528741.896015849 19.6886778.273520628 18.6923832.141476187 17.3639905.0471587289 15.4662866 0 13.4262549 0 11.2438955 0 9.4410768.00943174578 7.96086778.0282952373 6.80326841L.0565904747 5.52231829C.0377269831 5.23766271.0613063476 4.91030879.127328568 4.54025653.193350789 4.17020428.282952373 3.84285036.396133323 3.55819477.565904747 3.12172288.787550773 2.68525099 1.0610714 2.2487791 1.33459203 1.81230721 1.62226027 1.45174347 1.92407614 1.16708789 2.32020946.844478226 2.9049777.569311164 3.67838086.341586698 4.41405703.113862233 5.17802843 0 5.97029508 0 7.25301251 0 8.46027597.298888361 9.59208546.896665083 10.723895 1.49444181 11.6293426 2.31045447 12.3084282 3.34470309 12.9875139 4.3789517 13.3270568 5.50334125 13.3270568 6.71787173 13.3270568 7.43899921 13.1950124 8.16012668 12.9309235 8.88125416 12.1386568 9.05204751 11.4784346 9.13744418 10.9502569 9.13744418 10.2334442 9.13744418 9.24311087 9.01409343 7.97925693 8.76739192L7.89437122 7.68570071C7.85664424 6.81275693 7.74817916 6.15330483 7.56897599 5.70734442 7.38977282 5.26138401 7.00778712 5.04789232 6.42301888 5.06686936 6.40415539 5.06686936 6.38057602 5.07161362 6.35228078 5.08110214 6.32398555 5.09059066 6.28154269 5.09533492 6.22495222 5.09533492L6.25324745 5.09533492C5.66847922 5.19022011 5.34779986 5.38947902 5.29120938 5.69311164ZM26.6267954 19.1255203C26.6450075 19.3506999 26.6541136 19.6790868 26.6541136 20.110681 26.6541136 20.5047452 26.6222424 20.7815285 26.5585 20.9410307 26.4947577 21.1005329 26.3991441 21.1990489 26.2716594 21.2365789 26.1441747 21.2741088 25.9256295 21.2928738 25.6160237 21.2928738L25.4247966 21.2928738 24.9877061 21.2647263 24.2774341 21.2928738C23.1482837 21.3304037 21.4818763 21.3491686 19.2782118 21.3491686 17.1838199 21.3491686 15.5174124 21.3397862 14.2789894 21.3210212L14.2789894 20.6736299C14.4064741 17.5774107 14.4702165 14.4624265 14.4702165 11.3286774 14.4702165 10.4091941 14.4520044 8.82355457 14.4155802 6.57175878L14.4155802 5.89622004 14.4155802 4.85476449C14.3973681 4.53576009 14.388262 3.96342866 14.388262 3.1377702L14.3609439 1.30818612C14.6159133 1.2143613 14.9710493 1.1346102 15.4263519 1.06893282 15.8816545 1.00325545 16.3369571.970416757 16.7922597.970416757 17.3021986.970416757 17.8121375 1.00794669 18.3220763 1.08300655 18.8320152 1.15806641 19.2417876 1.26127371 19.5513933 1.39262847 19.5149691 2.74370594 19.496757 3.82269142 19.496757 4.62958491 19.496757 5.75548281 19.5149691 7.44432965 19.5513933 9.69612544 19.5696054 10.8220233 19.5787115 12.4827227 19.5787115 14.6782236L19.5787115 16.5078077C20.1797109 16.5078077 20.9173011 16.5359551 21.791482 16.59225L23.2393442 16.6485449C24.0042526 16.7048398 24.7236306 16.7329873 25.3974785 16.7329873 25.8709931 16.7329873 26.2898715 16.7142223 26.6541136 16.6766924 26.6541136 17.1082866 26.6450075 17.3897611 26.6267954 17.5211158L26.6267954 17.4929684C26.5903712 17.9996224 26.5812652 18.3655392 26.5994773 18.5907188L26.6267954 19.1255203ZM39.9811704 18.6435151C39.9811704 19.6221558 39.8816628 20.4952567 39.6826476 21.262818 38.886587 21.262818 37.7105884 21.282007 36.1546517 21.3203851L32.5995174 21.3491686C30.9893038 21.3491686 29.3790903 21.2916016 27.7688768 21.1764674 27.7869691 20.5624183 27.7598306 18.1733839 27.6874615 14.0093639 27.6331846 11.649113 27.6060462 9.8357495 27.6060462 8.56927339 27.6060462 5.94037602 27.6693692 3.49377445 27.7960152 1.22946869L30.1841971 1.14311804C32.8618555 1.02798385 34.9062839.970416757 36.3174823.970416757 37.5296655.970416757 38.7056642 1.01838934 39.8454782 1.1143345 39.9178474 1.51730417 39.9540319 1.98743545 39.9540319 2.52472834 39.9540319 2.81256382 39.9359397 3.2826951 39.8997551 3.93512219 39.8635705 4.54917121 39.8454782 5.02889701 39.8454782 5.37429958 38.759941 5.623757 37.5477578 5.7484857 36.2089286 5.7484857L32.6809327 5.77726925C32.5904712 6.67915375 32.5452405 7.42752599 32.5452405 8.02238598 32.5452405 8.48292275 32.5995174 8.88589242 32.7080711 9.23129499L34.4992075 9.00102661C34.7524995 9.00102661 35.1324375 9.02021564 35.6390215 9.05859371L35.9918211 9.08737725C36.0822826 9.66304821 36.1275133 10.2866917 36.1275133 10.9583079L36.0732364 13.2609917C35.4942833 13.433693 34.7163149 13.5200436 33.7393314 13.5200436L33.0337322 13.4912601C32.9070862 13.4912601 32.8256709 13.5104491 32.7894864 13.5488272L32.6809327 15.0455717C32.6809327 15.832322 32.7171172 16.4847491 32.7894864 17.0028529 33.7302853 17.0028529 34.6439458 17.0316365 35.5304678 17.0892036 35.8380367 17.1083926 36.2179747 17.1275816 36.6702819 17.1467707 37.1225891 17.1659597 37.6563115 17.1755542 38.2714493 17.1755542L39.9268935 17.1179871C39.9630781 18.0006826 39.9811704 18.5091919 39.9811704 18.6435151ZM52.3562945 1.31533216C51.8003107 4.47705672 51.172587 7.55255242 50.4731235 10.5418193 49.7736599 13.5310861 48.8948468 17.095212 47.836684 21.2341968 47.4421148 21.2341968 47.1730904 21.2437778 47.0296107 21.2629398L46.7605862 21.2916827C46.4377569 21.3300067 46.1059601 21.3491686 45.7651958 21.3491686 44.6352932 21.3491686 43.75648 21.2341968 43.1287563 21.0042532 41.5684146 15.1215294 40.5192193 8.63520355 39.9811704 1.54527577 40.142585 1.3536561 40.4743818 1.20994134 40.9765608 1.11413151 41.4787397 1.01832167 42.0347236.970416757 42.6445123.970416757 43.2184311.970416757 43.8640898 1.03748364 44.5814883 1.17161741L44.7429029 3.72974C44.8505127 5.62677473 44.96709 7.2699134 45.0926347 8.65915601 45.2181794 10.0483986 45.3975291 11.4232697 45.6306836 12.7837694 45.8459031 11.7298612 46.1776999 9.81366452 46.626074 7.03517931 47.1641229 3.64351115 47.5228221 1.62192363 47.7021718.970416757 48.4016353 1.12371249 49.1997411 1.20036036 50.0964893 1.20036036 50.9932374 1.20036036 51.6299286 1.23868429 52.0065628 1.31533216L52.3562945 1.31533216ZM65.6833513 18.6435151C65.6833513 19.6221558 65.5838438 20.4952567 65.3848286 21.262818 64.588768 21.262818 63.4127693 21.282007 61.8568327 21.3203851L58.3016983 21.3491686C56.6914848 21.3491686 55.0812713 21.2916016 53.4710577 21.1764674 53.48915 20.5624183 53.4620116 18.1733839 53.3896425 14.0093639 53.3353656 11.649113 53.3082272 9.8357495 53.3082272 8.56927339 53.3082272 5.94037602 53.3715502 3.49377445 53.4981962 1.22946869L55.886378 1.14311804C58.5640365 1.02798385 60.6084649.970416757 62.0196633.970416757 63.2318465.970416757 64.4078451 1.01838934 65.5476592 1.1143345 65.6200283 1.51730417 65.6562129 1.98743545 65.6562129 2.52472834 65.6562129 2.81256382 65.6381206 3.2826951 65.601936 3.93512219 65.5657515 4.54917121 65.5476592 5.02889701 65.5476592 5.37429958 64.462122 5.623757 63.2499388 5.7484857 61.9111095 5.7484857L58.3831136 5.77726925C58.2926522 6.67915375 58.2474215 7.42752599 58.2474215 8.02238598 58.2474215 8.48292275 58.3016983 8.88589242 58.410252 9.23129499L60.2013884 9.00102661C60.4546804 9.00102661 60.8346185 9.02021564 61.3412025 9.05859371L61.6940021 9.08737725C61.7844635 9.66304821 61.8296942 10.2866917 61.8296942 10.9583079L61.7754174 13.2609917C61.1964642 13.433693 60.4184959 13.5200436 59.4415124 13.5200436L58.7359132 13.4912601C58.6092672 13.4912601 58.5278519 13.5104491 58.4916673 13.5488272L58.3831136 15.0455717C58.3831136 15.832322 58.4192982 16.4847491 58.4916673 17.0028529 59.4324662 17.0028529 60.3461267 17.0316365 61.2326488 17.0892036 61.5402177 17.1083926 61.9201557 17.1275816 62.3724628 17.1467707 62.82477 17.1659597 63.3584925 17.1755542 63.9736302 17.1755542L65.6290745 17.1179871C65.665259 18.0006826 65.6833513 18.5091919 65.6833513 18.6435151ZM78.0086651 15.9745528C78.7465973 17.1129263 79.3415552 18.0740121 79.7935387 18.8578102 80.2455223 19.6416084 80.6191005 20.4347375 80.9142734 21.2371975L80.471514 21.2371975C80.2501343 21.2371975 79.7520301 21.2558593 78.9772012 21.2931831 78.2023723 21.3305068 77.584354 21.3491686 77.1231463 21.3491686 76.86487 21.3491686 76.4774556 21.3305068 75.960903 21.2931831L75.4904712 21.2651903C74.2913313 18.5032349 73.2213295 16.4317684 72.2804658 15.0507907L72.2804658 15.7786032C72.2804658 16.9356386 72.3450349 18.4285874 72.474173 20.2574498L72.474173 20.229457C72.4926213 20.36009 72.5018455 20.5840324 72.5018455 20.901284 71.8746031 21.1998738 70.8414979 21.3491686 69.40253 21.3491686L68.7383909 21.3211759 67.2717505 21.3211759C67.0688192 21.3211759 66.9673535 19.6322775 66.9673535 16.2544807 66.9673535 13.1939355 66.939681 10.1287249 66.8843361 7.05884881 66.8289912 3.98897273 66.7459738 2.14611398 66.635284 1.53027258L67.3824404 1.41830141C68.4893388 1.26900653 69.40253 1.15703536 70.1220139 1.08238792 70.8414979 1.00774048 71.5794302.970416757 72.3358107.970416757 73.1475362.970416757 73.8393477 1.00774048 74.4112452 1.08238792 75.481247 1.21302095 76.4820677 1.58625816 77.4137072 2.20209956 78.3453467 2.81794097 79.0925031 3.57374632 79.6551764 4.46951564 80.2178498 5.36528495 80.4991865 6.28904706 80.4991865 7.24080195 80.4991865 8.15523313 80.2040136 9.15364268 79.6136677 10.2360306 79.2447016 10.9078576 78.7558215 11.4677134 78.1470274 11.9155981 77.5382332 12.3634827 76.8095251 12.6340797 75.960903 12.727389 76.4590073 13.6231583 77.040129 14.5562513 77.704268 15.5266681 77.8334061 15.7506104 77.9348718 15.8999053 78.0086651 15.9745528ZM74.0238308 8.83639104C74.2821071 8.7617436 74.4850385 8.57512499 74.6326249 8.27653522 74.7802114 7.97794545 74.8540046 7.6233701 74.8540046 7.21280916 74.8540046 6.44767287 74.6695215 5.95313356 74.3005554 5.72919124 74.0607274 5.57989635 73.8162874 5.48658705 73.5672352 5.44926333 73.3181831 5.4119396 73.0368464 5.39327774 72.7232252 5.39327774L71.5333094 5.58922728C71.570206 6.1490831 71.5886543 6.62496055 71.5886543 7.01685962 71.5886543 8.0246001 71.6163268 8.64044151 71.6716717 8.86438383 71.9852929 8.90170756 72.3727074 8.92036942 72.833915 8.92036942 73.2582261 8.92036942 73.6548647 8.89237663 74.0238308 8.83639104ZM90.9651459 5.69311164C90.9274189 5.76901979 90.8802602 6.36679652 90.8236697 7.48644181 90.7670792 8.60608709 90.738784 9.74470942 90.738784 10.9023088 90.738784 12.0788852 90.7670792 13.0656912 90.8236697 13.8627268 90.8802602 14.3751069 91.0311681 14.8732542 91.2763935 15.3571686 91.5216189 15.8410831 91.814003 16.1684371 92.1535459 16.3392304 92.8137681 16.3771845 93.3136506 16.0735519 93.6531934 15.4283325L93.6248982 15.4283325C93.7946696 15.0677688 93.8795553 14.5269232 93.8795553 13.8057957 93.8795553 13.2364846 93.9172823 12.7905241 93.9927363 12.4679145 94.4643236 12.5438226 94.9170474 12.5817767 95.3509077 12.5817767L96.6524886 12.5533112C97.3315743 12.5533112 97.972933 12.6292193 98.5765647 12.7810356 98.8029266 13.445232 98.9161076 14.1378939 98.9161076 14.8590214 98.9161076 15.9407126 98.6473028 16.9654727 98.1096933 17.9333017 97.5720838 18.9011306 96.8316918 19.6886778 95.8885172 20.295943 94.9453426 20.9032082 93.8984188 21.2258179 92.7477459 21.263772 92.408203 21.3207031 92.0120697 21.3491686 91.5593459 21.3491686 90.0879935 21.3491686 88.7958444 21.0170705 87.6828984 20.3528741 86.5699524 19.6886778 85.9474571 18.6923832 85.8154127 17.3639905 85.7210952 15.4662866 85.6739365 13.4262549 85.6739365 11.2438955 85.6739365 9.4410768 85.6833683 7.96086778 85.7022318 6.80326841L85.730527 5.52231829C85.7116635 5.23766271 85.7352429 4.91030879 85.8012651 4.54025653 85.8672873 4.17020428 85.9568889 3.84285036 86.0700698 3.55819477 86.2398413 3.12172288 86.4614873 2.68525099 86.7350079 2.2487791 87.0085285 1.81230721 87.2961968 1.45174347 87.5980127 1.16708789 87.994146.844478226 88.5789142.569311164 89.3523174.341586698 90.0879935.113862233 90.8519649 0 91.6442316 0 92.926949 0 94.1342125.298888361 95.266022.896665083 96.3978315 1.49444181 97.3032791 2.31045447 97.9823648 3.34470309 98.6614505 4.3789517 99.0009933 5.50334125 99.0009933 6.71787173 99.0009933 7.43899921 98.8689489 8.16012668 98.60486 8.88125416 97.8125933 9.05204751 97.1523711 9.13744418 96.6241934 9.13744418 95.9073807 9.13744418 94.9170474 9.01409343 93.6531934 8.76739192L93.5683077 7.68570071C93.5305808 6.81275693 93.4221157 6.15330483 93.2429125 5.70734442 93.0637093 5.26138401 92.6817236 5.04789232 92.0969554 5.06686936 92.0780919 5.06686936 92.0545125 5.07161362 92.0262173 5.08110214 91.9979221 5.09059066 91.9554792 5.09533492 91.8988887 5.09533492L91.927184 5.09533492C91.3424157 5.19022011 91.0217364 5.38947902 90.9651459 5.69311164ZM112.32805 21.1513167C111.711324 21.283218 111.046417 21.3491686 110.333328 21.3491686 109.48533 21.3491686 108.560242 21.2455319 107.558062 21.0382584 107.423154 20.6802406 107.211154 19.9265188 106.922064 18.7770932 106.632974 17.6088244 106.401702 16.8362597 106.228248 16.4593988L105.650067 16.4311342 105.158614 16.4593988C105.081523 16.6855153 104.956251 17.2413851 104.782797 18.1270082 104.647888 18.8618869 104.512979 19.4601535 104.37807 19.9218081 104.243162 20.3834627 104.050435 20.8027204 103.79989 21.1795813 103.607163 21.2172673 103.318073 21.2361104 102.93262 21.2361104 102.759166 21.2361104 102.383348 21.2172673 101.805168 21.1795813 100.128445 21.1042091 99.1937201 21.066523 99.0009933 21.066523 99.0009933 20.9723078 99.020266 20.750902 99.0588113 20.4023057 99.0973567 20.0537094 99.1551747 19.6627162 99.2322654 19.2293262L99.8682638 15.6679909C100.369353 12.7473191 100.846352 10.2035082 101.29926 8.03655819 101.752168 5.86960815 102.344803 3.58017833 103.077165 1.16826872 103.346982 1.13058263 103.713163 1.11173959 104.175707 1.11173959L104.349161 1.11173959C105.601885 1.11173959 106.825701 1.06463198 108.020607.970416757 108.251879 1.85603982 108.463878 2.72753059 108.656605 3.58488909 108.849332 4.44224758 109.022786 5.21010162 109.176967 5.88845119 109.793693 8.50763428 110.208056 10.2506158 110.420055 11.1173959L112.32805 21.1513167ZM106.286066 12.8415344C105.862067 9.0729256 105.659704 7.18862122 105.678976 7.18862122L105.650067 6.90597556C105.650067 6.90597556 105.630795 7.13209209 105.592249 7.58432514 105.534431 8.99755342 105.447704 10.1187145 105.332068 10.9478085L105.071887 12.8415344 106.286066 12.8415344ZM119.387685 18.7020666C118.224921 16.1167864 117.458974 14.3276976 117.089843 13.3348001L117.089843 18.7301674C117.089843 19.8916701 117.099071 20.6878615 117.117528 21.1187415 116.619201 21.2686128 116.074732 21.3435485 115.484122 21.3435485 115.299556 21.3435485 115.022708 21.3248146 114.653577 21.2873467 114.247532 21.2498789 113.952227 21.231145 113.767662 21.231145L112.411105 21.1749432 112.411105 19.0673779C112.411105 17.8684074 112.392648 16.1636212 112.355735 13.9530193 112.337278 12.8477184 112.32805 11.171033 112.32805 8.92296334 112.32805 5.90680315 112.411105 3.37772473 112.577214 1.33572808 113.075541 1.20459068 113.629238 1.13902198 114.238304 1.13902198 114.644349 1.13902198 115.138062 1.17648981 115.719443 1.25142547 116.300825 1.32636113 116.702255 1.43876461 116.923734 1.58863593 117.182126 2.0757177 117.500501 2.75482209 117.878861 3.6259491 118.25722 4.49707611 118.621737 5.36351964 118.972412 6.2252797L120.079806 8.81055986C120.042893 7.49918586 120.024436 5.95363794 120.024436 4.17391609 120.024436 2.73140469 120.033664 1.73850724 120.052121 1.19522373 120.80884 1.04535241 121.6117.970416757 122.460702.970416757 123.180508.970416757 123.927999 1.05471937 124.703174 1.2233246L124.703174 21.1468424C124.647805 21.1468424 124.537065 21.1749432 124.370956 21.231145 124.186391 21.3060806 123.863401 21.3435485 123.401987 21.3435485 123.309704 21.3622824 122.820605 21.3341815 121.93469 21.2592459 121.713211 21.2405119 121.431749 21.221778 121.090302 21.2030441 120.748856 21.1843102 120.550448 21.1843102 120.495078 21.2030441L119.387685 18.7020666ZM129.70797 21.3491686C129.250389 21.2918444 128.811873 21.2631824 128.392424 21.2631824 128.106436 21.2631824 127.715585 21.2822904 127.219872 21.3205065L126.018721 21.3491686C125.637403 21.3491686 125.198887 21.3205065 124.703174 21.2631824 125.160756 19.8874016 126.037787 17.5180015 127.334267 14.154982L128.506819 11.1741238C128.31616 10.4098011 128.077837 9.65980956 127.791848 8.92414903 127.50586 8.18848851 127.143608 7.31429451 126.705093 6.30156704 126.190314 5.02132665 125.804229 4.03726127 125.54684 3.34937092 125.28945 2.66148056 125.065426 1.93537407 124.874767 1.17105144 125.237019 1.19015951 125.799463 1.16149741 126.562098 1.08506515 127.172207 1.00863289 127.620255.970416757 127.906244.970416757 128.57355.970416757 129.126461 1.09461918 129.564976 1.34302403 129.736569 2.05002246 129.998725 2.92899347 130.351444 3.97993708 130.704163 5.03088068 131.042583 5.96717589 131.366703 6.78882271 131.462032 6.59774206 131.767086 5.72832507 132.281865 4.18057177 132.853842 2.46084587 133.177962 1.52455066 133.254226 1.37168613 134.30285 1.16149741 135.341941 1.05640305 136.371499 1.05640305 137.000673 1.05640305 137.553584 1.09461918 138.030231 1.17105144 137.57265 2.89077734 137.010206 4.54840203 136.3429 6.1439255 135.675594 7.73944897 134.769964 9.74101884 133.626011 12.1486351 132.710848 14.0212255 131.948212 15.6597421 131.338104 17.064185 130.727995 18.4686278 130.184618 19.8969557 129.70797 21.3491686ZM150.324295 5.91753446C150.378335 6.498446 150.405355 7.08872709 150.405355 7.68837772L150.378335 8.19433294 150.378335 8.70028816C150.342309 9.31867788 150.324295 10.2275234 150.324295 11.4268246 150.324295 12.7572995 150.297276 13.7692099 150.243236 14.4625559L150.162176 15.3901405C150.07211 16.9080062 149.702837 18.2010028 149.054359 19.2691305 148.78416 19.6626512 148.378861 20.0093243 147.838463 20.3091496 147.298064 20.6089749 146.703626 20.852583 146.055148 21.0399738 145.388656 21.2461037 144.605079 21.3491686 143.704415 21.3491686 143.290109 21.3491686 143.001897 21.3397991 142.839777 21.32106 141.957126 21.2461037 141.169045 21.0446586 140.475534 20.7167246 139.782023 20.3887907 139.273147 19.9062593 138.948908 19.2691305 138.51659 18.4258718 138.282417 17.3671137 138.24639 16.0928561L138.192351 15.1933801C138.174337 15.0434675 138.165331 14.7342726 138.165331 14.2657956 138.075264 12.7291908 138.030231 11.2581729 138.030231 9.85274172 138.030231 8.99074394 138.057251 8.12874616 138.111291 7.26674837 138.165331 6.32979427 138.322947 5.41626401 138.584139 4.5261576 138.845332 3.6360512 139.246128 2.85369452 139.786526 2.17908756L140.380964 1.84178408C141.533814 1.26087253 142.794744.970416757 144.163753.970416757 145.028391.970416757 145.843492 1.08753602 146.609056 1.32177455 147.374621 1.55601308 148.045615 1.89800133 148.62204 2.3477393 149.252505 2.94738993 149.666811 3.53767102 149.864957 4.11858257 150.081116 4.7182332 150.234229 5.31788383 150.324295 5.91753446ZM146.136208 8.9813744 146.028128 7.51972598C145.992101 6.99503168 145.870512 6.5312394 145.663359 6.12834913 145.456206 5.72545886 145.19051 5.43968786 144.866271 5.27103612 144.722165 5.21481887 144.578059 5.18671025 144.433953 5.18671025 144.001634 5.18671025 143.578322 5.33662291 143.164016 5.63644822 142.947857 5.82383905 142.736201 6.09087097 142.529048 6.43754399 142.321895 6.78421701 142.164279 7.1355748 142.056199 7.49161736 141.876067 8.31613698 141.786 9.36552558 141.786 10.6397832 141.786 11.276912 141.795007 11.7547586 141.81302 12.073323L141.81302 12.0452143C141.885073 12.419996 141.939113 12.9165817 141.97514 13.5349714L142.00216 13.9284921C142.074213 14.8654462 142.173286 15.5587922 142.299379 16.0085302L142.299379 15.9804216C142.461498 16.3552032 142.700174 16.6409742 143.015407 16.8377346 143.330639 17.034495 143.668388 17.1328752 144.028654 17.1328752 144.316866 17.1328752 144.609582 17.0626036 144.906801 16.9220605 145.20402 16.7815174 145.46071 16.5800722 145.676869 16.3177251 145.857002 16.074117 145.969585 15.8679871 146.014618 15.6993354 146.059651 15.5306836 146.082168 15.2683365 146.082168 14.9122939 146.082168 14.5937295 146.091174 14.359491 146.109188 14.2095783L146.136208 13.8441662 146.163227 13.3101024 146.163227 12.9165817 146.190247 12.3825178 146.190247 11.0333039 146.136208 9.12191751 146.136208 8.9813744ZM158.416922 18.7020666C157.254159 16.1167864 156.488212 14.3276976 156.119081 13.3348001L156.119081 18.7301674C156.119081 19.8916701 156.128309 20.6878615 156.146765 21.1187415 155.648438 21.2686128 155.10397 21.3435485 154.51336 21.3435485 154.328794 21.3435485 154.051946 21.3248146 153.682815 21.2873467 153.27677 21.2498789 152.981465 21.231145 152.7969 21.231145L151.440342 21.1749432 151.440342 19.0673779C151.440342 17.8684074 151.421886 16.1636212 151.384973 13.9530193 151.366516 12.8477184 151.357288 11.171033 151.357288 8.92296334 151.357288 5.90680315 151.440342 3.37772473 151.606451 1.33572808 152.104779 1.20459068 152.658475 1.13902198 153.267542 1.13902198 153.673586 1.13902198 154.167299 1.17648981 154.748681 1.25142547 155.330063 1.32636113 155.731493 1.43876461 155.952972 1.58863593 156.211363 2.0757177 156.529739 2.75482209 156.908099 3.6259491 157.286458 4.49707611 157.650975 5.36351964 158.00165 6.2252797L159.109043 8.81055986C159.07213 7.49918586 159.053674 5.95363794 159.053674 4.17391609 159.053674 2.73140469 159.062902 1.73850724 159.081359 1.19522373 159.838078 1.04535241 160.640938.970416757 161.48994.970416757 162.209746.970416757 162.957236 1.05471937 163.732412 1.2233246L163.732412 21.1468424C163.677042 21.1468424 163.566303 21.1749432 163.400194 21.231145 163.215628 21.3060806 162.892638 21.3435485 162.431224 21.3435485 162.338942 21.3622824 161.849843 21.3341815 160.963928 21.2592459 160.742449 21.2405119 160.460987 21.221778 160.11954 21.2030441 159.778094 21.1843102 159.579686 21.1843102 159.524316 21.2030441L158.416922 18.7020666ZM182.743746 19.1255203C182.761959 19.3506999 182.771065 19.6790868 182.771065 20.110681 182.771065 20.5047452 182.739193 20.7815285 182.675451 20.9410307 182.611709 21.1005329 182.516095 21.1990489 182.38861 21.2365789 182.261126 21.2741088 182.04258 21.2928738 181.732975 21.2928738L181.541748 21.2928738 181.104657 21.2647263 180.394385 21.2928738C179.265235 21.3304037 177.598827 21.3491686 175.395163 21.3491686 173.300771 21.3491686 171.634363 21.3397862 170.39594 21.3210212L170.39594 20.6736299C170.523425 17.5774107 170.587167 14.4624265 170.587167 11.3286774 170.587167 10.4091941 170.568955 8.82355457 170.532531 6.57175878L170.532531 5.89622004 170.532531 4.85476449C170.514319 4.53576009 170.505213 3.96342866 170.505213 3.1377702L170.477895 1.30818612C170.732864 1.2143613 171.088 1.1346102 171.543303 1.06893282 171.998605 1.00325545 172.453908.970416757 172.909211.970416757 173.41915.970416757 173.929088 1.00794669 174.439027 1.08300655 174.948966 1.15806641 175.358739 1.26127371 175.668344 1.39262847 175.63192 2.74370594 175.613708 3.82269142 175.613708 4.62958491 175.613708 5.75548281 175.63192 7.44432965 175.668344 9.69612544 175.686556 10.8220233 175.695662 12.4827227 175.695662 14.6782236L175.695662 16.5078077C176.296662 16.5078077 177.034252 16.5359551 177.908433 16.59225L179.356295 16.6485449C180.121204 16.7048398 180.840582 16.7329873 181.514429 16.7329873 181.987944 16.7329873 182.406822 16.7142223 182.771065 16.6766924 182.771065 17.1082866 182.761959 17.3897611 182.743746 17.5211158L182.743746 17.4929684C182.707322 17.9996224 182.698216 18.3655392 182.716428 18.5907188L182.743746 19.1255203ZM196.070803 19.1255203C196.089015 19.3506999 196.098121 19.6790868 196.098121 20.110681 196.098121 20.5047452 196.06625 20.7815285 196.002508 20.9410307 195.938765 21.1005329 195.843152 21.1990489 195.715667 21.2365789 195.588182 21.2741088 195.369637 21.2928738 195.060031 21.2928738L194.868804 21.2928738 194.431714 21.2647263 193.721442 21.2928738C192.592291 21.3304037 190.925884 21.3491686 188.72222 21.3491686 186.627828 21.3491686 184.96142 21.3397862 183.722997 21.3210212L183.722997 20.6736299C183.850482 17.5774107 183.914224 14.4624265 183.914224 11.3286774 183.914224 10.4091941 183.896012 8.82355457 183.859588 6.57175878L183.859588 5.89622004 183.859588 4.85476449C183.841376 4.53576009 183.83227 3.96342866 183.83227 3.1377702L183.804952 1.30818612C184.059921 1.2143613 184.415057 1.1346102 184.87036 1.06893282 185.325662 1.00325545 185.780965.970416757 186.236267.970416757 186.746206.970416757 187.256145 1.00794669 187.766084 1.08300655 188.276023 1.15806641 188.685795 1.26127371 188.995401 1.39262847 188.958977 2.74370594 188.940765 3.82269142 188.940765 4.62958491 188.940765 5.75548281 188.958977 7.44432965 188.995401 9.69612544 189.013613 10.8220233 189.022719 12.4827227 189.022719 14.6782236L189.022719 16.5078077C189.623719 16.5078077 190.361309 16.5359551 191.23549 16.59225L192.683352 16.6485449C193.44826 16.7048398 194.167638 16.7329873 194.841486 16.7329873 195.315001 16.7329873 195.733879 16.7142223 196.098121 16.6766924 196.098121 17.1082866 196.089015 17.3897611 196.070803 17.5211158L196.070803 17.4929684C196.034379 17.9996224 196.025273 18.3655392 196.043485 18.5907188L196.070803 19.1255203ZM201.389331 5.69311164C201.351604 5.76901979 201.304445 6.36679652 201.247855 7.48644181 201.191264 8.60608709 201.162969 9.74470942 201.162969 10.9023088 201.162969 12.0788852 201.191264 13.0656912 201.247855 13.8627268 201.304445 14.3751069 201.455353 14.8732542 201.700578 15.3571686 201.945804 15.8410831 202.238188 16.1684371 202.577731 16.3392304 203.237953 16.3771845 203.737835 16.0735519 204.077378 15.4283325L204.049083 15.4283325C204.218854 15.0677688 204.30374 14.5269232 204.30374 13.8057957 204.30374 13.2364846 204.341467 12.7905241 204.416921 12.4679145 204.888508 12.5438226 205.341232 12.5817767 205.775093 12.5817767L207.076673 12.5533112C207.755759 12.5533112 208.397118 12.6292193 209.00075 12.7810356 209.227111 13.445232 209.340292 14.1378939 209.340292 14.8590214 209.340292 15.9407126 209.071488 16.9654727 208.533878 17.9333017 207.996269 18.9011306 207.255877 19.6886778 206.312702 20.295943 205.369527 20.9032082 204.322604 21.2258179 203.171931 21.263772 202.832388 21.3207031 202.436255 21.3491686 201.983531 21.3491686 200.512178 21.3491686 199.220029 21.0170705 198.107083 20.3528741 196.994137 19.6886778 196.371642 18.6923832 196.239598 17.3639905 196.14528 15.4662866 196.098121 13.4262549 196.098121 11.2438955 196.098121 9.4410768 196.107553 7.96086778 196.126417 6.80326841L196.154712 5.52231829C196.135848 5.23766271 196.159428 4.91030879 196.22545 4.54025653 196.291472 4.17020428 196.381074 3.84285036 196.494255 3.55819477 196.664026 3.12172288 196.885672 2.68525099 197.159193 2.2487791 197.432713 1.81230721 197.720382 1.45174347 198.022197 1.16708789 198.418331.844478226 199.003099.569311164 199.776502.341586698 200.512178.113862233 201.27615 0 202.068416 0 203.351134 0 204.558397.298888361 205.690207.896665083 206.822016 1.49444181 207.727464 2.31045447 208.40655 3.34470309 209.085635 4.3789517 209.425178 5.50334125 209.425178 6.71787173 209.425178 7.43899921 209.293134 8.16012668 209.029045 8.88125416 208.236778 9.05204751 207.576556 9.13744418 207.048378 9.13744418 206.331566 9.13744418 205.341232 9.01409343 204.077378 8.76739192L203.992493 7.68570071C203.954766 6.81275693 203.846301 6.15330483 203.667097 5.70734442 203.487894 5.26138401 203.105908 5.04789232 202.52114 5.06686936 202.502277 5.06686936 202.478697 5.07161362 202.450402 5.08110214 202.422107 5.09059066 202.379664 5.09533492 202.323074 5.09533492L202.351369 5.09533492C201.766601 5.19022011 201.445921 5.38947902 201.389331 5.69311164Z" transform="translate(218.575 25.416)"/><g fill="#000" transform="translate(0 8.133)"><polygon points="0 41.682 11.8 0 14.069 0 2.263 41.682"/><polygon points="14.396 41.682 26.197 0 28.466 0 16.659 41.682"/></g><path fill="#000" d="M0 31.3460016 0 0 8.43271669 0 8.43271669 9.93925054C9.20744602 9.43093701 9.95694641 9.01749101 10.6812179 8.69891256 11.4054893 8.38033411 12.1403659 8.14140027 12.8858475 7.98211105 13.6313291 7.82282182 14.390095 7.74317721 15.1621452 7.74317721 16.6937426 7.74317721 17.9761764 8.01564562 19.0094466 8.56058244 20.0427167 9.10551927 20.8269348 9.88894868 21.3621008 10.9108707 21.8972669 11.9327927 22.1648499 13.1795287 22.1648499 14.6510788L22.1648499 31.3460016 13.7013227 31.3460016 13.7013227 17.3164155C13.7013227 16.3664164 13.5061891 15.6966074 13.115922 15.3069886 12.7256549 14.9173698 12.1916052 14.7225604 11.5137728 14.7225604 11.1793219 14.7225604 10.8475502 14.7562053 10.5184577 14.823495 10.1893652 14.8907848 9.85402128 14.984108 9.51242592 15.1034646 9.17083057 15.2228212 8.81092749 15.3663359 8.43271669 15.5340088L8.43271669 31.3460016 0 31.3460016ZM24.7091124 19.7143582C24.7091124 17.9079036 24.8979946 16.2704457 25.2757588 14.8019844 25.6535231 13.333523 26.2855862 12.0746528 27.171948 11.0253736 28.0583098 9.97609445 29.2644986 9.16674193 30.7905144 8.59731604 32.3165303 8.02789015 34.2277898 7.74317721 36.5242929 7.74317721 38.8207961 7.74317721 40.7268088 8.02789015 42.2423312 8.59731604 43.7578536 9.16674193 44.9640424 9.97609445 45.8608977 11.0253736 46.757753 12.0746528 47.3950627 13.333523 47.772827 14.8019844 48.1505913 16.2704457 48.3394734 17.9079036 48.3394734 19.7143582 48.3394734 21.5486111 48.1363023 23.2090138 47.7299601 24.6955661 47.3236179 26.1821185 46.6628654 27.4500342 45.7477024 28.4993134 44.8325394 29.5485926 43.6192061 30.3559595 42.1077025 30.9214142 40.5961988 31.4868689 38.7350623 31.7695962 36.5242929 31.7695962 34.3135235 31.7695962 32.4522754 31.4868689 30.9405485 30.9214142 29.4288216 30.3559595 28.2154883 29.5485926 27.3005486 28.4993134 26.3856088 27.4500342 25.7249679 26.1821185 25.3186257 24.6955661 24.9122835 23.2090138 24.7091124 21.5486111 24.7091124 19.7143582ZM33.3816157 19.7143582C33.3816157 21.2031168 33.4829779 22.3687741 33.6857025 23.2113303 33.8884271 24.0538865 34.2233245 24.6460364 34.6903947 24.9877802 35.157465 25.329524 35.7687644 25.5003959 36.5242929 25.5003959 37.287859 25.5003959 37.8959211 25.329524 38.3484791 24.9877802 38.8010371 24.6460364 39.1339251 24.0538865 39.3471432 23.2113303 39.5603612 22.3687741 39.6669702 21.2031168 39.6669702 19.7143582 39.6669702 18.2331008 39.569515 17.0782539 39.3746047 16.2498175 39.1796944 15.4213812 38.8559603 14.8362911 38.4034023 14.4945473 37.9508442 14.1528036 37.3244745 13.9819317 36.5242929 13.9819317 35.7241114 13.9819317 35.0977416 14.1528036 34.6451836 14.4945473 34.1926255 14.8362911 33.8688914 15.4213812 33.6739811 16.2498175 33.4790708 17.0782539 33.3816157 18.2331008 33.3816157 19.7143582ZM50.9514302 40.2414885 50.9514302 8.13103103 58.5549409 8.13103103 58.8201796 9.95381161C60.088771 9.1913413 61.3179561 8.63228466 62.507735 8.27664168 63.6975138 7.9209987 64.916652 7.74317721 66.1651495 7.74317721 68.7777958 7.74317721 70.7762403 8.7360874 72.1604829 10.7219078 73.5447255 12.7077282 74.2368468 15.5907087 74.2368468 19.3708494 74.2368468 22.1365693 73.8197879 24.4381 72.9856701 26.2754417 72.1515523 28.1127833 70.8777142 29.4878111 69.1641558 30.4005252 67.4505974 31.3132392 65.2843694 31.7695962 62.6654717 31.7695962 62.1747353 31.7695962 61.6482766 31.7458793 61.0860955 31.6984455 60.5239144 31.6510118 59.9628496 31.5928778 59.4029011 31.5240437L59.4029011 40.2414885 50.9514302 40.2414885ZM62.0941367 25.747934C62.875564 25.747934 63.5149947 25.5788271 64.012429 25.2406132 64.5098633 24.9023994 64.8818227 24.3269064 65.1283072 23.5141343 65.3747917 22.7013621 65.4980339 21.5995748 65.4980339 20.2087725 65.4980339 18.7720808 65.3993508 17.6487829 65.2019846 16.8388788 65.0046184 16.0289747 64.7048852 15.4487383 64.3027851 15.0981697 63.9006849 14.747601 63.3872872 14.5723167 62.7625919 14.5723167 62.4437696 14.5723167 62.1012812 14.6035347 61.7351267 14.6659708 61.3689722 14.7284069 60.994222 14.8207372 60.6108761 14.9429619 60.2275302 15.0651866 59.81996 15.2257996 59.3881656 15.4248008L59.3881656 25.3031596C59.8422865 25.4465641 60.2987517 25.5565442 60.7575611 25.6331001 61.2163706 25.709656 61.6618958 25.747934 62.0941367 25.747934ZM76.2492989 27.3397231C76.2492989 25.8792042 76.6002714 24.7882274 77.3022163 24.0667929 78.0041613 23.3453583 79.1704973 22.984641 80.8012244 22.984641 82.4444544 22.984641 83.6139161 23.3453583 84.3096097 24.0667929 85.0053032 24.7882274 85.35315 25.8792042 85.35315 27.3397231 85.35315 28.7764149 85.0053032 29.855478 84.3096097 30.5769126 83.6139161 31.2983472 82.4444544 31.6590645 80.8012244 31.6590645 79.1718369 31.6590645 78.0058358 31.2983472 77.303221 30.5769126 76.6006063 29.855478 76.2492989 28.7764149 76.2492989 27.3397231ZM97.424601 40.6650831C93.9291652 40.6650831 91.277894 40.1892011 89.4707876 39.2374369 87.6636812 38.2856728 86.760128 36.8520697 86.760128 34.9366278 86.760128 34.1662151 86.9010082 33.4683871 87.1827686 32.8431438 87.4645289 32.2179005 87.8840437 31.6592851 88.441313 31.1672976 88.9985823 30.6753101 89.6813265 30.2620847 90.4895456 29.9276215L94.4520517 31.413512C94.1845803 31.5661825 93.9596408 31.7196253 93.7772334 31.8738402 93.5948259 32.0280551 93.4570715 32.197162 93.36397 32.3811609 93.2708685 32.5651598 93.2243178 32.7895326 93.2243178 33.0542792 93.2243178 33.4955236 93.3646398 33.8464232 93.6452838 34.1069781 93.9259278 34.3675329 94.4154362 34.5588123 95.1138089 34.6808164 95.8121817 34.8028205 96.7728907 34.8638225 97.995936 34.8638225 99.1444109 34.8638225 100.102441 34.7937749 100.870026 34.6536799 101.63761 34.5135848 102.215755 34.3144732 102.604459 34.0563453 102.993163 33.7982173 103.187516 33.4747852 103.187516 33.0860488 103.187516 32.7935038 103.127792 32.5712269 103.008345 32.4192183 102.888899 32.2672096 102.641186 32.154251 102.265208 32.0803426 101.88923 32.0064341 101.324593 31.9694799 100.571297 31.9694799L96.2604977 31.9694799C94.540018 31.9694799 93.0391195 31.7839366 91.757802 31.4128501 90.4764846 31.0417636 89.4832905 30.4668221 88.7782198 29.6880258 88.0731491 28.9092294 87.7206138 27.9120171 87.7206138 26.6963888 87.7206138 25.4450197 88.0526088 24.4005942 88.7165987 23.5631124 89.3805886 22.7256305 90.2515451 22.0346418 91.3294682 21.4901462L95.4292823 22.4948597C94.9698031 22.7649013 94.6294357 23.0365975 94.4081801 23.3099484 94.1869246 23.5832993 94.0762968 23.9249328 94.0762968 24.3348488 94.0762968 24.7527073 94.2369359 25.0669836 94.5582141 25.2776778 94.8794924 25.488372 95.3732428 25.5937191 96.0394654 25.5937191L103.446056 25.5937191C105.859104 25.5937191 107.731515 26.1670058 109.063291 27.3135794 110.395066 28.460153 111.060954 30.0443306 111.060954 32.0661124 111.060954 33.9074253 110.551463 35.469982 109.532482 36.7537825 108.513501 38.0375831 106.993848 39.0104167 104.973523 39.6722833 102.953199 40.3341498 100.436892 40.6650831 97.424601 40.6650831ZM98.2785894 23.8351395C94.8094988 23.8351395 92.1996433 23.1570572 90.449023 21.8008926 88.6984026 20.444728 87.8230924 18.4426918 87.8230924 15.7947842 87.8230924 13.1190783 88.6984026 11.1082172 90.449023 9.76220123 92.1996433 8.41618522 94.8094988 7.74317721 98.2785894 7.74317721 101.74768 7.74317721 104.357536 8.41618522 106.108156 9.76220123 107.858776 11.1082172 108.734086 13.1190783 108.734086 15.7947842 108.734086 18.4426918 107.858776 20.444728 106.108156 21.8008926 104.357536 23.1570572 101.74768 23.8351395 98.2785894 23.8351395ZM98.2785894 18.7142778C99.1520019 18.7142778 99.79467 18.5084373 100.206594 18.0967562 100.618518 17.6850752 100.82448 16.9177512 100.82448 15.7947842 100.82448 14.6440189 100.618518 13.8606998 100.206594 13.4448269 99.79467 13.0289541 99.1520019 12.8210177 98.2785894 12.8210177 97.4132145 12.8210177 96.7725558 13.0289541 96.3566132 13.4448269 95.9406706 13.8606998 95.7326993 14.6440189 95.7326993 15.7947842 95.7326993 16.9177512 95.9406706 17.6850752 96.3566132 18.0967562 96.7725558 18.5084373 97.4132145 18.7142778 98.2785894 18.7142778ZM107.41593 14.0262767 104.296696 9.80886283C104.717327 8.70619309 105.348274 7.88944972 106.189536 7.35863272 107.030798 6.82781572 108.084832 6.56240721 109.351637 6.56240721 109.825852 6.56240721 110.27361 6.59373557 110.694911 6.65639227 111.116212 6.71904897 111.490292 6.81303403 111.817152 6.93834744L110.846619 13.1585696C110.605493 13.1020903 110.346059 13.0546566 110.068318 13.0162683 109.790576 12.97788 109.502564 12.9586859 109.204282 12.9586859 108.846165 12.9586859 108.514505 13.0430739 108.209302 13.2118499 107.904099 13.3806259 107.639642 13.6521015 107.41593 14.0262767ZM128.738171 31.4188069 127.786393 29.7568599C126.681231 30.4253452 125.565465 30.9279225 124.439093 31.264592 123.312722 31.6012615 122.131092 31.7695962 120.894204 31.7695962 118.297187 31.7695962 116.304547 30.7730457 114.916286 28.7799448 113.528024 26.7868439 112.833894 23.9037531 112.833894 20.1306723 112.833894 17.3477439 113.250506 15.0423522 114.083731 13.2144974 114.916955 11.3866425 116.190235 10.017792 117.90357 9.10794611 119.616906 8.19810017 121.780789 7.74317721 124.395222 7.74317721 124.928825 7.74317721 125.477722 7.76126823 126.041912 7.79745027 126.606103 7.83363231 127.152767 7.89187657 127.681905 7.97218305L127.681905 0 136.145432 0 136.145432 31.4188069 128.738171 31.4188069ZM127.681905 24.0469369 127.681905 14.1798298C127.206351 14.023188 126.746871 13.9146419 126.303467 13.8541914 125.860063 13.7937409 125.414203 13.7635157 124.965887 13.7635157 124.19473 13.7635157 123.557308 13.9311886 123.053623 14.2665343 122.549937 14.60188 122.175298 15.167445 121.929707 15.9632293 121.684116 16.7590136 121.56132 17.8708391 121.56132 19.298706 121.56132 20.6881845 121.660673 21.7932811 121.859379 22.6139957 122.058084 23.4347103 122.362618 24.0218962 122.772979 24.3755536 123.18334 24.729211 123.691491 24.9060397 124.297432 24.9060397 124.634562 24.9060397 124.982074 24.874932 125.339967 24.8127165 125.697861 24.750501 126.075067 24.653317 126.471586 24.5211643 126.868104 24.3890116 127.271544 24.2309358 127.681905 24.0469369ZM139.484214 31.3460016 139.484214 8.16677182 147.087725 8.16677182 147.087725 10.1649471C148.039726 9.57985699 148.926311 9.11257918 149.74748 8.76311362 150.568648 8.41364806 151.376867 8.15629227 152.172137 7.99104624 152.967407 7.82580022 153.79438 7.74317721 154.653057 7.74317721 156.236452 7.74317721 157.546012 8.02943451 158.581738 8.6019491 159.617465 9.1744637 160.386724 9.96506334 160.889517 10.973748 161.392309 11.9824327 161.643705 13.1673945 161.643705 14.5286335L161.643705 31.3460016 153.20697 31.3460016 153.20697 17.3045019C153.20697 16.3487666 153.007706 15.6775235 152.609178 15.2907728 152.21065 14.9040221 151.681847 14.7106468 151.022769 14.7106468 150.698588 14.7106468 150.368826 14.7472701 150.033482 14.8205166 149.698138 14.8937632 149.358329 14.989072 149.014054 15.106443 148.66978 15.223814 148.305412 15.3667772 147.920949 15.5353325L147.920949 31.3460016 139.484214 31.3460016Z" transform="translate(35.582 15.25)"/><path fill="gray" d="M3.66714622 15.2782548C2.98382705 15.2782548 2.27773057 15.1628602 1.52607948 14.885913 1.50330218 11.3548359 1.45774757 9.13925818 1.41219295 7.08523299 2.23217596 6.41594388 3.25715472 5.97744412 4.32768809 5.97744412 6.21820446 5.97744412 7.65317472 7.59296955 7.65317472 10.5009153 7.65317472 13.5704137 5.85376757 15.2782548 3.66714622 15.2782548ZM1.52607948 20.0325154 1.52607948 16.3398858C2.07273482 16.4552805 2.61939016 16.5014384 3.12049088 16.5014384 6.26375907 16.5014384 9.01981306 14.1243081 9.01981306 10.1547313 9.01981306 6.87752257 7.22040591 4.80041844 4.82878881 4.80041844 3.39381855 4.80041844 2.25495327 5.44662862 1.36663834 6.18515453L1.27552912 5.00812885 0 5.10044459C.0911092229 7.54681168.136663834 11.1009676.136663834 16.2475701L.136663834 20.1479101 1.52607948 20.0325154ZM16.467992 16.5475963C19.224046 16.5475963 21.5473312 14.1243081 21.5473312 10.4547575 21.5473312 6.90060151 19.5884829 4.75426057 16.8552062 4.75426057 14.0991522 4.75426057 11.7530897 7.17754873 11.7530897 10.8009415 11.7530897 14.3781764 13.7574927 16.5475963 16.467992 16.5475963ZM16.6729878 15.3705706C14.600253 15.3705706 13.1425054 13.6165715 13.1425054 10.5239943 13.1425054 7.59296955 14.600253 5.93128625 16.6274332 5.93128625 18.7229453 5.93128625 20.1806929 7.66220636 20.1806929 10.7317047 20.1806929 13.6858083 18.7229453 15.3705706 16.6729878 15.3705706ZM31.5237911 16.2244912 32.8448748 16.2244912C33.2548663 13.4088611 33.7104125 9.18541605 33.9837401 5.05428672L32.6626564 5.05428672C32.4576606 8.37765334 32.2526649 11.3548359 32.0021145 14.3781764L31.9337826 14.3781764C31.7515642 13.8473609 29.8154932 8.2853376 29.6788293 7.89299571L28.7677371 7.89299571C28.6310733 8.2853376 26.7633342 13.801203 26.5583385 14.3320185L26.4672292 14.3320185C26.1939016 11.3086781 25.9889058 8.3545744 25.7839101 5.05428672L24.3944944 5.05428672C24.6678221 9.18541605 25.1005909 13.4088611 25.556137 16.2244912L26.8316661 16.2244912 29.1777286 9.48544221 31.5237911 16.2244912ZM45.6912753 16.4783595 45.8734937 15.2551759C40.2247219 15.0936234 38.5619786 13.8704398 38.4253147 10.985573L46.2607079 10.8009415C46.6706994 7.24678553 45.1446199 4.77733951 42.1835702 4.77733951 39.336407 4.77733951 37.0586764 7.38525914 37.0586764 10.7778626 37.0586764 14.4012553 38.9491928 16.3629648 45.6912753 16.4783595ZM41.9102425 5.95436518C44.0057546 5.95436518 45.0307334 7.54681168 44.9851788 9.8777841L38.4253147 10.0624156C38.5619786 7.47757488 39.8830623 5.95436518 41.9102425 5.95436518ZM57.8088019 16.2244912 57.9454657 15.1397812 53.9594372 15.1397812C53.9366599 12.3703091 53.8911053 9.9470209 53.868328 7.84683784 55.0755252 6.94675938 56.7382685 6.32362814 59.1754402 6.13899666L59.1071083 4.66194483C56.7154912 4.91581311 54.9388614 5.83897051 53.8227734 6.92368044 53.7999961 6.39286494 53.7316642 5.35431288 53.7088869 5.05428672L49.6545265 5.05428672 49.5406399 6.04668092 52.4561351 6.20823346C52.524467 8.60844268 52.5472443 11.4471517 52.6155762 15.1397812L49.4950853 15.1397812 49.4950853 16.2244912 57.8088019 16.2244912ZM70.7463115 16.4783595 70.92853 15.2551759C65.2797582 15.0936234 63.6170149 13.8704398 63.480351 10.985573L71.3157442 10.8009415C71.7257357 7.24678553 70.1996562 4.77733951 67.2386065 4.77733951 64.3914433 4.77733951 62.1137127 7.38525914 62.1137127 10.7778626 62.1137127 14.4012553 64.0042291 16.3629648 70.7463115 16.4783595ZM66.9652788 5.95436518C69.0607909 5.95436518 70.0857697 7.54681168 70.0402151 9.8777841L63.480351 10.0624156C63.6170149 7.47757488 64.9380986 5.95436518 66.9652788 5.95436518ZM79.1283601 15.3013338C77.1695118 15.3013338 75.7800961 13.7781241 75.7800961 10.8240204 75.7800961 7.70836423 77.6022806 6.00052305 79.9027884 6.00052305 80.5633303 6.00052305 81.2010949 6.11591772 81.884414 6.34670707 81.884414 9.80854729 81.9071913 12.047204 81.952746 14.1935449 81.1783176 14.8166761 80.1533388 15.3013338 79.1283601 15.3013338ZM82.1121871 16.270649 83.4332708 16.1783333C83.3193843 13.5934926 83.2738297 9.99317877 83.2738297 5.14660246L83.2738297 0 81.884414.115394674 81.884414 4.91581311C81.4516452 4.84657631 81.0188764 4.80041844 80.540553 4.80041844 77.2833983 4.80041844 74.3906805 7.10831192 74.3906805 11.1932834 74.3906805 14.4935711 76.2128649 16.5014384 78.6272593 16.5014384 80.0394523 16.5014384 81.2010949 15.8321493 82.0210779 15.0705444L82.1121871 16.270649ZM103.4773 16.4783595C106.461127 16.4783595 109.239958 14.0781502 109.239958 10.1547313 109.239958 6.87752257 107.440551 4.80041844 105.048934 4.80041844 103.682296 4.80041844 102.566208 5.37739181 101.70067 6.09283879L101.70067 0 100.311254.115394674 100.311254 15.924465C101.290679 16.293728 102.383989 16.4783595 103.4773 16.4783595ZM103.955623 15.2551759C103.249527 15.2551759 102.497876 15.1167023 101.70067 14.8397551L101.70067 7.03907512C102.497876 6.39286494 103.522854 5.97744412 104.547833 5.97744412 106.461127 5.97744412 107.87332 7.59296955 107.87332 10.5009153 107.87332 13.5704137 106.165022 15.2551759 103.955623 15.2551759ZM112.201008 20.3325416C115.754268 19.824805 116.756469 18.763174 118.145885 15.209018 119.763073 11.2625202 120.970271 7.96223251 121.995249 5.05428672L120.674166 5.05428672C119.87696 7.24678553 118.305326 11.8625725 117.25757 14.4012553L117.098129 14.4012553C115.708713 11.3086781 114.364852 8.12378505 113.134877 5.00812885L111.722685 5.07736566C112.998214 8.19302186 114.957062 12.8318878 116.437587 16.0398597L116.460364 16.0398597C115.594827 18.0246481 114.979839 18.5323847 112.064344 18.9939633L112.201008 20.3325416Z" transform="translate(306.005)"/></g></g></svg>