<svg xmlns="http://www.w3.org/2000/svg" width="530" height="60" viewBox="0 0 530 60"><g fill="none" fill-rule="evenodd"><path fill="#000" fill-rule="nonzero" d="M0 43 0 0 11.0331802 0 11.0331802 13.6345228C12.046819 12.9372255 13.0274487 12.3700662 13.9750695 11.9330448 14.9226903 11.4960234 15.8841865 11.1682573 16.8595582 10.9497466 17.8349299 10.7312359 18.8276824 10.6219806 19.8378158 10.6219806 21.8417241 10.6219806 23.5196321 10.9957489 24.8715399 11.7432855 26.2234478 12.4908221 27.2495014 13.5655194 27.9497008 14.9673775 28.6499003 16.3692356 29 18.0794904 29 20.0981419L29 43 17.9265079 43 17.9265079 23.754413C17.9265079 22.4512176 17.6711995 21.5323832 17.1605826 20.9979096 16.6499658 20.4634361 15.9512269 20.1961993 15.064366 20.1961993 14.6267779 20.1961993 14.1926951 20.2423529 13.7621177 20.3346601 13.3315404 20.4269672 12.8927838 20.5549866 12.4458479 20.7187183 11.9989121 20.88245 11.5280229 21.0793215 11.0331802 21.3093328L11.0331802 43 0 43ZM33 25.9440236C33 23.538066 33.2477891 21.3571894 33.7433673 19.4013939 34.2389456 17.4455984 35.0681311 15.7689504 36.230924 14.3714498 37.3937169 12.9739493 38.9760818 11.8959992 40.9780187 11.1375995 42.9799556 10.3791998 45.4872827 10 48.5 10 51.5127173 10 54.0131614 10.3791998 56.0013322 11.1375995 57.989503 11.8959992 59.5718679 12.9739493 60.7484269 14.3714498 61.9249858 15.7689504 62.7610544 17.4455984 63.2566327 19.4013939 63.7522109 21.3571894 64 23.538066 64 25.9440236 64 28.3870049 63.7334656 30.5984408 63.2003968 32.5783312 62.667328 34.5582215 61.8005055 36.246917 60.5999291 37.6444175 59.3993528 39.041918 57.8076153 40.1172236 55.8247166 40.8703342 53.8418178 41.6234447 51.4002457 42 48.5 42 45.5997543 42 43.1580357 41.6234447 41.1748441 40.8703342 39.1916525 40.1172236 37.599915 39.041918 36.3996315 37.6444175 35.1993481 36.246917 34.332672 34.5582215 33.7996032 32.5783312 33.2665344 30.5984408 33 28.3870049 33 25.9440236ZM44.3772109 25.9440236C44.3772109 27.9268523 44.5101852 29.4793532 44.7761338 30.6015261 45.0420824 31.7236991 45.4814248 32.5123642 46.094161 32.9675216 46.7068972 33.4226789 47.5088435 33.6502576 48.5 33.6502576 49.5017007 33.6502576 50.2994 33.4226789 50.8930981 32.9675216 51.4867961 32.5123642 51.9235025 31.7236991 52.2032171 30.6015261 52.4829318 29.4793532 52.6227891 27.9268523 52.6227891 25.9440236 52.6227891 23.9711854 52.4949405 22.4330827 52.2392432 21.3297154 51.9835459 20.2263482 51.5588483 19.4470859 50.9651502 18.9919286 50.3714522 18.5367713 49.5497354 18.3091926 48.5 18.3091926 47.4502646 18.3091926 46.6285478 18.5367713 46.0348498 18.9919286 45.4411517 19.4470859 45.0164541 20.2263482 44.7607568 21.3297154 44.5050595 22.4330827 44.3772109 23.9711854 44.3772109 25.9440236ZM67 55 67 11.5251217 77.1225946 11.5251217 77.4757083 13.9930144C79.1645908 12.9606933 80.8010116 12.2037772 82.3849705 11.7222663 83.9689295 11.2407554 85.5919747 11 87.2541061 11 90.7323362 11 93.392876 12.3443175 95.2357256 15.0329525 97.0785752 17.7215875 98 21.6249024 98 26.7428973 98 30.487451 97.4447672 33.6035315 96.3343017 36.0911387 95.2238362 38.5787459 93.5279687 40.4404187 91.2466993 41.6761573 88.9654298 42.9118959 86.0815188 43.5297652 82.5949662 43.5297652 81.9416463 43.5297652 81.240769 43.4976545 80.4923342 43.4334331 79.7438995 43.3692118 78.996951 43.2905032 78.2514886 43.1973076L78.2514886 55 67 55ZM81.8343449 35.3769373C82.8746632 35.3769373 83.7259408 35.1479807 84.3881778 34.6900674 85.0504147 34.2321541 85.5456062 33.4529847 85.8737523 32.352559 86.2018985 31.2521334 86.3659715 29.7604054 86.3659715 27.8773752 86.3659715 25.9322146 86.2345942 24.411363 85.9718395 23.3148205 85.7090848 22.218278 85.3100484 21.4326864 84.7747303 20.9580457 84.2394122 20.483405 83.5559231 20.2460846 82.7242629 20.2460846 82.299813 20.2460846 81.8438564 20.2883512 81.3563929 20.3728845 80.8689295 20.4574177 80.3700225 20.5824253 79.8596721 20.7479074 79.3493216 20.9133894 78.8067213 21.1308459 78.2318711 21.400277L78.2318711 34.77475C78.8364447 34.9689076 79.4441392 35.1178116 80.0549547 35.2214619 80.6657702 35.3251122 81.2589002 35.3769373 81.8343449 35.3769373ZM100 36.5226614C100 34.6705834 100.501177 33.2871204 101.503531 32.3722722 102.505886 31.4574241 104.171375 31 106.5 31 108.846478 31 110.516431 31.4574241 111.509859 32.3722722 112.503286 33.2871204 113 34.6705834 113 36.5226614 113 38.3445241 112.503286 39.7128796 111.509859 40.6277278 110.516431 41.5425759 108.846478 42 106.5 42 104.173288 42 102.508277 41.5425759 101.504966 40.6277278 100.501655 39.7128796 100 38.3445241 100 36.5226614ZM129.045068 55C124.441593 55 120.94988 54.358098 118.569928 53.074294 116.189976 51.7904901 115 49.8567492 115 47.2730713 115 46.2338865 115.185539 45.2926088 115.556616 44.4492382 115.927693 43.6058677 116.480192 42.8523694 117.214114 42.1887433 117.948035 41.5251173 118.847207 40.9677309 119.911628 40.5165842L125.130233 42.520854C124.777974 42.7267863 124.481729 42.9337603 124.2415 43.1417758 124.00127 43.3497914 123.819848 43.5778942 123.697233 43.8260844 123.574619 44.0742746 123.513312 44.3769238 123.513312 44.734032 123.513312 45.3292124 123.698115 45.8025295 124.067723 46.1539835 124.43733 46.5054375 125.08201 46.7634482 126.001764 46.9280155 126.921518 47.0925829 128.186768 47.1748666 129.797514 47.1748666 131.310051 47.1748666 132.571772 47.0803817 133.582678 46.8914119 134.593585 46.7024422 135.354999 46.4338671 135.866921 46.0856866 136.378843 45.7375061 136.634804 45.3012389 136.634804 44.776885 136.634804 44.3822804 136.556148 44.0824584 136.398837 43.8774187 136.241526 43.6723791 135.91529 43.5200129 135.420128 43.4203202 134.924967 43.3206275 134.181342 43.2707812 133.189254 43.2707812L127.511949 43.2707812C125.246084 43.2707812 123.269407 43.0205078 121.581917 42.5199612 119.894427 42.0194145 118.586394 41.2438945 117.657819 40.1934013 116.729244 39.142908 116.264956 37.7978004 116.264956 36.1580786 116.264956 34.4701472 116.702192 33.0613553 117.576664 31.9317031 118.451136 30.8020508 119.598182 29.8699984 121.017803 29.1355459L126.417241 30.4907715C125.812109 30.8550218 125.363847 31.2215041 125.072454 31.5902183 124.781061 31.9589326 124.635365 32.4197509 124.635365 32.9726735 124.635365 33.5363092 124.846926 33.9602264 125.270048 34.244425 125.69317 34.5286236 126.343438 34.670723 127.22085 34.670723L136.975301 34.670723C140.153275 34.670723 142.619233 35.444011 144.373176 36.9905871 146.127118 38.5371632 147.00409 40.6740094 147.00409 43.4011257 147.00409 45.8848132 146.333093 47.9924956 144.991099 49.7241727 143.649105 51.4558499 141.647728 52.7680738 138.986969 53.6608443 136.32621 54.5536148 133.012243 55 129.045068 55ZM130.169767 32.2986317C125.600989 32.2986317 122.16382 31.3839884 119.85826 29.5547016 117.5527 27.7254148 116.39992 25.0249329 116.39992 21.4532557 116.39992 17.8440822 117.5527 15.1316966 119.85826 13.316099 122.16382 11.5005014 125.600989 10.5927026 130.169767 10.5927026 134.738546 10.5927026 138.175715 11.5005014 140.481275 13.316099 142.786835 15.1316966 143.939615 17.8440822 143.939615 21.4532557 143.939615 25.0249329 142.786835 27.7254148 140.481275 29.5547016 138.175715 31.3839884 134.738546 32.2986317 130.169767 32.2986317ZM130.169767 25.3912664C131.320048 25.3912664 132.166439 25.1136148 132.708941 24.5583115 133.251443 24.0030082 133.522694 22.9679896 133.522694 21.4532557 133.522694 19.9010254 133.251443 18.8444315 132.708941 18.283474 132.166439 17.7225166 131.320048 17.4420378 130.169767 17.4420378 129.030072 17.4420378 128.186327 17.7225166 127.638532 18.283474 127.090738 18.8444315 126.81684 19.9010254 126.81684 21.4532557 126.81684 22.9679896 127.090738 24.0030082 127.638532 24.5583115 128.186327 25.1136148 129.030072 25.3912664 130.169767 25.3912664ZM142.203609 19.0677729 138.095589 13.3790393C138.649559 11.8916836 139.480513 10.7900049 140.588452 10.0740029 141.696391 9.35800097 143.08455 9 144.752927 9 145.377466 9 145.967161 9.0422578 146.522013 9.12677341 147.076864 9.21128902 147.569527 9.33806243 148 9.50709364L146.721812 17.8973508C146.40425 17.8211677 146.062577 17.7571858 145.696792 17.7054051 145.331008 17.6536245 144.951697 17.6277341 144.558861 17.6277341 144.087223 17.6277341 143.650428 17.7415623 143.248476 17.9692188 142.846525 18.1968753 142.498236 18.56306 142.203609 19.0677729ZM170.149724 42.5252083 168.884036 40.2757708C167.414378 41.1805625 165.930616 41.8607986 164.432752 42.3164792 162.934888 42.7721597 161.363541 43 159.71871 43 156.265161 43 153.615322 41.6511736 151.769193 38.9535208 149.923064 36.2558681 149 32.3536181 149 27.2467708 149 23.4800903 149.554017 20.3597535 150.66205 17.8857604 151.770084 15.4117674 153.463309 13.5590347 155.741725 12.3275625 158.020141 11.0960903 160.897703 10.4803542 164.374411 10.4803542 165.084004 10.4803542 165.813934 10.5048403 166.564202 10.5538125 167.314471 10.6027847 168.041432 10.6816181 168.745087 10.7903125L168.745087 0 180 0 180 42.5252083 170.149724 42.5252083ZM168.745087 32.5474167 168.745087 19.1923333C168.112688 18.9803194 167.501666 18.8334028 166.912022 18.7515833 166.322377 18.6697639 165.729466 18.6288542 165.133289 18.6288542 164.107794 18.6288542 163.260143 18.8557986 162.590334 19.3096875 161.920526 19.7635764 161.422327 20.529066 161.095736 21.6061562 160.769145 22.6832465 160.60585 24.1880972 160.60585 26.1207083 160.60585 28.0013611 160.737971 29.4971042 161.002212 30.6079375 161.266454 31.7187708 161.671427 32.5135243 162.21713 32.9921979 162.762834 33.4708715 163.43858 33.7102083 164.244368 33.7102083 164.692689 33.7102083 165.154815 33.6681042 165.630746 33.5838958 166.106678 33.4996875 166.608292 33.3681493 167.135588 33.1892812 167.662884 33.0104132 168.199383 32.7964583 168.745087 32.5474167ZM184 42 184 10.5742969 193.950671 10.5742969 193.950671 13.2833628C195.19655 12.4901153 196.356819 11.856594 197.431477 11.3827991 198.506136 10.9090042 199.563848 10.560089 200.604613 10.3360534 201.645377 10.1120178 202.727633 10 203.851378 10 205.923558 10 207.637373 10.388099 208.992821 11.1642971 210.34827 11.9404952 211.354995 13.0123665 212.012997 14.3799108 212.670999 15.7474552 213 17.3539908 213 19.1995177L213 42 201.958893 42 201.958893 22.9629567C201.958893 21.6671995 201.698117 20.7571483 201.176566 20.2328033 200.655015 19.7084584 199.962973 19.4462859 199.100441 19.4462859 198.676188 19.4462859 198.24463 19.4959386 197.805767 19.5952441 197.366904 19.6945496 196.922198 19.8237664 196.471648 19.9828945 196.021098 20.1420226 195.544251 20.3358478 195.041107 20.56437L195.041107 42 184 42Z" transform="translate(91 5)"/><path fill="#3A5AC4" fill-rule="nonzero" d="M72.4344659,14.1970184 C70.510254,14.5840413 69.2613336,16.4350907 69.6369275,18.3433047 C69.820299,19.269131 70.3693458,20.0841787 71.1621858,20.6075166 C71.9550257,21.1308545 72.9260565,21.3191799 73.8597205,21.1306866 C73.9498068,21.1128473 74.1407896,21.0771689 74.439876,20.9915405 C75.3504957,20.7245389 76.1164087,20.1097848 76.5686359,19.2829078 C77.020863,18.4560308 77.1222412,17.484982 76.8504039,16.5839985 C76.2884067,14.7238997 74.3180931,13.6590993 72.4340155,14.197286 L72.4344659,14.1970184 Z M31.1475096,20.6198252 C38.0899666,23.1721246 44.0824669,28.59622 49.1250104,36.8921114 C53.0597706,30.6897076 55.8738898,27.2521281 57.5673679,26.5793728 C60.1075851,25.5702399 63.787211,28.578674 60.9147854,31.2448331 C56.184689,35.6352652 54.0547967,39.7327611 52.5666343,42.5326549 C56.5126128,42.8470629 59.3397602,43.6990371 59.3397602,44.700571 C59.3397602,45.3104133 58.2702212,45.8952809 56.3663336,46.3265081 C54.462446,46.7577354 51.8802038,46.9999979 49.1876776,47 C46.4951514,46.9999979 43.9129092,46.7577354 42.0090216,46.3265081 C40.1051339,45.8952809 39.0355949,45.3104133 39.0355949,44.700571 C39.0355949,43.7296064 41.692793,42.899211 45.4499875,42.5620566 C42.1501945,37.7667767 37.2257447,29.6386597 28.904231,26.5793728 C28.1053221,26.2837021 27.4580898,25.685402 27.1053857,24.9165242 C26.7526817,24.1476465 26.7235031,23.2714037 27.02429,22.4811928 C27.6463039,20.8421991 29.4899065,20.0099316 31.1475096,20.6198252 Z M68.2982396,21.9777708 C68.5423134,22.7867346 68.4512893,23.6586076 68.0452493,24.4010335 C67.6392093,25.1434594 66.951521,25.6954271 66.1339052,25.935159 C65.8653653,26.012042 65.6938881,26.0440765 65.6130026,26.0600938 C64.7746961,26.2293357 63.9028392,26.0602445 63.1909741,25.5903565 C62.479109,25.1204685 61.9861378,24.3886637 61.8214944,23.5573945 C61.4842609,21.8440714 62.6056259,20.1820745 64.3329085,19.8348196 C66.0245603,19.3515993 67.7936407,20.3076488 68.2982396,21.9777708 Z M13.256912,0 C5.97046339,0.00110885925 0.00111992385,5.91007196 0,13.1259366 C-0.00111992385,20.3417273 5.96658098,26.2644402 13.2530296,26.2633314 C20.5395528,26.2621486 26.5088216,20.3378832 26.5099415,13.1220925 C26.5110614,5.90637577 20.5434352,-0.0010349353 13.256912,0 Z"/><g transform="translate(327 10)"><path fill="#000" fill-rule="nonzero" d="M24.6160761,9.08617886 C24.5829291,9.15399458 24.5414954,9.68804336 24.4917749,10.6883252 C24.4420545,11.688607 24.4171942,12.7058428 24.4171942,13.7400325 C24.4171942,14.7911762 24.4420545,15.6727805 24.4917749,16.3848455 C24.5414954,16.8426016 24.6740833,17.2876423 24.8895386,17.7199675 C25.1049939,18.1522927 25.361883,18.444748 25.6602057,18.5973333 C26.2402777,18.6312412 26.6794751,18.3599783 26.9777979,17.7835447 L26.9529377,17.7835447 C27.102099,17.4614201 27.1766797,16.9782331 27.1766797,16.3339837 C27.1766797,15.8253659 27.2098267,15.4269485 27.2761206,15.1387317 C27.6904578,15.2065474 28.0882215,15.2404553 28.4694117,15.2404553 L29.6129822,15.2150244 C30.2096277,15.2150244 30.7731263,15.2828401 31.3034779,15.4184715 C31.5023597,16.0118591 31.6018006,16.6306775 31.6018006,17.2749268 C31.6018006,18.2413008 31.3656284,19.156813 30.8932841,20.0214634 C30.4209397,20.8861138 29.7704304,21.5897019 28.941756,22.1322276 C28.1130817,22.6747534 27.1932532,22.9629702 26.1822705,22.996878 C25.8839478,23.0477398 25.5359046,23.0731707 25.1381409,23.0731707 C23.8454089,23.0731707 22.7101251,22.776477 21.7322894,22.1830894 C20.7544537,21.5897019 20.2075287,20.6996206 20.0915143,19.5128455 C20.0086468,17.8174526 19.9672131,15.9949051 19.9672131,14.0452033 C19.9672131,12.4345799 19.9754999,11.1121734 19.9920733,10.0779837 L20.0169336,8.9335935 C20.0003601,8.67928455 20.0210769,8.38682927 20.0790841,8.05622764 C20.1370914,7.72562602 20.2158154,7.43317073 20.3152563,7.17886179 C20.4644177,6.78892141 20.6591562,6.39898103 20.8994717,6.00904065 C21.1397873,5.61910027 21.392533,5.29697561 21.6577087,5.04266667 C22.0057519,4.75444986 22.51953,4.50861789 23.199043,4.30517073 C23.8454089,4.10172358 24.5166351,4 25.2127216,4 C26.3397187,4 27.4004218,4.26702439 28.394831,4.80107317 C29.3892402,5.33512195 30.1847675,6.06414092 30.781413,6.98813008 C31.3780585,7.91211924 31.6763813,8.91663957 31.6763813,10.0016911 C31.6763813,10.6459404 31.5603669,11.2901897 31.3283381,11.934439 C30.6322517,12.0870244 30.0521796,12.1633171 29.588122,12.1633171 C28.9583295,12.1633171 28.0882215,12.0531165 26.9777979,11.8327154 L26.9032172,10.8663415 C26.8700702,10.0864607 26.7747727,9.49731165 26.6173246,9.09889431 C26.4598764,8.70047696 26.1242633,8.50974526 25.6104853,8.52669919 C25.5939118,8.52669919 25.5731949,8.53093767 25.5483347,8.53941463 C25.5234745,8.5478916 25.4861841,8.55213008 25.4364636,8.55213008 L25.4613239,8.55213008 C24.9475458,8.63689973 24.6657965,8.81491599 24.6160761,9.08617886 Z M43.3610619,21.1307281 C43.3773869,21.3274312 43.3855495,21.6142898 43.3855495,21.991304 C43.3855495,22.3355343 43.3569806,22.5773151 43.2998428,22.7166465 C43.242705,22.8559778 43.1569983,22.9420354 43.0427227,22.9748192 C42.9284471,23.007603 42.732546,23.023995 42.4550196,23.023995 L42.2836062,23.023995 L41.8918041,22.9994071 L41.2551257,23.023995 C40.2429704,23.0567788 38.749225,23.0731707 36.7738895,23.0731707 C34.8965046,23.0731707 33.4027592,23.0649748 32.2926533,23.0485829 L32.2926533,22.4830616 C32.4069289,19.7783946 32.4640667,17.0573358 32.4640667,14.319885 C32.4640667,13.5166809 32.4477416,12.1315636 32.4150915,10.1645331 L32.4150915,9.57442393 L32.4150915,8.66467233 C32.3987664,8.38600967 32.3906038,7.88605609 32.3906038,7.16481157 L32.3661162,5.56659929 C32.5946674,5.48463969 32.9130066,5.41497402 33.3211337,5.3576023 C33.7292609,5.30023058 34.1373881,5.27154472 34.5455152,5.27154472 C35.0026176,5.27154472 35.4597201,5.30432856 35.9168225,5.36989624 C36.3739249,5.43546392 36.7412393,5.52561949 37.0187658,5.64036293 C36.9861156,6.82058123 36.9697905,7.76311668 36.9697905,8.46796928 C36.9697905,9.45148453 36.9861156,10.9267574 37.0187658,12.8937879 C37.0350909,13.8773031 37.0432534,15.3279881 37.0432534,17.2458429 L37.0432534,18.8440552 C37.5819813,18.8440552 38.2431473,18.868643 39.0267514,18.9178188 L40.3245958,18.9669946 C41.0102494,19.0161703 41.6550903,19.0407582 42.2591185,19.0407582 C42.6835708,19.0407582 43.0590478,19.0243663 43.3855495,18.9915824 C43.3855495,19.3685966 43.3773869,19.6144754 43.3610619,19.7292189 L43.3610619,19.704631 C43.3284117,20.1472129 43.3202491,20.4668553 43.3365742,20.6635584 L43.3610619,21.1307281 Z M55.0947177,20.709678 C55.0947177,21.5645584 55.0055204,22.3272457 54.8271259,22.9977401 C54.1135478,22.9977401 53.0593983,23.0145025 51.6646774,23.0480272 L48.4779024,23.0731707 C47.0345285,23.0731707 45.5911546,23.0228837 44.1477807,22.9223095 C44.1639983,22.385914 44.1396718,20.2990002 44.0748011,16.6615681 C44.026148,14.5997979 44.0018215,13.0157549 44.0018215,11.9094392 C44.0018215,9.61299588 44.0585834,7.47579502 44.1721072,5.49783657 L46.3128415,5.42240595 C48.7130588,5.32183179 50.5456572,5.27154472 51.8106366,5.27154472 C52.8972214,5.27154472 53.9513709,5.31345061 54.973085,5.39726241 C55.0379558,5.74927197 55.0703911,6.15994978 55.0703911,6.62929585 C55.0703911,6.88073125 55.0541735,7.29140906 55.0217381,7.86132929 C54.9893027,8.3977248 54.973085,8.81678379 54.973085,9.11850627 C54.000024,9.33641695 52.9134391,9.44537228 51.7133305,9.44537228 L48.550882,9.47051582 C48.4697936,10.2583467 48.4292494,10.9120788 48.4292494,11.4317119 C48.4292494,11.8340085 48.4779024,12.1860181 48.5752085,12.4877406 L50.1807593,12.2865923 C50.4078069,12.2865923 50.7483782,12.3033546 51.2024734,12.3368793 L51.5187182,12.3620229 C51.5998067,12.8648937 51.6403509,13.4096704 51.6403509,13.9963529 L51.5916978,16.0078361 C51.0727319,16.1586973 50.3753715,16.234128 49.4996165,16.234128 L48.8671268,16.2089844 C48.753603,16.2089844 48.6806235,16.2257468 48.6481881,16.2592715 L48.550882,17.5667356 C48.550882,18.2539923 48.5833174,18.8239125 48.6481881,19.2764963 C49.4915077,19.2764963 50.3105008,19.3016398 51.1051673,19.3519269 C51.3808679,19.3686892 51.7214393,19.3854516 52.1268814,19.402214 C52.5323235,19.4189763 53.0107452,19.4273575 53.5621465,19.4273575 L55.0460646,19.3770704 C55.0785,20.148139 55.0947177,20.5923415 55.0947177,20.709678 Z M66.1876138,5.57284163 C65.6892373,8.33473001 65.1265542,11.0212942 64.4995644,13.6325341 C63.8725746,16.243774 63.0848182,19.3571755 62.1362952,22.9727384 C61.7826087,22.9727384 61.5414588,22.9811078 61.4128455,22.9978465 L61.1716956,23.0229546 C60.8823157,23.056432 60.5848974,23.0731707 60.2794409,23.0731707 C59.2666112,23.0731707 58.4788548,22.9727384 57.9161717,22.7718738 C56.5175022,17.6330876 55.5770175,11.9670317 55.0947177,5.77370624 C55.2394076,5.60631906 55.5368258,5.48077868 55.9869724,5.3970851 C56.4371189,5.31339151 56.9354954,5.27154472 57.4821018,5.27154472 C57.996555,5.27154472 58.5753148,5.33013023 59.2183812,5.44730125 L59.3630712,7.68192003 C59.4595312,9.33905306 59.5640295,10.7743981 59.6765661,11.9879551 C59.7891027,13.2015121 59.9498693,14.4025151 60.1588659,15.590964 C60.3517859,14.6703346 60.6492041,12.9964628 61.0511206,10.5693488 C61.5334204,7.6065958 61.8549537,5.84066111 62.0157203,5.27154472 C62.6427101,5.40545446 63.3581215,5.47240932 64.1619545,5.47240932 C64.9657876,5.47240932 65.5365091,5.50588676 65.874119,5.57284163 L66.1876138,5.57284163 Z M77.896782,20.709678 C77.896782,21.5645584 77.8075848,22.3272457 77.6291902,22.9977401 C76.9156121,22.9977401 75.8614626,23.0145025 74.4667418,23.0480272 L71.2799668,23.0731707 C69.8365928,23.0731707 68.3932189,23.0228837 66.949845,22.9223095 C66.9660627,22.385914 66.9417362,20.2990002 66.8768654,16.6615681 C66.8282124,14.5997979 66.8038859,13.0157549 66.8038859,11.9094392 C66.8038859,9.61299588 66.8606477,7.47579502 66.9741715,5.49783657 L69.1149059,5.42240595 C71.5151232,5.32183179 73.3477215,5.27154472 74.6127009,5.27154472 C75.6992858,5.27154472 76.7534353,5.31345061 77.7751494,5.39726241 C77.8400201,5.74927197 77.8724555,6.15994978 77.8724555,6.62929585 C77.8724555,6.88073125 77.8562378,7.29140906 77.8238024,7.86132929 C77.7913671,8.3977248 77.7751494,8.81678379 77.7751494,9.11850627 C76.8020883,9.33641695 75.7155035,9.44537228 74.5153948,9.44537228 L71.3529463,9.47051582 C71.2718579,10.2583467 71.2313137,10.9120788 71.2313137,11.4317119 C71.2313137,11.8340085 71.2799668,12.1860181 71.3772729,12.4877406 L72.9828236,12.2865923 C73.2098712,12.2865923 73.5504426,12.3033546 74.0045378,12.3368793 L74.3207826,12.3620229 C74.401871,12.8648937 74.4424152,13.4096704 74.4424152,13.9963529 L74.3937622,16.0078361 C73.8747963,16.1586973 73.1774358,16.234128 72.3016809,16.234128 L71.6691912,16.2089844 C71.5556674,16.2089844 71.4826878,16.2257468 71.4502525,16.2592715 L71.3529463,17.5667356 C71.3529463,18.2539923 71.3853817,18.8239125 71.4502525,19.2764963 C72.293572,19.2764963 73.1125651,19.3016398 73.9072316,19.3519269 C74.1829323,19.3686892 74.5235037,19.3854516 74.9289458,19.402214 C75.3343879,19.4189763 75.8128096,19.4273575 76.3642108,19.4273575 L77.848129,19.3770704 C77.8805643,20.148139 77.896782,20.5923415 77.896782,20.709678 Z M88.8212783,18.3782364 C89.4901006,19.3726496 90.0293386,20.2121951 90.4389923,20.896873 C90.848646,21.581551 91.1872373,22.2743798 91.4547662,22.9753596 L91.0534728,22.9753596 C90.8528261,22.9753596 90.4013711,22.9916615 89.6991076,23.0242652 C88.9968442,23.0568689 88.4367054,23.0731707 88.0186915,23.0731707 C87.7846037,23.0731707 87.4334719,23.0568689 86.9652963,23.0242652 L86.5389221,22.9998124 C85.4520858,20.5871378 84.4822934,18.7776319 83.6295449,17.5712946 L83.6295449,18.2070669 C83.6295449,19.2177819 83.6880669,20.5219304 83.8051108,22.1195122 L83.8051108,22.0950594 C83.8218313,22.2091724 83.8301916,22.4047947 83.8301916,22.6819262 C83.2616926,22.9427559 82.3253414,23.0731707 81.0211378,23.0731707 L80.4191977,23.0487179 L79.0899133,23.0487179 C78.9059872,23.0487179 78.8140241,21.5734 78.8140241,18.6227642 C78.8140241,15.94926 78.7889433,13.2716802 78.7387816,10.590025 C78.6886199,7.90836981 78.6133774,6.2985616 78.513054,5.76060038 L79.1902367,5.66278924 C80.1934702,5.5323744 81.0211378,5.43456327 81.6732396,5.36935585 C82.3253414,5.30414843 82.9941637,5.27154472 83.6797066,5.27154472 C84.4154112,5.27154472 85.0424321,5.30414843 85.5607694,5.36935585 C86.5305618,5.48346883 87.4376521,5.80950594 88.2820403,6.34746717 C89.1264285,6.88542839 89.8036111,7.54565353 90.3135881,8.32814259 C90.8235652,9.11063164 91.0785537,9.91757348 91.0785537,10.7489681 C91.0785537,11.547759 90.8110247,12.4199083 90.2759669,13.3654159 C89.9415557,13.9522827 89.4984609,14.4413383 88.9466825,14.8325829 C88.3949041,15.2238274 87.734442,15.4602043 86.9652963,15.5417136 C87.4167514,16.3242026 87.943449,17.1392954 88.5453891,17.9869919 C88.662433,18.1826141 88.7543961,18.313029 88.8212783,18.3782364 Z M85.2096377,12.1427767 C85.4437255,12.0775693 85.6276516,11.9145508 85.7614161,11.6537211 C85.8951806,11.3928914 85.9620628,11.0831561 85.9620628,10.7245153 C85.9620628,10.0561393 85.7948572,9.62414009 85.4604461,9.42851782 C85.2430788,9.29810298 85.0215314,9.2165937 84.7958039,9.18398999 C84.5700763,9.15138628 84.3150878,9.13508443 84.0308383,9.13508443 L82.9523623,9.30625391 C82.9858034,9.79530957 83.002524,10.2110069 83.002524,10.5533458 C83.002524,11.433646 83.0276048,11.9716073 83.0777665,12.1672295 C83.362016,12.1998332 83.7131477,12.2161351 84.1311617,12.2161351 C84.5157345,12.2161351 84.8752265,12.1916823 85.2096377,12.1427767 Z M101.014179,4 C102.141176,4 103.201879,4.26702439 104.196288,4.80107317 C105.190697,5.33512195 105.986225,6.06414092 106.58287,6.98813008 C107.179516,7.91211924 107.477838,8.91663957 107.477838,10.0016911 C107.477838,10.6459404 107.361824,11.2901897 107.129795,11.934439 C106.433709,12.0870244 105.853637,12.1633171 105.389579,12.1633171 C104.759787,12.1633171 103.889679,12.0531165 102.779255,11.8327154 L102.704674,10.8663415 C102.671527,10.0864607 102.57623,9.49731165 102.418782,9.09889431 C102.261334,8.70047696 101.925721,8.50974526 101.411942,8.52669919 C101.395369,8.52669919 101.374652,8.53093767 101.349792,8.53941463 C101.324932,8.5478916 101.287641,8.55213008 101.237921,8.55213008 L101.262781,8.55213008 C100.749003,8.63689973 100.467254,8.81491599 100.417533,9.08617886 C100.384386,9.15399458 100.342953,9.68804336 100.293232,10.6883252 C100.243512,11.688607 100.218651,12.7058428 100.218651,13.7400325 C100.218651,14.7911762 100.243512,15.6727805 100.293232,16.3848455 C100.342953,16.8426016 100.47554,17.2876423 100.690996,17.7199675 C100.906451,18.1522927 101.16334,18.444748 101.461663,18.5973333 C102.041735,18.6312412 102.480932,18.3599783 102.779255,17.7835447 L102.754395,17.7835447 C102.903556,17.4614201 102.978137,16.9782331 102.978137,16.3339837 C102.978137,15.8253659 103.011284,15.4269485 103.077578,15.1387317 C103.491915,15.2065474 103.889679,15.2404553 104.270869,15.2404553 L105.414439,15.2150244 C106.011085,15.2150244 106.574583,15.2828401 107.104935,15.4184715 C107.303817,16.0118591 107.403258,16.6306775 107.403258,17.2749268 C107.403258,18.2413008 107.167086,19.156813 106.694741,20.0214634 C106.222397,20.8861138 105.571888,21.5897019 104.743213,22.1322276 C103.914539,22.6747534 102.99471,22.9629702 101.983728,22.996878 C101.685405,23.0477398 101.337362,23.0731707 100.939598,23.0731707 C99.6468661,23.0731707 98.5115823,22.776477 97.5337466,22.1830894 C96.5559109,21.5897019 96.0089859,20.6996206 95.8929715,19.5128455 C95.810104,17.8174526 95.7686703,15.9949051 95.7686703,14.0452033 C95.7686703,12.4345799 95.7769571,11.1121734 95.7935305,10.0779837 L95.8183908,8.9335935 C95.8018173,8.67928455 95.8225341,8.38682927 95.8805413,8.05622764 C95.9385485,7.72562602 96.0172726,7.43317073 96.1167135,7.17886179 C96.2658749,6.78892141 96.4606134,6.39898103 96.7009289,6.00904065 C96.9412445,5.61910027 97.1939901,5.29697561 97.4591659,5.04266667 C97.8072091,4.75444986 98.3209872,4.50861789 99.0005002,4.30517073 C99.6468661,4.10172358 100.318092,4 101.014179,4 Z M115.402482,5.27154472 C115.605678,6.04517063 115.791941,6.80645144 115.961271,7.55538717 C116.130601,8.30432289 116.282998,8.97507301 116.418461,9.56763754 C116.960317,11.855595 117.324377,13.3781567 117.51064,14.1353224 L119.187007,22.9003394 C118.645151,23.0155603 118.060962,23.0731707 117.434441,23.0731707 C116.689389,23.0731707 115.876606,22.98264 114.99609,22.8015787 C114.877559,22.4888363 114.691296,21.8304312 114.437301,20.8263636 C114.183306,19.8058358 113.98011,19.1309706 113.827713,18.8017681 L113.319723,18.7770779 L112.887931,18.8017681 C112.820199,18.9992896 112.710135,19.4848633 112.557738,20.2584892 C112.439207,20.9004341 112.320676,21.4230431 112.202145,21.8263162 C112.083614,22.2295893 111.914284,22.5958271 111.694155,22.9250296 C111.524825,22.9579499 111.27083,22.97441 110.93217,22.97441 C110.779773,22.97441 110.44958,22.9579499 109.94159,22.9250296 C108.468419,22.8591891 107.647168,22.8262688 107.477838,22.8262688 C107.477838,22.7439682 107.494771,22.5505617 107.528637,22.2460494 C107.562503,21.9415371 107.613302,21.5999895 107.681034,21.2214066 L108.239823,18.1104428 C108.680081,15.5591233 109.099173,13.3370063 109.497099,11.4440919 C109.895024,9.55117741 110.415714,7.55127213 111.059168,5.44437604 C111.29623,5.41145578 111.617957,5.39499566 112.024348,5.39499566 L112.176745,5.39499566 C113.27739,5.39499566 114.352636,5.35384534 115.402482,5.27154472 Z M113.319723,10.4564843 C113.319723,10.4564843 113.30279,10.6540058 113.268924,11.0490489 C113.218125,12.2835583 113.141926,13.2629358 113.040328,13.9871813 L112.811733,15.6414239 L113.878512,15.6414239 C113.505986,12.3493988 113.328189,10.7033862 113.345122,10.7033862 L113.319723,10.4564843 Z M132.477852,5.27154472 C133.064147,5.27154472 133.549936,5.38004033 133.935216,5.59703155 C134.085978,6.21462195 134.316308,6.98243704 134.626207,7.90047683 C134.936107,8.81851661 135.233443,9.6364066 135.518215,10.3541468 C135.601972,10.1872305 135.869993,9.4277612 136.322278,8.07573897 C136.824817,6.57349205 137.10959,5.75560206 137.176595,5.622069 C138.097917,5.43846104 139.010864,5.34665706 139.915435,5.34665706 C140.468228,5.34665706 140.954016,5.38004033 141.372799,5.44680686 C140.970768,6.94905378 140.476604,8.39705289 139.890308,9.7908042 C139.304012,11.1845555 138.508324,12.933004 137.503246,15.0361497 C136.699183,16.6719297 136.02913,18.1032372 135.493088,19.3300722 C134.957046,20.5569071 134.479633,21.8046067 134.060851,23.0731707 C133.658819,23.0230958 133.273539,22.9980584 132.90501,22.9980584 C132.65374,22.9980584 132.310338,23.01475 131.874804,23.0481333 L130.819471,23.0731707 C130.526225,23.0731707 130.194477,23.0539885 129.824227,23.0156242 C129.653886,23.050626 129.41714,23.0682613 129.113536,23.0682613 C129.030815,23.0846261 128.592393,23.0600789 127.798271,22.9946197 C127.59974,22.9782549 127.347441,22.9618901 127.041373,22.9455253 C126.735305,22.9291605 126.557454,22.9291605 126.507822,22.9455253 L125.515169,20.7608249 C124.472883,18.502483 123.786298,16.9396449 123.455414,16.0723106 L123.455414,20.7853721 C123.455414,21.7999895 123.463686,22.4954934 123.48023,22.8718837 C123.033537,23.0028021 122.545482,23.0682613 122.016067,23.0682613 C121.850625,23.0682613 121.602462,23.0518965 121.271578,23.0191669 C120.907605,22.9864373 120.642898,22.9700725 120.477455,22.9700725 L119.261456,22.9209781 L119.261456,21.0799385 C119.261456,20.0325915 119.244911,18.543395 119.211823,16.6123489 C119.198588,15.8399305 119.190646,14.7480713 119.187999,13.3367712 L119.187007,12.218401 C119.187007,9.58366869 119.261456,7.37442111 119.410354,5.59065825 C119.857047,5.47610468 120.353374,5.41882789 120.899333,5.41882789 C121.263306,5.41882789 121.705863,5.45155748 122.227006,5.51701667 C122.748149,5.58247586 123.107986,5.68066464 123.306516,5.81158301 C123.538135,6.23706773 123.823523,6.83029162 124.162679,7.59125467 C124.501836,8.35221772 124.828584,9.10908958 125.142924,9.86187023 L126.135577,12.1202122 C126.102489,10.9746764 126.085944,9.62458068 126.085944,8.06992498 C126.085944,6.80983562 126.094216,5.94250139 126.110761,5.46792228 C126.789073,5.3370039 127.508747,5.27154472 128.269781,5.27154472 C128.848924,5.27154472 129.448061,5.33087465 130.067191,5.44953452 C130.373161,5.44952244 130.78337,5.422863 131.296884,5.37169451 C131.832926,5.30492798 132.226582,5.27154472 132.477852,5.27154472 Z M131.975312,16.7887711 L133.005518,14.1848764 C132.838005,13.5172111 132.628613,12.8620646 132.377344,12.2194367 C132.126074,11.5768089 131.807799,10.8131667 131.422519,9.92851017 C130.970233,8.8101708 130.631019,7.95055172 130.404876,7.34965296 L130.279,7.001 L130.27875,21.2597661 L130.440283,20.8212488 C130.842314,19.7353271 131.353991,18.3911678 131.975312,16.7887711 Z M152.393034,9.59304289 C152.441475,10.1004915 152.465695,10.6161248 152.465695,11.1399428 L152.441475,11.5819142 L152.441475,12.0238856 C152.409181,12.5640729 152.393034,13.3579845 152.393034,14.4056204 C152.393034,15.5678415 152.368814,16.4517843 152.320373,17.0574488 L152.247713,17.8677297 C152.166978,19.193644 151.835967,20.3231264 151.25468,21.2561772 C151.012477,21.5999327 150.649173,21.902765 150.164767,22.164674 C149.680361,22.4265829 149.147514,22.639384 148.566227,22.8030771 C147.968793,22.9831395 147.266405,23.0731707 146.459061,23.0731707 C146.087684,23.0731707 145.829334,23.0649861 145.684012,23.0486168 C144.892816,22.9831395 144.18639,22.8071694 143.564736,22.5207065 C142.943082,22.2342435 142.486933,21.8127338 142.196289,21.2561772 C141.808764,20.5195582 141.598855,19.5946921 141.566561,18.4815789 L141.518121,17.695852 C141.501974,17.5648975 141.493901,17.2948039 141.493901,16.8855711 C141.413166,15.5432875 141.372799,14.2582966 141.372799,13.0305983 C141.372799,12.2776099 141.397019,11.5246216 141.44546,10.7716333 C141.493901,9.95316774 141.635186,9.15516382 141.869315,8.37762153 C142.103445,7.60007924 142.462712,6.9166605 142.947118,6.32736529 L143.479965,6.03271769 C144.513364,5.52526904 145.643645,5.27154472 146.870807,5.27154472 C147.645856,5.27154472 148.376502,5.37385291 149.062743,5.5784693 C149.748985,5.78308569 150.350456,6.08182562 150.867156,6.47468909 C151.432296,6.99850706 151.803674,7.51414036 151.981289,8.02158901 C152.175052,8.54540697 152.3123,9.06922493 152.393034,9.59304289 Z M148.638888,12.2694253 L148.542007,10.992619 C148.509713,10.5342783 148.400722,10.1291378 148.215033,9.77719765 C148.029344,9.42525745 147.791178,9.17562546 147.500534,9.02830165 C147.371359,8.97919372 147.242184,8.95463975 147.113009,8.95463975 C146.725485,8.95463975 146.346033,9.08559424 145.974656,9.34750322 C145.780893,9.51119634 145.591167,9.74445902 145.405479,10.0472913 C145.21979,10.3501235 145.078505,10.6570481 144.981623,10.968065 C144.820155,11.6883147 144.73942,12.6049962 144.73942,13.7181093 C144.73942,14.2746659 144.747494,14.6920834 144.763641,14.9703616 L144.763641,14.9458077 C144.828228,15.2731939 144.876669,15.7069807 144.908962,16.2471679 L144.933183,16.5909235 C144.99777,17.409389 145.086578,18.0150535 145.199606,18.407917 L145.199606,18.3833631 C145.344928,18.7107493 145.558874,18.9603813 145.841444,19.132259 C146.124014,19.3041368 146.426768,19.3900757 146.749705,19.3900757 C147.008055,19.3900757 147.270441,19.3286908 147.536865,19.2059209 C147.803288,19.0831511 148.033381,18.907181 148.227143,18.6780107 C148.388612,18.4652096 148.48953,18.2851472 148.529897,18.1378234 C148.570264,17.9904996 148.590448,17.7613292 148.590448,17.4503123 C148.590448,17.172034 148.598521,16.9674176 148.614668,16.8364631 L148.638888,16.5172616 L148.663109,16.0507362 L148.663109,15.7069807 L148.687329,15.2404553 L148.687329,14.0618649 L148.638888,12.3921951 L148.638888,12.2694253 Z M159.410129,20.7608249 C158.367844,18.502483 157.681259,16.9396449 157.350375,16.0723106 L157.350375,20.7853721 C157.350375,21.7999895 157.358647,22.4954934 157.375191,22.8718837 C156.928497,23.0028021 156.440443,23.0682613 155.911028,23.0682613 C155.745586,23.0682613 155.497423,23.0518965 155.166538,23.0191669 C154.802566,22.9864373 154.537858,22.9700725 154.372416,22.9700725 L153.156416,22.9209781 L153.156416,21.0799385 C153.156416,20.0325915 153.139872,18.543395 153.106784,16.6123489 C153.090239,15.6468259 153.081967,14.1821766 153.081967,12.218401 C153.081967,9.58366869 153.156416,7.37442111 153.305314,5.59065825 C153.752008,5.47610468 154.248334,5.41882789 154.794293,5.41882789 C155.158266,5.41882789 155.600824,5.45155748 156.121967,5.51701667 C156.643109,5.58247586 157.002946,5.68066464 157.201477,5.81158301 C157.433096,6.23706773 157.718483,6.83029162 158.05764,7.59125467 C158.396796,8.35221772 158.723545,9.10908958 159.037885,9.86187023 L160.030538,12.1202122 C159.997449,10.9746764 159.980905,9.62458068 159.980905,8.06992498 C159.980905,6.80983562 159.989177,5.94250139 160.005721,5.46792228 C160.684034,5.3370039 161.403707,5.27154472 162.164741,5.27154472 C162.809966,5.27154472 163.480006,5.3451863 164.174863,5.49246947 L164.174863,22.8964309 C164.125231,22.8964309 164.025965,22.9209781 163.877068,22.9700725 C163.711625,23.0355317 163.422102,23.0682613 163.008496,23.0682613 C162.925775,23.0846261 162.487353,23.0600789 161.693231,22.9946197 C161.494701,22.9782549 161.242401,22.9618901 160.936333,22.9455253 C160.630265,22.9291605 160.452415,22.9291605 160.402782,22.9455253 L159.410129,20.7608249 Z M102.054645,50 L102.054645,32.3495668 L102.901209,32.3495668 L102.916443,33.7331836 C103.653469,33.2206782 104.362566,32.844111 105.043735,32.603482 C105.724903,32.362853 106.407039,32.2425385 107.090142,32.2425385 C108.388159,32.2425385 109.39232,32.7798326 110.102627,33.8544207 C110.812933,34.9290089 111.168086,36.4535462 111.168086,38.4280327 C111.168086,40.0162334 110.976817,41.3165035 110.59428,42.3288431 C110.211742,43.3411826 109.626208,44.0854595 108.837677,44.5616736 C108.049146,45.0378878 107.045892,45.2759949 105.827913,45.2759949 C105.412006,45.2759949 104.967868,45.2464083 104.495499,45.1872352 C104.02313,45.1280622 103.50778,45.0428701 102.949449,44.9316592 L102.949449,50 L102.054645,50 Z M105.732883,44.5482028 C106.780388,44.5482028 107.634811,44.3465715 108.296152,43.9433087 C108.957492,43.540046 109.449629,42.8917255 109.772561,41.9983472 C110.095493,41.104969 110.25696,39.9311029 110.25696,38.476749 C110.25696,37.3046053 110.122515,36.3163778 109.853627,35.5120668 C109.584738,34.7077557 109.193676,34.0944346 108.680442,33.6721037 C108.167208,33.2497727 107.551992,33.0386072 106.834795,33.0386072 C106.409457,33.0386072 105.995243,33.0869544 105.592152,33.1836489 C105.18906,33.2803434 104.776418,33.4330739 104.354224,33.6418405 C103.93203,33.8506071 103.46353,34.1341089 102.948724,34.492346 L102.948724,44.1839377 C103.525916,44.3049904 104.038787,44.3959644 104.487338,44.4568598 C104.935889,44.5177551 105.351071,44.5482028 105.732883,44.5482028 Z M114.717361,32.4787388 L114.717361,34.0826861 C115.178486,33.653343 115.627641,33.3050706 116.064827,33.0378691 C116.502013,32.7706675 116.94331,32.571312 117.388717,32.4398026 C117.834125,32.3082932 118.28461,32.2425385 118.740173,32.2425385 C119.093936,32.2425385 119.434823,32.2663431 119.762833,32.3139522 C120.090843,32.3615613 120.37551,32.4269469 120.616833,32.5101091 L120.447447,33.3353338 C120.173481,33.2573385 119.882527,33.196197 119.574587,33.1519095 C119.266646,33.107622 118.974363,33.0854782 118.697736,33.0854782 C118.069765,33.0854782 117.430973,33.231135 116.78136,33.5224487 C116.131747,33.8137623 115.459102,34.3083066 114.763425,35.0060815 L114.763425,45.0397946 L113.871885,45.0397946 L113.871885,32.4787388 L114.717361,32.4787388 Z M121.70889,38.7354621 C121.70889,37.5714377 121.799265,36.5768132 121.980016,35.7515886 C122.160766,34.9263639 122.449422,34.2575604 122.845985,33.7451781 C123.242547,33.2327958 123.761464,32.8542603 124.402734,32.6095716 C125.044005,32.3648829 125.831568,32.2425385 126.765425,32.2425385 C127.699039,32.2425385 128.489686,32.3648829 129.137364,32.6095716 C129.785043,32.8542603 130.307163,33.2327958 130.703725,33.7451781 C131.100288,34.2575604 131.388944,34.9263639 131.569695,35.7515886 C131.750445,36.5768132 131.84082,37.5714377 131.84082,38.7354621 C131.84082,39.9282734 131.742707,40.9419662 131.546481,41.7765404 C131.350255,42.6111147 131.049267,43.284593 130.643516,43.7969753 C130.237765,44.3093576 129.714979,44.6839565 129.075159,44.9207718 C128.43534,45.1575872 127.665428,45.2759949 126.765425,45.2759949 C125.877995,45.2759949 125.114371,45.1575872 124.474551,44.9207718 C123.834731,44.6839565 123.311946,44.3093576 122.906195,43.7969753 C122.500443,43.284593 122.199455,42.6111147 122.003229,41.7765404 C121.807003,40.9419662 121.70889,39.9282734 121.70889,38.7354621 Z M122.616027,38.7354621 C122.616027,40.1477428 122.757181,41.2767678 123.03949,42.1225369 C123.321799,42.9683061 123.770894,43.5773829 124.386775,43.9497673 C125.002656,44.3221518 125.795539,44.508344 126.765425,44.508344 C127.750786,44.508344 128.550681,44.3221518 129.165111,43.9497673 C129.779541,43.5773829 130.227911,42.9683061 130.51022,42.1225369 C130.792529,41.2767678 130.933683,40.1477428 130.933683,38.7354621 C130.933683,37.3519683 130.803471,36.241335 130.543045,35.4035623 C130.28262,34.5657895 129.848335,33.9574508 129.240192,33.5785462 C128.632049,33.1996416 127.807127,33.0101893 126.765425,33.0101893 C125.736297,33.0101893 124.917661,33.1996416 124.309518,33.5785462 C123.701375,33.9574508 123.267091,34.5657895 123.006665,35.4035623 C122.74624,36.241335 122.616027,37.3519683 122.616027,38.7354621 Z M142.278526,45.0442234 L142.120748,43.8071245 C141.379369,44.3252888 140.682604,44.6996416 140.030452,44.9301829 C139.3783,45.1607242 138.711761,45.2759949 138.030834,45.2759949 C136.720002,45.2759949 135.703387,44.7417148 134.980991,43.6731547 C134.258594,42.6045946 133.897396,41.0790116 133.897396,39.0964056 C133.897396,37.4959029 134.087274,36.1917576 134.467031,35.1839698 C134.846788,34.1761821 135.431899,33.4339966 136.222364,32.9574134 C137.012829,32.4808301 138.014996,32.2425385 139.228864,32.2425385 C139.673546,32.2425385 140.140716,32.2679423 140.630374,32.31875 C141.120032,32.3695577 141.615493,32.4537655 142.116758,32.5713736 L142.116758,27.5609756 L143.015552,27.5609756 L143.015552,45.0442234 L142.278526,45.0442234 Z M142.116758,43.0261874 L142.116758,33.3390244 C141.54948,33.2157574 141.038483,33.1247834 140.583766,33.0661024 C140.129049,33.0074214 139.708971,32.9780809 139.323531,32.9780809 C138.297305,32.9780809 137.448081,33.181127 136.775859,33.5872192 C136.103637,33.9933114 135.608418,34.6392945 135.290201,35.5251685 C134.971983,36.4110425 134.812875,37.5858312 134.812875,39.0495347 C134.812875,40.2140511 134.95016,41.2008638 135.224732,42.0099727 C135.499303,42.8190816 135.890666,43.431357 136.398822,43.8467988 C136.906979,44.2622406 137.516512,44.4699615 138.227423,44.4699615 C138.660982,44.4699615 139.078702,44.4223524 139.480585,44.3271341 C139.882467,44.2319159 140.29523,44.0779552 140.718875,43.8652519 C141.14252,43.6525487 141.608481,43.3728605 142.116758,43.0261874 Z M149.570484,45.2759949 C148.908902,45.2759949 148.33836,45.1551268 147.858858,44.9133906 C147.379356,44.6716544 147.009573,44.3140939 146.74951,43.8407092 C146.489448,43.3673246 146.359416,42.7791613 146.359416,42.0762195 L146.359416,32.4787388 L147.253495,32.4787388 L147.253495,41.9581194 C147.253495,42.7326594 147.470758,43.3457959 147.905285,43.7975289 C148.339811,44.2492619 148.989665,44.4751284 149.854849,44.4751284 C150.339429,44.4751284 150.802427,44.4193384 151.243845,44.3077583 C151.685263,44.1961783 152.121784,44.0422791 152.553408,43.8460607 C152.985032,43.6498422 153.426329,43.4295732 153.877298,43.1852535 L153.877298,32.4787388 L154.770289,32.4787388 L154.770289,42.9627086 C154.770289,43.3379226 154.814056,43.6387703 154.90159,43.8652519 C154.989124,44.0917335 155.109664,44.2504921 155.263211,44.3415276 C155.416758,44.4325631 155.58433,44.4780809 155.765927,44.4780809 C155.99927,44.4780809 156.231283,44.4228445 156.461967,44.3123716 L156.635342,45.0106386 C156.511053,45.0662441 156.386825,45.1138532 156.262658,45.153466 C156.13849,45.1930787 156.014927,45.2234034 155.891969,45.24444 C155.76901,45.2654766 155.645024,45.2759949 155.52001,45.2759949 C155.173985,45.2759949 154.85335,45.1639843 154.558104,44.9399631 C154.262858,44.7159419 154.07304,44.3699454 153.98865,43.9019737 C153.508906,44.1640083 153.034663,44.4011313 152.565922,44.6133424 C152.09718,44.8255536 151.620277,44.9890485 151.135213,45.103827 C150.65015,45.2186056 150.128573,45.2759949 149.570484,45.2759949 Z M157.784473,38.9676027 C157.784473,37.4271341 157.995086,36.1602027 158.416313,35.1668084 C158.83754,34.1734141 159.455295,33.4376872 160.269578,32.9596277 C161.083861,32.4815682 162.06759,32.2425385 163.220764,32.2425385 C163.567998,32.2425385 163.938809,32.2622219 164.333195,32.3015886 C164.727581,32.3409553 165.123116,32.3928086 165.519799,32.4571486 C165.916483,32.5214886 166.280099,32.6023748 166.610648,32.6998074 L166.463388,33.5014121 C166.132839,33.4098845 165.781857,33.3333039 165.410442,33.2716704 C165.039028,33.2100369 164.668338,33.1602749 164.298375,33.1223845 C163.928411,33.084494 163.573197,33.0655488 163.232734,33.0655488 C162.271553,33.0655488 161.451769,33.2804049 160.773381,33.7101171 C160.094994,34.1398294 159.57916,34.7915329 159.225881,35.6652279 C158.872602,36.5389228 158.695962,37.6561992 158.695962,39.0170571 C158.695962,40.2504653 158.870123,41.2682178 159.218445,42.0703145 C159.566767,42.8724112 160.077644,43.4707237 160.751075,43.8652519 C161.424506,44.2597802 162.241811,44.4570443 163.202992,44.4570443 C163.558931,44.4570443 163.935967,44.4380991 164.334102,44.4002086 C164.732236,44.3623181 165.134239,44.3054209 165.540111,44.229517 C165.945983,44.1536131 166.321931,44.0762944 166.667956,43.997561 L166.823559,44.7825578 C166.306093,44.9168967 165.70599,45.0327209 165.02325,45.1300305 C164.340509,45.2273401 163.691199,45.2759949 163.075318,45.2759949 C161.338423,45.2759949 160.022391,44.7620748 159.127224,43.7342346 C158.232057,42.7063944 157.784473,41.1175171 157.784473,38.9676027 Z M173.090904,45.2759949 C172.365968,45.2759949 171.772575,45.1385189 171.310725,44.8635671 C170.848875,44.5886152 170.511555,44.1846759 170.298765,43.651749 C170.085976,43.1188222 169.979581,42.466565 169.979581,41.6949775 L169.979581,33.2379012 L167.656789,33.2379012 L167.656789,32.6237805 L169.979581,32.4787388 L170.130468,29.3465019 L170.872209,29.3465019 L170.872209,32.4787388 L175.581993,32.4787388 L175.581993,33.2393774 L170.872209,33.2393774 L170.872209,41.6551187 C170.872209,42.6200952 171.061967,43.3282039 171.441482,43.7794448 C171.820997,44.2306857 172.438994,44.4563062 173.295472,44.4563062 C173.728547,44.4563062 174.151285,44.4171855 174.563686,44.3389442 C174.976087,44.2607028 175.381294,44.1533055 175.779308,44.0167522 L175.941801,44.7740693 C175.408135,44.9504814 174.898649,45.0782387 174.413343,45.1573411 C173.928038,45.2364436 173.487225,45.2759949 173.090904,45.2759949 Z M178.285218,29.2778562 C178.028181,29.2778562 177.857406,29.2403348 177.772895,29.165292 C177.688385,29.0902493 177.646129,28.9279846 177.646129,28.6784981 C177.646129,28.4282734 177.686632,28.2656397 177.767638,28.1905969 C177.848644,28.1155541 178.0213,28.0780327 178.285608,28.0780327 C178.559003,28.0780327 178.733736,28.1155541 178.809809,28.1905969 C178.885882,28.2656397 178.923918,28.4282734 178.923918,28.6784981 C178.923918,28.9279846 178.886077,29.0902493 178.810393,29.165292 C178.73471,29.2403348 178.559652,29.2778562 178.285218,29.2778562 Z M177.805804,45.0397946 L177.805804,32.4787388 L178.764243,32.4787388 L178.764243,45.0397946 L177.805804,45.0397946 Z M181.390113,38.7354621 C181.390113,37.5714377 181.480488,36.5768132 181.661238,35.7515886 C181.841988,34.9263639 182.130645,34.2575604 182.527207,33.7451781 C182.92377,33.2327958 183.442686,32.8542603 184.083957,32.6095716 C184.725227,32.3648829 185.512791,32.2425385 186.446647,32.2425385 C187.380262,32.2425385 188.170908,32.3648829 188.818587,32.6095716 C189.466265,32.8542603 189.988385,33.2327958 190.384948,33.7451781 C190.78151,34.2575604 191.070167,34.9263639 191.250917,35.7515886 C191.431667,36.5768132 191.522043,37.5714377 191.522043,38.7354621 C191.522043,39.9282734 191.42393,40.9419662 191.227704,41.7765404 C191.031478,42.6111147 190.730489,43.284593 190.324738,43.7969753 C189.918987,44.3093576 189.396202,44.6839565 188.756382,44.9207718 C188.116562,45.1575872 187.346651,45.2759949 186.446647,45.2759949 C185.559218,45.2759949 184.795593,45.1575872 184.155773,44.9207718 C183.515954,44.6839565 182.993168,44.3093576 182.587417,43.7969753 C182.181666,43.284593 181.880677,42.6111147 181.684451,41.7765404 C181.488226,40.9419662 181.390113,39.9282734 181.390113,38.7354621 Z M182.297249,38.7354621 C182.297249,40.1477428 182.438404,41.2767678 182.720713,42.1225369 C183.003022,42.9683061 183.452117,43.5773829 184.067998,43.9497673 C184.683878,44.3221518 185.476762,44.508344 186.446647,44.508344 C187.432008,44.508344 188.231904,44.3221518 188.846334,43.9497673 C189.460764,43.5773829 189.909133,42.9683061 190.191442,42.1225369 C190.473751,41.2767678 190.614906,40.1477428 190.614906,38.7354621 C190.614906,37.3519683 190.484693,36.241335 190.224268,35.4035623 C189.963842,34.5657895 189.529558,33.9574508 188.921415,33.5785462 C188.313272,33.1996416 187.488349,33.0101893 186.446647,33.0101893 C185.417519,33.0101893 184.598884,33.1996416 183.99074,33.5785462 C183.382597,33.9574508 182.948313,34.5657895 182.687888,35.4035623 C182.427462,36.241335 182.297249,37.3519683 182.297249,38.7354621 Z M194.224604,45.0397946 L194.224604,32.4787388 L195.071168,32.4787388 L195.071168,33.589249 C195.579687,33.3210633 196.074725,33.0865239 196.556283,32.8856306 C197.03784,32.6847374 197.533241,32.527332 198.042485,32.4134146 C198.551729,32.2994972 199.09253,32.2425385 199.664885,32.2425385 C200.369751,32.2425385 200.970458,32.3663591 201.467008,32.6140003 C201.963557,32.8616415 202.343193,33.2327343 202.605916,33.7272786 C202.868639,34.2218228 203,34.8401262 203,35.5821887 L203,45.0397946 L202.105921,45.0397946 L202.105921,35.7442073 C202.105921,34.8961008 201.885393,34.234494 201.444339,33.759387 C201.003284,33.2842801 200.312443,33.0467266 199.371816,33.0467266 C198.860154,33.0467266 198.371765,33.1017169 197.90665,33.2116977 C197.441536,33.3216784 196.981681,33.4724406 196.527085,33.6639843 C196.072488,33.8555279 195.603021,34.0830552 195.118683,34.3465661 L195.118683,45.0397946 L194.224604,45.0397946 Z M0,27.5609756 L9.98360656,27.5609756 L9.98360656,28.6829268 L0,28.6829268 Z M17.4828666,34.2926829 L17.4828666,44.3902439 L16.9051116,44.3902439 L16.9051116,34.2926829 L17.4828666,34.2926829 Z M0,16.612047 C0,15.828222 0.161318261,15.1901569 0.483954784,14.6978517 C0.806591307,14.2055466 1.28189256,13.8122362 1.90985853,13.5179206 C2.53782451,13.223605 3.30629349,12.9910499 4.21526546,12.8202553 C5.12423744,12.6494608 6.17125669,12.5019217 7.35632321,12.3776382 L7.35632321,9.9552529 C7.35632321,9.04384028 7.10449365,8.34026583 6.60083453,7.84452955 C6.09717542,7.34879326 5.33829549,7.10092512 4.32419476,7.10092512 C4.02482923,7.10092512 3.69593643,7.11719127 3.33751637,7.14972357 C2.97909632,7.18225586 2.60564951,7.23918738 2.21717596,7.32051812 C1.82870241,7.40184887 1.42362342,7.5157119 1.00193901,7.66210724 L0.806532837,6.85121433 C1.42841795,6.65017491 2.0391938,6.4986964 2.63886037,6.39677882 C3.23852695,6.29486123 3.80498267,6.24390244 4.33822752,6.24390244 C5.15937781,6.24390244 5.85756605,6.37987727 6.43279224,6.65182694 C7.00801843,6.9237766 7.44759461,7.3317011 7.75152079,7.87560043 C8.05544697,8.41949976 8.20741006,9.11131938 8.20741006,9.95105928 L8.20741006,17.2616763 C8.20741006,17.8800441 8.28944323,18.3005494 8.45350957,18.5231923 C8.61757592,18.7458352 8.84601754,18.8571567 9.13883445,18.8571567 C9.25039489,18.8571567 9.3616045,18.845656 9.4724633,18.8226546 C9.5833221,18.7996533 9.7021328,18.7571453 9.82889539,18.6951306 L9.98360656,19.4305384 C9.80281784,19.5266103 9.6265313,19.5967581 9.45474694,19.6409817 C9.28296258,19.6852053 9.1094826,19.7073171 8.93430699,19.7073171 C8.44877352,19.7073171 8.07310486,19.5423682 7.80730101,19.2124703 C7.54149716,18.8825725 7.39503024,18.3729846 7.36790024,17.6837066 C7.01848453,18.01945 6.61276238,18.34077 6.15073378,18.6476665 C5.68870518,18.9545629 5.1807193,19.2078955 4.62677613,19.4076641 C4.07283296,19.6074328 3.47193851,19.7073171 2.8240928,19.7073171 C2.3942226,19.7073171 2.00621681,19.6426337 1.66007542,19.513267 C1.31393402,19.3839003 1.0170827,19.1913752 0.769521435,18.9356917 C0.521960174,18.6800081 0.331816286,18.3585611 0.199089772,17.9713505 C0.0663632572,17.58414 0,17.1310388 0,16.612047 Z M0.873539262,16.4767075 C0.873539262,17.2889983 1.06894543,17.9048881 1.45975778,18.3243768 C1.85057012,18.7438655 2.37481062,18.9536098 3.03247927,18.9536098 C3.54584438,18.9536098 4.05751386,18.8633836 4.56748772,18.682931 C5.07746158,18.5024784 5.57001143,18.2572154 6.04513727,17.9471419 C6.52026311,17.6370685 6.95732509,17.2905233 7.35632321,16.9075063 L7.35632321,13.0611977 C6.41285403,13.149899 5.5466235,13.2596955 4.75763161,13.3905872 C3.96863972,13.5214788 3.28273014,13.7090478 2.69990288,13.9532942 C2.11707561,14.1975406 1.66697486,14.5227365 1.34960062,14.9288819 C1.03222638,15.3350273 0.873539262,15.8509692 0.873539262,16.4767075 Z M25.5136612,38.7804878 L35.4972678,38.7804878 L35.4972678,39.902439 L25.5136612,39.902439 Z M44.3715847,38.7804878 L54.3551913,38.7804878 L54.3551913,39.902439 L44.3715847,39.902439 Z M63.2295082,38.7804878 L73.2131148,38.7804878 L73.2131148,39.902439 L63.2295082,39.902439 Z M80.9781421,38.7804878 L90.9617486,38.7804878 L90.9617486,39.902439 L80.9781421,39.902439 Z"/><g transform="translate(174)"><path fill="#ED5F3B" d="M0.712764462,9.90307855 C-2.20353786,19.7247133 4.2589285,26.8270118 12.2868605,22.8980618 L23.1906644,22.8980618 C24.0627211,22.8980618 24.8573025,22.5327985 25.4331927,21.9454156 L25.4374485,21.9411706 C25.9346059,21.4334546 26.2695585,20.7596918 26.3512896,20.0117905 C28.6637488,17.9675005 28.4260998,14.3039093 26.3710212,11.410234 L26.3710212,6.81117385 C26.3710212,5.92081981 26.0133387,5.10993522 25.4374485,4.52205871 L25.4331927,4.51781376 C24.8573025,3.93013468 24.0627211,3.56506879 23.1906644,3.56506879 L19.462564,3.56506879 L19.462564,2.92506821 C19.462564,2.12010681 19.1402821,1.3878032 18.6211685,0.858467538 C18.1026353,0.328934434 17.3851423,0 16.596461,0 L12.7872098,0 C11.9979482,0 11.2813257,0.328934434 10.7625022,0.858467538 C10.2436788,1.3878032 9.92139697,2.12010681 9.92139697,2.92506821 L9.92139697,3.56506879 L6.19348997,3.56506879 C5.3207562,3.56506879 4.52685187,3.93013468 3.95086499,4.51781376 L3.94670589,4.52205871 C3.37091246,5.10993522 3.01332666,5.92081981 3.01332666,6.81117385 L3.01332666,11.5460725 C2.21158774,11.1148643 1.44495937,10.5116862 0.712764462,9.90307855 Z M12.1603465,3.56506879 L17.2233243,3.56506879 L17.2233243,2.92506821 C17.2233243,2.75003797 17.1526196,2.58991443 17.0387764,2.4737212 C16.9250298,2.35792286 16.7678546,2.28516635 16.596461,2.28516635 L12.7872098,2.28516635 C12.6160096,2.28516635 12.4589311,2.35792286 12.345378,2.4737212 C12.2315348,2.58991443 12.1603465,2.75003797 12.1603465,2.92506821 L12.1603465,3.56506879 Z"/><path fill="#000" d="M15.4626866 20.5714286C17.5139307 18.777765 19.4865941 16.8732066 21.7505812 16.2896633 22.5419465 16.2477674 23.2357567 16.5433148 23.8208955 16.9819291L23.8208955 19.5646846C23.8208955 19.8411978 23.717399 20.0926769 23.550942 20.2750536L23.5467255 20.2796052C23.3776811 20.4596026 23.1447181 20.5714286 22.8884683 20.5714286L15.4626866 20.5714286ZM24.238806 8.91372769C20.8567547 6.37664345 15.4951682 5.68293221 9.15171447 10.1817178 8.44077363 10.6857424 7.79872053 11.1407897 7.30764241 11.4380658 6.66452951 11.8262711 6.03991513 11.9936771 5.43283582 12L5.43283582 6.54826472C5.43283582 6.27989321 5.53689004 6.03590999 5.70453296 5.85906983L5.7087722 5.85445312C5.87872743 5.67982095 6.11275309 5.57142857 6.37038364 5.57142857L23.3013545 5.57142857C23.558985 5.57142857 23.7932034 5.67982095 23.9631586 5.85445312L23.9673979 5.85906983C24.1347517 6.03590999 24.238806 6.27989321 24.238806 6.54826472L24.238806 8.91372769Z"/><path fill="#FFF" d="M16.3910057,12.0184333 C14.6906885,13.188814 13.4190499,14.3488257 11.3246649,15.3950811 C11.3246649,15.3950811 12.955379,12.2049734 13.3668953,10.2857143 C11.0191742,12.8566054 6.24631041,16.3445934 2.93759018,14.2680889 C2.78894471,17.4883974 3.9885012,19.8911709 6.98763079,21.0756452 C10.6873677,22.5364566 14.8332318,19.1989692 17.1343284,15.8962126 C16.0308813,16.2996949 15.1633219,16.8328393 13.8543075,16.823175 C14.9322016,15.613634 15.9769151,13.9105118 16.3910057,12.0184333 L16.3910057,12.0184333 Z"/></g></g></g></svg>