<svg xmlns="http://www.w3.org/2000/svg" width="304" height="60" viewBox="0 0 304 60"><g fill="none" fill-rule="evenodd"><path fill="#000" fill-rule="nonzero" d="M0 43 0 0 11.0331802 0 11.0331802 13.6345228C12.046819 12.9372255 13.0274487 12.3700662 13.9750695 11.9330448 14.9226903 11.4960234 15.8841865 11.1682573 16.8595582 10.9497466 17.8349299 10.7312359 18.8276824 10.6219806 19.8378158 10.6219806 21.8417241 10.6219806 23.5196321 10.9957489 24.8715399 11.7432855 26.2234478 12.4908221 27.2495014 13.5655194 27.9497008 14.9673775 28.6499003 16.3692356 29 18.0794904 29 20.0981419L29 43 17.9265079 43 17.9265079 23.754413C17.9265079 22.4512176 17.6711995 21.5323832 17.1605826 20.9979096 16.6499658 20.4634361 15.9512269 20.1961993 15.064366 20.1961993 14.6267779 20.1961993 14.1926951 20.2423529 13.7621177 20.3346601 13.3315404 20.4269672 12.8927838 20.5549866 12.4458479 20.7187183 11.9989121 20.88245 11.5280229 21.0793215 11.0331802 21.3093328L11.0331802 43 0 43ZM33 25.9440236C33 23.538066 33.2477891 21.3571894 33.7433673 19.4013939 34.2389456 17.4455984 35.0681311 15.7689504 36.230924 14.3714498 37.3937169 12.9739493 38.9760818 11.8959992 40.9780187 11.1375995 42.9799556 10.3791998 45.4872827 10 48.5 10 51.5127173 10 54.0131614 10.3791998 56.0013322 11.1375995 57.989503 11.8959992 59.5718679 12.9739493 60.7484269 14.3714498 61.9249858 15.7689504 62.7610544 17.4455984 63.2566327 19.4013939 63.7522109 21.3571894 64 23.538066 64 25.9440236 64 28.3870049 63.7334656 30.5984408 63.2003968 32.5783312 62.667328 34.5582215 61.8005055 36.246917 60.5999291 37.6444175 59.3993528 39.041918 57.8076153 40.1172236 55.8247166 40.8703342 53.8418178 41.6234447 51.4002457 42 48.5 42 45.5997543 42 43.1580357 41.6234447 41.1748441 40.8703342 39.1916525 40.1172236 37.599915 39.041918 36.3996315 37.6444175 35.1993481 36.246917 34.332672 34.5582215 33.7996032 32.5783312 33.2665344 30.5984408 33 28.3870049 33 25.9440236ZM44.3772109 25.9440236C44.3772109 27.9268523 44.5101852 29.4793532 44.7761338 30.6015261 45.0420824 31.7236991 45.4814248 32.5123642 46.094161 32.9675216 46.7068972 33.4226789 47.5088435 33.6502576 48.5 33.6502576 49.5017007 33.6502576 50.2994 33.4226789 50.8930981 32.9675216 51.4867961 32.5123642 51.9235025 31.7236991 52.2032171 30.6015261 52.4829318 29.4793532 52.6227891 27.9268523 52.6227891 25.9440236 52.6227891 23.9711854 52.4949405 22.4330827 52.2392432 21.3297154 51.9835459 20.2263482 51.5588483 19.4470859 50.9651502 18.9919286 50.3714522 18.5367713 49.5497354 18.3091926 48.5 18.3091926 47.4502646 18.3091926 46.6285478 18.5367713 46.0348498 18.9919286 45.4411517 19.4470859 45.0164541 20.2263482 44.7607568 21.3297154 44.5050595 22.4330827 44.3772109 23.9711854 44.3772109 25.9440236ZM67 55 67 11.5251217 77.1225946 11.5251217 77.4757083 13.9930144C79.1645908 12.9606933 80.8010116 12.2037772 82.3849705 11.7222663 83.9689295 11.2407554 85.5919747 11 87.2541061 11 90.7323362 11 93.392876 12.3443175 95.2357256 15.0329525 97.0785752 17.7215875 98 21.6249024 98 26.7428973 98 30.487451 97.4447672 33.6035315 96.3343017 36.0911387 95.2238362 38.5787459 93.5279687 40.4404187 91.2466993 41.6761573 88.9654298 42.9118959 86.0815188 43.5297652 82.5949662 43.5297652 81.9416463 43.5297652 81.240769 43.4976545 80.4923342 43.4334331 79.7438995 43.3692118 78.996951 43.2905032 78.2514886 43.1973076L78.2514886 55 67 55ZM81.8343449 35.3769373C82.8746632 35.3769373 83.7259408 35.1479807 84.3881778 34.6900674 85.0504147 34.2321541 85.5456062 33.4529847 85.8737523 32.352559 86.2018985 31.2521334 86.3659715 29.7604054 86.3659715 27.8773752 86.3659715 25.9322146 86.2345942 24.411363 85.9718395 23.3148205 85.7090848 22.218278 85.3100484 21.4326864 84.7747303 20.9580457 84.2394122 20.483405 83.5559231 20.2460846 82.7242629 20.2460846 82.299813 20.2460846 81.8438564 20.2883512 81.3563929 20.3728845 80.8689295 20.4574177 80.3700225 20.5824253 79.8596721 20.7479074 79.3493216 20.9133894 78.8067213 21.1308459 78.2318711 21.400277L78.2318711 34.77475C78.8364447 34.9689076 79.4441392 35.1178116 80.0549547 35.2214619 80.6657702 35.3251122 81.2589002 35.3769373 81.8343449 35.3769373ZM100 36.5226614C100 34.6705834 100.501177 33.2871204 101.503531 32.3722722 102.505886 31.4574241 104.171375 31 106.5 31 108.846478 31 110.516431 31.4574241 111.509859 32.3722722 112.503286 33.2871204 113 34.6705834 113 36.5226614 113 38.3445241 112.503286 39.7128796 111.509859 40.6277278 110.516431 41.5425759 108.846478 42 106.5 42 104.173288 42 102.508277 41.5425759 101.504966 40.6277278 100.501655 39.7128796 100 38.3445241 100 36.5226614ZM129.045068 55C124.441593 55 120.94988 54.358098 118.569928 53.074294 116.189976 51.7904901 115 49.8567492 115 47.2730713 115 46.2338865 115.185539 45.2926088 115.556616 44.4492382 115.927693 43.6058677 116.480192 42.8523694 117.214114 42.1887433 117.948035 41.5251173 118.847207 40.9677309 119.911628 40.5165842L125.130233 42.520854C124.777974 42.7267863 124.481729 42.9337603 124.2415 43.1417758 124.00127 43.3497914 123.819848 43.5778942 123.697233 43.8260844 123.574619 44.0742746 123.513312 44.3769238 123.513312 44.734032 123.513312 45.3292124 123.698115 45.8025295 124.067723 46.1539835 124.43733 46.5054375 125.08201 46.7634482 126.001764 46.9280155 126.921518 47.0925829 128.186768 47.1748666 129.797514 47.1748666 131.310051 47.1748666 132.571772 47.0803817 133.582678 46.8914119 134.593585 46.7024422 135.354999 46.4338671 135.866921 46.0856866 136.378843 45.7375061 136.634804 45.3012389 136.634804 44.776885 136.634804 44.3822804 136.556148 44.0824584 136.398837 43.8774187 136.241526 43.6723791 135.91529 43.5200129 135.420128 43.4203202 134.924967 43.3206275 134.181342 43.2707812 133.189254 43.2707812L127.511949 43.2707812C125.246084 43.2707812 123.269407 43.0205078 121.581917 42.5199612 119.894427 42.0194145 118.586394 41.2438945 117.657819 40.1934013 116.729244 39.142908 116.264956 37.7978004 116.264956 36.1580786 116.264956 34.4701472 116.702192 33.0613553 117.576664 31.9317031 118.451136 30.8020508 119.598182 29.8699984 121.017803 29.1355459L126.417241 30.4907715C125.812109 30.8550218 125.363847 31.2215041 125.072454 31.5902183 124.781061 31.9589326 124.635365 32.4197509 124.635365 32.9726735 124.635365 33.5363092 124.846926 33.9602264 125.270048 34.244425 125.69317 34.5286236 126.343438 34.670723 127.22085 34.670723L136.975301 34.670723C140.153275 34.670723 142.619233 35.444011 144.373176 36.9905871 146.127118 38.5371632 147.00409 40.6740094 147.00409 43.4011257 147.00409 45.8848132 146.333093 47.9924956 144.991099 49.7241727 143.649105 51.4558499 141.647728 52.7680738 138.986969 53.6608443 136.32621 54.5536148 133.012243 55 129.045068 55ZM130.169767 32.2986317C125.600989 32.2986317 122.16382 31.3839884 119.85826 29.5547016 117.5527 27.7254148 116.39992 25.0249329 116.39992 21.4532557 116.39992 17.8440822 117.5527 15.1316966 119.85826 13.316099 122.16382 11.5005014 125.600989 10.5927026 130.169767 10.5927026 134.738546 10.5927026 138.175715 11.5005014 140.481275 13.316099 142.786835 15.1316966 143.939615 17.8440822 143.939615 21.4532557 143.939615 25.0249329 142.786835 27.7254148 140.481275 29.5547016 138.175715 31.3839884 134.738546 32.2986317 130.169767 32.2986317ZM130.169767 25.3912664C131.320048 25.3912664 132.166439 25.1136148 132.708941 24.5583115 133.251443 24.0030082 133.522694 22.9679896 133.522694 21.4532557 133.522694 19.9010254 133.251443 18.8444315 132.708941 18.283474 132.166439 17.7225166 131.320048 17.4420378 130.169767 17.4420378 129.030072 17.4420378 128.186327 17.7225166 127.638532 18.283474 127.090738 18.8444315 126.81684 19.9010254 126.81684 21.4532557 126.81684 22.9679896 127.090738 24.0030082 127.638532 24.5583115 128.186327 25.1136148 129.030072 25.3912664 130.169767 25.3912664ZM142.203609 19.0677729 138.095589 13.3790393C138.649559 11.8916836 139.480513 10.7900049 140.588452 10.0740029 141.696391 9.35800097 143.08455 9 144.752927 9 145.377466 9 145.967161 9.0422578 146.522013 9.12677341 147.076864 9.21128902 147.569527 9.33806243 148 9.50709364L146.721812 17.8973508C146.40425 17.8211677 146.062577 17.7571858 145.696792 17.7054051 145.331008 17.6536245 144.951697 17.6277341 144.558861 17.6277341 144.087223 17.6277341 143.650428 17.7415623 143.248476 17.9692188 142.846525 18.1968753 142.498236 18.56306 142.203609 19.0677729ZM170.149724 42.5252083 168.884036 40.2757708C167.414378 41.1805625 165.930616 41.8607986 164.432752 42.3164792 162.934888 42.7721597 161.363541 43 159.71871 43 156.265161 43 153.615322 41.6511736 151.769193 38.9535208 149.923064 36.2558681 149 32.3536181 149 27.2467708 149 23.4800903 149.554017 20.3597535 150.66205 17.8857604 151.770084 15.4117674 153.463309 13.5590347 155.741725 12.3275625 158.020141 11.0960903 160.897703 10.4803542 164.374411 10.4803542 165.084004 10.4803542 165.813934 10.5048403 166.564202 10.5538125 167.314471 10.6027847 168.041432 10.6816181 168.745087 10.7903125L168.745087 0 180 0 180 42.5252083 170.149724 42.5252083ZM168.745087 32.5474167 168.745087 19.1923333C168.112688 18.9803194 167.501666 18.8334028 166.912022 18.7515833 166.322377 18.6697639 165.729466 18.6288542 165.133289 18.6288542 164.107794 18.6288542 163.260143 18.8557986 162.590334 19.3096875 161.920526 19.7635764 161.422327 20.529066 161.095736 21.6061562 160.769145 22.6832465 160.60585 24.1880972 160.60585 26.1207083 160.60585 28.0013611 160.737971 29.4971042 161.002212 30.6079375 161.266454 31.7187708 161.671427 32.5135243 162.21713 32.9921979 162.762834 33.4708715 163.43858 33.7102083 164.244368 33.7102083 164.692689 33.7102083 165.154815 33.6681042 165.630746 33.5838958 166.106678 33.4996875 166.608292 33.3681493 167.135588 33.1892812 167.662884 33.0104132 168.199383 32.7964583 168.745087 32.5474167ZM184 42 184 10.5742969 193.950671 10.5742969 193.950671 13.2833628C195.19655 12.4901153 196.356819 11.856594 197.431477 11.3827991 198.506136 10.9090042 199.563848 10.560089 200.604613 10.3360534 201.645377 10.1120178 202.727633 10 203.851378 10 205.923558 10 207.637373 10.388099 208.992821 11.1642971 210.34827 11.9404952 211.354995 13.0123665 212.012997 14.3799108 212.670999 15.7474552 213 17.3539908 213 19.1995177L213 42 201.958893 42 201.958893 22.9629567C201.958893 21.6671995 201.698117 20.7571483 201.176566 20.2328033 200.655015 19.7084584 199.962973 19.4462859 199.100441 19.4462859 198.676188 19.4462859 198.24463 19.4959386 197.805767 19.5952441 197.366904 19.6945496 196.922198 19.8237664 196.471648 19.9828945 196.021098 20.1420226 195.544251 20.3358478 195.041107 20.56437L195.041107 42 184 42Z" transform="translate(91 5)"/><path fill="#3A5AC4" fill-rule="nonzero" d="M72.4344659,14.1970184 C70.510254,14.5840413 69.2613336,16.4350907 69.6369275,18.3433047 C69.820299,19.269131 70.3693458,20.0841787 71.1621858,20.6075166 C71.9550257,21.1308545 72.9260565,21.3191799 73.8597205,21.1306866 C73.9498068,21.1128473 74.1407896,21.0771689 74.439876,20.9915405 C75.3504957,20.7245389 76.1164087,20.1097848 76.5686359,19.2829078 C77.020863,18.4560308 77.1222412,17.484982 76.8504039,16.5839985 C76.2884067,14.7238997 74.3180931,13.6590993 72.4340155,14.197286 L72.4344659,14.1970184 Z M31.1475096,20.6198252 C38.0899666,23.1721246 44.0824669,28.59622 49.1250104,36.8921114 C53.0597706,30.6897076 55.8738898,27.2521281 57.5673679,26.5793728 C60.1075851,25.5702399 63.787211,28.578674 60.9147854,31.2448331 C56.184689,35.6352652 54.0547967,39.7327611 52.5666343,42.5326549 C56.5126128,42.8470629 59.3397602,43.6990371 59.3397602,44.700571 C59.3397602,45.3104133 58.2702212,45.8952809 56.3663336,46.3265081 C54.462446,46.7577354 51.8802038,46.9999979 49.1876776,47 C46.4951514,46.9999979 43.9129092,46.7577354 42.0090216,46.3265081 C40.1051339,45.8952809 39.0355949,45.3104133 39.0355949,44.700571 C39.0355949,43.7296064 41.692793,42.899211 45.4499875,42.5620566 C42.1501945,37.7667767 37.2257447,29.6386597 28.904231,26.5793728 C28.1053221,26.2837021 27.4580898,25.685402 27.1053857,24.9165242 C26.7526817,24.1476465 26.7235031,23.2714037 27.02429,22.4811928 C27.6463039,20.8421991 29.4899065,20.0099316 31.1475096,20.6198252 Z M68.2982396,21.9777708 C68.5423134,22.7867346 68.4512893,23.6586076 68.0452493,24.4010335 C67.6392093,25.1434594 66.951521,25.6954271 66.1339052,25.935159 C65.8653653,26.012042 65.6938881,26.0440765 65.6130026,26.0600938 C64.7746961,26.2293357 63.9028392,26.0602445 63.1909741,25.5903565 C62.479109,25.1204685 61.9861378,24.3886637 61.8214944,23.5573945 C61.4842609,21.8440714 62.6056259,20.1820745 64.3329085,19.8348196 C66.0245603,19.3515993 67.7936407,20.3076488 68.2982396,21.9777708 Z M13.256912,0 C5.97046339,0.00110885925 0.00111992385,5.91007196 0,13.1259366 C-0.00111992385,20.3417273 5.96658098,26.2644402 13.2530296,26.2633314 C20.5395528,26.2621486 26.5088216,20.3378832 26.5099415,13.1220925 C26.5110614,5.90637577 20.5434352,-0.0010349353 13.256912,0 Z"/></g></svg>