<svg xmlns="http://www.w3.org/2000/svg" width="530" height="60" viewBox="0 0 530 60"><g fill="none" fill-rule="evenodd"><path fill="gray" fill-rule="nonzero" d="M5.55838641 5.86666667C5.51875442 5.94488889 5.46921444 6.56088889 5.40976645 7.71466667 5.35031847 8.86844444 5.32059448 10.0417778 5.32059448 11.2346667 5.32059448 12.4471111 5.35031847 13.464 5.40976645 14.2853333 5.46921444 14.8133333 5.62774239 15.3266667 5.88535032 15.8253333 6.14295824 16.324 6.45010616 16.6613333 6.80679406 16.8373333 7.50035386 16.8764444 8.02547771 16.5635556 8.38216561 15.8986667L8.35244161 15.8986667C8.53078556 15.5271111 8.61995754 14.9697778 8.61995754 14.2266667 8.61995754 13.64 8.65958953 13.1804444 8.7388535 12.848 9.23425336 12.9262222 9.70983723 12.9653333 10.1656051 12.9653333L11.5329087 12.936C12.2462845 12.936 12.9200283 13.0142222 13.5541401 13.1706667 13.7919321 13.8551111 13.910828 14.5688889 13.910828 15.312 13.910828 16.4266667 13.6284501 17.4826667 13.0636943 18.48 12.4989384 19.4773333 11.7211607 20.2888889 10.7303609 20.9146667 9.73956122 21.5404444 8.63977353 21.8728889 7.43099788 21.912 7.07430998 21.9706667 6.6581741 22 6.18259023 22 4.63694268 22 3.27954706 21.6577778 2.1104034 20.9733333.941259731 20.2888889.287331918 19.2622222.148619958 17.8933333.0495399858 15.9377778 0 13.8355556 0 11.5866667 0 9.72888889.00990799717 8.20355556.0297239915 7.01066667L.059447983 5.69066667C.0396319887 5.39733333.0644019816 5.06.133757962 4.67866667.203113942 4.29733333.297239915 3.96.416135881 3.66666667.59447983 3.21688889.827317764 2.76711111 1.11464968 2.31733333 1.4019816 1.86755556 1.70417551 1.496 2.02123142 1.20266667 2.4373673.870222222 3.05166313.586666667 3.8641189.352 4.63694268.117333333 5.43949045 0 6.27176221 0 7.61924982 0 8.88747346.308 10.0764331.924 11.2653928 1.54 12.2165605 2.38088889 12.9299363 3.44666667 13.6433121 4.51244444 14 5.67111111 14 6.92266667 14 7.66577778 13.861288 8.40888889 13.5838641 9.152 12.7515924 9.328 12.0580326 9.416 11.5031847 9.416 10.7501769 9.416 9.70983723 9.28888889 8.38216561 9.03466667L8.29299363 7.92C8.25336164 7.02044444 8.13941967 6.34088889 7.95116773 5.88133333 7.76291578 5.42177778 7.3616419 5.20177778 6.74734607 5.22133333 6.72753008 5.22133333 6.70276008 5.22622222 6.67303609 5.236 6.6433121 5.24577778 6.59872611 5.25066667 6.53927813 5.25066667L6.56900212 5.25066667C5.9547063 5.34844444 5.61783439 5.55377778 5.55838641 5.86666667ZM27.9713024 19.7085635C27.9904341 19.9406077 28 20.2790055 28 20.7237569 28 21.1298343 27.9665195 21.4150552 27.8995585 21.5794199 27.8325975 21.7437845 27.732156 21.8453039 27.598234 21.8839779 27.464312 21.9226519 27.2347314 21.941989 26.9094923 21.941989L26.7086093 21.941989 26.2494481 21.9129834 25.5033113 21.941989C24.317145 21.980663 22.5665931 22 20.2516556 22 18.0515085 22 16.3009566 21.9903315 15 21.9709945L15 21.3038674C15.133922 18.1132597 15.200883 14.9033149 15.200883 11.6740331 15.200883 10.7265193 15.1817513 9.09254144 15.1434879 6.77209945L15.1434879 6.07596685 15.1434879 5.00276243C15.1243561 4.67403315 15.1147903 4.08425414 15.1147903 3.23342541L15.0860927 1.3480663C15.3539367 1.25138122 15.7270052 1.1691989 16.205298 1.10151934 16.6835909 1.03383978 17.1618837 1 17.6401766 1 18.1758646 1 18.7115526 1.03867403 19.2472406 1.1160221 19.7829286 1.19337017 20.2133922 1.29972376 20.5386313 1.43508287 20.5003679 2.82734807 20.4812362 3.93922652 20.4812362 4.77071823 20.4812362 5.93093923 20.5003679 7.67127072 20.5386313 9.99171271 20.5577631 11.1519337 20.5673289 12.8632597 20.5673289 15.1256906L20.5673289 17.0110497C21.1986755 17.0110497 21.9735099 17.0400552 22.8918322 17.0980663L24.4128035 17.1560773C25.2163355 17.2140884 25.9720383 17.2430939 26.6799117 17.2430939 27.1773363 17.2430939 27.6173657 17.2237569 28 17.1850829 28 17.6298343 27.9904341 17.9198895 27.9713024 18.0552486L27.9713024 18.0262431C27.933039 18.5483425 27.9234731 18.9254144 27.9426049 19.1574586L27.9713024 19.7085635ZM42 19.2118644C42 20.220339 41.8954678 21.1200565 41.6864035 21.9110169 40.8501462 21.9110169 39.6147661 21.930791 37.9802632 21.970339L34.245614 22C32.5540936 22 30.8625731 21.940678 29.1710526 21.8220339 29.1900585 21.1892655 29.1615497 18.7274011 29.0855263 14.4364407 29.0285088 12.0042373 29 10.1355932 29 8.83050847 29 6.12146893 29.0665205 3.60028249 29.1995614 1.26694915L31.7083333 1.1779661C34.5211988 1.05932203 36.6688596 1 38.1513158 1 39.4247076 1 40.6600877 1.04943503 41.8574561 1.14830508 41.9334795 1.56355932 41.9714912 2.0480226 41.9714912 2.60169492 41.9714912 2.89830508 41.9524854 3.38276836 41.9144737 4.05508475 41.876462 4.68785311 41.8574561 5.18220339 41.8574561 5.53813559 40.7171053 5.79519774 39.4437135 5.92372881 38.0372807 5.92372881L34.3311404 5.95338983C34.2361111 6.88276836 34.1885965 7.6539548 34.1885965 8.26694915 34.1885965 8.74152542 34.245614 9.15677966 34.3596491 9.51271186L36.2412281 9.27542373C36.5073099 9.27542373 36.9064327 9.29519774 37.4385965 9.33474576L37.8092105 9.36440678C37.9042398 9.95762712 37.9517544 10.6002825 37.9517544 11.2923729L37.8947368 13.6652542C37.2865497 13.8432203 36.4692982 13.9322034 35.4429825 13.9322034L34.7017544 13.9025424C34.5687135 13.9025424 34.4831871 13.9223164 34.4451754 13.9618644L34.3311404 15.5042373C34.3311404 16.3149718 34.369152 16.9872881 34.4451754 17.5211864 35.4334795 17.5211864 36.3932749 17.5508475 37.3245614 17.6101695 37.6476608 17.6299435 38.0467836 17.6497175 38.5219298 17.6694915 38.997076 17.6892655 39.5577485 17.6991525 40.2039474 17.6991525L41.9429825 17.6398305C41.9809942 18.549435 42 19.0734463 42 19.2118644ZM55 1.35543018C54.415942 4.6135402 53.7565217 7.78279267 53.0217391 10.8631876 52.2869565 13.9435825 51.3637681 17.6163611 50.2521739 21.8815233 49.8376812 21.8815233 49.5550725 21.8913963 49.4043478 21.9111425L49.1217391 21.9407616C48.7826087 21.9802539 48.434058 22 48.076087 22 46.8891304 22 45.965942 21.8815233 45.3065217 21.6445698 43.6673913 15.5825106 42.5652174 8.89844852 42 1.59238364 42.1695652 1.39492243 42.5181159 1.24682652 43.0456522 1.14809591 43.5731884 1.0493653 44.1572464 1 44.7978261 1 45.4007246 1 46.0789855 1.06911142 46.8326087 1.20733427L47.0021739 3.84344147C47.1152174 5.79830748 47.2376812 7.49153738 47.3695652 8.92313117 47.5014493 10.354725 47.6898551 11.7715092 47.9347826 13.1734838 48.1608696 12.0874471 48.5094203 10.112835 48.9804348 7.24964739 49.5456522 3.75458392 49.9224638 1.67136812 50.1108696 1 50.8456522 1.15796897 51.684058 1.23695346 52.626087 1.23695346 53.5681159 1.23695346 54.2369565 1.2764457 54.6326087 1.35543018L55 1.35543018ZM69 19.2118644C69 20.220339 68.8954678 21.1200565 68.6864035 21.9110169 67.8501462 21.9110169 66.6147661 21.930791 64.9802632 21.970339L61.245614 22C59.5540936 22 57.8625731 21.940678 56.1710526 21.8220339 56.1900585 21.1892655 56.1615497 18.7274011 56.0855263 14.4364407 56.0285088 12.0042373 56 10.1355932 56 8.83050847 56 6.12146893 56.0665205 3.60028249 56.1995614 1.26694915L58.7083333 1.1779661C61.5211988 1.05932203 63.6688596 1 65.1513158 1 66.4247076 1 67.6600877 1.04943503 68.8574561 1.14830508 68.9334795 1.56355932 68.9714912 2.0480226 68.9714912 2.60169492 68.9714912 2.89830508 68.9524854 3.38276836 68.9144737 4.05508475 68.876462 4.68785311 68.8574561 5.18220339 68.8574561 5.53813559 67.7171053 5.79519774 66.4437135 5.92372881 65.0372807 5.92372881L61.3311404 5.95338983C61.2361111 6.88276836 61.1885965 7.6539548 61.1885965 8.26694915 61.1885965 8.74152542 61.245614 9.15677966 61.3596491 9.51271186L63.2412281 9.27542373C63.5073099 9.27542373 63.9064327 9.29519774 64.4385965 9.33474576L64.8092105 9.36440678C64.9042398 9.95762712 64.9517544 10.6002825 64.9517544 11.2923729L64.8947368 13.6652542C64.2865497 13.8432203 63.4692982 13.9322034 62.4429825 13.9322034L61.7017544 13.9025424C61.5687135 13.9025424 61.4831871 13.9223164 61.4451754 13.9618644L61.3311404 15.5042373C61.3311404 16.3149718 61.369152 16.9872881 61.4451754 17.5211864 62.4334795 17.5211864 63.3932749 17.5508475 64.3245614 17.6101695 64.6476608 17.6299435 65.0467836 17.6497175 65.5219298 17.6694915 65.997076 17.6892655 66.5577485 17.6991525 67.2039474 17.6991525L68.9429825 17.6398305C68.9809942 18.549435 69 19.0734463 69 19.2118644ZM81.9476744 16.4615385C82.7228682 17.6346154 83.3478682 18.625 83.8226744 19.4326923 84.2974806 20.2403846 84.6899225 21.0576923 85 21.8846154L84.5348837 21.8846154C84.3023256 21.8846154 83.7790698 21.9038462 82.9651163 21.9423077 82.1511628 21.9807692 81.501938 22 81.0174419 22 80.746124 22 80.3391473 21.9807692 79.7965116 21.9423077L79.3023256 21.9134615C78.0426357 19.0673077 76.9186047 16.9326923 75.9302326 15.5096154L75.9302326 16.2596154C75.9302326 17.4519231 75.998062 18.9903846 76.1337209 20.875L76.1337209 20.8461538C76.1531008 20.9807692 76.1627907 21.2115385 76.1627907 21.5384615 75.503876 21.8461538 74.4186047 22 72.9069767 22L72.2093023 21.9711538 70.6686047 21.9711538C70.4554264 21.9711538 70.3488372 20.2307692 70.3488372 16.75 70.3488372 13.5961538 70.3197674 10.4375 70.2616279 7.27403846 70.2034884 4.11057692 70.1162791 2.21153846 70 1.57692308L70.7848837 1.46153846C71.9476744 1.30769231 72.9069767 1.19230769 73.6627907 1.11538462 74.4186047 1.03846154 75.1937984 1 75.9883721 1 76.8410853 1 77.5678295 1.03846154 78.1686047 1.11538462 79.2926357 1.25 80.3439922 1.63461538 81.3226744 2.26923077 82.3013566 2.90384615 83.0862403 3.68269231 83.6773256 4.60576923 84.2684109 5.52884615 84.5639535 6.48076923 84.5639535 7.46153846 84.5639535 8.40384615 84.253876 9.43269231 83.6337209 10.5480769 83.246124 11.2403846 82.7325581 11.8173077 82.0930233 12.2788462 81.4534884 12.7403846 80.6879845 13.0192308 79.7965116 13.1153846 80.3197674 14.0384615 80.9302326 15 81.627907 16 81.7635659 16.2307692 81.870155 16.3846154 81.9476744 16.4615385ZM77.7616279 9.10576923C78.0329457 9.02884615 78.246124 8.83653846 78.4011628 8.52884615 78.5562016 8.22115385 78.6337209 7.85576923 78.6337209 7.43269231 78.6337209 6.64423077 78.4399225 6.13461538 78.0523256 5.90384615 77.8003876 5.75 77.5436047 5.65384615 77.2819767 5.61538462 77.0203488 5.57692308 76.7248062 5.55769231 76.3953488 5.55769231L75.1453488 5.75961538C75.1841085 6.33653846 75.2034884 6.82692308 75.2034884 7.23076923 75.2034884 8.26923077 75.2325581 8.90384615 75.2906977 9.13461538 75.620155 9.17307692 76.0271318 9.19230769 76.5116279 9.19230769 76.9573643 9.19230769 77.374031 9.16346154 77.7616279 9.10576923ZM95.5583864 5.86666667C95.5187544 5.94488889 95.4692144 6.56088889 95.4097665 7.71466667 95.3503185 8.86844444 95.3205945 10.0417778 95.3205945 11.2346667 95.3205945 12.4471111 95.3503185 13.464 95.4097665 14.2853333 95.4692144 14.8133333 95.6277424 15.3266667 95.8853503 15.8253333 96.1429582 16.324 96.4501062 16.6613333 96.8067941 16.8373333 97.5003539 16.8764444 98.0254777 16.5635556 98.3821656 15.8986667L98.3524416 15.8986667C98.5307856 15.5271111 98.6199575 14.9697778 98.6199575 14.2266667 98.6199575 13.64 98.6595895 13.1804444 98.7388535 12.848 99.2342534 12.9262222 99.7098372 12.9653333 100.165605 12.9653333L101.532909 12.936C102.246285 12.936 102.920028 13.0142222 103.55414 13.1706667 103.791932 13.8551111 103.910828 14.5688889 103.910828 15.312 103.910828 16.4266667 103.62845 17.4826667 103.063694 18.48 102.498938 19.4773333 101.721161 20.2888889 100.730361 20.9146667 99.7395612 21.5404444 98.6397735 21.8728889 97.4309979 21.912 97.07431 21.9706667 96.6581741 22 96.1825902 22 94.6369427 22 93.2795471 21.6577778 92.1104034 20.9733333 90.9412597 20.2888889 90.2873319 19.2622222 90.14862 17.8933333 90.04954 15.9377778 90 13.8355556 90 11.5866667 90 9.72888889 90.009908 8.20355556 90.029724 7.01066667L90.059448 5.69066667C90.039632 5.39733333 90.064402 5.06 90.133758 4.67866667 90.2031139 4.29733333 90.2972399 3.96 90.4161359 3.66666667 90.5944798 3.21688889 90.8273178 2.76711111 91.1146497 2.31733333 91.4019816 1.86755556 91.7041755 1.496 92.0212314 1.20266667 92.4373673.870222222 93.0516631.586666667 93.8641189.352 94.6369427.117333333 95.4394904 0 96.2717622 0 97.6192498 0 98.8874735.308 100.076433.924 101.265393 1.54 102.216561 2.38088889 102.929936 3.44666667 103.643312 4.51244444 104 5.67111111 104 6.92266667 104 7.66577778 103.861288 8.40888889 103.583864 9.152 102.751592 9.328 102.058033 9.416 101.503185 9.416 100.750177 9.416 99.7098372 9.28888889 98.3821656 9.03466667L98.2929936 7.92C98.2533616 7.02044444 98.1394197 6.34088889 97.9511677 5.88133333 97.7629158 5.42177778 97.3616419 5.20177778 96.7473461 5.22133333 96.7275301 5.22133333 96.7027601 5.22622222 96.6730361 5.236 96.6433121 5.24577778 96.5987261 5.25066667 96.5392781 5.25066667L96.5690021 5.25066667C95.9547063 5.34844444 95.6178344 5.55377778 95.5583864 5.86666667ZM118 21.7961165C117.352133 21.9320388 116.653651 22 115.904555 22 115.013738 22 114.041938 21.8932039 112.989154 21.6796117 112.847433 21.3106796 112.624729 20.5339806 112.321041 19.3495146 112.017354 18.1456311 111.774403 17.3495146 111.592191 16.961165L110.984816 16.9320388 110.468547 16.961165C110.387563 17.1941748 110.255965 17.7669903 110.073753 18.6796117 109.932032 19.4368932 109.790311 20.0533981 109.64859 20.5291262 109.506869 21.0048544 109.304411 21.4368932 109.041215 21.8252427 108.838756 21.8640777 108.535069 21.8834951 108.130152 21.8834951 107.947939 21.8834951 107.553145 21.8640777 106.94577 21.8252427 105.184382 21.7475728 104.202458 21.7087379 104 21.7087379 104 21.6116505 104.020246 21.3834951 104.060738 21.0242718 104.101229 20.6650485 104.161967 20.2621359 104.24295 19.815534L104.911063 16.1456311C105.437455 13.1359223 105.938539 10.5145631 106.414317 8.2815534 106.890094 6.04854369 107.512654 3.68932039 108.281996 1.2038835 108.565437 1.16504854 108.950108 1.14563107 109.436009 1.14563107L109.618221 1.14563107C110.934201 1.14563107 112.219812 1.09708738 113.475054 1 113.718004 1.91262136 113.940709 2.81067961 114.143167 3.69417476 114.345625 4.5776699 114.527838 5.36893204 114.689805 6.06796117 115.337672 8.76699029 115.772957 10.5631068 115.995662 11.4563107L118 21.7961165ZM111.652928 13.2330097C111.20752 9.34951456 110.994939 7.40776699 111.015184 7.40776699L110.984816 7.11650485C110.984816 7.11650485 110.96457 7.34951456 110.924078 7.81553398 110.863341 9.27184466 110.772234 10.4271845 110.650759 11.2815534L110.37744 13.2330097 111.652928 13.2330097ZM125.416107 19.2722008C124.194631 16.6081081 123.390007 14.7644788 123.002237 13.7413127L123.002237 19.3011583C123.002237 20.4980695 123.011931 21.3185328 123.03132 21.7625483 122.50783 21.9169884 121.935869 21.9942085 121.315436 21.9942085 121.121551 21.9942085 120.830723 21.9749035 120.442953 21.9362934 120.016406 21.8976834 119.706189 21.8783784 119.512304 21.8783784L118.087248 21.8204633 118.087248 19.6486486C118.087248 18.4131274 118.06786 16.6563707 118.029083 14.3783784 118.009694 13.2393822 118 11.511583 118 9.19498069 118 6.08687259 118.087248 3.48069498 118.261745 1.37644788 118.785235 1.24131274 119.36689 1.17374517 120.006711 1.17374517 120.433259 1.17374517 120.951902 1.21235521 121.56264 1.28957529 122.173378 1.36679537 122.595078 1.48262548 122.82774 1.63706564 123.09918 2.13899614 123.433632 2.83880309 123.831096 3.73648649 124.228561 4.63416988 124.611484 5.52702703 124.979866 6.41505792L126.143177 9.07915058C126.1044 7.72779923 126.085011 6.13513514 126.085011 4.3011583 126.085011 2.81467181 126.094705 1.79150579 126.114094 1.23166023 126.909023 1.07722008 127.752424 1 128.644295 1 129.400447 1 130.185682 1.08687259 131 1.26061776L131 21.7915058C130.941834 21.7915058 130.825503 21.8204633 130.651007 21.8783784 130.457122 21.9555985 130.117823 21.9942085 129.63311 21.9942085 129.536167 22.0135135 129.022371 21.984556 128.091723 21.9073359 127.85906 21.8880309 127.563386 21.8687259 127.204698 21.8494208 126.84601 21.8301158 126.637584 21.8301158 126.579418 21.8494208L125.416107 19.2722008ZM136.257511 22C135.776824 21.9409283 135.316166 21.9113924 134.875536 21.9113924 134.575107 21.9113924 134.164521 21.931083 133.643777 21.9704641L132.381974 22C131.981402 22 131.520744 21.9704641 131 21.9113924 131.480687 20.4936709 132.402003 18.0520394 133.763948 14.5864979L134.995708 11.5147679C134.795422 10.7271449 134.545064 9.95428973 134.244635 9.19620253 133.944206 8.43811533 133.563662 7.53727145 133.103004 6.49367089 132.562232 5.17440225 132.156652 4.16033755 131.886266 3.45147679 131.61588 2.74261603 131.380544 1.99437412 131.180258 1.20675105 131.560801 1.22644163 132.151645 1.19690577 132.95279 1.11814346 133.593705 1.03938115 134.064378 1 134.364807 1 135.065808 1 135.646638 1.12798875 136.107296 1.38396624 136.287554 2.11251758 136.562947 3.01828411 136.933476 4.10126582 137.304006 5.18424754 137.659514 6.14908579 138 6.99578059 138.100143 6.79887482 138.420601 5.90295359 138.961373 4.30801688 139.562232 2.53586498 139.902718 1.57102672 139.982833 1.41350211 141.084406 1.19690577 142.175966 1.08860759 143.257511 1.08860759 143.918455 1.08860759 144.499285 1.12798875 145 1.20675105 144.519313 2.97890295 143.928469 4.68706048 143.227468 6.33122363 142.526466 7.97538678 141.575107 10.0379747 140.373391 12.5189873 139.412017 14.4486639 138.610873 16.1371308 137.969957 17.5843882 137.329041 19.0316456 136.758226 20.5035162 136.257511 22ZM157.914847 6.09793103C157.971616 6.69655172 158 7.30482759 158 7.92275862L157.971616 8.44413793 157.971616 8.96551724C157.93377 9.60275862 157.914847 10.5393103 157.914847 11.7751724 157.914847 13.1462069 157.886463 14.1889655 157.829694 14.9034483L157.744541 15.8593103C157.649927 17.4234483 157.262009 18.7558621 156.580786 19.8565517 156.296943 20.262069 155.871179 20.6193103 155.303493 20.9282759 154.735808 21.2372414 154.111354 21.4882759 153.430131 21.6813793 152.729985 21.8937931 151.906841 22 150.960699 22 150.525473 22 150.222707 21.9903448 150.052402 21.9710345 149.125182 21.8937931 148.297307 21.6862069 147.568777 21.3482759 146.840247 21.0103448 146.305677 20.5131034 145.965066 19.8565517 145.510917 18.9875862 145.26492 17.8965517 145.227074 16.5834483L145.170306 15.6565517C145.151383 15.502069 145.141921 15.1834483 145.141921 14.7006897 145.047307 13.1172414 145 11.6013793 145 10.1531034 145 9.26482759 145.028384 8.37655172 145.085153 7.48827586 145.141921 6.52275862 145.307496 5.58137931 145.581878 4.66413793 145.856259 3.74689655 146.277293 2.94068966 146.844978 2.24551724L147.469432 1.89793103C148.680495 1.29931034 150.005095 1 151.443231 1 152.351528 1 153.207787 1.12068966 154.012009 1.36206897 154.81623 1.60344828 155.521106 1.95586207 156.126638 2.41931034 156.788937 3.03724138 157.224163 3.64551724 157.432314 4.24413793 157.659389 4.86206897 157.820233 5.48 157.914847 6.09793103ZM153.515284 9.25517241 153.401747 7.74896552C153.363901 7.20827586 153.236172 6.73034483 153.018559 6.31517241 152.800946 5.9 152.521834 5.60551724 152.181223 5.43172414 152.02984 5.3737931 151.878457 5.34482759 151.727074 5.34482759 151.272926 5.34482759 150.828239 5.49931034 150.393013 5.80827586 150.165939 6.00137931 149.943595 6.27655172 149.725983 6.6337931 149.50837 6.99103448 149.342795 7.35310345 149.229258 7.72 149.040029 8.56965517 148.945415 9.65103448 148.945415 10.9641379 148.945415 11.6206897 148.954876 12.1131034 148.973799 12.4413793L148.973799 12.4124138C149.049491 12.7986207 149.106259 13.3103448 149.144105 13.9475862L149.172489 14.3531034C149.24818 15.3186207 149.352256 16.0331034 149.484716 16.4965517L149.484716 16.4675862C149.655022 16.8537931 149.90575 17.1482759 150.2369 17.3510345 150.568049 17.5537931 150.922853 17.6551724 151.30131 17.6551724 151.604076 17.6551724 151.911572 17.5827586 152.223799 17.437931 152.536026 17.2931034 152.805677 17.0855172 153.032751 16.8151724 153.22198 16.5641379 153.340247 16.3517241 153.387555 16.177931 153.434862 16.0041379 153.458515 15.7337931 153.458515 15.3668966 153.458515 15.0386207 153.467977 14.7972414 153.4869 14.6427586L153.515284 14.2662069 153.543668 13.7158621 153.543668 13.3103448 153.572052 12.76 153.572052 11.3696552 153.515284 9.4 153.515284 9.25517241ZM166.416107 19.2722008C165.194631 16.6081081 164.390007 14.7644788 164.002237 13.7413127L164.002237 19.3011583C164.002237 20.4980695 164.011931 21.3185328 164.03132 21.7625483 163.50783 21.9169884 162.935869 21.9942085 162.315436 21.9942085 162.121551 21.9942085 161.830723 21.9749035 161.442953 21.9362934 161.016406 21.8976834 160.706189 21.8783784 160.512304 21.8783784L159.087248 21.8204633 159.087248 19.6486486C159.087248 18.4131274 159.06786 16.6563707 159.029083 14.3783784 159.009694 13.2393822 159 11.511583 159 9.19498069 159 6.08687259 159.087248 3.48069498 159.261745 1.37644788 159.785235 1.24131274 160.36689 1.17374517 161.006711 1.17374517 161.433259 1.17374517 161.951902 1.21235521 162.56264 1.28957529 163.173378 1.36679537 163.595078 1.48262548 163.82774 1.63706564 164.09918 2.13899614 164.433632 2.83880309 164.831096 3.73648649 165.228561 4.63416988 165.611484 5.52702703 165.979866 6.41505792L167.143177 9.07915058C167.1044 7.72779923 167.085011 6.13513514 167.085011 4.3011583 167.085011 2.81467181 167.094705 1.79150579 167.114094 1.23166023 167.909023 1.07722008 168.752424 1 169.644295 1 170.400447 1 171.185682 1.08687259 172 1.26061776L172 21.7915058C171.941834 21.7915058 171.825503 21.8204633 171.651007 21.8783784 171.457122 21.9555985 171.117823 21.9942085 170.63311 21.9942085 170.536167 22.0135135 170.022371 21.984556 169.091723 21.9073359 168.85906 21.8880309 168.563386 21.8687259 168.204698 21.8494208 167.84601 21.8301158 167.637584 21.8301158 167.579418 21.8494208L166.416107 19.2722008ZM191.971302 19.7085635C191.990434 19.9406077 192 20.2790055 192 20.7237569 192 21.1298343 191.966519 21.4150552 191.899558 21.5794199 191.832597 21.7437845 191.732156 21.8453039 191.598234 21.8839779 191.464312 21.9226519 191.234731 21.941989 190.909492 21.941989L190.708609 21.941989 190.249448 21.9129834 189.503311 21.941989C188.317145 21.980663 186.566593 22 184.251656 22 182.051508 22 180.300957 21.9903315 179 21.9709945L179 21.3038674C179.133922 18.1132597 179.200883 14.9033149 179.200883 11.6740331 179.200883 10.7265193 179.181751 9.09254144 179.143488 6.77209945L179.143488 6.07596685 179.143488 5.00276243C179.124356 4.67403315 179.11479 4.08425414 179.11479 3.23342541L179.086093 1.3480663C179.353937 1.25138122 179.727005 1.1691989 180.205298 1.10151934 180.683591 1.03383978 181.161884 1 181.640177 1 182.175865 1 182.711553 1.03867403 183.247241 1.1160221 183.782929 1.19337017 184.213392 1.29972376 184.538631 1.43508287 184.500368 2.82734807 184.481236 3.93922652 184.481236 4.77071823 184.481236 5.93093923 184.500368 7.67127072 184.538631 9.99171271 184.557763 11.1519337 184.567329 12.8632597 184.567329 15.1256906L184.567329 17.0110497C185.198675 17.0110497 185.97351 17.0400552 186.891832 17.0980663L188.412804 17.1560773C189.216336 17.2140884 189.972038 17.2430939 190.679912 17.2430939 191.177336 17.2430939 191.617366 17.2237569 192 17.1850829 192 17.6298343 191.990434 17.9198895 191.971302 18.0552486L191.971302 18.0262431C191.933039 18.5483425 191.923473 18.9254144 191.942605 19.1574586L191.971302 19.7085635ZM205.971302 19.7085635C205.990434 19.9406077 206 20.2790055 206 20.7237569 206 21.1298343 205.966519 21.4150552 205.899558 21.5794199 205.832597 21.7437845 205.732156 21.8453039 205.598234 21.8839779 205.464312 21.9226519 205.234731 21.941989 204.909492 21.941989L204.708609 21.941989 204.249448 21.9129834 203.503311 21.941989C202.317145 21.980663 200.566593 22 198.251656 22 196.051508 22 194.300957 21.9903315 193 21.9709945L193 21.3038674C193.133922 18.1132597 193.200883 14.9033149 193.200883 11.6740331 193.200883 10.7265193 193.181751 9.09254144 193.143488 6.77209945L193.143488 6.07596685 193.143488 5.00276243C193.124356 4.67403315 193.11479 4.08425414 193.11479 3.23342541L193.086093 1.3480663C193.353937 1.25138122 193.727005 1.1691989 194.205298 1.10151934 194.683591 1.03383978 195.161884 1 195.640177 1 196.175865 1 196.711553 1.03867403 197.247241 1.1160221 197.782929 1.19337017 198.213392 1.29972376 198.538631 1.43508287 198.500368 2.82734807 198.481236 3.93922652 198.481236 4.77071823 198.481236 5.93093923 198.500368 7.67127072 198.538631 9.99171271 198.557763 11.1519337 198.567329 12.8632597 198.567329 15.1256906L198.567329 17.0110497C199.198675 17.0110497 199.97351 17.0400552 200.891832 17.0980663L202.412804 17.1560773C203.216336 17.2140884 203.972038 17.2430939 204.679912 17.2430939 205.177336 17.2430939 205.617366 17.2237569 206 17.1850829 206 17.6298343 205.990434 17.9198895 205.971302 18.0552486L205.971302 18.0262431C205.933039 18.5483425 205.923473 18.9254144 205.942605 19.1574586L205.971302 19.7085635ZM211.558386 5.86666667C211.518754 5.94488889 211.469214 6.56088889 211.409766 7.71466667 211.350318 8.86844444 211.320594 10.0417778 211.320594 11.2346667 211.320594 12.4471111 211.350318 13.464 211.409766 14.2853333 211.469214 14.8133333 211.627742 15.3266667 211.88535 15.8253333 212.142958 16.324 212.450106 16.6613333 212.806794 16.8373333 213.500354 16.8764444 214.025478 16.5635556 214.382166 15.8986667L214.352442 15.8986667C214.530786 15.5271111 214.619958 14.9697778 214.619958 14.2266667 214.619958 13.64 214.65959 13.1804444 214.738854 12.848 215.234253 12.9262222 215.709837 12.9653333 216.165605 12.9653333L217.532909 12.936C218.246285 12.936 218.920028 13.0142222 219.55414 13.1706667 219.791932 13.8551111 219.910828 14.5688889 219.910828 15.312 219.910828 16.4266667 219.62845 17.4826667 219.063694 18.48 218.498938 19.4773333 217.721161 20.2888889 216.730361 20.9146667 215.739561 21.5404444 214.639774 21.8728889 213.430998 21.912 213.07431 21.9706667 212.658174 22 212.18259 22 210.636943 22 209.279547 21.6577778 208.110403 20.9733333 206.94126 20.2888889 206.287332 19.2622222 206.14862 17.8933333 206.04954 15.9377778 206 13.8355556 206 11.5866667 206 9.72888889 206.009908 8.20355556 206.029724 7.01066667L206.059448 5.69066667C206.039632 5.39733333 206.064402 5.06 206.133758 4.67866667 206.203114 4.29733333 206.29724 3.96 206.416136 3.66666667 206.59448 3.21688889 206.827318 2.76711111 207.11465 2.31733333 207.401982 1.86755556 207.704176 1.496 208.021231 1.20266667 208.437367.870222222 209.051663.586666667 209.864119.352 210.636943.117333333 211.43949 0 212.271762 0 213.61925 0 214.887473.308 216.076433.924 217.265393 1.54 218.216561 2.38088889 218.929936 3.44666667 219.643312 4.51244444 220 5.67111111 220 6.92266667 220 7.66577778 219.861288 8.40888889 219.583864 9.152 218.751592 9.328 218.058033 9.416 217.503185 9.416 216.750177 9.416 215.709837 9.28888889 214.382166 9.03466667L214.292994 7.92C214.253362 7.02044444 214.13942 6.34088889 213.951168 5.88133333 213.762916 5.42177778 213.361642 5.20177778 212.747346 5.22133333 212.72753 5.22133333 212.70276 5.22622222 212.673036 5.236 212.643312 5.24577778 212.598726 5.25066667 212.539278 5.25066667L212.569002 5.25066667C211.954706 5.34844444 211.617834 5.55377778 211.558386 5.86666667Z" transform="translate(310 27)"/><path fill="#ED5F3B" d="M1.81869373,24.7576964 C-5.62255936,49.3117831 10.8671055,67.0675296 31.3512209,57.2451545 L59.1734272,57.2451545 C61.3985719,57.2451545 63.4260302,56.3319962 64.8954747,54.8635389 L64.9063339,54.8529265 C66.1748835,53.5836365 67.0295504,51.8992296 67.238096,50.0294762 C73.1385795,44.9187512 72.532193,35.7597733 67.2884431,28.525585 L67.2884431,17.0279346 C67.2884431,14.8020495 66.3757784,12.7748381 64.9063339,11.3051468 L64.8954747,11.2945344 C63.4260302,9.8253367 61.3985719,8.91267198 59.1734272,8.91267198 L49.6607856,8.91267198 L49.6607856,7.31267053 C49.6607856,5.30026703 48.8384495,3.46950801 47.5138763,2.14616885 C46.190784,0.822336085 44.3600249,0 42.3476215,0 L32.627915,0 C30.6140307,0 28.7854928,0.822336085 27.4616601,2.14616885 C26.1378273,3.46950801 25.3154912,5.30026703 25.3154912,7.31267053 L25.3154912,8.91267198 L15.8033432,8.91267198 C13.5764709,8.91267198 11.5507402,9.8253367 10.0810489,11.2945344 L10.0704365,11.3051468 C8.60123883,12.7748381 7.68882092,14.8020495 7.68882092,17.0279346 L7.68882092,28.8651812 C5.64309948,27.7871608 3.68696629,26.2792156 1.81869373,24.7576964 Z M31.0284071,8.91267198 L43.9471293,8.91267198 L43.9471293,7.31267053 C43.9471293,6.87509493 43.7667188,6.47478607 43.4762358,6.184303 C43.1859995,5.89480714 42.7849502,5.71291587 42.3476215,5.71291587 L32.627915,5.71291587 C32.1910798,5.71291587 31.7902773,5.89480714 31.5005346,6.184303 C31.2100516,6.47478607 31.0284071,6.87509493 31.0284071,7.31267053 L31.0284071,8.91267198 Z"/><path fill="#000" d="M40.0491773 51.5322386C45.3319216 47.2529813 50.4122902 42.7091549 56.2429294 41.3169587 58.2810001 41.2170049 60.0678288 41.9221112 61.5747868 42.9685412L61.5747868 49.1303855C61.5747868 49.7900807 61.3082433 50.3900503 60.8795525 50.8251579L60.8686933 50.8360171C60.4333389 51.2654483 59.8333692 51.5322386 59.1734272 51.5322386L40.0491773 51.5322386ZM61.5747868 22.8447531C52.9113824 16.6059074 39.1772345 14.9000289 22.9279524 25.9628186 21.1068186 27.2022459 19.4621464 28.321235 18.2042091 29.0522553 16.5568222 30.0068759 14.9568207 30.4185375 13.4017368 30.4340859L13.4017368 17.0279346C13.4017368 16.3679926 13.6682803 15.7680229 14.0977115 15.3331621L14.1085707 15.3218094C14.5439251 14.8923782 15.1434012 14.6258346 15.8033432 14.6258346L59.1734272 14.6258346C59.8333692 14.6258346 60.4333389 14.8923782 60.8686933 15.3218094L60.8795525 15.3331621C61.3082433 15.7680229 61.5747868 16.3679926 61.5747868 17.0279346L61.5747868 22.8447531Z"/><path fill="#FFF" d="M41.5070222,30.2336847 C37.1058459,33.1029762 33.8142804,35.9468474 28.3930816,38.511835 C28.3930816,38.511835 32.6140942,30.6910042 33.679281,25.9857709 C27.6023358,32.2885377 15.2480442,40.8396483 6.68360637,35.7489141 C6.29884588,43.6437848 9.40383096,49.5343963 17.1669107,52.4382398 C26.7434734,56.019548 37.4748112,47.8374027 43.4310715,39.7404032 C40.5748603,40.7295758 38.3292313,42.0366261 34.9409203,42.0129334 C37.7309892,39.0476368 40.4351718,34.8722821 41.5070222,30.2336847 L41.5070222,30.2336847 Z"/><g fill="#000" fill-rule="nonzero" transform="translate(80.365 8.96)"><polygon points="0 43.7 12.482 0 14.882 0 2.393 43.7"/><polygon points="15.228 43.7 27.709 0 30.109 0 17.621 43.7"/></g><path fill="#000" fill-rule="nonzero" d="M0 33.3 0 0 8.85234375 0 8.85234375 10.5588281C9.665625 10.0188281 10.4524219 9.57960938 11.2127344 9.24117187 11.9730469 8.90273437 12.7444922 8.64890625 13.5270703 8.4796875 14.3096484 8.31046875 15.1061719 8.22585937 15.9166406 8.22585937 17.5244531 8.22585937 18.8707031 8.5153125 19.9553906 9.09421875 21.0400781 9.673125 21.8633203 10.5053906 22.4251172 11.5910156 22.9869141 12.6766406 23.2678125 14.0010937 23.2678125 15.564375L23.2678125 33.3 14.383125 33.3 14.383125 18.3958594C14.383125 17.3866406 14.1782812 16.6750781 13.7685937 16.2611719 13.3589063 15.8472656 12.7982812 15.6403125 12.0867188 15.6403125 11.735625 15.6403125 11.3873438 15.6760547 11.041875 15.7475391 10.6964063 15.8190234 10.344375 15.9181641 9.98578125 16.0449609 9.6271875 16.1717578 9.249375 16.3242188 8.85234375 16.5023437L8.85234375 33.3 0 33.3ZM25.9386821 20.9432813C25.9386821 19.0242188 26.1369633 17.2846875 26.5335258 15.7246875 26.9300883 14.1646875 27.5936039 12.8273438 28.5240727 11.7126563 29.4545414 10.5979688 30.7207524 9.73816406 32.3227055 9.13324219 33.9246586 8.52832031 35.9310258 8.22585938 38.3418071 8.22585938 40.7525883 8.22585938 42.7534477 8.52832031 44.3443852 9.13324219 45.9353227 9.73816406 47.2015336 10.5979688 48.143018 11.7126563 49.0845024 12.8273438 49.7535258 14.1646875 50.1500883 15.7246875 50.5466508 17.2846875 50.7449321 19.0242188 50.7449321 20.9432813 50.7449321 22.891875 50.5316508 24.6557813 50.1050883 26.235 49.6785258 27.8142188 48.984893 29.1611719 48.0241899 30.2758594 47.0634867 31.3905469 45.7897758 32.2482422 44.2030571 32.8489453 42.6163383 33.4496484 40.6625883 33.75 38.3418071 33.75 36.0210258 33.75 34.0671586 33.4496484 32.4802055 32.8489453 30.8932524 32.2482422 29.6195414 31.3905469 28.6590727 30.2758594 27.6986039 29.1611719 27.0050883 27.8142188 26.5785258 26.235 26.1519633 24.6557813 25.9386821 22.891875 25.9386821 20.9432813ZM35.0427446 20.9432813C35.0427446 22.5248438 35.1491508 23.7631641 35.3619633 24.6582422 35.5747758 25.5533203 35.9263383 26.1823828 36.4166508 26.5454297 36.9069633 26.9084766 37.5486821 27.09 38.3418071 27.09 39.1433696 27.09 39.7816899 26.9084766 40.256768 26.5454297 40.7318461 26.1823828 41.0812992 25.5533203 41.3051274 24.6582422 41.5289555 23.7631641 41.6408696 22.5248438 41.6408696 20.9432813 41.6408696 19.3696875 41.5385649 18.1428516 41.3339555 17.2627734 41.1293461 16.3826953 40.7895024 15.7611328 40.3144242 15.3980859 39.8393461 15.0350391 39.1818071 14.8535156 38.3418071 14.8535156 37.5018071 14.8535156 36.844268 15.0350391 36.3691899 15.3980859 35.8941117 15.7611328 35.554268 16.3826953 35.3496586 17.2627734 35.1450492 18.1428516 35.0427446 19.3696875 35.0427446 20.9432813ZM53.4868645 42.75 53.4868645 8.63789063 61.4687395 8.63789063 61.747177 10.5742969C63.0788957 9.76429688 64.3692473 9.17039063 65.6182317 8.79257813 66.867216 8.41476563 68.1470207 8.22585938 69.4576457 8.22585938 72.200302 8.22585938 74.2981926 9.28066406 75.7513176 11.3902734 77.2044426 13.4998828 77.9310051 16.5625781 77.9310051 20.5783594 77.9310051 23.5164844 77.4931926 25.9614844 76.6175676 27.9133594 75.7419426 29.8652344 74.404716 31.3259766 72.6058879 32.2955859 70.8070598 33.2651953 68.5330363 33.75 65.7838176 33.75 65.2686613 33.75 64.7160051 33.7248047 64.1258488 33.6744141 63.5356926 33.6240234 62.9467082 33.5622656 62.3588957 33.4891406L62.3588957 42.75 53.4868645 42.75ZM65.184052 27.3529688C66.0043645 27.3529688 66.6756145 27.1733203 67.197802 26.8140234 67.7199895 26.4547266 68.1104582 25.8433594 68.3692082 24.9799219 68.6279582 24.1164844 68.7573332 22.9460156 68.7573332 21.4685156 68.7573332 19.9422656 68.6537395 18.7489453 68.446552 17.8885547 68.2393645 17.0281641 67.924716 16.4117578 67.5026067 16.0393359 67.0804973 15.6669141 66.541552 15.4807031 65.8857707 15.4807031 65.5510832 15.4807031 65.191552 15.5138672 64.807177 15.5801953 64.422802 15.6465234 64.0294035 15.7446094 63.6269817 15.8744531 63.2245598 16.0042969 62.7967082 16.1749219 62.343427 16.3863281L62.343427 26.8804688C62.8201457 27.0328125 63.2993254 27.1496484 63.780966 27.2309766 64.2626067 27.3123047 64.730302 27.3529688 65.184052 27.3529688ZM80.0436004 29.0439844C80.0436004 27.4924219 80.4120379 26.3334375 81.1489129 25.5670313 81.8857879 24.800625 83.1101629 24.4174219 84.8220379 24.4174219 86.5470379 24.4174219 87.7746941 24.800625 88.5050066 25.5670313 89.2353191 26.3334375 89.6004754 27.4924219 89.6004754 29.0439844 89.6004754 30.5702344 89.2353191 31.7165625 88.5050066 32.4829687 87.7746941 33.249375 86.5470379 33.6325781 84.8220379 33.6325781 83.1115691 33.6325781 81.8875457 33.249375 81.1499676 32.4829687 80.4123894 31.7165625 80.0436004 30.5702344 80.0436004 29.0439844ZM102.272623 43.2C98.6032484 43.2 95.8200453 42.6944531 93.9230141 41.6833594 92.0259828 40.6722656 91.0774672 39.1492969 91.0774672 37.1144531 91.0774672 36.2960156 91.2253578 35.5546875 91.5211391 34.8904687 91.8169203 34.22625 92.2573109 33.6328125 92.8423109 33.1101562 93.4273109 32.5875 94.1440297 32.1485156 94.9924672 31.7932031L99.1521547 33.3717187C98.8713734 33.5339062 98.6352406 33.6969141 98.4437562 33.8607422 98.2522719 34.0245703 98.1076625 34.2042187 98.0099281 34.3996875 97.9121937 34.5951562 97.8633266 34.8335156 97.8633266 35.1147656 97.8633266 35.5835156 98.0106312 35.9562891 98.3052406 36.2330859 98.59985 36.5098828 99.1137172 36.7130859 99.8468422 36.8426953 100.579967 36.9723047 101.588483 37.0371094 102.872389 37.0371094 104.078014 37.0371094 105.083717 36.9626953 105.889498 36.8138672 106.69528 36.6650391 107.302194 36.4535156 107.710241 36.1792969 108.118287 35.9050781 108.322311 35.5614844 108.322311 35.1485156 108.322311 34.8377344 108.259616 34.6016016 108.134225 34.4401172 108.008834 34.2786328 107.748795 34.1586328 107.354108 34.0801172 106.95942 34.0016016 106.366686 33.9623437 105.575905 33.9623437L101.050592 33.9623437C99.2444984 33.9623437 97.6689125 33.7652344 96.3238344 33.3710156 94.9787562 32.9767969 93.9361391 32.3660156 93.1959828 31.5386719 92.4558266 30.7113281 92.0857484 29.6519531 92.0857484 28.3605469 92.0857484 27.0311719 92.4342641 25.9216406 93.1312953 25.0319531 93.8283266 24.1422656 94.7426234 23.4082031 95.8741859 22.8297656L100.178014 23.8971094C99.6956703 24.1839844 99.3383656 24.4726172 99.1061 24.7630078 98.8738344 25.0533984 98.7577016 25.4163281 98.7577016 25.8517969 98.7577016 26.2957031 98.9263344 26.6295703 99.2636 26.8533984 99.6008656 27.0772266 100.119186 27.1891406 100.818561 27.1891406L108.593717 27.1891406C111.126842 27.1891406 113.092428 27.7981641 114.490475 29.0162109 115.888522 30.2342578 116.587545 31.9171875 116.587545 34.065 116.587545 36.0210937 116.052702 37.6810547 114.983014 39.0448828 113.913327 40.4087109 112.318053 41.4421875 110.197194 42.1453125 108.076334 42.8484375 105.434811 43.2 102.272623 43.2ZM103.169108 25.3209375C99.5273891 25.3209375 96.7876625 24.6005859 94.9499281 23.1598828 93.1121937 21.7191797 92.1933266 19.5923437 92.1933266 16.779375 92.1933266 13.936875 93.1121937 11.8006641 94.9499281 10.3707422 96.7876625 8.94082031 99.5273891 8.22585937 103.169108 8.22585937 106.810827 8.22585937 109.550553 8.94082031 111.388287 10.3707422 113.226022 11.8006641 114.144889 13.936875 114.144889 16.779375 114.144889 19.5923437 113.226022 21.7191797 111.388287 23.1598828 109.550553 24.6005859 106.810827 25.3209375 103.169108 25.3209375ZM103.169108 19.8808594C104.085983 19.8808594 104.760631 19.6621875 105.193053 19.2248437 105.625475 18.7875 105.841686 17.9723437 105.841686 16.779375 105.841686 15.556875 105.625475 14.7247266 105.193053 14.2829297 104.760631 13.8411328 104.085983 13.6202344 103.169108 13.6202344 102.26067 13.6202344 101.588131 13.8411328 101.151491 14.2829297 100.71485 14.7247266 100.49653 15.556875 100.49653 16.779375 100.49653 17.9723437 100.71485 18.7875 101.151491 19.2248437 101.588131 19.6621875 102.26067 19.8808594 103.169108 19.8808594ZM112.761139 14.900625 109.486686 10.4203125C109.928248 9.24890625 110.590592 8.38125 111.473717 7.81734375 112.356842 7.2534375 113.463327 6.97148437 114.79317 6.97148437 115.290983 6.97148437 115.761022 7.00476562 116.203287 7.07132812 116.645553 7.13789062 117.038248 7.23773437 117.381373 7.37085937L116.362545 13.9788281C116.10942 13.9188281 115.837077 13.8684375 115.545514 13.8276562 115.253952 13.786875 114.951608 13.7664844 114.638483 13.7664844 114.262545 13.7664844 113.914381 13.8561328 113.593991 14.0354297 113.2736 14.2147266 112.995983 14.503125 112.761139 14.900625ZM135.144413 33.3773437 134.145272 31.6117969C132.985116 32.3219531 131.813827 32.8558594 130.631405 33.2135156 129.448983 33.5711719 128.208554 33.75 126.910116 33.75 124.183866 33.75 122.092069 32.6913281 120.634725 30.5739844 119.177382 28.4566406 118.44871 25.3938281 118.44871 21.3855469 118.44871 18.4291406 118.886054 15.9800391 119.760741 14.0382422 120.635429 12.0964453 121.972069 10.6422656 123.770663 9.67570312 125.569257 8.70914062 127.840819 8.22585937 130.58535 8.22585937 131.145507 8.22585937 131.721718 8.24507812 132.313983 8.28351562 132.906249 8.32195312 133.480116 8.38382812 134.035585 8.46914062L134.035585 0 142.920272 0 142.920272 33.3773437 135.144413 33.3773437ZM134.035585 25.5459375 134.035585 15.06375C133.536366 14.8973437 133.054022 14.7820312 132.588554 14.7178125 132.123085 14.6535937 131.655038 14.6214844 131.184413 14.6214844 130.374882 14.6214844 129.705741 14.7996094 129.176991 15.1558594 128.648241 15.5121094 128.25496 16.1129297 127.997147 16.9583203 127.739335 17.8037109 127.610429 18.9848437 127.610429 20.5017187 127.610429 21.9778125 127.714725 23.1517969 127.923319 24.0236719 128.131913 24.8955469 128.4516 25.5193359 128.882382 25.8950391 129.313163 26.2707422 129.8466 26.4585937 130.482694 26.4585937 130.8366 26.4585937 131.201405 26.4255469 131.577108 26.3594531 131.952811 26.2933594 132.348788 26.1901172 132.765038 26.0497266 133.181288 25.9093359 133.604804 25.7414062 134.035585 25.5459375ZM146.425198 33.3 146.425198 8.67585938 154.407073 8.67585938 154.407073 10.7985938C155.406448 10.1770313 156.337151 9.680625 157.199182 9.309375 158.061213 8.938125 158.909651 8.66472656 159.744495 8.48917969 160.579338 8.31363281 161.447463 8.22585938 162.34887 8.22585938 164.011057 8.22585938 165.385784 8.52996094 166.473049 9.13816406 167.560315 9.74636719 168.367854 10.58625 168.895667 11.6578125 169.423479 12.729375 169.687385 13.9882031 169.687385 15.4342969L169.687385 33.3 160.830823 33.3 160.830823 18.3832031C160.830823 17.3678906 160.621643 16.6548047 160.203284 16.2439453 159.784924 15.8330859 159.229807 15.6276563 158.537932 15.6276563 158.19762 15.6276563 157.851448 15.6665625 157.499417 15.744375 157.147385 15.8221875 156.790667 15.9234375 156.42926 16.048125 156.067854 16.1728125 155.685354 16.3246875 155.28176 16.50375L155.28176 33.3 146.425198 33.3Z" transform="translate(117.677 15.7)"/><path fill="gray" fill-rule="nonzero" d="M3.864 15.888C3.144 15.888 2.4 15.768 1.608 15.48 1.584 11.808 1.536 9.504 1.488 7.368 2.352 6.672 3.432 6.216 4.56 6.216 6.552 6.216 8.064 7.896 8.064 10.92 8.064 14.112 6.168 15.888 3.864 15.888ZM1.608 20.832 1.608 16.992C2.184 17.112 2.76 17.16 3.288 17.16 6.6 17.16 9.504 14.688 9.504 10.56 9.504 7.152 7.608 4.992 5.088 4.992 3.576 4.992 2.376 5.664 1.44 6.432L1.344 5.208 0 5.304C.096 7.848.144 11.544.144 16.896L.144 20.952 1.608 20.832ZM17.352 17.208C20.256 17.208 22.704 14.688 22.704 10.872 22.704 7.176 20.64 4.944 17.76 4.944 14.856 4.944 12.384 7.464 12.384 11.232 12.384 14.952 14.496 17.208 17.352 17.208ZM17.568 15.984C15.384 15.984 13.848 14.16 13.848 10.944 13.848 7.896 15.384 6.168 17.52 6.168 19.728 6.168 21.264 7.968 21.264 11.16 21.264 14.232 19.728 15.984 17.568 15.984ZM33.216 16.872 34.608 16.872C35.04 13.944 35.52 9.552 35.808 5.256L34.416 5.256C34.2 8.712 33.984 11.808 33.72 14.952L33.648 14.952C33.456 14.4 31.416 8.616 31.272 8.208L30.312 8.208C30.168 8.616 28.2 14.352 27.984 14.904L27.888 14.904C27.6 11.76 27.384 8.688 27.168 5.256L25.704 5.256C25.992 9.552 26.448 13.944 26.928 16.872L28.272 16.872 30.744 9.864 33.216 16.872ZM48.144 17.136 48.336 15.864C42.384 15.696 40.632 14.424 40.488 11.424L48.744 11.232C49.176 7.536 47.568 4.968 44.448 4.968 41.448 4.968 39.048 7.68 39.048 11.208 39.048 14.976 41.04 17.016 48.144 17.136ZM44.16 6.192C46.368 6.192 47.448 7.848 47.4 10.272L40.488 10.464C40.632 7.776 42.024 6.192 44.16 6.192ZM60.912 16.872 61.056 15.744 56.856 15.744C56.832 12.864 56.784 10.344 56.76 8.16 58.032 7.224 59.784 6.576 62.352 6.384L62.28 4.848C59.76 5.112 57.888 6.072 56.712 7.2 56.688 6.648 56.616 5.568 56.592 5.256L52.32 5.256 52.2 6.288 55.272 6.456C55.344 8.952 55.368 11.904 55.44 15.744L52.152 15.744 52.152 16.872 60.912 16.872ZM74.544 17.136 74.736 15.864C68.784 15.696 67.032 14.424 66.888 11.424L75.144 11.232C75.576 7.536 73.968 4.968 70.848 4.968 67.848 4.968 65.448 7.68 65.448 11.208 65.448 14.976 67.44 17.016 74.544 17.136ZM70.56 6.192C72.768 6.192 73.848 7.848 73.8 10.272L66.888 10.464C67.032 7.776 68.424 6.192 70.56 6.192ZM83.376 15.912C81.312 15.912 79.848 14.328 79.848 11.256 79.848 8.016 81.768 6.24 84.192 6.24 84.888 6.24 85.56 6.36 86.28 6.6 86.28 10.2 86.304 12.528 86.352 14.76 85.536 15.408 84.456 15.912 83.376 15.912ZM86.52 16.92 87.912 16.824C87.792 14.136 87.744 10.392 87.744 5.352L87.744 0 86.28.12 86.28 5.112C85.824 5.04 85.368 4.992 84.864 4.992 81.432 4.992 78.384 7.392 78.384 11.64 78.384 15.072 80.304 17.16 82.848 17.16 84.336 17.16 85.56 16.464 86.424 15.672L86.52 16.92ZM109.032 17.136C112.176 17.136 115.104 14.64 115.104 10.56 115.104 7.152 113.208 4.992 110.688 4.992 109.248 4.992 108.072 5.592 107.16 6.336L107.16 0 105.696.12 105.696 16.56C106.728 16.944 107.88 17.136 109.032 17.136ZM109.536 15.864C108.792 15.864 108 15.72 107.16 15.432L107.16 7.32C108 6.648 109.08 6.216 110.16 6.216 112.176 6.216 113.664 7.896 113.664 10.92 113.664 14.112 111.864 15.864 109.536 15.864ZM118.224 21.144C121.968 20.616 123.024 19.512 124.488 15.816 126.192 11.712 127.464 8.28 128.544 5.256L127.152 5.256C126.312 7.536 124.656 12.336 123.552 14.976L123.384 14.976C121.92 11.76 120.504 8.448 119.208 5.208L117.72 5.28C119.064 8.52 121.128 13.344 122.688 16.68L122.712 16.68C121.8 18.744 121.152 19.272 118.08 19.752L118.224 21.144Z" transform="translate(401.756 .128)"/></g></svg>