<svg xmlns="http://www.w3.org/2000/svg" width="1200" height="630" viewBox="0 0 1200 630"><g fill="none" fill-rule="evenodd"><rect width="1200" height="630" fill="#000"/><g transform="translate(345 180.85)"><path fill="#ED5F3B" d="M12.9824956,176.729417 C-40.1358682,352.005395 77.5733406,478.752354 223.796387,408.636678 L422.401388,408.636678 C438.285278,408.636678 452.75801,402.118222 463.247438,391.635841 L463.324955,391.560086 C472.380322,382.499434 478.481244,370.475526 479.969919,357.128548 C522.08971,320.64634 517.761104,255.266233 480.329314,203.625973 L480.329314,121.551574 C480.329314,105.662399 473.814383,91.1914279 463.324955,80.7002384 L463.247438,80.6244833 C452.75801,70.1368173 438.285278,63.6218855 422.401388,63.6218855 L354.496701,63.6218855 L354.496701,52.2004947 C354.496701,37.8352287 348.626568,24.7666067 339.171284,15.3201317 C329.726571,5.87013326 316.657949,0 302.292683,0 L232.909892,0 C218.534056,0 205.481289,5.87013326 196.031291,15.3201317 C186.581292,24.7666067 180.711159,37.8352287 180.711159,52.2004947 L180.711159,63.6218855 L112.809996,63.6218855 C96.9137737,63.6218855 82.4533734,70.1368173 71.9621838,80.6244833 L71.8864288,80.7002384 C61.3987627,91.1914279 54.8855927,105.662399 54.8855927,121.551574 L54.8855927,206.050134 C40.2824911,198.354833 26.3189028,187.590573 12.9824956,176.729417 Z M221.492025,63.6218855 L313.71055,63.6218855 L313.71055,52.2004947 C313.71055,49.0769214 312.422715,46.2193716 310.349141,44.1457981 C308.277329,42.0792716 305.414494,40.7808658 302.292683,40.7808658 L232.909892,40.7808658 C229.791604,40.7808658 226.930531,42.0792716 224.862242,44.1457981 C222.788669,46.2193716 221.492025,49.0769214 221.492025,52.2004947 L221.492025,63.6218855 Z"/><path fill="#000" d="M285.885555 367.855812C323.595699 337.308921 359.861213 304.87344 401.482431 294.935438 416.030919 294.221931 428.78595 299.255236 439.543163 306.725033L439.543163 350.710513C439.543163 355.419656 437.640479 359.702457 434.580329 362.808413L434.502812 362.88593C431.395094 365.951366 427.112293 367.855812 422.401388 367.855812L285.885555 367.855812ZM439.543163 163.074134C377.70064 118.538991 279.661311 106.361811 163.668041 185.332016 150.668127 194.179498 138.927861 202.167249 129.948248 207.385536 118.188602 214.199965 106.767212 217.138555 95.6664584 217.249545L95.6664584 121.551574C95.6664584 116.840669 97.5691427 112.557867 100.634578 109.453673L100.712095 109.372633C103.819813 106.307197 108.099091 104.404513 112.809996 104.404513L422.401388 104.404513C427.112293 104.404513 431.395094 106.307197 434.502812 109.372633L434.580329 109.453673C437.640479 112.557867 439.543163 116.840669 439.543163 121.551574L439.543163 163.074134Z"/><path fill="#FFF" d="M296.29218,215.819008 C264.874988,236.301052 241.378599,256.601636 202.680115,274.911448 C202.680115,274.911448 232.811234,219.083521 240.414924,185.495859 C197.035485,230.487294 108.84607,291.528224 47.7100066,255.188716 C44.9634467,311.545167 67.1279564,353.594489 122.543635,374.323177 C190.904614,399.887853 267.508796,341.480732 310.026742,283.681413 C289.638071,290.742486 273.607956,300.072685 249.420963,299.903558 C269.337487,278.736196 288.640923,248.930999 296.29218,215.819008 L296.29218,215.819008 Z"/></g><g transform="translate(10 14)"><path fill="#454545" fill-rule="nonzero" d="M12.3682745 13.054246C12.2800872 13.2283026 12.169853 14.5989985 12.037572 17.1663335 11.905291 19.7336686 11.8391505 22.3445178 11.8391505 24.9988811 11.8391505 27.6967586 11.905291 29.9594946 12.037572 31.7870891 12.169853 32.9619712 12.5226023 34.1042177 13.0958201 35.2138287 13.6690378 36.3234396 14.3524897 37.0740587 15.1461757 37.4656861 16.6894542 37.5527144 17.8579364 36.8564879 18.6516225 35.3770067L18.585482 35.3770067C18.982325 34.5502378 19.1807465 33.3100844 19.1807465 31.6565466 19.1807465 30.351122 19.2689339 29.3285394 19.4453086 28.5887988 20.5476503 28.7628554 21.6058984 28.8498837 22.6200528 28.8498837L25.6625161 28.7846125C27.2498882 28.7846125 28.749073 28.9586691 30.1600704 29.3067823 30.6891945 30.8297777 30.9537565 32.4180443 30.9537565 34.0715821 30.9537565 36.5518889 30.3254217 38.9016532 29.0687521 41.120875 27.8120825 43.3400968 26.0814059 45.1459342 23.8767224 46.5383871 21.6720389 47.93084 19.2248402 48.6705806 16.5351263 48.7576089 15.7414403 48.8881514 14.8154732 48.9534226 13.7572251 48.9534226 10.3179188 48.9534226 7.29750242 48.1919249 4.69597588 46.6689295 2.09444934 45.1459342.639358218 42.8614411.330702527 39.8154504.110234176 35.464035 0 30.7862635 0 25.7821359 0 21.6482913.0220468351 18.2541874.0661405053 15.599824L.132281011 12.6626186C.0881873404 12.0099063.143304428 11.2592872.297632274 10.4107612.45196012 9.56223521.661405053 8.81161607.925967075 8.15890377 1.32281011 7.15807824 1.84091073 6.15725271 2.48026895 5.15642718 3.11962717 4.15560165 3.79205564 3.32883274 4.49755436 2.67612043 5.42352144 1.93637983 6.79042521 1.3054246 8.59826569.783254761 10.3179188.26108492 12.1037125 0 13.9556466 0 16.9540162 0 19.7760111.685347916 22.4216313 2.05604375 25.0672515 3.42673958 27.1837477 5.29784818 28.7711198 7.66936954 30.3584919 10.0408909 31.152178 12.6191045 31.152178 15.4040103 31.152178 17.0575481 30.8435223 18.711086 30.2262109 20.3646238 28.3742768 20.7562512 26.8309983 20.9520649 25.5963756 20.9520649 23.9208161 20.9520649 21.6058984 20.6692229 18.6516225 20.1035389L18.453201 17.6232321C18.3650136 15.6215811 18.111475 14.1094642 17.6925852 13.0868816 17.2736953 12.064299 16.3807985 11.5747648 15.0138947 11.618279 14.969801 11.618279 14.914684 11.6291575 14.8485434 11.6509146 14.7824029 11.6726717 14.6831922 11.6835502 14.5509112 11.6835502L14.6170517 11.6835502C13.2501479 11.901121 12.5005555 12.3580196 12.3682745 13.054246ZM62.2404995 43.85462C62.2830705 44.3709544 62.304356 45.1239421 62.304356 46.1135832 62.304356 47.0171684 62.2298567 47.6518295 62.0808581 48.0175664 61.9318594 48.3833033 61.7083614 48.6091996 61.4103642 48.6952554 61.1123669 48.7813111 60.6015144 48.824339 59.8778067 48.824339L59.4308107 48.824339 58.4091058 48.7597972 56.7488352 48.824339C54.1094306 48.9103947 50.2141803 48.9534226 45.0630844 48.9534226 40.1674146 48.9534226 36.2721644 48.9319087 33.3773336 48.8888808L33.3773336 47.4044193C33.6753309 40.3048207 33.8243295 33.1621942 33.8243295 25.9765399 33.8243295 23.8681743 33.7817585 20.2323192 33.6966164 15.0689748L33.6966164 13.5199715 33.6966164 11.1319247C33.6540454 10.4004509 33.6327598 9.08810087 33.6327598 7.19487458L33.5689033 2.99965724C34.1648978 2.78451788 34.9950331 2.60164944 36.0593092 2.45105189 37.1235852 2.30045435 38.1878612 2.22515557 39.2521373 2.22515557 40.4441264 2.22515557 41.6361156 2.31121131 42.8281047 2.48332279 44.0200939 2.65543427 44.9779423 2.89208756 45.70165 3.19328265 45.6165079 6.2912893 45.5739369 8.76539184 45.5739369 10.6155903 45.5739369 13.1972625 45.6165079 17.0697708 45.70165 22.2331152 45.744221 24.8147874 45.7655066 28.6227539 45.7655066 33.6570147L45.7655066 37.8522321C47.1703509 37.8522321 48.8944781 37.9167739 50.937888 38.0458575L54.3222858 38.1749411C56.1102695 38.3040247 57.7918257 38.3685665 59.3669542 38.3685665 60.4738013 38.3685665 61.4529352 38.3255387 62.304356 38.2394829 62.304356 39.2291239 62.2830705 39.874542 62.2404995 40.1757371L62.2404995 40.1111953C62.1553574 41.2729478 62.1340719 42.1119912 62.1766429 42.6283257L62.2404995 43.85462ZM93.456534 42.7493871C93.456534 44.9934 93.2239337 46.9954114 92.7587331 48.7554215 90.8979304 48.7554215 88.1490175 48.7994217 84.5119942 48.8874222L76.2018189 48.9534226C72.4379227 48.9534226 68.6740265 48.8214218 64.9101303 48.5574203 64.9524213 47.1494123 64.8889848 41.671381 64.719821 32.1233264 64.592948 26.7112955 64.5295116 22.5532717 64.5295116 19.6492551 64.5295116 13.6212207 64.67753 8.01118864 64.9735668 2.81915897L70.5559746 2.62115784C76.8150379 2.35715633 81.5939174 2.22515557 84.8926129 2.22515557 87.7261078 2.22515557 90.4750208 2.3351562 93.1393518 2.55515746 93.3085156 3.47916274 93.3930976 4.5571689 93.3930976 5.78917594 93.3930976 6.44917971 93.3508066 7.52718587 93.2662247 9.02319442 93.1816427 10.4312025 93.1393518 11.5312087 93.1393518 12.3232133 90.6018937 12.8952165 87.7683988 13.1812182 84.6388671 13.1812182L76.3921283 13.2472186C76.1806734 15.3152304 76.074946 17.0312402 76.074946 18.395248 76.074946 19.451254 76.2018189 20.3752593 76.4555647 21.1672638L80.6423706 20.6392608C81.2344441 20.6392608 82.1225545 20.683261 83.3067016 20.7712616L84.1313755 20.8372619C84.3428303 22.1572695 84.4485578 23.5872776 84.4485578 25.1272864L84.3216848 30.4073166C82.9683739 30.8033189 81.1498622 31.00132 78.8661499 31.00132L77.2168021 30.9353196C76.9207654 30.9353196 76.730456 30.9793199 76.6458741 31.0673204L76.3921283 34.49934C76.3921283 36.3033503 76.4767102 37.7993589 76.6458741 38.9873656 78.8450044 38.9873656 80.9806983 39.053366 83.0529558 39.1853668 83.7719023 39.229367 84.6600126 39.2733673 85.7172868 39.3173675 86.774561 39.3613678 88.0221446 39.3833679 89.4600375 39.3833679L93.3296611 39.2513672C93.4142431 41.2753787 93.456534 42.4413854 93.456534 42.7493871ZM122.383556 3.01604303C121.083937 10.2658447 119.616624 17.3179245 117.981618 24.1722824 116.346613 31.0266403 114.292375 39.199144 111.818905 48.6897934 110.896594 48.6897934 110.267746 48.7117625 109.93236 48.7557007L109.303512 48.821608C108.548894 48.9094844 107.773314 48.9534226 106.976773 48.9534226 104.33561 48.9534226 102.281372 48.6897934 100.814059 48.1625351 97.1667391 34.6735102 94.7142307 19.8004323 93.456534 3.54330133 93.833843 3.10391941 94.6094226 2.77438297 95.7832728 2.55469201 96.957123 2.33500105 98.2567428 2.22515557 99.6821323 2.22515557 101.023675 2.22515557 102.532911 2.37893924 104.20984 2.68650659L104.587149 8.5522552C104.838689 12.9021362 105.111189 16.6698361 105.404652 19.855355 105.698115 23.040874 106.117347 26.1934392 106.662349 29.3130508 107.165427 26.8964503 107.941007 22.5026311 108.989087 16.1315933 110.246784 8.35453333 111.085248 3.71905409 111.504481 2.22515557 113.139486 2.57666111 115.00507 2.75241387 117.101231 2.75241387 119.197392 2.75241387 120.685666 2.84029026 121.566054 3.01604303L122.383556 3.01604303ZM153.535734 42.7493871C153.535734 44.9934 153.303134 46.9954114 152.837934 48.7554215 150.977131 48.7554215 148.228218 48.7994217 144.591195 48.8874222L136.281019 48.9534226C132.517123 48.9534226 128.753227 48.8214218 124.989331 48.5574203 125.031622 47.1494123 124.968185 41.671381 124.799021 32.1233264 124.672149 26.7112955 124.608712 22.5532717 124.608712 19.6492551 124.608712 13.6212207 124.75673 8.01118864 125.052767 2.81915897L130.635175 2.62115784C136.894238 2.35715633 141.673118 2.22515557 144.971813 2.22515557 147.805308 2.22515557 150.554221 2.3351562 153.218552 2.55515746 153.387716 3.47916274 153.472298 4.5571689 153.472298 5.78917594 153.472298 6.44917971 153.430007 7.52718587 153.345425 9.02319442 153.260843 10.4312025 153.218552 11.5312087 153.218552 12.3232133 150.681094 12.8952165 147.847599 13.1812182 144.718068 13.1812182L136.471329 13.2472186C136.259874 15.3152304 136.154146 17.0312402 136.154146 18.395248 136.154146 19.451254 136.281019 20.3752593 136.534765 21.1672638L140.721571 20.6392608C141.313645 20.6392608 142.201755 20.683261 143.385902 20.7712616L144.210576 20.8372619C144.422031 22.1572695 144.527758 23.5872776 144.527758 25.1272864L144.400885 30.4073166C143.047574 30.8033189 141.229063 31.00132 138.94535 31.00132L137.296003 30.9353196C136.999966 30.9353196 136.809656 30.9793199 136.725075 31.0673204L136.471329 34.49934C136.471329 36.3033503 136.555911 37.7993589 136.725075 38.9873656 138.924205 38.9873656 141.059899 39.053366 143.132156 39.1853668 143.851103 39.229367 144.739213 39.2733673 145.796487 39.3173675 146.853761 39.3613678 148.101345 39.3833679 149.539238 39.3833679L153.408862 39.2513672C153.493444 41.2753787 153.535734 42.4413854 153.535734 42.7493871ZM182.346324 36.629484C184.071251 39.2397627 185.461973 41.4435225 186.518491 43.2407636 187.575009 45.0380046 188.448253 46.8566414 189.138224 48.6966739L188.103268 48.6966739C187.58579 48.6966739 186.421464 48.7394653 184.610291 48.8250482 182.799118 48.9106311 181.354491 48.9534226 180.276412 48.9534226 179.672688 48.9534226 178.767101 48.9106311 177.559653 48.8250482L176.460012 48.7608611C173.657006 42.427726 171.155862 37.6778746 168.95658 34.5113071L168.95658 36.1801738C168.95658 38.8332439 169.107511 42.2565601 169.409373 46.4501226L169.409373 46.3859354C169.452497 46.6854756 169.474058 47.198973 169.474058 47.9264277 168.00787 48.611091 165.592973 48.9534226 162.229366 48.9534226L160.676931 48.8892354 157.248639 48.8892354C156.774285 48.8892354 156.537107 45.0166089 156.537107 37.2713558 156.537107 30.2535575 156.472422 23.2250613 156.343053 16.1858672 156.213683 9.14667315 156.019629 4.92101713 155.76089 3.50889917L157.507378 3.25215045C160.094769 2.90981883 162.229366 2.65307011 163.911169 2.48190429 165.592973 2.31073848 167.3179 2.22515557 169.08595 2.22515557 170.983369 2.22515557 172.600488 2.31073848 173.937306 2.48190429 176.43845 2.78144447 178.777882 3.63727353 180.955602 5.04939149 183.133322 6.46150945 184.879811 8.19456331 186.195067 10.2485531 187.510324 12.3025428 188.167952 14.4207198 188.167952 16.6030839 188.167952 18.6998651 187.477982 20.9892079 186.09804 23.4711121 185.235577 25.0116045 184.092813 26.2953481 182.669748 27.3223429 181.246684 28.3493378 179.543318 28.9698139 177.559653 29.1837712 178.723978 31.2377609 180.082358 33.3773336 181.634792 35.6024892 181.936654 36.1159866 182.173832 36.4583182 182.346324 36.629484ZM173.03172 20.2617531C173.635444 20.0905873 174.109799 19.6626728 174.454784 18.9780095 174.79977 18.2933463 174.972262 17.4803087 174.972262 16.5388967 174.972262 14.7844471 174.541031 13.6504736 173.678567 13.1369762 173.117966 12.7946445 172.546584 12.5806873 171.964421 12.4951044 171.382258 12.4095215 170.72463 12.36673 169.991536 12.36673L167.210092 12.8160403C167.296338 14.0997839 167.339461 15.1909659 167.339461 16.0895864 167.339461 18.4003249 167.404146 19.8124429 167.533515 20.3259403 168.266609 20.4115232 169.172196 20.4543147 170.250275 20.4543147 171.242108 20.4543147 172.169256 20.3901275 173.03172 20.2617531ZM212.632276 13.054246C212.544089 13.2283026 212.433854 14.5989985 212.301573 17.1663335 212.169292 19.7336686 212.103152 22.3445178 212.103152 24.9988811 212.103152 27.6967586 212.169292 29.9594946 212.301573 31.7870891 212.433854 32.9619712 212.786604 34.1042177 213.359822 35.2138287 213.933039 36.3234396 214.616491 37.0740587 215.410177 37.4656861 216.953456 37.5527144 218.121938 36.8564879 218.915624 35.3770067L218.849484 35.3770067C219.246327 34.5502378 219.444748 33.3100844 219.444748 31.6565466 219.444748 30.351122 219.532935 29.3285394 219.70931 28.5887988 220.811652 28.7628554 221.8699 28.8498837 222.884054 28.8498837L225.926518 28.7846125C227.51389 28.7846125 229.013074 28.9586691 230.424072 29.3067823 230.953196 30.8297777 231.217758 32.4180443 231.217758 34.0715821 231.217758 36.5518889 230.589423 38.9016532 229.332754 41.120875 228.076084 43.3400968 226.345407 45.1459342 224.140724 46.5383871 221.93604 47.93084 219.488842 48.6705806 216.799128 48.7576089 216.005442 48.8881514 215.079475 48.9534226 214.021227 48.9534226 210.58192 48.9534226 207.561504 48.1919249 204.959977 46.6689295 202.358451 45.1459342 200.90336 42.8614411 200.594704 39.8154504 200.374236 35.464035 200.264002 30.7862635 200.264002 25.7821359 200.264002 21.6482913 200.286048 18.2541874 200.330142 15.599824L200.396283 12.6626186C200.352189 12.0099063 200.407306 11.2592872 200.561634 10.4107612 200.715962 9.56223521 200.925407 8.81161607 201.189969 8.15890377 201.586812 7.15807824 202.104912 6.15725271 202.74427 5.15642718 203.383629 4.15560165 204.056057 3.32883274 204.761556 2.67612043 205.687523 1.93637983 207.054427 1.3054246 208.862267.783254761 210.58192.26108492 212.367714 0 214.219648 0 217.218018 0 220.040013.685347916 222.685633 2.05604375 225.331253 3.42673958 227.447749 5.29784818 229.035121 7.66936954 230.622493 10.0408909 231.41618 12.6191045 231.41618 15.4040103 231.41618 17.0575481 231.107524 18.711086 230.490212 20.3646238 228.638278 20.7562512 227.095 20.9520649 225.860377 20.9520649 224.184818 20.9520649 221.8699 20.6692229 218.915624 20.1035389L218.717202 17.6232321C218.629015 15.6215811 218.375477 14.1094642 217.956587 13.0868816 217.537697 12.064299 216.6448 11.5747648 215.277896 11.618279 215.233803 11.618279 215.178685 11.6291575 215.112545 11.6509146 215.046404 11.6726717 214.947194 11.6835502 214.814913 11.6835502L214.881053 11.6835502C213.514149 11.901121 212.764557 12.3580196 212.632276 13.054246ZM262.568358 48.4997501C261.126753 48.8021984 259.572523 48.9534226 257.905667 48.9534226 255.923461 48.9534226 253.761053 48.7157846 251.418446 48.2405087 251.103095 47.4195775 250.607543 45.6913013 249.931791 43.0556802 249.256039 40.3768521 248.715437 38.605369 248.309985 37.7412309L246.958481 37.6764206 245.809702 37.7412309C245.629502 38.2597138 245.336676 39.5343174 244.931224 41.565042 244.615873 43.2501112 244.300522 44.6219304 243.985171 45.6804996 243.66982 46.7390687 243.219319 47.7004224 242.633667 48.5645605 242.183165 48.6509743 241.507413 48.6941812 240.60641 48.6941812 240.200959 48.6941812 239.322481 48.6509743 237.970976 48.5645605 234.051613 48.3917328 231.866681 48.305319 231.41618 48.305319 231.41618 48.0892845 231.46123 47.5816034 231.55133 46.7822756 231.64143 45.9829479 231.776581 45.0864047 231.956781 44.0926459L233.443436 35.9265409C234.61474 29.2294708 235.729731 23.3965387 236.78841 18.4277447 237.847088 13.4589507 239.23238 8.20931182 240.944286 2.67882807 241.574988 2.59241426 242.430941 2.54920735 243.512145 2.54920735L243.917596 2.54920735C246.845856 2.54920735 249.70654 2.44119009 252.499649 2.22515557 253.040251 4.25588008 253.535803 6.2541994 253.986304 8.22011355 254.436806 10.1860277 254.842257 11.946709 255.202658 13.5021576 256.644263 19.5079173 257.612841 23.5045559 258.108393 25.4920735L262.568358 48.4997501ZM248.445136 29.4455053C247.454033 20.8041244 246.981006 16.483434 247.026056 16.483434L246.958481 15.8353304C246.958481 15.8353304 246.913431 16.3538133 246.82333 17.390779 246.68818 20.6312968 246.485454 23.2021076 246.215153 25.1032114L245.606976 29.4455053 248.445136 29.4455053ZM279.07035 42.8836449C276.352375 36.9556243 274.561963 32.8532622 273.699113 30.5765586L273.699113 42.9480799C273.699113 45.6113936 273.720685 47.4370521 273.763827 48.4250555 272.598981 48.7687089 271.326278 48.9405356 269.945719 48.9405356 269.514294 48.9405356 268.867157 48.8975789 268.004308 48.8116656 267.055174 48.7257522 266.364894 48.6827956 265.93347 48.6827956L262.762499 48.5539255 262.762499 43.7213C262.762499 40.9720731 262.719356 37.063016 262.633071 31.9941288 262.589929 29.4596852 262.568358 25.6150631 262.568358 20.4602625 262.568358 13.5442385 262.762499 7.74508783 263.150781 3.06281066 264.315627 2.76211396 265.609901 2.61176561 267.033603 2.61176561 267.982737 2.61176561 269.136798 2.69767896 270.495785 2.86950564 271.854773 3.04133233 272.793122 3.29907235 273.310831 3.64272572 273.914826 4.75959918 274.659033 6.31677851 275.543454 8.31426373 276.427874 10.3117489 277.279938 12.298495 278.099645 14.2745019L280.688193 20.2025225C280.601908 17.1955555 280.558765 13.6516301 280.558765 9.57074636 280.558765 6.26308267 280.580336 3.98637909 280.623479 2.74063563 282.39232 2.39698226 284.269017 2.22515557 286.253571 2.22515557 287.936127 2.22515557 289.683396 2.41846059 291.49538 2.80507063L291.49538 48.4894905C291.365953 48.4894905 291.107098 48.5539255 290.718816 48.6827956 290.287391 48.8546222 289.532398 48.9405356 288.453836 48.9405356 288.238124 48.9834923 287.094849 48.9190573 285.02401 48.7472306 284.506301 48.7042739 283.848378 48.6613172 283.050243 48.6183606 282.252107 48.5754039 281.788325 48.5754039 281.658898 48.6183606L279.07035 42.8836449ZM303.194159 48.9534226C302.124557 48.8219788 301.099521 48.7562569 300.119052 48.7562569 299.45055 48.7562569 298.536931 48.8000715 297.378195 48.8877007L294.570488 48.9534226C293.679152 48.9534226 292.654116 48.8877007 291.49538 48.7562569 292.564983 45.601606 294.615054 40.168596 297.645595 32.4572271L300.386452 25.62215C299.940784 23.8695662 299.3837 22.1498433 298.715198 20.4629813 298.046696 18.7761193 297.199928 16.7716016 296.174892 14.449428 294.971589 11.51385 294.069111 9.25739829 293.46746 7.68007282 292.865808 6.10274735 292.342149 4.43779269 291.896481 2.68520883 292.74325 2.72902343 294.05797 2.66330154 295.840641 2.48804315 297.266778 2.31278477 298.314097 2.22515557 298.982599 2.22515557 300.542436 2.22515557 301.834873 2.50995045 302.859908 3.0795402 303.261009 4.70068027 303.873803 6.7161517 304.698288 9.1259545 305.522773 11.5357573 306.313834 13.6826725 307.071469 15.5667002 307.294303 15.1285542 308.007371 13.1349901 309.210674 9.58600776 310.547678 5.64269409 311.305313 3.49577887 311.48358 3.1452621 313.934753 2.66330154 316.363642 2.42232126 318.770248 2.42232126 320.240952 2.42232126 321.533389 2.50995045 322.647558 2.68520883 321.577955 6.62852251 320.263235 10.4294387 318.703398 14.0879575 317.143561 17.7464763 315.026639 22.3360553 312.352632 27.8566944 310.213427 32.1505249 308.430756 35.9076265 307.004619 39.1279994 305.578482 42.3483722 304.308329 45.6235133 303.194159 48.9534226ZM351.385102 13.5688452C351.511421 14.9008694 351.57458 16.2543778 351.57458 17.6293705L351.511421 18.7895206 351.511421 19.9496706C351.427208 21.3676319 351.385102 23.4516051 351.385102 26.2015905 351.385102 29.2523555 351.321943 31.5726557 351.195624 33.162491L351.006145 35.2894328C350.795614 38.769883 349.932435 41.734711 348.416609 44.1839167 347.785014 45.0862557 346.837623 45.8811733 345.574434 46.5686697 344.311245 47.256166 342.921737 47.8147568 341.405911 48.244442 339.847978 48.7170957 338.016354 48.9534226 335.91104 48.9534226 334.942595 48.9534226 334.268895 48.9319383 333.889938 48.8889698 331.82673 48.7170957 329.984579 48.2551841 328.363487 47.503235 326.742395 46.7512859 325.552892 45.6448464 324.794979 44.1839167 323.784428 42.2503333 323.237046 39.8226118 323.152833 36.9007523L323.026515 34.8382633C322.984408 34.4945151 322.963355 33.7855345 322.963355 32.7113215 322.752824 29.1879027 322.647558 25.8148738 322.647558 22.5922347 322.647558 20.6156827 322.710717 18.6391307 322.837036 16.6625788 322.963355 14.5141527 323.331785 12.4194373 323.942326 10.3784325 324.552868 8.33742774 325.489733 6.54349197 326.752921 4.9966252L328.142429 4.22319182C330.837232 2.89116765 333.784672 2.22515557 336.98475 2.22515557 339.005852 2.22515557 340.911162 2.49370883 342.700679 3.03081535 344.490197 3.56792187 346.058656 4.35209738 347.406058 5.38334189 348.879778 6.75833458 349.848222 8.111843 350.311392 9.44386717 350.816667 10.8188599 351.174571 12.1938525 351.385102 13.5688452ZM341.595389 20.5941985 341.342752 17.2426538C341.258539 16.0395352 340.974321 14.9760643 340.490099 14.0522411 340.005877 13.1284179 339.384809 12.4731479 338.626896 12.0864312 338.290045 11.9575257 337.953195 11.8930729 337.616345 11.8930729 336.605794 11.8930729 335.616296 12.2368211 334.647851 12.9243174 334.142576 13.3540026 333.647827 13.966304 333.163604 14.7612217 332.679382 15.5561393 332.310952 16.3617991 332.058314 17.178201 331.637251 19.068816 331.42672 21.4750532 331.42672 24.3969126 331.42672 25.8578423 331.447773 26.9535396 331.489879 27.6840045L331.489879 27.6195517C331.658304 28.4789221 331.784623 29.617588 331.868836 31.0355492L331.931995 31.9378881C332.10042 34.0863142 332.332005 35.6761495 332.626749 36.707394L332.626749 36.6429412C333.005706 37.5023116 333.563614 38.1575816 334.300474 38.6087511 335.037334 39.0599205 335.826827 39.2855053 336.668953 39.2855053 337.342654 39.2855053 338.026881 39.1243733 338.721635 38.8021094 339.416389 38.4798455 340.016403 38.0179339 340.521679 37.4163746 340.942742 36.8577838 341.205906 36.3851301 341.311172 35.9984134 341.416438 35.6116967 341.46907 35.0101374 341.46907 34.1937355 341.46907 33.4632706 341.490124 32.9261641 341.53223 32.5824159L341.595389 31.7445298 341.658549 30.5199269 341.658549 29.617588 341.721708 28.3929851 341.721708 25.2992516 341.595389 20.9164624 341.595389 20.5941985ZM370.301729 42.8836449C367.583753 36.9556243 365.793341 32.8532622 364.930492 30.5765586L364.930492 42.9480799C364.930492 45.6113936 364.952063 47.4370521 364.995206 48.4250555 363.830359 48.7687089 362.557656 48.9405356 361.177097 48.9405356 360.745673 48.9405356 360.098536 48.8975789 359.235687 48.8116656 358.286552 48.7257522 357.596273 48.6827956 357.164848 48.6827956L353.993877 48.5539255 353.993877 43.7213C353.993877 40.9720731 353.950735 37.063016 353.86445 31.9941288 353.821307 29.4596852 353.799736 25.6150631 353.799736 20.4602625 353.799736 13.5442385 353.993877 7.74508783 354.382159 3.06281066 355.547006 2.76211396 356.84128 2.61176561 358.264981 2.61176561 359.214115 2.61176561 360.368176 2.69767896 361.727164 2.86950564 363.086151 3.04133233 364.0245 3.29907235 364.54221 3.64272572 365.146204 4.75959918 365.890412 6.31677851 366.774832 8.31426373 367.659253 10.3117489 368.511316 12.298495 369.331023 14.2745019L371.919571 20.2025225C371.833286 17.1955555 371.790144 13.6516301 371.790144 9.57074636 371.790144 6.26308267 371.811715 3.98637909 371.854857 2.74063563 373.623698 2.39698226 375.500396 2.22515557 377.484949 2.22515557 379.167505 2.22515557 380.914775 2.41846059 382.726758 2.80507063L382.726758 48.4894905C382.597331 48.4894905 382.338476 48.5539255 381.950194 48.6827956 381.518769 48.8546222 380.763776 48.9405356 379.685215 48.9405356 379.469502 48.9834923 378.326227 48.9190573 376.255389 48.7472306 375.737679 48.7042739 375.079757 48.6613172 374.281621 48.6183606 373.483485 48.5754039 373.019704 48.5754039 372.890277 48.6183606L370.301729 42.8836449ZM427.166013 43.85462C427.208584 44.3709544 427.22987 45.1239421 427.22987 46.1135832 427.22987 47.0171684 427.155371 47.6518295 427.006372 48.0175664 426.857373 48.3833033 426.633875 48.6091996 426.335878 48.6952554 426.037881 48.7813111 425.527028 48.824339 424.803321 48.824339L424.356325 48.824339 423.33462 48.7597972 421.674349 48.824339C419.034944 48.9103947 415.139694 48.9534226 409.988598 48.9534226 405.092929 48.9534226 401.197678 48.9319087 398.302847 48.8888808L398.302847 47.4044193C398.600845 40.3048207 398.749843 33.1621942 398.749843 25.9765399 398.749843 23.8681743 398.707272 20.2323192 398.62213 15.0689748L398.62213 13.5199715 398.62213 11.1319247C398.579559 10.4004509 398.558274 9.08810087 398.558274 7.19487458L398.494417 2.99965724C399.090412 2.78451788 399.920547 2.60164944 400.984823 2.45105189 402.049099 2.30045435 403.113375 2.22515557 404.177651 2.22515557 405.36964 2.22515557 406.561629 2.31121131 407.753619 2.48332279 408.945608 2.65543427 409.903456 2.89208756 410.627164 3.19328265 410.542022 6.2912893 410.499451 8.76539184 410.499451 10.6155903 410.499451 13.1972625 410.542022 17.0697708 410.627164 22.2331152 410.669735 24.8147874 410.69102 28.6227539 410.69102 33.6570147L410.69102 37.8522321C412.095865 37.8522321 413.819992 37.9167739 415.863402 38.0458575L419.2478 38.1749411C421.035783 38.3040247 422.71734 38.3685665 424.292468 38.3685665 425.399315 38.3685665 426.378449 38.3255387 427.22987 38.2394829 427.22987 39.2291239 427.208584 39.874542 427.166013 40.1757371L427.166013 40.1111953C427.080871 41.2729478 427.059586 42.1119912 427.102157 42.6283257L427.166013 43.85462ZM458.318191 43.85462C458.360762 44.3709544 458.382048 45.1239421 458.382048 46.1135832 458.382048 47.0171684 458.307549 47.6518295 458.15855 48.0175664 458.009551 48.3833033 457.786053 48.6091996 457.488056 48.6952554 457.190059 48.7813111 456.679206 48.824339 455.955499 48.824339L455.508503 48.824339 454.486798 48.7597972 452.826527 48.824339C450.187122 48.9103947 446.291872 48.9534226 441.140776 48.9534226 436.245107 48.9534226 432.349856 48.9319087 429.455025 48.8888808L429.455025 47.4044193C429.753023 40.3048207 429.902021 33.1621942 429.902021 25.9765399 429.902021 23.8681743 429.85945 20.2323192 429.774308 15.0689748L429.774308 13.5199715 429.774308 11.1319247C429.731737 10.4004509 429.710452 9.08810087 429.710452 7.19487458L429.646595 2.99965724C430.24259 2.78451788 431.072725 2.60164944 432.137001 2.45105189 433.201277 2.30045435 434.265553 2.22515557 435.329829 2.22515557 436.521818 2.22515557 437.713807 2.31121131 438.905797 2.48332279 440.097786 2.65543427 441.055634 2.89208756 441.779342 3.19328265 441.6942 6.2912893 441.651629 8.76539184 441.651629 10.6155903 441.651629 13.1972625 441.6942 17.0697708 441.779342 22.2331152 441.821913 24.8147874 441.843198 28.6227539 441.843198 33.6570147L441.843198 37.8522321C443.248043 37.8522321 444.97217 37.9167739 447.01558 38.0458575L450.399978 38.1749411C452.187961 38.3040247 453.869518 38.3685665 455.444646 38.3685665 456.551493 38.3685665 457.530627 38.3255387 458.382048 38.2394829 458.382048 39.2291239 458.360762 39.874542 458.318191 40.1757371L458.318191 40.1111953C458.233049 41.2729478 458.211764 42.1119912 458.254335 42.6283257L458.318191 43.85462ZM470.750322 13.054246C470.662135 13.2283026 470.551901 14.5989985 470.41962 17.1663335 470.287339 19.7336686 470.221198 22.3445178 470.221198 24.9988811 470.221198 27.6967586 470.287339 29.9594946 470.41962 31.7870891 470.551901 32.9619712 470.90465 34.1042177 471.477868 35.2138287 472.051086 36.3234396 472.734538 37.0740587 473.528224 37.4656861 475.071502 37.5527144 476.239984 36.8564879 477.03367 35.3770067L476.96753 35.3770067C477.364373 34.5502378 477.562794 33.3100844 477.562794 31.6565466 477.562794 30.351122 477.650982 29.3285394 477.827356 28.5887988 478.929698 28.7628554 479.987946 28.8498837 481.002101 28.8498837L484.044564 28.7846125C485.631936 28.7846125 487.131121 28.9586691 488.542118 29.3067823 489.071242 30.8297777 489.335804 32.4180443 489.335804 34.0715821 489.335804 36.5518889 488.70747 38.9016532 487.4508 41.120875 486.19413 43.3400968 484.463454 45.1459342 482.25877 46.5383871 480.054087 47.93084 477.606888 48.6705806 474.917174 48.7576089 474.123488 48.8881514 473.197521 48.9534226 472.139273 48.9534226 468.699967 48.9534226 465.67955 48.1919249 463.078024 46.6689295 460.476497 45.1459342 459.021406 42.8614411 458.71275 39.8154504 458.492282 35.464035 458.382048 30.7862635 458.382048 25.7821359 458.382048 21.6482913 458.404095 18.2541874 458.448188 15.599824L458.514329 12.6626186C458.470235 12.0099063 458.525352 11.2592872 458.67968 10.4107612 458.834008 9.56223521 459.043453 8.81161607 459.308015 8.15890377 459.704858 7.15807824 460.222959 6.15725271 460.862317 5.15642718 461.501675 4.15560165 462.174104 3.32883274 462.879602 2.67612043 463.805569 1.93637983 465.172473 1.3054246 466.980314.783254761 468.699967.26108492 470.48576 0 472.337695 0 475.336064 0 478.158059.685347916 480.803679 2.05604375 483.449299 3.42673958 485.565796 5.29784818 487.153168 7.66936954 488.74054 10.0408909 489.534226 12.6191045 489.534226 15.4040103 489.534226 17.0575481 489.22557 18.711086 488.608259 20.3646238 486.756325 20.7562512 485.213046 20.9520649 483.978423 20.9520649 482.302864 20.9520649 479.987946 20.6692229 477.03367 20.1035389L476.835249 17.6232321C476.747062 15.6215811 476.493523 14.1094642 476.074633 13.0868816 475.655743 12.064299 474.762846 11.5747648 473.395943 11.618279 473.351849 11.618279 473.296732 11.6291575 473.230591 11.6509146 473.164451 11.6726717 473.06524 11.6835502 472.932959 11.6835502L472.9991 11.6835502C471.632196 11.901121 470.882603 12.3580196 470.750322 13.054246Z" transform="translate(689.798 60.08)"/><path fill="#ED5F3B" d="M4.04687649,55.0897261 C-12.5110693,109.726389 24.1810003,149.235687 69.7613439,127.379375 L131.670081,127.379375 C136.621375,127.379375 141.132785,125.347455 144.402527,122.079909 L144.426691,122.056295 C147.249411,119.231927 149.151178,115.48386 149.615224,111.323368 C162.744718,99.9512096 161.395413,79.5710588 149.727254,63.4738645 L149.727254,37.8898036 C149.727254,32.936863 147.696433,28.4260021 144.426691,25.1557103 L144.402527,25.1320961 C141.132785,21.8629027 136.621375,19.8320817 131.670081,19.8320817 L110.502974,19.8320817 L110.502974,16.2718296 C110.502974,11.7939187 108.673148,7.72019507 105.725767,4.77555957 C102.78168,1.82982572 98.7079567,0 94.2300458,0 L72.6021868,0 C68.1209809,0 64.0521998,1.82982572 61.106466,4.77555957 C58.1607321,7.72019507 56.3309064,11.7939187 56.3309064,16.2718296 L56.3309064,19.8320817 L35.1648971,19.8320817 C30.2097598,19.8320817 25.7021939,21.8629027 22.4319022,25.1320961 L22.408288,25.1557103 C19.1390945,28.4260021 17.1088227,32.936863 17.1088227,37.8898036 L17.1088227,64.2295188 C12.5567743,61.8307557 8.20407358,58.475343 4.04687649,55.0897261 Z M69.043033,19.8320817 L97.7891997,19.8320817 L97.7891997,16.2718296 C97.7891997,15.2981558 97.3877583,14.4074063 96.7413883,13.7610363 C96.0955674,13.116863 95.2031705,12.7121266 94.2300458,12.7121266 L72.6021868,12.7121266 C71.6301605,12.7121266 70.7383127,13.116863 70.0935902,13.7610363 C69.4472202,14.4074063 69.043033,15.2981558 69.043033,16.2718296 L69.043033,19.8320817 Z"/><path fill="#000" d="M89.11565 114.667248C100.870578 105.145235 112.175188 95.034514 125.149268 91.9366608 129.684292 91.714248 133.660264 93.2832192 137.01348 95.6116889L137.01348 109.322751C137.01348 110.790675 136.420379 112.125701 135.466475 113.093883L135.442312 113.118047C134.473581 114.073598 133.138555 114.667248 131.670081 114.667248L89.11565 114.667248ZM137.01348 50.8331297C117.736057 36.9507274 87.1754416 33.1548824 51.0182611 57.7713104 46.965955 60.529229 43.3063036 63.0191539 40.5071974 64.6457877 36.8415051 66.7699671 33.281253 67.6859783 29.8209493 67.7205759L29.8209493 37.8898036C29.8209493 36.42133 30.4140501 35.0863041 31.3696013 34.1186712L31.3937647 34.0934095C32.3624959 33.1378582 33.6964235 32.5447575 35.1648971 32.5447575L131.670081 32.5447575C133.138555 32.5447575 134.473581 33.1378582 135.442312 34.0934095L135.466475 34.1186712C136.420379 35.0863041 137.01348 36.42133 137.01348 37.8898036L137.01348 50.8331297Z"/><path fill="#FFF" d="M92.3595817,67.274652 C82.5662798,73.659272 75.2420344,79.9873277 63.1790237,85.6948243 C63.1790237,85.6948243 72.5714334,68.2922591 74.9416398,57.822383 C61.4194914,71.8470196 33.9292705,90.8745711 14.872064,79.5468955 C14.015912,97.1142109 20.9249869,110.221738 38.1990469,116.683241 C59.5083889,124.652209 83.387285,106.445663 96.6408907,88.4285796 C90.2853765,90.6296424 85.2885025,93.5380329 77.7489835,93.4853128 C83.9573208,86.8870667 89.9745478,77.5962529 92.3595817,67.274652 L92.3595817,67.274652 Z"/><g fill="#FFF" fill-rule="nonzero" transform="translate(178.824 19.937)"><polygon points="0 97.239 27.774 0 33.114 0 5.326 97.239"/><polygon points="33.884 97.239 61.658 0 66.998 0 39.209 97.239"/></g><path fill="#FFF" fill-rule="nonzero" d="M0 74.0976806 0 0 19.697842 0 19.697842 23.4950352C21.5075193 22.2934512 23.2582648 21.3161212 24.9500784 20.5630451 26.641892 19.809969 28.3584778 19.2451619 30.0998359 18.8686239 31.841194 18.4920858 33.6135825 18.3038168 35.4170016 18.3038168 38.9946345 18.3038168 41.9902502 18.9478951 44.4038486 20.2360515 46.8174471 21.524208 48.649289 23.3761285 49.8993745 25.791813 51.1494599 28.2074975 51.7745026 31.1546118 51.7745026 34.6331558L51.7745026 74.0976806 32.0046907 74.0976806 32.0046907 40.933649C32.0046907 38.6879803 31.5488815 37.104643 30.6372631 36.1836372 29.7256447 35.2626314 28.4781668 34.8021285 26.8948296 34.8021285 26.1135914 34.8021285 25.3386114 34.8816604 24.5698897 35.0407243 23.801168 35.1997882 23.0178437 35.4203915 22.2199168 35.7025342 21.4219899 35.984677 20.5812983 36.3239263 19.697842 36.7202822L19.697842 74.0976806 0 74.0976806ZM57.7176029 46.602059C57.7176029 42.3318464 58.1588095 38.4611187 59.0412228 34.989876 59.9236361 31.5186333 61.4000615 28.5428354 63.4704993 26.0624823 65.540937 23.5821292 68.3584533 21.66893 71.9230482 20.3228847 75.4876432 18.9768395 79.9521223 18.3038168 85.3164856 18.3038168 90.6808489 18.3038168 95.1330723 18.9768395 98.6731558 20.3228847 102.213239 21.66893 105.030756 23.5821292 107.125705 26.0624823 109.220654 28.5428354 110.709335 31.5186333 111.591748 34.989876 112.474162 38.4611187 112.915368 42.3318464 112.915368 46.602059 112.915368 50.9379832 112.440784 54.862949 111.491616 58.3769564 110.542449 61.8909638 108.999008 64.8881441 106.861294 67.3684972 104.72358 69.8488503 101.889375 71.7573558 98.3586787 73.0940137 94.8279826 74.4306716 90.4805849 75.0990006 85.3164856 75.0990006 80.1523863 75.0990006 75.8047278 74.4306716 72.2735102 73.0940137 68.7422926 71.7573558 65.9080877 69.8488503 63.7708953 67.3684972 61.6337029 64.8881441 60.0905227 61.8909638 59.1413548 58.3769564 58.1921869 54.862949 57.7176029 50.9379832 57.7176029 46.602059ZM77.9755583 46.602059C77.9755583 50.1212816 78.2123288 52.8767369 78.6858697 54.868425 79.1594106 56.8601131 79.9416919 58.259875 81.0327135 59.0677108 82.1237351 59.8755466 83.5516591 60.2794645 85.3164856 60.2794645 87.1000869 60.2794645 88.5204489 59.8755466 89.5775716 59.0677108 90.6346944 58.259875 91.4122819 56.8601131 91.9103343 54.868425 92.4083867 52.8767369 92.6574129 50.1212816 92.6574129 46.602059 92.6574129 43.1005681 92.4297691 40.3706673 91.9744814 38.4123565 91.5191937 36.4540458 90.7629885 35.0709725 89.7058657 34.2631367 88.648743 33.4553009 87.1856163 33.0513831 85.3164856 33.0513831 83.4473549 33.0513831 81.9842282 33.4553009 80.9271055 34.2631367 79.8699828 35.0709725 79.1137775 36.4540458 78.6584898 38.4123565 78.2032022 40.3706673 77.9755583 43.1005681 77.9755583 46.602059ZM119.016595 95.1254007 119.016595 19.2206505 136.777508 19.2206505 137.397075 23.5294556C140.360356 21.7270796 143.231589 20.4055458 146.010774 19.5648542 148.789958 18.7241626 151.637723 18.3038168 154.554067 18.3038168 160.656904 18.3038168 165.325037 20.6509214 168.558466 25.3451304 171.791896 30.0393395 173.40861 36.854313 173.40861 45.790051 173.40861 52.3278362 172.434409 57.7683416 170.486007 62.1115672 168.537606 66.4547927 165.562068 69.7051713 161.559396 71.862703 157.556724 74.0202347 152.496668 75.0990006 146.379228 75.0990006 145.232925 75.0990006 144.003179 75.0429371 142.68999 74.9308101 141.3768 74.8186831 140.066219 74.6812624 138.758244 74.5185479L138.758244 95.1254007 119.016595 95.1254007ZM145.044656 60.8646108C146.869979 60.8646108 148.363615 60.4648651 149.525564 59.6653737 150.687512 58.8658822 151.556366 57.5054951 152.132125 55.5842124 152.707884 53.6629296 152.995763 51.0584545 152.995763 47.7707872 152.995763 44.3746435 152.765251 41.7193201 152.304227 39.8048171 151.843202 37.8903142 151.14306 36.5187143 150.203801 35.6900177 149.264542 34.8613211 148.065305 34.4469728 146.60609 34.4469728 145.861358 34.4469728 145.061345 34.520768 144.206051 34.6683584 143.350757 34.8159488 142.475384 35.0342053 141.579933 35.3231278 140.684482 35.6120504 139.732445 35.9917175 138.723824 36.4621293L138.723824 59.8132248C139.784597 60.1522134 140.850847 60.4121915 141.922572 60.5931592 142.994297 60.774127 144.034992 60.8646108 145.044656 60.8646108ZM178.109463 64.6273837C178.109463 61.1749157 178.929294 58.5959952 180.568956 56.8906221 182.208617 55.1852489 184.933042 54.3325623 188.74223 54.3325623 192.580624 54.3325623 195.31235 55.1852489 196.937409 56.8906221 198.562468 58.5959952 199.374997 61.1749157 199.374997 64.6273837 199.374997 68.0235274 198.562468 70.5742858 196.937409 72.2796589 195.31235 73.9850321 192.580624 74.8377186 188.74223 74.8377186 184.936171 74.8377186 182.212529 73.9850321 180.571303 72.2796589 178.930076 70.5742858 178.109463 68.0235274 178.109463 64.6273837ZM227.572498 96.1267207C219.407568 96.1267207 213.214508 95.0018003 208.993318 92.7519594 204.772128 90.5021185 202.661534 87.1132761 202.661534 82.5854322 202.661534 80.7642814 202.990613 79.114711 203.648773 77.636721 204.306932 76.1587309 205.286869 74.8382401 206.588586 73.6752487 207.890302 72.5122572 209.485112 71.5354487 211.373018 70.7448231L220.628969 74.2572659C220.004188 74.6181584 219.478755 74.9808761 219.052673 75.3454192 218.62659 75.7099622 218.304812 76.1097079 218.087338 76.5446563 217.869863 76.9796047 217.761126 77.5099914 217.761126 78.1358164 217.761126 79.1788581 218.088902 80.008337 218.744454 80.6242531 219.400006 81.2401692 220.54344 81.6923278 222.174757 81.9807288 223.806074 82.2691298 226.050179 82.4133303 228.90707 82.4133303 231.589773 82.4133303 233.827619 82.2477474 235.620607 81.9165817 237.413596 81.585416 238.764074 81.1147434 239.672042 80.504564 240.58001 79.8943847 241.033994 79.1298351 241.033994 78.2109154 241.033994 77.5193788 240.894487 76.9939465 240.615473 76.6346187 240.33646 76.2752908 239.757832 76.0082721 238.879591 75.8335627 238.00135 75.6588532 236.682424 75.5714984 234.922813 75.5714984L224.853288 75.5714984C220.834449 75.5714984 217.328525 75.1328994 214.335517 74.2557014 211.342509 73.3785033 209.022523 72.01942 207.37556 70.1784515 205.728598 68.3374829 204.905116 65.9802087 204.905116 63.1066289 204.905116 60.1485627 205.680618 57.6796831 207.231621 55.69999 208.782624 53.7202969 210.817076 52.0868936 213.334979 50.7997802L222.911666 53.1747861C221.838376 53.8131276 221.043318 54.4553805 220.526491 55.1015448 220.009663 55.7477091 219.75125 56.5552842 219.75125 57.5242699 219.75125 58.5120303 220.126484 59.2549368 220.876953 59.7529892 221.627421 60.2510416 222.780764 60.5000678 224.336983 60.5000678L241.637915 60.5000678C247.274512 60.5000678 251.648247 61.8552397 254.759118 64.5655835 257.86999 67.2759272 259.425426 71.0207076 259.425426 75.7999246 259.425426 80.1525375 258.235316 83.8462088 255.855094 86.8809386 253.474873 89.9156683 249.925142 92.2153144 245.2059 93.779877 240.486658 95.3444395 234.608857 96.1267207 227.572498 96.1267207ZM229.567315 56.3430252C221.463924 56.3430252 215.367607 54.7401309 211.278362 51.5343423 207.189117 48.3285537 205.144494 43.5960129 205.144494 37.3367198 205.144494 31.0117151 207.189117 26.2583134 211.278362 23.0765148 215.367607 19.8947161 221.463924 18.3038168 229.567315 18.3038168 237.670706 18.3038168 243.767024 19.8947161 247.856269 23.0765148 251.945513 26.2583134 253.990136 31.0117151 253.990136 37.3367198 253.990136 43.5960129 251.945513 48.3285537 247.856269 51.5343423 243.767024 54.7401309 237.670706 56.3430252 229.567315 56.3430252ZM229.567315 44.238005C231.607505 44.238005 233.108702 43.7514261 234.070908 42.7782682 235.033114 41.8051103 235.514217 39.9912608 235.514217 37.3367198 235.514217 34.6164671 235.033114 32.7648074 234.070908 31.7817406 233.108702 30.7986738 231.607505 30.3071404 229.567315 30.3071404 227.5459 30.3071404 226.049396 30.7986738 225.077803 31.7817406 224.10621 32.7648074 223.620413 34.6164671 223.620413 37.3367198 223.620413 39.9912608 224.10621 41.8051103 225.077803 42.7782682 226.049396 43.7514261 227.5459 44.238005 229.567315 44.238005ZM250.911077 33.1562087 243.624909 23.1868164C244.607455 20.5802553 246.081272 18.6495851 248.046363 17.394806 250.011453 16.1400269 252.473553 15.5126373 255.432663 15.5126373 256.540373 15.5126373 257.586283 15.5866933 258.570393 15.7348052 259.554503 15.8829171 260.428311 16.105085 261.191817 16.4013088L258.924766 31.1050673C258.361524 30.971558 257.755516 30.859431 257.106744 30.7686864 256.457973 30.6779417 255.785211 30.6325694 255.088459 30.6325694 254.251939 30.6325694 253.47722 30.8320511 252.764301 31.2310146 252.051382 31.629978 251.433641 32.2717094 250.911077 33.1562087ZM300.717344 74.2697824 298.4941 70.341166C295.912572 71.9213741 293.306272 73.1093986 290.675199 73.9052394 288.044126 74.7010802 285.283977 75.0990006 282.394752 75.0990006 276.328422 75.0990006 271.673848 72.7432909 268.431032 68.0318717 265.188215 63.3204525 263.566807 56.5052182 263.566807 47.5861688 263.566807 41.007705 264.539965 35.558073 266.48628 31.2372728 268.432596 26.9164727 271.406829 23.6806967 275.40898 21.5299447 279.411131 19.3791928 284.465711 18.3038168 290.57272 18.3038168 291.819155 18.3038168 293.101314 18.3465815 294.419197 18.432111 295.73708 18.5176404 297.014024 18.6553219 298.250028 18.8451555L298.250028 0 318.01984 0 318.01984 74.2697824 300.717344 74.2697824ZM298.250028 56.8436852 298.250028 33.5191873C297.139189 33.1489075 296.065899 32.8923192 295.030159 32.7494225 293.994418 32.6065258 292.952941 32.5350774 291.905728 32.5350774 290.104395 32.5350774 288.615453 32.9314333 287.438902 33.7241449 286.262351 34.5168566 285.387239 35.8537753 284.813566 37.7349009 284.239893 39.6160266 283.953056 42.2442309 283.953056 45.6195137 283.953056 48.904052 284.185133 51.5163498 284.649287 53.4564073 285.11344 55.3964649 285.824795 56.7844926 286.78335 57.6204905 287.741905 58.4564884 288.928887 58.8744873 290.344294 58.8744873 291.131791 58.8744873 291.943538 58.8009529 292.779536 58.653884 293.615534 58.5068151 294.496643 58.2770852 295.422864 57.9646942 296.349085 57.6523032 297.291473 57.2786336 298.250028 56.8436852ZM325.818845 74.0976806 325.818845 19.3051368 343.579759 19.3051368 343.579759 24.0285511C345.803523 22.6454778 347.874483 21.5408967 349.792636 20.7148077 351.71079 19.8887186 353.598695 19.2803646 355.456353 18.8897455 357.31401 18.4991264 359.245723 18.3038168 361.251492 18.3038168 364.950118 18.3038168 368.009098 18.9804901 370.428434 20.3338367 372.847769 21.6871833 374.644669 23.5560532 375.819134 25.9404464 376.993599 28.3248397 377.580831 31.1259281 377.580831 34.3437117L377.580831 74.0976806 357.873602 74.0976806 357.873602 40.9054869C357.873602 38.6462586 357.408144 37.0595315 356.47723 36.1453054 355.546315 35.2310794 354.311093 34.7739664 352.771563 34.7739664 352.014315 34.7739664 351.244029 34.8605388 350.460704 35.0336838 349.67738 35.2068287 348.883625 35.4321257 348.07944 35.7095748 347.275255 35.9870239 346.424133 36.3249694 345.526074 36.7234113L345.526074 74.0976806 325.818845 74.0976806Z" transform="translate(261.848 34.935)"/><path fill="#454545" fill-rule="nonzero" d="M8.59800113 35.3532717C6.99588912 35.3532717 5.34037337 35.0862531 3.57805016 34.4454083 3.52464643 26.274637 3.41783896 21.1478786 3.31103149 16.3949463 5.23356591 14.846238 7.63673392 13.831567 10.1467094 13.831567 14.5792193 13.831567 17.9436545 17.5698284 17.9436545 24.2986988 17.9436545 31.4013954 13.7247596 35.3532717 8.59800113 35.3532717ZM3.57805016 46.3544409 3.57805016 37.8098435C4.85973977 38.0768622 6.14142938 38.1836696 7.31631152 38.1836696 14.6860268 38.1836696 21.1478786 32.683085 21.1478786 23.4976428 21.1478786 15.9143127 16.9289836 11.1079766 11.3215916 11.1079766 7.95715633 11.1079766 5.28696964 12.6032812 3.20422402 14.3122006L2.99060909 11.5886102 0 11.8022252C.213614935 17.4630209.320422402 25.6871959.320422402 37.5962285L.320422402 46.6214596 3.57805016 46.3544409ZM38.6108995 38.2904771C45.0727513 38.2904771 50.5199321 32.683085 50.5199321 24.1918914 50.5199321 15.9677164 45.927211 11.0011691 39.518763 11.0011691 33.0569112 11.0011691 27.5563266 16.6085612 27.5563266 24.9929474 27.5563266 33.2705261 32.2558552 38.2904771 38.6108995 38.2904771ZM39.0915331 35.5668867C34.2317933 35.5668867 30.8139544 31.5082029 30.8139544 24.3521026 30.8139544 17.5698284 34.2317933 13.7247596 38.9847256 13.7247596 43.8978691 13.7247596 47.3157081 17.7300396 47.3157081 24.8327362 47.3157081 31.6684141 43.8978691 35.5668867 39.0915331 35.5668867ZM73.9107675 37.5428248 77.008184 37.5428248C77.9694513 31.0275693 79.0375259 21.254686 79.6783707 11.6954177L76.5809542 11.6954177C76.1003206 19.3855553 75.619687 26.274637 75.0322459 33.2705261L74.8720347 33.2705261C74.4448048 32.0422402 69.9054875 19.1719404 69.5850651 18.2640769L67.4489157 18.2640769C67.1284933 19.1719404 62.7493871 31.9354328 62.2687535 33.1637186L62.0551386 33.1637186C61.4142938 26.1678295 60.9336602 19.3321516 60.4530266 11.6954177L57.1953988 11.6954177C57.8362436 21.254686 58.8509146 31.0275693 59.9189893 37.5428248L62.9095983 37.5428248 68.4101829 21.9489346 73.9107675 37.5428248ZM107.12789 38.1302659 107.55512 35.299868C94.3109938 34.9260419 90.4125212 32.095644 90.0920988 25.4201773L108.462983 24.9929474C109.42425 16.7687724 105.8462 11.0545729 98.9037149 11.0545729 92.2282482 11.0545729 86.8878748 17.0891948 86.8878748 24.9395437 86.8878748 33.3239299 91.3203847 37.8632472 107.12789 38.1302659ZM98.2628701 13.7781633C103.176014 13.7781633 105.579182 17.4630209 105.472374 22.856798L90.0920988 23.2840279C90.4125212 17.3028097 93.5099378 13.7781633 98.2628701 13.7781633ZM135.538676 37.5428248 135.859099 35.0328493 126.513445 35.0328493C126.460041 28.6244013 126.353234 23.0170092 126.29983 18.1572695 129.130228 16.0745239 133.028701 14.632623 138.7429 14.2053932L138.582689 10.7875542C132.975297 11.3749953 128.809806 13.5111446 126.193023 16.0211201 126.139619 14.7928342 125.979408 12.3896662 125.926004 11.6954177L116.42014 11.6954177 116.153121 13.9917782 122.988799 14.3656044C123.14901 19.9195927 123.202414 26.4882519 123.362625 35.0328493L116.046313 35.0328493 116.046313 37.5428248 135.538676 37.5428248ZM165.871997 38.1302659 166.299227 35.299868C153.055101 34.9260419 149.156628 32.095644 148.836206 25.4201773L167.20709 24.9929474C168.168358 16.7687724 164.590307 11.0545729 157.647822 11.0545729 150.972355 11.0545729 145.631982 17.0891948 145.631982 24.9395437 145.631982 33.3239299 150.064492 37.8632472 165.871997 38.1302659ZM157.006977 13.7781633C161.920121 13.7781633 164.323289 17.4630209 164.216481 22.856798L148.836206 23.2840279C149.156628 17.3028097 152.254045 13.7781633 157.006977 13.7781633ZM185.524571 35.4066755C180.93185 35.4066755 177.674222 31.882029 177.674222 25.0463511 177.674222 17.8368471 181.946521 13.8849708 187.340298 13.8849708 188.889006 13.8849708 190.384311 14.1519894 191.986423 14.6860268 191.986423 22.6965868 192.039827 27.876749 192.146634 32.8432962 190.330907 34.2851971 187.927739 35.4066755 185.524571 35.4066755ZM192.52046 37.6496323 195.617877 37.4360173C195.350858 31.4547992 195.244051 23.1238167 195.244051 11.9090326L195.244051 0 191.986423.267018669 191.986423 11.3749953C190.971752 11.2147841 189.957081 11.1079766 188.835602 11.1079766 181.198869 11.1079766 174.416594 16.44835 174.416594 25.9008109 174.416594 33.5375448 178.688893 38.1836696 184.349689 38.1836696 187.66072 38.1836696 190.384311 36.6349613 192.306845 34.8726381L192.52046 37.6496323ZM242.613162 38.1302659C249.609051 38.1302659 256.124307 32.5762776 256.124307 23.4976428 256.124307 15.9143127 251.905412 11.1079766 246.29802 11.1079766 243.093796 11.1079766 240.477013 12.44307 238.447671 14.0985857L238.447671 0 235.190043.267018669 235.190043 36.8485763C237.486404 37.703036 240.049783 38.1302659 242.613162 38.1302659ZM243.734641 35.299868C242.079125 35.299868 240.316802 34.9794456 238.447671 34.3386008L238.447671 16.2881388C240.316802 14.7928342 242.71997 13.831567 245.123138 13.831567 249.609051 13.831567 252.920083 17.5698284 252.920083 24.2986988 252.920083 31.4013954 248.914803 35.299868 243.734641 35.299868ZM263.066792 47.0486894C271.397775 45.8738073 273.747539 43.4172355 277.005167 35.1930605 280.796832 26.0610221 283.62723 18.4242881 286.030398 11.6954177L282.932981 11.6954177C281.063851 16.7687724 277.378993 27.4495191 274.922421 33.3239299L274.548595 33.3239299C271.290967 26.1678295 268.140147 18.7981143 265.256345 11.5886102L261.945314 11.7488214C264.935923 18.9583255 269.528644 29.692476 272.999887 37.1155949L273.053291 37.1155949C271.023949 41.708316 269.582048 42.8831982 262.74637 43.9512729L263.066792 47.0486894Z" transform="translate(893.97 .285)"/></g></g></svg>