<svg xmlns="http://www.w3.org/2000/svg" width="1200" height="630" viewBox="0 0 1200 630"><g fill="none" fill-rule="evenodd"><rect width="1200" height="630" fill="#000"/><path fill="#FFF" fill-rule="nonzero" d="M0 74.0976806 0 0 19.697842 0 19.697842 23.4950352C21.5075193 22.2934512 23.2582648 21.3161212 24.9500784 20.5630451 26.641892 19.809969 28.3584778 19.2451619 30.0998359 18.8686239 31.841194 18.4920858 33.6135825 18.3038168 35.4170016 18.3038168 38.9946345 18.3038168 41.9902502 18.9478951 44.4038486 20.2360515 46.8174471 21.524208 48.649289 23.3761285 49.8993745 25.791813 51.1494599 28.2074975 51.7745026 31.1546118 51.7745026 34.6331558L51.7745026 74.0976806 32.0046907 74.0976806 32.0046907 40.933649C32.0046907 38.6879803 31.5488815 37.104643 30.6372631 36.1836372 29.7256447 35.2626314 28.4781668 34.8021285 26.8948296 34.8021285 26.1135914 34.8021285 25.3386114 34.8816604 24.5698897 35.0407243 23.801168 35.1997882 23.0178437 35.4203915 22.2199168 35.7025342 21.4219899 35.984677 20.5812983 36.3239263 19.697842 36.7202822L19.697842 74.0976806 0 74.0976806ZM57.7176029 46.602059C57.7176029 42.3318464 58.1588095 38.4611187 59.0412228 34.989876 59.9236361 31.5186333 61.4000615 28.5428354 63.4704993 26.0624823 65.540937 23.5821292 68.3584533 21.66893 71.9230482 20.3228847 75.4876432 18.9768395 79.9521223 18.3038168 85.3164856 18.3038168 90.6808489 18.3038168 95.1330723 18.9768395 98.6731558 20.3228847 102.213239 21.66893 105.030756 23.5821292 107.125705 26.0624823 109.220654 28.5428354 110.709335 31.5186333 111.591748 34.989876 112.474162 38.4611187 112.915368 42.3318464 112.915368 46.602059 112.915368 50.9379832 112.440784 54.862949 111.491616 58.3769564 110.542449 61.8909638 108.999008 64.8881441 106.861294 67.3684972 104.72358 69.8488503 101.889375 71.7573558 98.3586787 73.0940137 94.8279826 74.4306716 90.4805849 75.0990006 85.3164856 75.0990006 80.1523863 75.0990006 75.8047278 74.4306716 72.2735102 73.0940137 68.7422926 71.7573558 65.9080877 69.8488503 63.7708953 67.3684972 61.6337029 64.8881441 60.0905227 61.8909638 59.1413548 58.3769564 58.1921869 54.862949 57.7176029 50.9379832 57.7176029 46.602059ZM77.9755583 46.602059C77.9755583 50.1212816 78.2123288 52.8767369 78.6858697 54.868425 79.1594106 56.8601131 79.9416919 58.259875 81.0327135 59.0677108 82.1237351 59.8755466 83.5516591 60.2794645 85.3164856 60.2794645 87.1000869 60.2794645 88.5204489 59.8755466 89.5775716 59.0677108 90.6346944 58.259875 91.4122819 56.8601131 91.9103343 54.868425 92.4083867 52.8767369 92.6574129 50.1212816 92.6574129 46.602059 92.6574129 43.1005681 92.4297691 40.3706673 91.9744814 38.4123565 91.5191937 36.4540458 90.7629885 35.0709725 89.7058657 34.2631367 88.648743 33.4553009 87.1856163 33.0513831 85.3164856 33.0513831 83.4473549 33.0513831 81.9842282 33.4553009 80.9271055 34.2631367 79.8699828 35.0709725 79.1137775 36.4540458 78.6584898 38.4123565 78.2032022 40.3706673 77.9755583 43.1005681 77.9755583 46.602059ZM119.016595 95.1254007 119.016595 19.2206505 136.777508 19.2206505 137.397075 23.5294556C140.360356 21.7270796 143.231589 20.4055458 146.010774 19.5648542 148.789958 18.7241626 151.637723 18.3038168 154.554067 18.3038168 160.656904 18.3038168 165.325037 20.6509214 168.558466 25.3451304 171.791896 30.0393395 173.40861 36.854313 173.40861 45.790051 173.40861 52.3278362 172.434409 57.7683416 170.486007 62.1115672 168.537606 66.4547927 165.562068 69.7051713 161.559396 71.862703 157.556724 74.0202347 152.496668 75.0990006 146.379228 75.0990006 145.232925 75.0990006 144.003179 75.0429371 142.68999 74.9308101 141.3768 74.8186831 140.066219 74.6812624 138.758244 74.5185479L138.758244 95.1254007 119.016595 95.1254007ZM145.044656 60.8646108C146.869979 60.8646108 148.363615 60.4648651 149.525564 59.6653737 150.687512 58.8658822 151.556366 57.5054951 152.132125 55.5842124 152.707884 53.6629296 152.995763 51.0584545 152.995763 47.7707872 152.995763 44.3746435 152.765251 41.7193201 152.304227 39.8048171 151.843202 37.8903142 151.14306 36.5187143 150.203801 35.6900177 149.264542 34.8613211 148.065305 34.4469728 146.60609 34.4469728 145.861358 34.4469728 145.061345 34.520768 144.206051 34.6683584 143.350757 34.8159488 142.475384 35.0342053 141.579933 35.3231278 140.684482 35.6120504 139.732445 35.9917175 138.723824 36.4621293L138.723824 59.8132248C139.784597 60.1522134 140.850847 60.4121915 141.922572 60.5931592 142.994297 60.774127 144.034992 60.8646108 145.044656 60.8646108ZM178.109463 64.6273837C178.109463 61.1749157 178.929294 58.5959952 180.568956 56.8906221 182.208617 55.1852489 184.933042 54.3325623 188.74223 54.3325623 192.580624 54.3325623 195.31235 55.1852489 196.937409 56.8906221 198.562468 58.5959952 199.374997 61.1749157 199.374997 64.6273837 199.374997 68.0235274 198.562468 70.5742858 196.937409 72.2796589 195.31235 73.9850321 192.580624 74.8377186 188.74223 74.8377186 184.936171 74.8377186 182.212529 73.9850321 180.571303 72.2796589 178.930076 70.5742858 178.109463 68.0235274 178.109463 64.6273837ZM227.572498 96.1267207C219.407568 96.1267207 213.214508 95.0018003 208.993318 92.7519594 204.772128 90.5021185 202.661534 87.1132761 202.661534 82.5854322 202.661534 80.7642814 202.990613 79.114711 203.648773 77.636721 204.306932 76.1587309 205.286869 74.8382401 206.588586 73.6752487 207.890302 72.5122572 209.485112 71.5354487 211.373018 70.7448231L220.628969 74.2572659C220.004188 74.6181584 219.478755 74.9808761 219.052673 75.3454192 218.62659 75.7099622 218.304812 76.1097079 218.087338 76.5446563 217.869863 76.9796047 217.761126 77.5099914 217.761126 78.1358164 217.761126 79.1788581 218.088902 80.008337 218.744454 80.6242531 219.400006 81.2401692 220.54344 81.6923278 222.174757 81.9807288 223.806074 82.2691298 226.050179 82.4133303 228.90707 82.4133303 231.589773 82.4133303 233.827619 82.2477474 235.620607 81.9165817 237.413596 81.585416 238.764074 81.1147434 239.672042 80.504564 240.58001 79.8943847 241.033994 79.1298351 241.033994 78.2109154 241.033994 77.5193788 240.894487 76.9939465 240.615473 76.6346187 240.33646 76.2752908 239.757832 76.0082721 238.879591 75.8335627 238.00135 75.6588532 236.682424 75.5714984 234.922813 75.5714984L224.853288 75.5714984C220.834449 75.5714984 217.328525 75.1328994 214.335517 74.2557014 211.342509 73.3785033 209.022523 72.01942 207.37556 70.1784515 205.728598 68.3374829 204.905116 65.9802087 204.905116 63.1066289 204.905116 60.1485627 205.680618 57.6796831 207.231621 55.69999 208.782624 53.7202969 210.817076 52.0868936 213.334979 50.7997802L222.911666 53.1747861C221.838376 53.8131276 221.043318 54.4553805 220.526491 55.1015448 220.009663 55.7477091 219.75125 56.5552842 219.75125 57.5242699 219.75125 58.5120303 220.126484 59.2549368 220.876953 59.7529892 221.627421 60.2510416 222.780764 60.5000678 224.336983 60.5000678L241.637915 60.5000678C247.274512 60.5000678 251.648247 61.8552397 254.759118 64.5655835 257.86999 67.2759272 259.425426 71.0207076 259.425426 75.7999246 259.425426 80.1525375 258.235316 83.8462088 255.855094 86.8809386 253.474873 89.9156683 249.925142 92.2153144 245.2059 93.779877 240.486658 95.3444395 234.608857 96.1267207 227.572498 96.1267207ZM229.567315 56.3430252C221.463924 56.3430252 215.367607 54.7401309 211.278362 51.5343423 207.189117 48.3285537 205.144494 43.5960129 205.144494 37.3367198 205.144494 31.0117151 207.189117 26.2583134 211.278362 23.0765148 215.367607 19.8947161 221.463924 18.3038168 229.567315 18.3038168 237.670706 18.3038168 243.767024 19.8947161 247.856269 23.0765148 251.945513 26.2583134 253.990136 31.0117151 253.990136 37.3367198 253.990136 43.5960129 251.945513 48.3285537 247.856269 51.5343423 243.767024 54.7401309 237.670706 56.3430252 229.567315 56.3430252ZM229.567315 44.238005C231.607505 44.238005 233.108702 43.7514261 234.070908 42.7782682 235.033114 41.8051103 235.514217 39.9912608 235.514217 37.3367198 235.514217 34.6164671 235.033114 32.7648074 234.070908 31.7817406 233.108702 30.7986738 231.607505 30.3071404 229.567315 30.3071404 227.5459 30.3071404 226.049396 30.7986738 225.077803 31.7817406 224.10621 32.7648074 223.620413 34.6164671 223.620413 37.3367198 223.620413 39.9912608 224.10621 41.8051103 225.077803 42.7782682 226.049396 43.7514261 227.5459 44.238005 229.567315 44.238005ZM250.911077 33.1562087 243.624909 23.1868164C244.607455 20.5802553 246.081272 18.6495851 248.046363 17.394806 250.011453 16.1400269 252.473553 15.5126373 255.432663 15.5126373 256.540373 15.5126373 257.586283 15.5866933 258.570393 15.7348052 259.554503 15.8829171 260.428311 16.105085 261.191817 16.4013088L258.924766 31.1050673C258.361524 30.971558 257.755516 30.859431 257.106744 30.7686864 256.457973 30.6779417 255.785211 30.6325694 255.088459 30.6325694 254.251939 30.6325694 253.47722 30.8320511 252.764301 31.2310146 252.051382 31.629978 251.433641 32.2717094 250.911077 33.1562087ZM300.717344 74.2697824 298.4941 70.341166C295.912572 71.9213741 293.306272 73.1093986 290.675199 73.9052394 288.044126 74.7010802 285.283977 75.0990006 282.394752 75.0990006 276.328422 75.0990006 271.673848 72.7432909 268.431032 68.0318717 265.188215 63.3204525 263.566807 56.5052182 263.566807 47.5861688 263.566807 41.007705 264.539965 35.558073 266.48628 31.2372728 268.432596 26.9164727 271.406829 23.6806967 275.40898 21.5299447 279.411131 19.3791928 284.465711 18.3038168 290.57272 18.3038168 291.819155 18.3038168 293.101314 18.3465815 294.419197 18.432111 295.73708 18.5176404 297.014024 18.6553219 298.250028 18.8451555L298.250028 0 318.01984 0 318.01984 74.2697824 300.717344 74.2697824ZM298.250028 56.8436852 298.250028 33.5191873C297.139189 33.1489075 296.065899 32.8923192 295.030159 32.7494225 293.994418 32.6065258 292.952941 32.5350774 291.905728 32.5350774 290.104395 32.5350774 288.615453 32.9314333 287.438902 33.7241449 286.262351 34.5168566 285.387239 35.8537753 284.813566 37.7349009 284.239893 39.6160266 283.953056 42.2442309 283.953056 45.6195137 283.953056 48.904052 284.185133 51.5163498 284.649287 53.4564073 285.11344 55.3964649 285.824795 56.7844926 286.78335 57.6204905 287.741905 58.4564884 288.928887 58.8744873 290.344294 58.8744873 291.131791 58.8744873 291.943538 58.8009529 292.779536 58.653884 293.615534 58.5068151 294.496643 58.2770852 295.422864 57.9646942 296.349085 57.6523032 297.291473 57.2786336 298.250028 56.8436852ZM325.818845 74.0976806 325.818845 19.3051368 343.579759 19.3051368 343.579759 24.0285511C345.803523 22.6454778 347.874483 21.5408967 349.792636 20.7148077 351.71079 19.8887186 353.598695 19.2803646 355.456353 18.8897455 357.31401 18.4991264 359.245723 18.3038168 361.251492 18.3038168 364.950118 18.3038168 368.009098 18.9804901 370.428434 20.3338367 372.847769 21.6871833 374.644669 23.5560532 375.819134 25.9404464 376.993599 28.3248397 377.580831 31.1259281 377.580831 34.3437117L377.580831 74.0976806 357.873602 74.0976806 357.873602 40.9054869C357.873602 38.6462586 357.408144 37.0595315 356.47723 36.1453054 355.546315 35.2310794 354.311093 34.7739664 352.771563 34.7739664 352.014315 34.7739664 351.244029 34.8605388 350.460704 35.0336838 349.67738 35.2068287 348.883625 35.4321257 348.07944 35.7095748 347.275255 35.9870239 346.424133 36.3249694 345.526074 36.7234113L345.526074 74.0976806 325.818845 74.0976806Z" transform="translate(182.848 35.935)"/><g transform="translate(820.71 25)"><path fill="#FFF" fill-rule="nonzero" d="M43.3487941,15.5470085 C43.2913302,15.6609687 43.2195002,16.5584046 43.1333043,18.2393162 C43.0471083,19.9202279 43.0040104,21.6296296 43.0040104,23.3675214 C43.0040104,25.1339031 43.0471083,26.6153846 43.1333043,27.8119658 C43.2195002,28.5811966 43.4493561,29.3290598 43.8228718,30.0555556 C44.1963876,30.7820513 44.6417333,31.2735043 45.158909,31.5299145 C46.1645284,31.5868946 46.9259259,31.1310541 47.4431016,30.1623932 L47.4000036,30.1623932 C47.6585914,29.6210826 47.7878854,28.8091168 47.7878854,27.7264957 C47.7878854,26.8717949 47.8453493,26.2022792 47.9602773,25.7179487 C48.6785768,25.8319088 49.3681444,25.8888889 50.02898,25.8888889 L52.0114867,25.8461538 C53.0458381,25.8461538 54.0227255,25.960114 54.9421489,26.1880342 C55.2869327,27.1851852 55.4593246,28.2250712 55.4593246,29.3076923 C55.4593246,30.9316239 55.0498938,32.4700855 54.2310323,33.9230769 C53.4121708,35.3760684 52.2844406,36.5584046 50.8478415,37.4700855 C49.4112424,38.3817664 47.8166174,38.8660969 46.0639664,38.9230769 C45.5467908,39.008547 44.9434191,39.0512821 44.2538516,39.0512821 C42.012757,39.0512821 40.0446162,38.5527066 38.3494293,37.5555556 C36.6542423,36.5584046 35.7060869,35.0626781 35.5049631,33.0683761 C35.3613031,30.2193732 35.2894732,27.1566952 35.2894732,23.8803419 C35.2894732,21.1737892 35.3038392,18.951567 35.3325712,17.2136752 L35.3756691,15.2905983 C35.3469372,14.8632479 35.3828521,14.3717949 35.4834141,13.8162393 C35.583976,13.2606838 35.7204529,12.7692308 35.8928448,12.3418803 C36.1514326,11.6866097 36.4890334,11.031339 36.9056472,10.3760684 C37.3222609,9.72079772 37.7604236,9.17948718 38.2201354,8.75213675 C38.823507,8.26780627 39.7141984,7.85470085 40.8922097,7.51282051 C42.012757,7.17094017 43.1764023,7 44.3831455,7 C46.3369203,7 48.1757671,7.44871795 49.899686,8.34615385 C51.623605,9.24358974 53.0027401,10.468661 54.0370915,12.0213675 C55.0714428,13.5740741 55.5886185,15.2621083 55.5886185,17.0854701 C55.5886185,18.1680912 55.3874946,19.2507123 54.9852469,20.3333333 C53.7785036,20.5897436 52.7728842,20.7179487 51.9683888,20.7179487 C50.8765734,20.7179487 49.3681444,20.5327635 47.4431016,20.1623932 L47.3138077,18.5384615 C47.2563437,17.2279202 47.0911348,16.2378917 46.818181,15.5683761 C46.5452271,14.8988604 45.9634045,14.5783476 45.0727131,14.6068376 C45.0439811,14.6068376 45.0080661,14.6139601 44.9649681,14.6282051 C44.9218702,14.6424501 44.8572232,14.6495726 44.7710273,14.6495726 L44.8141252,14.6495726 C43.9234338,14.7920228 43.4349901,15.0911681 43.3487941,15.5470085 Z M75.8453118,35.7871275 C75.8736131,36.1176748 75.8877638,36.599723 75.8877638,37.2332719 C75.8877638,37.8117297 75.8382364,38.2180274 75.7391817,38.4521651 C75.640127,38.6863027 75.4915448,38.8309172 75.2934354,38.8860084 C75.0953259,38.9410996 74.7557097,38.9686452 74.2745867,38.9686452 L73.9774225,38.9686452 L73.29819,38.9273268 L72.1944372,38.9686452 C70.4397534,39.0237364 67.8501796,39.0512821 64.4257159,39.0512821 C61.1710603,39.0512821 58.5814865,39.0375092 56.6569946,39.0099636 L56.6569946,38.0596402 C56.855104,33.5146149 56.9541588,28.942044 56.9541588,24.3419276 C56.9541588,22.9921928 56.9258574,20.6645889 56.8692547,17.359116 L56.8692547,16.3674741 L56.8692547,14.8386929 C56.8409533,14.3704176 56.8268027,13.5302766 56.8268027,12.3182698 L56.7843506,9.63257307 C57.1805696,9.49484504 57.732446,9.3777762 58.4399798,9.28136658 C59.1475136,9.18495695 59.8550474,9.13675214 60.5625812,9.13675214 C61.3550191,9.13675214 62.147457,9.19184335 62.9398949,9.30202578 C63.7323328,9.41220821 64.3691132,9.56370906 64.8502362,9.75652831 C64.7936335,11.7398121 64.7653321,13.3236845 64.7653321,14.5081456 C64.7653321,16.1608821 64.7936335,18.6399868 64.8502362,21.9454597 C64.8785375,23.5981962 64.8926882,26.0359824 64.8926882,29.2588185 L64.8926882,31.9445153 C65.8266329,31.9445153 66.9728377,31.9858337 68.3313026,32.0684705 L70.5812601,32.1511073 C71.769917,32.2337442 72.8878204,32.2750626 73.9349704,32.2750626 C74.6708056,32.2750626 75.3217367,32.247517 75.8877638,32.1924257 C75.8877638,32.8259747 75.8736131,33.2391588 75.8453118,33.4319781 L75.8453118,33.3906597 C75.7887091,34.1343911 75.7745584,34.6715304 75.8028597,35.0020777 L75.8453118,35.7871275 Z M96.1869091,35.0795789 C96.1869091,36.5161524 96.0322757,37.7978013 95.723009,38.9245256 C94.4859419,38.9245256 92.6584565,38.9526937 90.2405528,39.0090299 L84.7159239,39.0512821 C82.2136747,39.0512821 79.7114255,38.9667777 77.2091763,38.7977691 C77.2372915,37.8963897 77.1951187,34.3894603 77.0826581,28.276981 C76.9983126,24.8123038 76.9561399,22.1504177 76.9561399,20.2913226 C76.9561399,16.4322919 77.0545429,12.8408582 77.251349,9.51702158 L80.9625501,9.3902651 C85.1235937,9.22125646 88.3006068,9.13675214 90.4935892,9.13675214 C92.3773049,9.13675214 94.2047903,9.2071724 95.9760454,9.34801294 C96.088506,9.93954319 96.1447363,10.6296618 96.1447363,11.4183688 C96.1447363,11.8408904 96.1166212,12.5310091 96.0603909,13.4887247 C96.0041605,14.3901041 95.9760454,15.0943068 95.9760454,15.6013328 C94.2891358,15.9675181 92.4054201,16.1506108 90.3248983,16.1506108 L84.8424421,16.192863 C84.7018664,17.516764 84.6315785,18.6153202 84.6315785,19.4885316 C84.6315785,20.1645661 84.7159239,20.7560964 84.8846149,21.2631223 L87.6680157,20.925105 C88.0616279,20.925105 88.6520463,20.9532731 89.4392708,21.0096093 L89.9875164,21.0518615 C90.1280922,21.8969047 90.1983801,22.8123682 90.1983801,23.798252 L90.1140346,27.1784248 C89.2143495,27.4319378 88.0053976,27.5586943 86.487179,27.5586943 L85.3906878,27.5164421 C85.1938816,27.5164421 85.0673634,27.5446102 85.0111331,27.6009464 L84.8424421,29.7980588 C84.8424421,30.9529512 84.8986725,31.9106669 85.0111331,32.6712058 C86.4731214,32.6712058 87.892937,32.7134579 89.2705798,32.7979622 C89.7485375,32.8261303 90.3389559,32.8542985 91.0418349,32.8824666 C91.7447139,32.9106347 92.5741111,32.9247187 93.5300265,32.9247187 L96.1025636,32.8402144 C96.1587939,34.1359473 96.1869091,34.8824022 96.1869091,35.0795789 Z M115.417678,9.64306294 C114.553687,14.2842453 113.578213,18.79885 112.491257,23.1868769 C111.4043,27.5749039 110.038637,32.8067822 108.394267,38.8825118 C107.781112,38.8825118 107.363052,38.896576 107.140086,38.9247044 L106.722026,38.9668969 C106.220354,39.0231537 105.704746,39.0512821 105.175203,39.0512821 C103.419351,39.0512821 102.053687,38.8825118 101.078213,38.5449712 C98.6534643,29.9095592 97.0230295,20.3881033 96.1869091,9.98060347 C96.4377452,9.6993197 96.9533528,9.48835686 97.7337318,9.34771497 C98.5141109,9.20707308 99.378102,9.13675214 100.325705,9.13675214 C101.217567,9.13675214 102.220911,9.23520146 103.335739,9.4321001 L103.586575,13.1872386 C103.753799,15.971948 103.934958,18.3839564 104.130053,20.4232638 C104.325148,22.4625712 104.603854,24.4807823 104.966173,26.4778971 C105.300621,24.9308363 105.816229,22.1179985 106.512996,18.0393837 C107.349116,13.0606609 107.90653,10.093117 108.185237,9.13675214 C109.272193,9.36177916 110.512439,9.47429267 111.905973,9.47429267 C113.299507,9.47429267 114.288916,9.53054943 114.8742,9.64306294 L115.417678,9.64306294 Z M135.716824,35.0795789 C135.716824,36.5161524 135.56219,37.7978013 135.252923,38.9245256 C134.015856,38.9245256 132.188371,38.9526937 129.770467,39.0090299 L124.245838,39.0512821 C121.743589,39.0512821 119.24134,38.9667777 116.739091,38.7977691 C116.767206,37.8963897 116.725033,34.3894603 116.612573,28.276981 C116.528227,24.8123038 116.486054,22.1504177 116.486054,20.2913226 C116.486054,16.4322919 116.584457,12.8408582 116.781264,9.51702158 L120.492465,9.3902651 C124.653508,9.22125646 127.830521,9.13675214 130.023504,9.13675214 C131.907219,9.13675214 133.734705,9.2071724 135.50596,9.34801294 C135.618421,9.93954319 135.674651,10.6296618 135.674651,11.4183688 C135.674651,11.8408904 135.646536,12.5310091 135.590305,13.4887247 C135.534075,14.3901041 135.50596,15.0943068 135.50596,15.6013328 C133.81905,15.9675181 131.935335,16.1506108 129.854813,16.1506108 L124.372357,16.192863 C124.231781,17.516764 124.161493,18.6153202 124.161493,19.4885316 C124.161493,20.1645661 124.245838,20.7560964 124.414529,21.2631223 L127.19793,20.925105 C127.591542,20.925105 128.181961,20.9532731 128.969185,21.0096093 L129.517431,21.0518615 C129.658007,21.8969047 129.728295,22.8123682 129.728295,23.798252 L129.643949,27.1784248 C128.744264,27.4319378 127.535312,27.5586943 126.017094,27.5586943 L124.920602,27.5164421 C124.723796,27.5164421 124.597278,27.5446102 124.541048,27.6009464 L124.372357,29.7980588 C124.372357,30.9529512 124.428587,31.9106669 124.541048,32.6712058 C126.003036,32.6712058 127.422852,32.7134579 128.800494,32.7979622 C129.278452,32.8261303 129.86887,32.8542985 130.571749,32.8824666 C131.274628,32.9106347 132.104026,32.9247187 133.059941,32.9247187 L135.632478,32.8402144 C135.688708,34.1359473 135.716824,34.8824022 135.716824,35.0795789 Z M154.655653,31.1617357 C155.815131,32.8327854 156.74996,34.2435897 157.46014,35.3941486 C158.17032,36.5447074 158.757306,37.7089634 159.221097,38.8869165 L158.52541,38.8869165 C158.177567,38.8869165 157.394919,38.9143108 156.177468,38.9690993 C154.960016,39.0238878 153.988953,39.0512821 153.264279,39.0512821 C152.858462,39.0512821 152.249736,39.0238878 151.438102,38.9690993 L150.698935,38.9280079 C148.814783,34.8736577 147.13354,31.832895 145.655206,29.8057199 L145.655206,30.874096 C145.655206,32.57254 145.75666,34.7640806 145.959569,37.4487179 L145.959569,37.4076266 C145.988556,37.5993864 146.003049,37.9281175 146.003049,38.3938199 C145.017493,38.832128 143.394224,39.0512821 141.133242,39.0512821 L140.089712,39.0101907 L137.785249,39.0101907 C137.466393,39.0101907 137.306965,36.5310103 137.306965,31.5726496 C137.306965,27.0799912 137.263484,22.5804843 137.176523,18.0741289 C137.089563,13.5677734 136.959121,10.8625904 136.7852,9.95857988 L137.959171,9.79421433 C139.698388,9.57506027 141.133242,9.41069472 142.263733,9.30111769 C143.394224,9.19154065 144.553702,9.13675214 145.742166,9.13675214 C147.017592,9.13675214 148.104603,9.19154065 149.003198,9.30111769 C150.684441,9.49287749 152.256983,10.0407627 153.720824,10.9447732 C155.184665,11.8487837 156.358636,12.9582512 157.242738,14.2731755 C158.12684,15.5880999 158.568891,16.9441157 158.568891,18.3412229 C158.568891,19.6835415 158.1051,21.1491343 157.177517,22.7380013 C156.597778,23.7241946 155.829624,24.5460224 154.873055,25.2034845 C153.916486,25.8609467 152.771501,26.2581635 151.438102,26.3951348 C152.220749,27.7100592 153.133838,29.0797721 154.177368,30.5042735 C154.380277,30.8330046 154.539705,31.0521587 154.655653,31.1617357 Z M148.394472,20.683432 C148.800289,20.5738549 149.119146,20.2999123 149.351041,19.8616042 C149.582937,19.4232961 149.698885,18.9028052 149.698885,18.3001315 C149.698885,17.1769669 149.409015,16.4510191 148.829276,16.122288 C148.452446,15.9031339 148.068369,15.7661626 147.677045,15.7113741 C147.285721,15.6565856 146.84367,15.6291913 146.350892,15.6291913 L144.481234,15.916831 C144.539208,16.7386588 144.568195,17.4372124 144.568195,18.0124918 C144.568195,19.4917817 144.611676,20.3957922 144.698636,20.7245233 C145.191414,20.7793119 145.80014,20.8067061 146.524814,20.8067061 C147.191514,20.8067061 147.814733,20.7656147 148.394472,20.683432 Z M175.793402,7 C177.747177,7 179.586024,7.44871795 181.309942,8.34615385 C183.033861,9.24358974 184.412997,10.468661 185.447348,12.0213675 C186.481699,13.5740741 186.998875,15.2621083 186.998875,17.0854701 C186.998875,18.1680912 186.797751,19.2507123 186.395503,20.3333333 C185.18876,20.5897436 184.183141,20.7179487 183.378645,20.7179487 C182.28683,20.7179487 180.778401,20.5327635 178.853358,20.1623932 L178.724064,18.5384615 C178.6666,17.2279202 178.501391,16.2378917 178.228437,15.5683761 C177.955484,14.8988604 177.373661,14.5783476 176.482969,14.6068376 C176.454237,14.6068376 176.418323,14.6139601 176.375225,14.6282051 C176.332127,14.6424501 176.26748,14.6495726 176.181284,14.6495726 L176.224382,14.6495726 C175.33369,14.7920228 174.845247,15.0911681 174.759051,15.5470085 C174.701587,15.6609687 174.629757,16.5584046 174.543561,18.2393162 C174.457365,19.9202279 174.414267,21.6296296 174.414267,23.3675214 C174.414267,25.1339031 174.457365,26.6153846 174.543561,27.8119658 C174.629757,28.5811966 174.859612,29.3290598 175.233128,30.0555556 C175.606644,30.7820513 176.05199,31.2735043 176.569165,31.5299145 C177.574785,31.5868946 178.336182,31.1310541 178.853358,30.1623932 L178.81026,30.1623932 C179.068848,29.6210826 179.198142,28.8091168 179.198142,27.7264957 C179.198142,26.8717949 179.255606,26.2022792 179.370534,25.7179487 C180.088833,25.8319088 180.778401,25.8888889 181.439236,25.8888889 L183.421743,25.8461538 C184.456094,25.8461538 185.432982,25.960114 186.352405,26.1880342 C186.697189,27.1851852 186.869581,28.2250712 186.869581,29.3076923 C186.869581,30.9316239 186.46015,32.4700855 185.641289,33.9230769 C184.822427,35.3760684 183.694697,36.5584046 182.258098,37.4700855 C180.821499,38.3817664 179.226874,38.8660969 177.474223,38.9230769 C176.957047,39.008547 176.353676,39.0512821 175.664108,39.0512821 C173.423013,39.0512821 171.454873,38.5527066 169.759686,37.5555556 C168.064499,36.5584046 167.116343,35.0626781 166.915219,33.0683761 C166.77156,30.2193732 166.69973,27.1566952 166.69973,23.8803419 C166.69973,21.1737892 166.714096,18.951567 166.742828,17.2136752 L166.785926,15.2905983 C166.757194,14.8632479 166.793109,14.3717949 166.89367,13.8162393 C166.994232,13.2606838 167.130709,12.7692308 167.303101,12.3418803 C167.561689,11.6866097 167.89929,11.031339 168.315904,10.3760684 C168.732517,9.72079772 169.17068,9.17948718 169.630392,8.75213675 C170.233763,8.26780627 171.124455,7.85470085 172.302466,7.51282051 C173.423013,7.17094017 174.586659,7 175.793402,7 Z M200.737125,9.13675214 C201.089388,10.4367826 201.412295,11.7160678 201.705848,12.9746079 C201.9994,14.233148 202.263597,15.360302 202.498439,16.35607 C203.437807,20.2008409 204.068944,22.7594114 204.391852,24.0317816 L207.29802,38.7608497 C206.358653,38.9544713 205.345897,39.0512821 204.259753,39.0512821 C202.968123,39.0512821 201.559072,38.8991508 200.032599,38.5948884 C199.827113,38.0693442 199.504205,36.9629353 199.063877,35.2756618 C198.623548,33.560728 198.271285,32.4266589 198.007088,31.8734545 L197.126431,31.8319642 L196.377873,31.8734545 C196.260452,32.2053771 196.069643,33.0213537 195.805446,34.3213841 C195.599959,35.4001328 195.394472,36.2783448 195.188986,36.9560202 C194.983499,37.6336957 194.689947,38.2491356 194.308329,38.8023401 C194.014776,38.8576605 193.574448,38.8853207 192.987343,38.8853207 C192.723146,38.8853207 192.150719,38.8576605 191.270062,38.8023401 C188.716156,38.6916992 187.292427,38.6363787 186.998875,38.6363787 C186.998875,38.4980776 187.02823,38.17307 187.086941,37.6613559 C187.145651,37.1496418 187.233717,36.5756922 187.351138,35.9395071 L188.31986,30.7117252 C189.083097,26.4243908 189.809639,22.6902608 190.499487,19.5093353 C191.189335,16.3284098 192.092008,12.9676929 193.207507,9.42718447 C193.61848,9.37186402 194.17623,9.3442038 194.880756,9.3442038 L195.144953,9.3442038 C197.053043,9.3442038 198.9171,9.27505325 200.737125,9.13675214 Z M230.339178,9.13675214 C231.355587,9.13675214 232.197755,9.31907229 232.865681,9.6837126 C233.127043,10.721535 233.526347,12.0118007 234.063592,13.5545097 C234.600837,15.0972187 235.116302,16.4716322 235.609986,17.6777501 C235.755187,17.3972576 236.219832,16.1210165 237.003919,13.8490269 C237.875127,11.324594 238.368811,9.95018052 238.484972,9.72578648 C240.082187,9.41724468 241.664881,9.26297378 243.233056,9.26297378 C244.191384,9.26297378 245.033552,9.31907229 245.759559,9.43126931 C245.062592,11.9557022 244.205904,14.388975 243.189495,16.7310878 C242.173086,19.0732005 240.793673,22.0113599 239.051257,25.545566 C237.657325,28.294393 236.495714,30.6996165 235.566426,32.7612367 C234.637137,34.8228569 233.80949,36.9195387 233.083483,39.0512821 C232.386517,38.9671343 231.71859,38.9250604 231.079705,38.9250604 C230.644101,38.9250604 230.048775,38.9531097 229.293728,39.0092082 L227.464192,39.0512821 C226.955595,39.0512821 226.380193,39.0190195 225.737986,38.9544943 C225.443647,39.0133878 225.033175,39.043032 224.506762,39.043032 C224.363356,39.0705321 223.603303,39.029282 222.226604,38.9192819 C221.882429,38.8917819 221.44504,38.8642819 220.914437,38.8367818 C220.383834,38.8092818 220.075511,38.8092818 219.989467,38.8367818 L218.268593,35.1655282 C216.461675,31.3705244 215.271404,28.7442717 214.697779,27.2867703 L214.697779,35.2067782 C214.697779,36.9117799 214.71212,38.0805311 214.740801,38.7130317 C213.966408,38.9330319 213.120311,39.043032 212.202512,39.043032 C211.915699,39.043032 211.485481,39.015532 210.911856,38.960532 C210.280869,38.9055319 209.821969,38.8780319 209.535157,38.8780319 L207.427086,38.7955318 L207.427086,35.7017787 C207.427086,33.9417769 207.398405,31.4392744 207.341042,28.1942712 C207.316663,26.8151448 207.302645,24.830021 207.298988,22.2388996 L207.29802,20.8105138 C207.29802,16.3830094 207.427086,12.6705057 207.685217,9.67300267 C208.45961,9.48050248 209.320047,9.38425238 210.266528,9.38425238 C210.897515,9.38425238 211.664738,9.43925244 212.568197,9.54925255 C213.471656,9.65925266 214.095473,9.82425282 214.439648,10.044253 C214.841185,10.7592538 215.335937,11.7561298 215.923902,13.034881 C216.511867,14.3136323 217.078322,15.5855086 217.623265,16.8505099 L219.34414,20.6455136 C219.291557,18.8809285 219.263075,16.8274977 219.258693,14.485221 L219.258691,13.119308 C219.261669,11.3879482 219.275811,10.1704296 219.301118,9.46675247 C220.477048,9.24675225 221.724682,9.13675214 223.044019,9.13675214 C224.050139,9.13675214 225.091065,9.23687191 226.166798,9.43711147 C226.696986,9.43542116 227.405685,9.39063904 228.291839,9.30504766 C229.221128,9.19285065 229.903574,9.13675214 230.339178,9.13675214 Z M255.290966,9.13675214 C256.634601,9.13675214 257.901256,9.30867472 259.090933,9.65251989 C260.280609,9.99636507 261.323325,10.498379 262.219082,11.1585617 C263.198815,12.0388054 263.84264,12.9052952 264.150556,13.7580312 C264.486465,14.6382749 264.7244,15.5185185 264.864362,16.3987622 C264.948339,17.2514982 264.990328,18.117988 264.990328,18.9982317 L264.948339,19.7409372 L264.948339,20.4836428 C264.892355,21.391394 264.864362,22.7255133 264.864362,24.4860006 C264.864362,26.4390412 264.822374,27.9244523 264.738396,28.942234 L264.612431,30.3038609 C264.472469,32.5319776 263.898625,34.4300029 262.890899,35.9979369 C262.471013,36.5755968 261.841184,37.0844877 261.001413,37.5246095 C260.161641,37.9647313 259.237893,38.3223303 258.230167,38.5974064 C257.194448,38.8999902 255.97678,39.0512821 254.57716,39.0512821 C253.933335,39.0512821 253.485457,39.0375282 253.233526,39.0100206 C251.861899,38.8999902 250.637232,38.6042833 249.559525,38.1229001 C248.481818,37.6415168 247.691033,36.9331958 247.18717,35.9979369 C246.515353,34.7600943 246.151452,33.2059141 246.095467,31.3353964 L246.01149,30.0150309 C245.983498,29.79497 245.969502,29.3410944 245.969502,28.6534041 C245.82954,26.3977797 245.759559,24.2384321 245.759559,22.175361 C245.759559,20.9100108 245.801547,19.6446606 245.885524,18.3793103 C245.969502,17.0039297 246.214435,15.6629335 246.620325,14.3563218 C247.026214,13.0497102 247.649045,11.9012673 248.488816,10.9109932 L249.412565,10.4158562 C251.204078,9.56312015 253.163545,9.13675214 255.290966,9.13675214 Z M226.528,12.048 L226.528107,36.0004878 C227.261666,34.0597534 228.24162,31.5565034 229.46797,28.4907377 L231.253946,24.115054 C230.963544,22.9930839 230.60054,21.8921506 230.164936,20.8122543 C229.729332,19.732358 229.177567,18.4491046 228.509641,16.9624941 C227.725554,15.0831941 227.137489,13.6386575 226.745445,12.6288843 L226.528,12.048 Z M255.710852,15.3259652 C255.039035,15.3259652 254.381214,15.5460261 253.737389,15.986148 C253.40148,16.2612241 253.07257,16.6532076 252.750657,17.1620984 C252.428745,17.6709893 252.183811,18.186757 252.015857,18.7094017 C251.735933,19.9197367 251.595971,21.4601631 251.595971,23.3306808 C251.595971,24.2659397 251.609967,24.9673838 251.63796,25.4350133 L251.63796,25.3937518 C251.749929,25.9439041 251.833906,26.6728559 251.889891,27.5806071 L251.93188,28.158267 C252.043849,29.5336477 252.197807,30.5514294 252.393754,31.2116121 L252.393754,31.1703507 C252.645686,31.720503 253.016585,32.1399941 253.506452,32.428824 C253.996318,32.717654 254.521175,32.862069 255.081023,32.862069 C255.528901,32.862069 255.983778,32.7589154 256.445652,32.5526083 C256.907526,32.3463012 257.306418,32.0505944 257.642327,31.6654878 C257.92225,31.3078888 258.097203,31.005305 258.167184,30.7577365 C258.237165,30.510168 258.272155,30.1250614 258.272155,29.6024167 C258.272155,29.1347873 258.286151,28.7909421 258.314144,28.5708812 L258.356132,28.0344828 L258.398121,27.2505158 L258.398121,26.6728559 L258.44011,25.8888889 L258.44011,23.9083407 L258.356132,21.1025641 L258.356132,20.896257 L258.188178,18.7506631 C258.132193,17.9804499 257.943245,17.2996365 257.621332,16.7082228 C257.29942,16.1168091 256.886532,15.697318 256.382669,15.4497495 C256.15873,15.3672266 255.934791,15.3259652 255.710852,15.3259652 Z M197.126431,17.849722 C197.126431,17.849722 197.097076,18.1816447 197.038365,18.84549 C196.9503,20.9200066 196.818201,22.5657898 196.64207,23.7828396 L196.245774,26.5626919 L198.095154,26.5626919 C197.449339,21.0306475 197.141109,18.2646253 197.170464,18.2646253 L197.126431,17.849722 Z M277.029277,35.1655282 C275.222359,31.3705244 274.032088,28.7442717 273.458463,27.2867703 L273.458463,35.2067782 C273.458463,36.9117799 273.472804,38.0805311 273.501485,38.7130317 C272.727091,38.9330319 271.880995,39.043032 270.963195,39.043032 C270.676383,39.043032 270.246165,39.015532 269.67254,38.960532 C269.041553,38.9055319 268.582653,38.8780319 268.29584,38.8780319 L266.18777,38.7955318 L266.18777,35.7017787 C266.18777,33.9417769 266.159088,31.4392744 266.101726,28.1942712 C266.073045,26.5717696 266.058704,24.1105171 266.058704,20.8105138 C266.058704,16.3830094 266.18777,12.6705057 266.445901,9.67300267 C267.220294,9.48050248 268.080731,9.38425238 269.027212,9.38425238 C269.658199,9.38425238 270.425422,9.43925244 271.328881,9.54925255 C272.23234,9.65925266 272.856157,9.82425282 273.200332,10.044253 C273.601869,10.7592538 274.096621,11.7561298 274.684586,13.034881 C275.272551,14.3136323 275.839006,15.5855086 276.383949,16.8505099 L278.104823,20.6455136 C278.047461,18.7205117 278.01878,16.4517595 278.01878,13.8392568 C278.01878,11.7217547 278.03312,10.2642533 278.061802,9.46675247 C279.237732,9.24675225 280.485366,9.13675214 281.804703,9.13675214 C282.923271,9.13675214 284.084861,9.26050226 285.289473,9.50800251 L285.289473,38.7542818 C285.203429,38.7542818 285.031342,38.7955318 284.773211,38.8780319 C284.486399,38.988032 283.984477,39.043032 283.267446,39.043032 C283.12404,39.0705321 282.363987,39.029282 280.987288,38.9192819 C280.643113,38.8917819 280.205724,38.8642819 279.675121,38.8367818 C279.144518,38.8092818 278.836195,38.8092818 278.750151,38.8367818 L277.029277,35.1655282 Z M176.82017,86.4 L176.82017,56.509375 L178.27892,56.509375 L178.30517,58.8525 C179.57517,57.9845833 180.797045,57.346875 181.970795,56.939375 C183.144545,56.531875 184.319961,56.328125 185.497045,56.328125 C187.733711,56.328125 189.464024,57.2380208 190.687982,59.0578125 C191.911941,60.8776042 192.52392,63.459375 192.52392,66.803125 C192.52392,69.4927083 192.194336,71.6946875 191.53517,73.4090625 C190.876003,75.1234375 189.867045,76.3838542 188.508295,77.1903125 C187.149545,77.9967708 185.420795,78.4 183.322045,78.4 C182.605378,78.4 181.840066,78.3498958 181.026107,78.2496875 C180.212149,78.1494792 179.324128,78.0052083 178.362045,77.816875 L178.362045,86.4 L176.82017,86.4 Z M183.158295,77.1675 C184.963295,77.1675 186.435586,76.8260417 187.57517,76.143125 C188.714753,75.4602083 189.562774,74.3622917 190.119232,72.849375 C190.675691,71.3364583 190.95392,69.3485417 190.95392,66.885625 C190.95392,64.900625 190.722253,63.2270833 190.25892,61.865 C189.795586,60.5029167 189.121732,59.4642708 188.237357,58.7490625 C187.352982,58.0338542 186.292878,57.67625 185.057045,57.67625 C184.324128,57.67625 183.610378,57.758125 182.915795,57.921875 C182.221211,58.085625 181.51017,58.3442708 180.78267,58.6978125 C180.05517,59.0513542 179.247878,59.5314583 178.360795,60.138125 L178.360795,76.550625 C179.355378,76.755625 180.239128,76.9096875 181.012045,77.0128125 C181.784961,77.1159375 182.500378,77.1675 183.158295,77.1675 Z M198.639823,56.728125 L198.639823,59.444375 C199.434406,58.7172917 200.208365,58.1275 200.961698,57.675 C201.715031,57.2225 202.475448,56.8848958 203.242948,56.6621875 C204.010448,56.4394792 204.786698,56.328125 205.571698,56.328125 C206.181281,56.328125 206.768677,56.3684375 207.333886,56.4490625 C207.899094,56.5296875 208.389615,56.6404167 208.805448,56.78125 L208.513573,58.17875 C208.04149,58.0466667 207.540136,57.943125 207.009511,57.868125 C206.478886,57.793125 205.97524,57.755625 205.498573,57.755625 C204.41649,57.755625 203.315761,58.0022917 202.196386,58.495625 C201.077011,58.9889583 199.917948,59.8264583 198.719198,61.008125 L198.719198,78 L197.182948,78 L197.182948,56.728125 L198.639823,56.728125 Z M210.687218,67.32375 C210.687218,65.3525 210.842947,63.668125 211.154405,62.270625 C211.465864,60.873125 211.963259,59.7405208 212.646593,58.8728125 C213.329926,58.0051042 214.224093,57.3640625 215.329093,56.9496875 C216.434093,56.5353125 217.791176,56.328125 219.400343,56.328125 C221.009093,56.328125 222.371489,56.5353125 223.48753,56.9496875 C224.603572,57.3640625 225.503259,58.0051042 226.186593,58.8728125 C226.869926,59.7405208 227.367322,60.873125 227.67878,62.270625 C227.990239,63.668125 228.145968,65.3525 228.145968,67.32375 C228.145968,69.34375 227.976905,71.0604167 227.63878,72.47375 C227.300655,73.8870833 226.782009,75.0276042 226.082843,75.8953125 C225.383676,76.7630208 224.482843,77.3973958 223.380343,77.7984375 C222.277843,78.1994792 220.951176,78.4 219.400343,78.4 C217.871176,78.4 216.555343,78.1994792 215.452843,77.7984375 C214.350343,77.3973958 213.449509,76.7630208 212.750343,75.8953125 C212.051176,75.0276042 211.53253,73.8870833 211.194405,72.47375 C210.85628,71.0604167 210.687218,69.34375 210.687218,67.32375 Z M212.250343,67.32375 C212.250343,69.7154167 212.493572,71.6273958 212.98003,73.0596875 C213.466489,74.4919792 214.240343,75.5234375 215.301593,76.1540625 C216.362843,76.7846875 217.729093,77.1 219.400343,77.1 C221.098259,77.1 222.476593,76.7846875 223.535343,76.1540625 C224.594093,75.5234375 225.366697,74.4919792 225.853155,73.0596875 C226.339614,71.6273958 226.582843,69.7154167 226.582843,67.32375 C226.582843,64.9808333 226.358468,63.1 225.909718,61.68125 C225.460968,60.2625 224.712634,59.2322917 223.664718,58.590625 C222.616801,57.9489583 221.195343,57.628125 219.400343,57.628125 C217.627009,57.628125 216.216384,57.9489583 215.168468,58.590625 C214.120551,59.2322917 213.372218,60.2625 212.923468,61.68125 C212.474718,63.1 212.250343,64.9808333 212.250343,67.32375 Z M246.131614,78.0075 L245.859739,75.9125 C244.582239,76.79 243.381614,77.4239583 242.257864,77.814375 C241.134114,78.2047917 239.985572,78.4 238.812239,78.4 C236.553489,78.4 234.801718,77.4952083 233.556926,75.685625 C232.312135,73.8760417 231.689739,71.2925 231.689739,67.935 C231.689739,65.2245833 232.016926,63.0160417 232.671301,61.309375 C233.325676,59.6027083 234.333906,58.3458333 235.695989,57.53875 C237.058072,56.7316667 238.784947,56.328125 240.876614,56.328125 C241.642864,56.328125 242.447864,56.3711458 243.291614,56.4571875 C244.135364,56.5432292 244.989114,56.6858333 245.852864,56.885 L245.852864,48.4 L247.401614,48.4 L247.401614,78.0075 L246.131614,78.0075 Z M245.852864,74.59 L245.852864,58.185 C244.875364,57.97625 243.994843,57.8221875 243.211301,57.7228125 C242.42776,57.6234375 241.703906,57.57375 241.039739,57.57375 C239.271406,57.57375 237.808072,57.9176042 236.649739,58.6053125 C235.491406,59.2930208 234.638072,60.3869792 234.089739,61.8871875 C233.541406,63.3873958 233.267239,65.376875 233.267239,67.855625 C233.267239,69.8277083 233.503801,71.4988542 233.976926,72.8690625 C234.450051,74.2392708 235.124426,75.2761458 236.000051,75.9796875 C236.875676,76.6832292 237.925989,77.035 239.150989,77.035 C239.898072,77.035 240.617864,76.954375 241.310364,76.793125 C242.002864,76.631875 242.714114,76.3711458 243.444114,76.0109375 C244.174114,75.6507292 244.977031,75.1770833 245.852864,74.59 Z M258.69669,78.4 C257.55669,78.4 256.573565,78.1953125 255.747315,77.7859375 C254.921065,77.3765625 254.283877,76.7710417 253.835752,75.969375 C253.387627,75.1677083 253.163565,74.1716667 253.163565,72.98125 L253.163565,56.728125 L254.70419,56.728125 L254.70419,72.78125 C254.70419,74.0929167 255.078565,75.13125 255.827315,75.89625 C256.576065,76.66125 257.695857,77.04375 259.18669,77.04375 C260.02169,77.04375 260.819502,76.9492708 261.580127,76.7603125 C262.340752,76.5713542 263.09294,76.3107292 263.83669,75.9784375 C264.58044,75.6461458 265.340857,75.273125 266.11794,74.859375 L266.11794,56.728125 L267.65669,56.728125 L267.65669,74.4825 C267.65669,75.1179167 267.732107,75.6273958 267.88294,76.0109375 C268.033773,76.3944792 268.241482,76.6633333 268.506065,76.8175 C268.770648,76.9716667 269.059398,77.04875 269.372315,77.04875 C269.774398,77.04875 270.17419,76.9552083 270.57169,76.768125 L270.87044,77.950625 C270.656273,78.0447917 270.442211,78.1254167 270.228252,78.1925 C270.014294,78.2595833 269.801377,78.3109375 269.589502,78.3465625 C269.377627,78.3821875 269.163982,78.4 268.948565,78.4 C268.352315,78.4 267.799815,78.2103125 267.291065,77.8309375 C266.782315,77.4515625 266.455232,76.865625 266.309815,76.073125 C265.483148,76.516875 264.665961,76.9184375 263.858252,77.2778125 C263.050544,77.6371875 262.228773,77.9140625 261.39294,78.1084375 C260.557107,78.3028125 259.658357,78.4 258.69669,78.4 Z M272.850556,67.716875 C272.850556,65.108125 273.213472,62.9626042 273.939306,61.2803125 C274.665139,59.5980208 275.729618,58.3520833 277.132743,57.5425 C278.535868,56.7329167 280.230972,56.328125 282.218056,56.328125 C282.816389,56.328125 283.455347,56.3614583 284.134931,56.428125 C284.814514,56.4947917 285.496076,56.5826042 286.179618,56.6915625 C286.86316,56.8005208 287.489722,56.9375 288.059306,57.1025 L287.805556,58.46 C287.235972,58.305 286.631181,58.1753125 285.991181,58.0709375 C285.351181,57.9665625 284.712431,57.8822917 284.074931,57.818125 C283.437431,57.7539583 282.825347,57.721875 282.238681,57.721875 C280.582431,57.721875 279.169826,58.0857292 278.000868,58.8134375 C276.83191,59.5411458 275.943056,60.6447917 275.334306,62.124375 C274.725556,63.6039583 274.421181,65.4960417 274.421181,67.800625 C274.421181,69.889375 274.721285,71.6129167 275.321493,72.97125 C275.921701,74.3295833 276.802014,75.3428125 277.962431,76.0109375 C279.122847,76.6790625 280.531181,77.013125 282.187431,77.013125 C282.800764,77.013125 283.450451,76.9810417 284.136493,76.916875 C284.822535,76.8527083 285.515243,76.7563542 286.214618,76.6278125 C286.913993,76.4992708 287.561806,76.3683333 288.158056,76.235 L288.426181,77.564375 C287.534514,77.791875 286.500451,77.9880208 285.323993,78.1528125 C284.147535,78.3176042 283.028681,78.4 281.967431,78.4 C278.974514,78.4 276.706806,77.5296875 275.164306,75.7890625 C273.621806,74.0484375 272.850556,71.3577083 272.850556,67.716875 Z M299.225704,78.4 C297.976537,78.4 296.954037,78.1671875 296.158204,77.7015625 C295.36237,77.2359375 294.78112,76.551875 294.414454,75.649375 C294.047787,74.746875 293.864454,73.6422917 293.864454,72.335625 L293.864454,58.01375 L289.861954,58.01375 L289.861954,56.97375 L293.864454,56.728125 L294.124454,51.42375 L295.402579,51.42375 L295.402579,56.728125 L303.518204,56.728125 L303.518204,58.01625 L295.402579,58.01625 L295.402579,72.268125 C295.402579,73.9022917 295.729558,75.1014583 296.383516,75.865625 C297.037475,76.6297917 298.10237,77.011875 299.578204,77.011875 C300.324454,77.011875 301.052891,76.945625 301.763516,76.813125 C302.474141,76.680625 303.17237,76.49875 303.858204,76.2675 L304.138204,77.55 C303.21862,77.84875 302.340704,78.0651042 301.504454,78.1990625 C300.668204,78.3330208 299.90862,78.4 299.225704,78.4 Z M308.100627,51.3075 C307.688127,51.3075 307.414064,51.2439583 307.278439,51.116875 C307.142814,50.9897917 307.075002,50.715 307.075002,50.2925 C307.075002,49.86875 307.140002,49.5933333 307.270002,49.46625 C307.400002,49.3391667 307.677085,49.275625 308.101252,49.275625 C308.540002,49.275625 308.820418,49.3391667 308.942502,49.46625 C309.064585,49.5933333 309.125627,49.86875 309.125627,50.2925 C309.125627,50.715 309.064897,50.9897917 308.943439,51.116875 C308.821981,51.2439583 308.541043,51.3075 308.100627,51.3075 Z M307.331252,78 L307.331252,56.728125 L308.869377,56.728125 L308.869377,78 L307.331252,78 Z M313.526415,67.32375 C313.526415,65.3525 313.682145,63.668125 313.993603,62.270625 C314.305061,60.873125 314.802457,59.7405208 315.48579,58.8728125 C316.169124,58.0051042 317.06329,57.3640625 318.16829,56.9496875 C319.27329,56.5353125 320.630374,56.328125 322.23954,56.328125 C323.84829,56.328125 325.210686,56.5353125 326.326728,56.9496875 C327.44277,57.3640625 328.342457,58.0051042 329.02579,58.8728125 C329.709124,59.7405208 330.20652,60.873125 330.517978,62.270625 C330.829436,63.668125 330.985165,65.3525 330.985165,67.32375 C330.985165,69.34375 330.816103,71.0604167 330.477978,72.47375 C330.139853,73.8870833 329.621207,75.0276042 328.92204,75.8953125 C328.222874,76.7630208 327.32204,77.3973958 326.21954,77.7984375 C325.11704,78.1994792 323.790374,78.4 322.23954,78.4 C320.710374,78.4 319.39454,78.1994792 318.29204,77.7984375 C317.18954,77.3973958 316.288707,76.7630208 315.58954,75.8953125 C314.890374,75.0276042 314.371728,73.8870833 314.033603,72.47375 C313.695478,71.0604167 313.526415,69.34375 313.526415,67.32375 Z M315.08954,67.32375 C315.08954,69.7154167 315.33277,71.6273958 315.819228,73.0596875 C316.305686,74.4919792 317.07954,75.5234375 318.14079,76.1540625 C319.20204,76.7846875 320.56829,77.1 322.23954,77.1 C323.937457,77.1 325.31579,76.7846875 326.37454,76.1540625 C327.43329,75.5234375 328.205895,74.4919792 328.692353,73.0596875 C329.178811,71.6273958 329.42204,69.7154167 329.42204,67.32375 C329.42204,64.9808333 329.197665,63.1 328.748915,61.68125 C328.300165,60.2625 327.551832,59.2322917 326.503915,58.590625 C325.455999,57.9489583 324.03454,57.628125 322.23954,57.628125 C320.466207,57.628125 319.055582,57.9489583 318.007665,58.590625 C316.959749,59.2322917 316.211415,60.2625 315.762665,61.68125 C315.313915,63.1 315.08954,64.9808333 315.08954,67.32375 Z M335.642062,78 L335.642062,56.728125 L337.100812,56.728125 L337.100812,58.60875 C337.977062,58.1545833 338.830082,57.7573958 339.659874,57.4171875 C340.489666,57.0769792 341.343312,56.8104167 342.220812,56.6175 C343.098312,56.4245833 344.030187,56.328125 345.016437,56.328125 C346.23102,56.328125 347.266124,56.5378125 348.121749,56.9571875 C348.977374,57.3765625 349.631541,58.005 350.084249,58.8425 C350.536957,59.68 350.763312,60.7270833 350.763312,61.98375 L350.763312,78 L349.222687,78 L349.222687,62.258125 C349.222687,60.821875 348.842687,59.7014583 348.082687,58.896875 C347.322687,58.0922917 346.13227,57.69 344.511437,57.69 C343.62977,57.69 342.788207,57.783125 341.986749,57.969375 C341.185291,58.155625 340.392895,58.4109375 339.609562,58.7353125 C338.826228,59.0596875 338.01727,59.445 337.182687,59.89125 L337.182687,78 L335.642062,78 Z M0.289473189,48 L17.2894732,48 L17.2894732,49 L0.289473189,49 Z M31.2894732,59 L31.2894732,76 L30.2894732,76 L30.2894732,59 Z M-5.68434189e-14,28.325625 C-5.68434189e-14,27.040625 0.287395833,25.9945833 0.8621875,25.1875 C1.43697917,24.3804167 2.28375,23.735625 3.4025,23.253125 C4.52125,22.770625 5.8903125,22.389375 7.5096875,22.109375 C9.1290625,21.829375 10.994375,21.5875 13.105625,21.38375 L13.105625,17.4125 C13.105625,15.9183333 12.6569792,14.7648958 11.7596875,13.9521875 C10.8623958,13.1394792 9.51041667,12.733125 7.70375,12.733125 C7.17041667,12.733125 6.58447917,12.7597917 5.9459375,12.813125 C5.30739583,12.8664583 4.64208333,12.9597917 3.95,13.093125 C3.25791667,13.2264583 2.53625,13.413125 1.785,13.653125 L1.436875,12.32375 C2.54479167,11.9941667 3.63291667,11.7458333 4.70125,11.57875 C5.76958333,11.4116667 6.77875,11.328125 7.72875,11.328125 C9.19166667,11.328125 10.4355208,11.5510417 11.4603125,11.996875 C12.4851042,12.4427083 13.2682292,13.1114583 13.8096875,14.003125 C14.3511458,14.8947917 14.621875,16.0289583 14.621875,17.405625 L14.621875,29.390625 C14.621875,30.404375 14.7680208,31.09375 15.0603125,31.45875 C15.3526042,31.82375 15.7595833,32.00625 16.28125,32.00625 C16.48,32.00625 16.678125,31.9873958 16.875625,31.9496875 C17.073125,31.9119792 17.2847917,31.8422917 17.510625,31.740625 L17.78625,32.94625 C17.4641667,33.10375 17.1501042,33.21875 16.8440625,33.29125 C16.5380208,33.36375 16.2289583,33.4 15.916875,33.4 C15.051875,33.4 14.3826042,33.1295833 13.9090625,32.58875 C13.4355208,32.0479167 13.1745833,31.2125 13.12625,30.0825 C12.50375,30.6329167 11.7809375,31.1596875 10.9578125,31.6628125 C10.1346875,32.1659375 9.2296875,32.58125 8.2428125,32.90875 C7.2559375,33.23625 6.18541667,33.4 5.03125,33.4 C4.26541667,33.4 3.57416667,33.2939583 2.9575,33.081875 C2.34083333,32.8697917 1.81197917,32.5541667 1.3709375,32.135 C0.929895833,31.7158333 0.591145833,31.1888542 0.3546875,30.5540625 C0.118229167,29.9192708 -5.68434189e-14,29.1764583 -5.68434189e-14,28.325625 Z M1.55625,28.10375 C1.55625,29.4354167 1.904375,30.4451042 2.600625,31.1328125 C3.296875,31.8205208 4.23083333,32.164375 5.4025,32.164375 C6.31708333,32.164375 7.22864583,32.0164583 8.1371875,31.720625 C9.04572917,31.4247917 9.92322917,31.0227083 10.7696875,30.514375 C11.6161458,30.0060417 12.3947917,29.4379167 13.105625,28.81 L13.105625,22.504375 C11.4247917,22.6497917 9.8815625,22.8297917 8.4759375,23.044375 C7.0703125,23.2589583 5.84833333,23.5664583 4.81,23.966875 C3.77166667,24.3672917 2.96979167,24.9004167 2.404375,25.56625 C1.83895833,26.2320833 1.55625,27.0779167 1.55625,28.10375 Z M46.2894732,67 L63.2894732,67 L63.2894732,68 L46.2894732,68 Z M78.2894732,67 L95.2894732,67 L95.2894732,68 L78.2894732,68 Z M110.289473,67 L127.289473,67 L127.289473,68 L110.289473,68 Z M142.289473,67 L159.289473,67 L159.289473,68 L142.289473,68 Z"/><g transform="translate(302.29)"><path fill="#ED5F3B" d="M1.27279368,17.2441666 C-3.93488904,34.3465156 7.60522947,46.7137022 21.9408223,39.8722469 L41.4119008,39.8722469 C42.9691449,39.8722469 44.3880402,39.2362163 45.4164155,38.2134102 L45.4240152,38.2060185 C46.3117963,37.3219358 46.9099259,36.1487171 47.0558744,34.8464013 C51.1852657,31.2866924 50.7608925,24.9073048 47.0911093,19.8685667 L47.0911093,11.860253 C47.0911093,10.3098852 46.4523905,8.89789716 45.4240152,7.87423158 L45.4164155,7.86683987 C44.3880402,6.8435181 42.9691449,6.20783123 41.4119008,6.20783123 L34.7545785,6.20783123 L34.7545785,5.09340236 C34.7545785,3.69172828 34.1790753,2.41657274 33.2520867,1.49484397 C32.3261344,0.572771402 31.0448969,0 29.6365375,0 L22.8343032,0 C21.4249074,0 20.1452244,0.572771402 19.218754,1.49484397 C18.2922836,2.41657274 17.7167803,3.69172828 17.7167803,5.09340236 L17.7167803,6.20783123 L11.0598035,6.20783123 C9.50135036,6.20783123 8.08366405,6.8435181 7.05511606,7.86683987 L7.0476891,7.87423158 C6.01948654,8.89789716 5.38094046,10.3098852 5.38094046,11.860253 L5.38094046,20.1051013 C3.94926383,19.3542414 2.58028458,18.3039312 1.27279368,17.2441666 Z M21.7149044,6.20783123 L30.7559363,6.20783123 L30.7559363,5.09340236 C30.7559363,4.78862334 30.6296779,4.50980124 30.4263864,4.30747473 C30.2232676,4.10583582 29.9425975,3.97914538 29.6365375,3.97914538 L22.8343032,3.97914538 C22.5285886,3.97914538 22.2480912,4.10583582 22.0453179,4.30747473 C21.8420264,4.50980124 21.7149044,4.78862334 21.7149044,5.09340236 L21.7149044,6.20783123 Z"/><path fill="#000" d="M27.6119403 35.8208955C31.2748763 32.6976008 34.7974895 29.3812055 38.8403235 28.3650854 40.2534759 28.2921323 41.4924227 28.8067671 42.5373134 29.5705233L42.5373134 34.0678588C42.5373134 34.5493494 42.3524982 34.9872484 42.0552536 35.3048197L42.0477241 35.3127454C41.7458592 35.6261737 41.3298537 35.8208955 40.8722648 35.8208955L27.6119403 35.8208955ZM43.2835821 15.5214164C37.2442048 11.103608 27.6699432 9.89565311 16.3423473 17.7293594 15.07281 18.6070141 13.9262867 19.399385 13.0493614 19.91703 11.9009455 20.5930094 10.7855627 20.8845124 9.70149254 20.8955224L9.70149254 11.402451C9.70149254 10.9351374 9.88730365 10.510291 10.186666 10.2023604L10.1942361 10.1943214C10.4977276 9.89023549 10.9156305 9.70149254 11.3756851 9.70149254L41.6095616 9.70149254C42.0696162 9.70149254 42.4878632 9.89023549 42.7913547 10.1943214L42.7989248 10.2023604C43.097771 10.510291 43.2835821 10.9351374 43.2835821 11.402451L43.2835821 15.5214164Z"/><path fill="#FFF" d="M29.269653,20.9276202 C26.2333723,22.9655964 23.9625891,24.9855173 20.2226159,26.8073552 C20.2226159,26.8073552 23.1346054,21.2524413 23.8694559,17.9104478 C19.6770967,22.3871239 11.1541257,28.4607348 5.24569674,24.844931 C4.98025842,30.4524333 7.12232358,34.6363673 12.4779121,36.6988847 C19.0845852,39.2425862 26.4879139,33.4310409 30.5970149,27.6799722 C28.6265738,28.3825534 27.0773606,29.3109141 24.7398348,29.2940859 C26.6646457,27.18792 28.5302055,24.2222842 29.269653,20.9276202 L29.269653,20.9276202 Z"/></g></g><path fill="#3A5AC4" fill-rule="nonzero" d="M577.929864,114.599624 C562.577235,117.723708 552.612525,132.665547 555.60926,148.068824 C557.072319,155.542178 561.452976,162.121318 567.778775,166.345749 C574.104574,170.57018 581.852098,172.090359 589.301484,170.568824 C590.020251,170.424824 591.544038,170.136824 593.930346,169.445624 C601.19587,167.290364 607.306828,162.328012 610.914994,155.653386 C614.52316,148.978759 615.332022,141.140365 613.163125,133.867544 C608.679142,118.852658 592.958682,110.257492 577.92627,114.601784 L577.929864,114.599624 Z M248.515341,166.445105 C303.906834,187.047498 351.718947,230.831289 391.95168,297.796479 C423.345788,247.730111 445.798683,219.981657 459.310367,214.551115 C479.577892,206.405303 508.93637,230.689656 486.018267,252.211135 C448.282614,287.647186 431.288516,320.719153 419.415157,343.319967 C450.89474,345.86536 473.45168,352.742585 473.45168,360.827075 C473.45168,365.749778 464.918193,370.470883 449.727724,373.951788 C434.537255,377.432693 413.934427,379.388258 392.45168,379.388275 C370.968933,379.388258 350.366104,377.432693 335.175635,373.951788 C319.985166,370.470883 311.45168,365.749778 311.45168,360.827075 C311.45168,352.989429 332.652186,346.28645 362.629144,343.564864 C336.300326,304.854052 297.010084,239.24543 230.616987,214.551115 C224.242766,212.164434 219.07872,207.334901 216.264615,201.12845 C213.45051,194.921999 213.217704,187.848888 215.61758,181.470233 C220.580417,168.240127 235.289892,161.521988 248.515341,166.445105 Z M544.928327,177.406566 C546.875709,183.936594 546.149458,190.974433 542.909803,196.967362 C539.670149,202.960291 534.183319,207.415825 527.659842,209.350963 C525.517254,209.971569 524.149096,210.230155 523.503738,210.359448 C516.815177,211.725584 509.858928,210.360665 504.1792,206.567686 C498.499471,202.774707 494.566222,196.867512 493.252589,190.157432 C490.561918,176.327331 499.508906,162.911542 513.290305,160.108468 C526.787417,156.20787 540.902304,163.925189 544.928327,177.406566 Z M105.772373,0 C47.6362882,0.00895081275 0.00893548993,47.7066385 0,105.953754 C-0.00893548992,164.200273 47.6053118,212.008951 105.741396,212 C163.878077,211.990452 211.504834,164.169244 211.513769,105.922725 C211.522705,47.6768025 163.909053,-0.0083540919 105.772373,0 Z" transform="translate(283 236)"/><path fill="#3A5AC4" fill-rule="nonzero" d="M129.817614,25.6754589 C126.369027,26.3753938 124.130702,29.7230363 124.803844,33.1740617 C125.132484,34.8484284 126.11649,36.3224509 127.537424,37.268913 C128.958358,38.2153752 130.698647,38.5559636 132.371967,38.2150715 C132.53342,38.182809 132.875701,38.1182841 133.411726,37.9634243 C135.043746,37.4805491 136.416421,36.3687597 137.226906,34.8733439 C138.037391,33.377928 138.219082,31.621776 137.731893,29.9923377 C136.724677,26.6283292 133.193466,24.7026264 129.816807,25.6759428 L129.817614,25.6754589 Z M55.8228095,37.2911733 C68.265135,41.9070339 79.0049406,51.7165681 88.0422264,66.7197759 C95.0941343,55.5026627 100.137621,49.2857635 103.172685,48.0690785 C107.725282,46.2440509 114.319937,51.684836 109.171953,56.5066131 C100.695232,64.4461995 96.8779631,71.856082 94.2108926,76.9196936 C101.282615,77.4894513 106.349181,79.0302217 106.349181,80.8414582 C106.349181,81.9443645 104.432345,83.0021038 101.020182,83.7819828 C97.60802,84.5618618 92.9801055,84.9999961 88.154539,85 C83.3289726,84.9999961 78.7010581,84.5618618 75.2888958,83.7819828 C71.8767335,83.0021038 69.9598974,81.9443645 69.9598974,80.8414582 C69.9598974,79.085428 74.7223131,77.5836276 81.4561708,76.9739005 C75.5420728,68.3018935 66.7164099,53.6018834 51.802388,48.0690785 C50.3705773,47.5343549 49.2106025,46.4523227 48.5784835,45.0617992 C47.9463646,43.6712756 47.8940705,42.0865812 48.4331432,40.6574763 C49.5479214,37.6933389 52.8520402,36.1881741 55.8228095,37.2911733 Z M122.404637,39.7470324 C122.842068,41.2100519 122.678934,42.7868435 121.951226,44.1295286 C121.223518,45.4722137 119.991038,46.4704532 118.5257,46.904011 C118.044421,47.0430546 117.737098,47.1009894 117.592134,47.1299568 C116.089715,47.4360327 114.527166,47.1302295 113.251356,46.280432 C111.975546,45.4306345 111.092039,44.1071578 110.796964,42.6037986 C110.192571,39.5052354 112.20229,36.4994965 115.29794,35.8714823 C118.329732,34.9975732 121.500291,36.7265989 122.404637,39.7470324 Z M23.7591409,0 C10.700311,0.00200538375 0.00200713626,10.688428 0,23.738396 C-0.00200713626,36.7882302 10.6933529,47.4995196 23.7521828,47.4975142 C36.8111466,47.4953751 47.5093166,36.7812782 47.5113238,23.731444 C47.5133309,10.6817434 36.8181046,-0.0018716915 23.7591409,0 Z" transform="translate(22 26)"/></g></svg>