<svg xmlns="http://www.w3.org/2000/svg" width="1200" height="630" viewBox="0 0 1200 630"><g fill="none" fill-rule="evenodd"><rect width="1200" height="630" fill="#000"/><g transform="translate(56.994 53)"><text fill="#FFF" font-family="Fredoka-Light, Fredoka" font-size="60.35" font-weight="300">
                <tspan x="106.284" y="90">We&apos;re passionate about building </tspan>
                <tspan x="128.161" y="163">great command-line tools that </tspan>
                <tspan x="252.451" y="236">increase productivity.</tspan>
            </text><text fill="#C1C1C1" font-family="Domine-Regular, Domine" font-size="100">
                <tspan x="0" y="90">“</tspan>
            </text><text fill="#C1C1C1" font-family="Domine-Regular, Domine" font-size="100">
                <tspan x="1025.512" y="307">”</tspan>
            </text></g><g fill-rule="nonzero" transform="translate(139.563 411)"><path fill="#FFF" d="M278.524876,163.607122 C280.97911,163.607122 283.126565,162.840174 284.967241,161.306277 C286.807916,159.772381 287.912322,157.778316 288.280457,155.324081 L288.280457,155.324081 L298.220105,103.969231 C298.58824,101.392285 298.956376,98.8766955 299.324511,96.4224613 L299.545392,94.9425581 C299.8399,92.9595369 300.134408,90.9372479 300.428916,88.8756912 L300.428916,88.8756912 L302.637727,88.8756912 C303.128574,91.4526371 303.496709,93.9682271 303.742132,96.4224613 C303.987556,98.8766955 304.294335,101.392285 304.66247,103.969231 L304.66247,103.969231 L314.786186,155.324081 C315.031609,157.778316 316.074659,159.772381 317.915335,161.306277 C319.75601,162.840174 321.903465,163.607122 324.357699,163.607122 L324.357699,163.607122 L344.973266,163.607122 C347.304789,163.607122 349.329532,162.962885 351.047496,161.674412 C352.76546,160.385939 353.869865,158.637297 354.360712,156.428487 L354.360712,156.428487 L376.816955,72.6777457 L349.390888,72.6777457 L336.874293,131.579366 C336.383447,134.156312 335.984634,136.641224 335.677854,139.034102 C335.371075,141.42698 334.972262,143.911892 334.481415,146.488838 L334.481415,146.488838 L332.272604,146.488838 C331.904469,143.911892 331.474978,141.396302 330.984131,138.942068 C330.493285,136.487834 330.063794,134.0336 329.695659,131.579366 L329.695659,131.579366 L319.940078,80.960786 C319.571943,78.5065519 318.498215,76.5124866 316.718895,74.9785902 C314.939576,73.4446939 312.822799,72.6777457 310.368564,72.6777457 L310.368564,72.6777457 L292.698078,72.6777457 C290.243844,72.6777457 288.127067,73.4446939 286.347748,74.9785902 C284.568428,76.5124866 283.556056,78.445196 283.310633,80.7767185 L283.310633,80.7767185 L273.186917,131.579366 C272.818782,134.0336 272.419969,136.518512 271.990478,139.034102 L271.736464,140.539775 C271.402689,142.54243 271.088547,144.525451 270.794038,146.488838 L270.794038,146.488838 L268.40116,146.488838 C268.155737,144.034604 267.848957,141.549692 267.480822,139.034102 C267.112687,136.518512 266.683196,134.0336 266.192349,131.579366 L266.192349,131.579366 L253.675755,72.6777457 L226.433756,72.6777457 L248.889998,156.428487 C249.380845,158.637297 250.485251,160.385939 252.203215,161.674412 C253.921179,162.962885 255.884566,163.607122 258.093377,163.607122 L258.093377,163.607122 L278.524876,163.607122 Z M432.789312,163.607122 C435.245943,163.607122 438.166937,163.262594 441.552294,162.573539 C444.937651,161.884484 448.457824,160.671148 452.112811,158.933531 C455.767798,157.195914 459.377847,154.814181 462.942958,151.78833 C466.508069,148.76248 469.713672,144.91276 472.559769,140.239169 C475.405866,135.565579 477.697723,129.948283 479.43534,123.387281 C481.172957,116.826279 482.041765,109.141817 482.041765,100.333897 C482.041765,90.4474556 480.888347,81.3848844 478.581511,73.1461833 C476.274674,64.9074821 472.904297,57.8072197 468.470378,51.845396 C464.036458,45.8835723 458.598916,41.2549202 452.157749,37.9594397 C445.716583,34.6639593 438.391629,33.016219 430.182887,33.016219 C422.333651,33.016219 414.828943,34.6340003 407.668763,37.869563 C400.508583,41.1051256 393.752848,46.0483463 387.401558,52.699225 L387.401558,52.699225 L396.479109,60.9678851 C397.917137,59.1104324 399.77459,57.2080414 402.051467,55.2607121 C404.328344,53.3133827 406.904811,51.5458068 409.780867,49.9579844 C412.656922,48.370162 415.817588,47.0669493 419.262863,46.0483463 C422.708138,45.0297432 426.348146,44.5204417 430.182887,44.5204417 C435.096148,44.5204417 439.500109,45.2694145 443.394767,46.7673602 C447.289426,48.2653059 450.734701,50.3174914 453.730592,52.9239169 C456.726484,55.5303423 459.287971,58.6011309 461.415054,62.1362827 C463.542136,65.6714344 465.279753,69.5061753 466.627904,73.6405053 C467.976056,77.7748354 468.9647,82.1188778 469.593837,86.6726326 C470.222974,91.2263874 470.537543,95.7801422 470.537543,100.333897 C470.537543,107.943461 469.818529,114.504463 468.380501,120.016903 C466.942473,125.529343 465.070041,130.202933 462.763205,134.037674 C460.456368,137.872415 457.879902,140.973163 455.033805,143.339917 C452.187708,145.706671 449.37157,147.534165 446.585391,148.822398 C443.799213,150.110631 441.177808,150.97944 438.721177,151.428823 C436.264546,151.878207 434.287258,152.102899 432.789312,152.102899 C426.977283,152.102899 421.779411,151.189152 417.195698,149.361658 C412.611984,147.534165 408.732305,145.002637 405.55666,141.767074 C402.381015,138.531511 399.954343,134.69677 398.276644,130.262851 C396.598945,125.828932 395.760095,121.005547 395.760095,115.792696 C395.760095,111.538531 396.479109,107.449139 397.917137,103.524521 C399.355165,99.5999036 401.512207,96.1246697 404.388262,93.0988195 C407.264318,90.0729692 410.859387,87.6462973 415.173471,85.8188036 C419.487554,83.9913098 424.520652,83.077563 430.272763,83.077563 L430.272763,83.077563 L430.272763,71.5733403 C425.11983,71.5733403 420.401301,72.1725186 416.117177,73.3708751 C411.833052,74.5692316 407.983332,76.2019924 404.568016,78.2691574 C401.1527,80.3363224 398.171788,82.7779739 395.62528,85.5941117 C393.078773,88.4102495 390.966669,91.4510792 389.28897,94.7166008 C387.611271,97.9821223 386.352996,101.412418 385.514147,105.007487 C384.675297,108.602557 384.255873,112.167668 384.255873,115.702819 C384.255873,122.59337 385.454229,128.959639 387.850942,134.801627 C390.247655,140.643615 393.603053,145.706671 397.917137,149.990796 C402.23122,154.27492 407.354195,157.615339 413.286059,160.012052 C419.217924,162.408765 425.719008,163.607122 432.789312,163.607122 Z M546.476916,165.815932 C555.680295,165.815932 563.165709,164.619493 568.933159,162.226615 C574.700609,159.833737 579.210265,156.459165 582.462125,152.102899 C585.713985,147.746633 587.984152,142.62342 589.272625,136.733258 C590.561098,130.843096 591.205334,124.400731 591.205334,117.406163 C591.205334,100.594659 588.59771,88.538234 583.382463,81.2368874 C578.167215,73.9355407 569.546718,70.2848674 557.52097,70.2848674 C553.103349,70.2848674 548.808439,71.0518156 544.636241,72.5857119 C540.464043,74.1196083 536.537268,76.2363852 532.855917,78.9360428 C530.324988,80.7920574 527.91006,82.8220734 525.611133,85.0260907 L525.171596,85.4520346 L525.195025,85.3673635 C525.905935,82.6407093 526.435368,79.8645614 526.783323,77.0389198 L526.873721,76.2670632 C527.303212,72.4016444 527.517957,68.3828359 527.517957,64.2106378 L527.517957,64.2106378 L527.33389,34.7598278 L500.091891,34.7598278 L500.091891,158.637297 L500.542117,158.829778 C503.271008,159.977014 506.495504,160.986581 510.215607,161.85848 C514.142381,162.778818 518.283901,163.545766 522.640167,164.159324 C526.996433,164.772883 531.260665,165.202374 535.432863,165.447797 C539.605061,165.693221 543.286412,165.815932 546.476916,165.815932 Z M545.924714,146.120703 C543.715903,146.243415 541.138957,146.212737 538.193876,146.028669 C535.248795,145.844602 532.36507,145.476467 529.542701,144.924264 C528.837108,144.786213 528.146855,144.642411 527.471941,144.492856 L527.292791,144.453051 L527.173515,99.1422436 L527.540966,98.9073734 C530.246759,97.1894095 532.772166,95.7119605 535.117187,94.4750265 L535.61693,94.2136505 C538.930146,92.4956866 542.611498,91.6367047 546.660984,91.6367047 C551.078606,91.6367047 554.483855,92.4036528 556.876734,93.9375492 C559.269612,95.4714456 560.92622,98.1097473 561.846558,101.852454 C562.766896,105.595162 563.227065,110.841087 563.227065,117.590231 C563.227065,124.952934 562.644184,130.689706 561.478423,134.800548 C560.312662,138.91139 558.502664,141.795116 556.04843,143.451724 C553.594196,145.108332 550.219624,145.997992 545.924714,146.120703 Z M652.867968,166 C664.280157,166 673.422179,164.435426 680.294035,161.306277 C687.16589,158.177129 692.105036,153.115271 695.111473,146.120703 C698.11791,139.126136 699.621129,129.861402 699.621129,118.326501 C699.621129,106.546177 698.11791,97.1587315 695.111473,90.1641642 C692.105036,83.1695968 687.16589,78.1077388 680.294035,74.9785902 C673.422179,71.8494417 664.280157,70.2848674 652.867968,70.2848674 C641.578491,70.2848674 632.497824,71.8494417 625.625968,74.9785902 C618.754113,78.1077388 613.784289,83.1695968 610.716496,90.1641642 C607.648703,97.1587315 606.114807,106.546177 606.114807,118.326501 C606.114807,129.861402 607.648703,139.126136 610.716496,146.120703 C613.784289,153.115271 618.754113,158.177129 625.625968,161.306277 C632.497824,164.435426 641.578491,166 652.867968,166 Z M652.867968,146.120703 C648.204923,146.120703 644.523572,145.353755 641.823914,143.819859 C639.124256,142.285962 637.222225,139.494271 636.117819,135.444785 C635.013414,131.395298 634.461211,125.689204 634.461211,118.326501 C634.461211,110.718375 635.013414,104.889569 636.117819,100.840083 C637.222225,96.7905964 639.124256,93.9682271 641.823914,92.3729749 C644.523572,90.7777227 648.204923,89.9800966 652.867968,89.9800966 C657.653724,89.9800966 661.396431,90.7777227 664.096089,92.3729749 C666.795747,93.9682271 668.6671,96.7905964 669.71015,100.840083 C670.753199,104.889569 671.274724,110.718375 671.274724,118.326501 C671.274724,125.689204 670.753199,131.395298 669.71015,135.444785 C668.6671,139.494271 666.795747,142.285962 664.096089,143.819859 C661.396431,145.353755 657.653724,146.120703 652.867968,146.120703 Z M752.540553,165.815932 C754.749364,165.815932 757.449021,165.662543 760.639526,165.355764 C763.83003,165.048984 767.020535,164.619493 770.211039,164.067291 C773.401543,163.515088 776.101201,162.870851 778.310012,162.134581 L778.310012,162.134581 L775.364931,143.727825 L763.584607,143.727825 C760.025967,143.727825 757.479699,143.022233 755.945803,141.611048 C754.411906,140.199863 753.644958,137.837663 753.644958,134.524447 L753.644958,134.524447 L753.644354,90.5322993 L779.046282,90.5322993 L779.046282,72.6777457 L753.644354,72.6777457 L753.644958,47.4604896 L726.402959,47.4604896 L726.402355,72.7734608 L710.573149,73.5980835 L710.573149,90.5322993 L726.402355,90.5322993 L726.402959,140.598676 C726.402959,148.429914 728.620897,154.545947 733.056773,158.946774 L733.305493,159.1895 C737.907182,163.607122 744.318868,165.815932 752.540553,165.815932 Z M832.333841,165.631865 C842.028066,165.631865 849.942972,164.864917 856.078557,163.33102 C862.214142,161.797124 866.69312,159.005433 869.515489,154.955946 C872.337858,150.90646 873.749043,145.077654 873.749043,137.469528 C873.749043,129.73869 871.908367,123.940562 868.227016,120.075143 C864.545665,116.209724 858.900926,113.295321 851.2928,111.331934 L851.2928,111.331934 L827.548085,105.625839 C823.253175,104.521434 820.185382,103.509062 818.344707,102.588725 C816.504031,101.668387 815.583693,99.7970333 815.583693,96.974664 C815.583693,94.6431415 816.105218,93.0172114 817.148267,92.0968736 C818.191317,91.1765358 820.001315,90.6243331 822.578261,90.4402655 C825.155206,90.2561979 828.836558,90.1641642 833.622314,90.1641642 C839.267053,90.1641642 845.065181,90.22552 851.016699,90.3482317 C856.968217,90.4709434 862.889057,90.5936551 868.779219,90.7163668 L868.779219,90.7163668 L870.619894,73.7821511 C866.815831,73.0458808 862.459566,72.4323223 857.551097,71.9414755 C852.642629,71.4506286 847.611449,71.0518156 842.457557,70.7450363 C837.303666,70.438257 832.517909,70.2848674 828.100287,70.2848674 C818.651486,70.2848674 811.104716,71.1131714 805.459977,72.7697795 C799.815239,74.4263875 795.704396,77.1567231 793.12745,80.960786 C790.550505,84.764849 789.262032,89.796029 789.262032,96.0543262 C789.262032,100.962795 789.906268,105.165671 791.194741,108.662954 C792.483214,112.160238 794.722703,115.135997 797.913207,117.590231 C801.103712,120.044465 805.644045,122.069208 811.534207,123.664461 L811.534207,123.664461 L834.542652,129.370555 C839.082985,130.597672 842.396201,131.6714 844.4823,132.591737 C846.5684,133.512075 847.611449,135.383429 847.611449,138.205798 C847.611449,140.414609 846.997891,142.071217 845.770773,143.175622 C844.543656,144.280028 842.27349,144.98562 838.960274,145.292399 C835.647057,145.599178 830.799945,145.752568 824.418936,145.752568 L811.407895,145.752099 C807.692422,145.748029 804.267921,145.717508 801.134389,145.660534 C797.759817,145.599178 794.90677,145.507145 792.575248,145.384433 L792.575248,145.384433 L790.91864,162.318649 C799.753883,163.913901 807.914211,164.864917 815.399626,165.171696 C822.88504,165.478475 828.529778,165.631865 832.333841,165.631865 Z"/><path fill="#131415" stroke="#FFF" stroke-width="1.149" d="M97.9572288,0.341490542 C103.165752,-1.25933308 108.561479,-0.694711433 113.07482,1.51142459 C117.598136,3.72243638 121.23426,7.58101933 122.916585,12.5583984 C124.601419,17.5443288 124.008248,22.7098889 121.686166,27.0306607 C119.429997,31.2287876 115.540101,34.6301221 110.519664,36.2857963 L110.519664,36.2857963 L110.519664,47.0705764 L143.098065,47.0705764 C153.391147,47.0705764 161.30203,49.5439472 167.223158,53.5321577 C174.034653,58.1200796 178.224101,64.718378 180.361584,71.9219788 C187.301067,72.8623615 193.543012,75.8579795 198.377196,80.2591163 C203.305588,84.7460211 206.771062,90.6934577 208.024995,97.4157336 C209.613012,105.927783 207.43431,114.248502 202.62552,120.819605 C197.903342,127.272355 190.643586,132.037911 181.926113,133.632978 C181.093717,142.65725 177.523597,151.582719 170.202591,157.864362 C164.043305,163.149215 155.22067,166.574464 143.098065,166.574464 L143.098065,166.574464 L64.9140363,166.574464 C55.0999929,166.574464 44.9516018,163.90347 37.4695133,157.483613 C31.2692268,152.163581 26.8839481,144.27127 26.045354,133.164128 C19.2033083,131.867948 13.1492416,128.620593 8.55084396,124.043735 C3.83846555,119.353431 0.654492347,113.267145 -0.286055107,106.500743 C-1.47719759,97.93023 1.08518493,89.7099097 6.19406761,83.348604 C11.2228226,77.0870689 18.7200711,72.6269487 27.5287681,71.4155528 C29.8844783,63.2089673 34.6109379,57.3206877 40.5414494,53.3389397 C47.6066414,48.5953666 56.3901409,46.5633409 64.9140363,46.5633409 L64.9140363,46.5633409 L97.5515332,46.5633409 L97.5515332,36.285685 C91.6641621,34.341421 87.0699509,29.8668169 85.1546084,24.198098 C83.4697944,19.2118638 84.0629414,14.04637 86.3849557,9.72572407 C88.7015226,5.41521426 92.7405165,1.94483112 97.9572288,0.341490542 Z"/><path fill="#FFF" d="M131.149696 144.780212 52.9656668 144.780212C42.9784401 144.780212 26.3133636 141.455001 26.3133636 119.362075L26.3133636 74.2744718C26.3133636 52.1251866 43.0375361 48.8563353 52.9656668 48.8563353L131.149696 48.8563353C154.37443 48.8563353 157.801999 64.8060751 157.801999 74.2744718L157.801999 119.362075C157.801999 128.886832 154.315334 144.780212 131.149696 144.780212ZM14.4941605 111.415385C3.74016297 108.339565-2.36297806 97.5312214.862187001 87.2752006 2.82565213 81.0312719 7.9477993 76.1470164 14.4941605 74.2744718L14.4941605 111.415385ZM183.312272 98.4139521C181.348806 104.657881 176.226659 109.542136 169.680298 111.414681L169.680298 74.2737674C180.434296 77.3502918 186.537437 88.1579313 183.312272 98.4139521ZM84.4311516 7.84490915C84.2643414 3.68070756 87.5333679.171490045 91.7315496.00605978203 95.9297313-.159370481 99.4689751 3.08261353 99.6357853 7.24606657 99.8025955 11.4102682 96.533569 14.9194857 92.3353873 15.0849159 92.2568884 15.0879101 92.1783895 15.0901558 92.0998906 15.0909091 88.0020969 15.0953957 84.6243797 11.9043133 84.4311516 7.84490915Z" transform="translate(11.948 10.06)"/><path fill="#131415" d="M137.989094 131.047005C127.482411 134.590668 116.58803 136.362499 105.305951 136.362499 94.023872 136.362499 83.1294908 134.590668 72.6228075 131.047005 69.3823648 131.047005 66.7550977 133.427017 66.7550977 136.362499 66.7550977 139.29798 69.6654423 140.50988 72.6228075 141.677992 83.1294908 144.686086 94.023872 146.190132 105.305951 146.190132 116.58803 146.190132 127.482411 144.686086 137.989094 141.677992 141.554009 140.367283 143.856804 139.29798 143.856804 136.362499 143.856804 133.427017 141.229537 131.047005 137.989094 131.047005ZM125.459726 123.095884C130.827372 123.095884 135.571988 121.961649 139.693573 119.69318 143.815158 117.42471 147.026161 114.277608 149.32658 110.251874 151.627 106.22614 152.77721 101.6253 152.77721 96.4493561 152.77721 91.4651135 151.674925 86.9601251 149.470356 82.9343907 147.265788 78.9086564 144.134661 75.7136291 140.076976 73.3493089 136.019292 70.9849887 131.242726 69.8028286 125.747279 69.8028286 120.443534 69.8028286 115.970495 70.8891379 112.328164 73.0617564 108.685833 75.234375 105.90616 78.2057504 103.989143 81.9758825 102.072127 78.2696509 99.3084282 75.3142507 95.6980474 73.1096819 92.0876666 70.905113 87.6306035 69.8028286 82.3268583 69.8028286 76.8314113 69.8028286 72.0548456 70.9690136 67.9971609 73.3013835 63.9394763 75.6337534 60.8083496 78.8128055 58.6037807 82.8385399 56.3992119 86.8642743 55.2969275 91.401213 55.2969275 96.4493561 55.2969275 101.497499 56.3992119 106.034438 58.6037807 110.060172 60.8083496 114.085907 63.907526 117.264959 67.9013101 119.597329 71.8950942 121.929699 76.6077594 123.095884 82.0393058 123.095884 87.2791505 123.095884 91.7521887 121.993599 95.4584203 119.78903 99.164652 117.584462 102.008226 114.597111 103.989143 110.826979 105.90616 114.53321 108.653883 117.504586 112.232314 119.741105 115.810744 121.977624 120.219882 123.095884 125.459726 123.095884ZM81.3683501 116.002923C78.1733228 116.002923 75.2498728 115.204166 72.5980002 113.606653 69.9461276 112.009139 67.8533847 109.756645 66.3197716 106.84917 64.7861585 103.941695 64.019352 100.538991 64.019352 96.6410577 64.019352 90.6344065 65.664791 85.8418655 68.9556691 82.263435 72.2465472 78.6850045 76.6077594 76.8957892 82.0393058 76.8957892 87.3430511 76.8957892 91.6084125 78.7009796 94.83539 82.3113604 98.0623676 85.9217412 99.6758564 90.6663567 99.6758564 96.5452069 99.6758564 102.296256 98.0943179 106.976971 94.9312408 110.587352 91.7681638 114.197733 87.2472003 116.002923 81.3683501 116.002923ZM135.907466 113.3191C134.629455 106.417841 131.674054 100.97032 127.041265 96.9765356 122.408475 92.9827515 116.51365 90.6024562 109.356789 89.8356496 110.315297 85.8099153 112.248289 82.6468383 115.155763 80.3464186 118.063238 78.045999 121.977147 76.8957892 126.897489 76.8957892 130.284218 76.8957892 133.255593 77.7264963 135.811615 79.3879105 138.367637 81.0493246 140.364529 83.3497443 141.802291 86.2891694 143.240053 89.2285945 143.958934 92.6792239 143.958934 96.6410577 143.958934 100.41119 143.240053 103.734018 141.802291 106.609543 140.364529 109.485067 138.399587 111.721586 135.907466 113.3191ZM81.943455 102.583808C83.5409686 102.583808 84.9467806 102.056629 86.160891 101.00227 87.3750013 99.947911 87.9820565 98.3024719 87.9820565 96.0659528 87.9820565 93.8294337 87.3909765 92.1999698 86.2088164 91.1775611 85.0266563 90.1551524 83.6048692 89.643948 81.943455 89.643948 80.1542397 89.643948 78.7164774 90.1391772 77.6301682 91.1296357 76.5438589 92.1200941 76.0007043 93.7655332 76.0007043 96.0659528 76.0007043 98.3024719 76.559834 99.947911 77.6780936 101.00227 78.7963531 102.056629 80.2181403 102.583808 81.943455 102.583808ZM126.514085 116.002923C121.14644 116.002923 116.833153 114.261633 113.574225 110.779053 110.315297 107.296474 108.653883 102.615759 108.589982 96.7369085 114.852236 97.4398145 119.724652 99.5006071 123.207232 102.919286 126.689812 106.337966 128.495002 110.667227 128.622803 115.907072 127.919897 115.970973 127.216991 116.002923 126.514085 116.002923Z"/><path fill="#FFF" fill-opacity=".5" d="M891.189613,66.7625293 L891.189613,50.4836888 L897.28649,50.4836888 L897.28649,48.559353 L882.771448,48.559353 L882.771448,50.4836888 L888.868325,50.4836888 L888.868325,66.7625293 L891.189613,66.7625293 Z M899.565422,66.7625293 L899.565422,54.5143921 L899.156383,51.8099202 L899.302468,51.8099202 L900.354283,54.2803513 L905.993178,62.5237897 L906.723605,62.5237897 L912.041112,54.3063558 L913.151361,51.8099202 L913.297446,51.8099202 L913.005275,54.5403967 L913.005275,66.7625293 L915.430293,66.7625293 L915.430293,48.559353 L913.531183,48.559353 L907.424814,57.8169684 L906.519085,59.8973314 L906.460651,59.8973314 L905.496488,57.8689775 L899.097948,48.559353 L897.28649,48.559353 L897.28649,66.7625293 L899.565422,66.7625293 Z"/></g></g></svg>