<?xml version="1.0" encoding="UTF-8"?>
<svg width="530px" height="60px" viewBox="0 0 530 60" version="1.1" xmlns="http://www.w3.org/2000/svg" xmlns:xlink="http://www.w3.org/1999/xlink">
    <title>hop-gdn-logo-on-light-bgs</title>
    <g id="hop-gdn-logo-on-light-bgs" stroke="none" stroke-width="1" fill="none" fill-rule="evenodd">
        <g id="Clever-Canyon,-LLC" transform="translate(310, 30)" fill="#6E6E6E" fill-rule="nonzero">
            <path d="M5.55838641,5.86666667 C5.51875442,5.94488889 5.46921444,6.56088889 5.40976645,7.71466667 C5.35031847,8.86844444 5.32059448,10.0417778 5.32059448,11.2346667 C5.32059448,12.4471111 5.35031847,13.464 5.40976645,14.2853333 C5.46921444,14.8133333 5.62774239,15.3266667 5.88535032,15.8253333 C6.14295824,16.324 6.45010616,16.6613333 6.80679406,16.8373333 C7.50035386,16.8764444 8.02547771,16.5635556 8.38216561,15.8986667 L8.35244161,15.8986667 C8.53078556,15.5271111 8.61995754,14.9697778 8.61995754,14.2266667 C8.61995754,13.64 8.65958953,13.1804444 8.7388535,12.848 C9.23425336,12.9262222 9.70983723,12.9653333 10.1656051,12.9653333 L11.5329087,12.936 C12.2462845,12.936 12.9200283,13.0142222 13.5541401,13.1706667 C13.7919321,13.8551111 13.910828,14.5688889 13.910828,15.312 C13.910828,16.4266667 13.6284501,17.4826667 13.0636943,18.48 C12.4989384,19.4773333 11.7211607,20.2888889 10.7303609,20.9146667 C9.73956122,21.5404444 8.63977353,21.8728889 7.43099788,21.912 C7.07430998,21.9706667 6.6581741,22 6.18259023,22 C4.63694268,22 3.27954706,21.6577778 2.1104034,20.9733333 C0.941259731,20.2888889 0.287331918,19.2622222 0.148619958,17.8933333 C0.0495399858,15.9377778 0,13.8355556 0,11.5866667 C0,9.72888889 0.00990799717,8.20355556 0.0297239915,7.01066667 L0.059447983,5.69066667 C0.0396319887,5.39733333 0.0644019816,5.06 0.133757962,4.67866667 C0.203113942,4.29733333 0.297239915,3.96 0.416135881,3.66666667 C0.59447983,3.21688889 0.827317764,2.76711111 1.11464968,2.31733333 C1.4019816,1.86755556 1.70417551,1.496 2.02123142,1.20266667 C2.4373673,0.870222222 3.05166313,0.586666667 3.8641189,0.352 C4.63694268,0.117333333 5.43949045,0 6.27176221,0 C7.61924982,0 8.88747346,0.308 10.0764331,0.924 C11.2653928,1.54 12.2165605,2.38088889 12.9299363,3.44666667 C13.6433121,4.51244444 14,5.67111111 14,6.92266667 C14,7.66577778 13.861288,8.40888889 13.5838641,9.152 C12.7515924,9.328 12.0580326,9.416 11.5031847,9.416 C10.7501769,9.416 9.70983723,9.28888889 8.38216561,9.03466667 L8.29299363,7.92 C8.25336164,7.02044444 8.13941967,6.34088889 7.95116773,5.88133333 C7.76291578,5.42177778 7.3616419,5.20177778 6.74734607,5.22133333 C6.72753008,5.22133333 6.70276008,5.22622222 6.67303609,5.236 C6.6433121,5.24577778 6.59872611,5.25066667 6.53927813,5.25066667 L6.56900212,5.25066667 C5.9547063,5.34844444 5.61783439,5.55377778 5.55838641,5.86666667 Z" id="C"></path>
            <path d="M27.9713024,19.7085635 C27.9904341,19.9406077 28,20.2790055 28,20.7237569 C28,21.1298343 27.9665195,21.4150552 27.8995585,21.5794199 C27.8325975,21.7437845 27.732156,21.8453039 27.598234,21.8839779 C27.464312,21.9226519 27.2347314,21.941989 26.9094923,21.941989 L26.7086093,21.941989 L26.2494481,21.9129834 L25.5033113,21.941989 C24.317145,21.980663 22.5665931,22 20.2516556,22 C18.0515085,22 16.3009566,21.9903315 15,21.9709945 L15,21.3038674 C15.133922,18.1132597 15.200883,14.9033149 15.200883,11.6740331 C15.200883,10.7265193 15.1817513,9.09254144 15.1434879,6.77209945 L15.1434879,6.07596685 L15.1434879,5.00276243 C15.1243561,4.67403315 15.1147903,4.08425414 15.1147903,3.23342541 L15.0860927,1.3480663 C15.3539367,1.25138122 15.7270052,1.1691989 16.205298,1.10151934 C16.6835909,1.03383978 17.1618837,1 17.6401766,1 C18.1758646,1 18.7115526,1.03867403 19.2472406,1.1160221 C19.7829286,1.19337017 20.2133922,1.29972376 20.5386313,1.43508287 C20.5003679,2.82734807 20.4812362,3.93922652 20.4812362,4.77071823 C20.4812362,5.93093923 20.5003679,7.67127072 20.5386313,9.99171271 C20.5577631,11.1519337 20.5673289,12.8632597 20.5673289,15.1256906 L20.5673289,17.0110497 C21.1986755,17.0110497 21.9735099,17.0400552 22.8918322,17.0980663 L24.4128035,17.1560773 C25.2163355,17.2140884 25.9720383,17.2430939 26.6799117,17.2430939 C27.1773363,17.2430939 27.6173657,17.2237569 28,17.1850829 C28,17.6298343 27.9904341,17.9198895 27.9713024,18.0552486 L27.9713024,18.0262431 C27.933039,18.5483425 27.9234731,18.9254144 27.9426049,19.1574586 L27.9713024,19.7085635 Z" id="L"></path>
            <path d="M42,19.2118644 C42,20.220339 41.8954678,21.1200565 41.6864035,21.9110169 C40.8501462,21.9110169 39.6147661,21.930791 37.9802632,21.970339 L34.245614,22 C32.5540936,22 30.8625731,21.940678 29.1710526,21.8220339 C29.1900585,21.1892655 29.1615497,18.7274011 29.0855263,14.4364407 C29.0285088,12.0042373 29,10.1355932 29,8.83050847 C29,6.12146893 29.0665205,3.60028249 29.1995614,1.26694915 L31.7083333,1.1779661 C34.5211988,1.05932203 36.6688596,1 38.1513158,1 C39.4247076,1 40.6600877,1.04943503 41.8574561,1.14830508 C41.9334795,1.56355932 41.9714912,2.0480226 41.9714912,2.60169492 C41.9714912,2.89830508 41.9524854,3.38276836 41.9144737,4.05508475 C41.876462,4.68785311 41.8574561,5.18220339 41.8574561,5.53813559 C40.7171053,5.79519774 39.4437135,5.92372881 38.0372807,5.92372881 L34.3311404,5.95338983 C34.2361111,6.88276836 34.1885965,7.6539548 34.1885965,8.26694915 C34.1885965,8.74152542 34.245614,9.15677966 34.3596491,9.51271186 L36.2412281,9.27542373 C36.5073099,9.27542373 36.9064327,9.29519774 37.4385965,9.33474576 L37.8092105,9.36440678 C37.9042398,9.95762712 37.9517544,10.6002825 37.9517544,11.2923729 L37.8947368,13.6652542 C37.2865497,13.8432203 36.4692982,13.9322034 35.4429825,13.9322034 L34.7017544,13.9025424 C34.5687135,13.9025424 34.4831871,13.9223164 34.4451754,13.9618644 L34.3311404,15.5042373 C34.3311404,16.3149718 34.369152,16.9872881 34.4451754,17.5211864 C35.4334795,17.5211864 36.3932749,17.5508475 37.3245614,17.6101695 C37.6476608,17.6299435 38.0467836,17.6497175 38.5219298,17.6694915 C38.997076,17.6892655 39.5577485,17.6991525 40.2039474,17.6991525 L41.9429825,17.6398305 C41.9809942,18.549435 42,19.0734463 42,19.2118644 Z" id="E"></path>
            <path d="M55,1.35543018 C54.415942,4.6135402 53.7565217,7.78279267 53.0217391,10.8631876 C52.2869565,13.9435825 51.3637681,17.6163611 50.2521739,21.8815233 C49.8376812,21.8815233 49.5550725,21.8913963 49.4043478,21.9111425 L49.1217391,21.9407616 C48.7826087,21.9802539 48.434058,22 48.076087,22 C46.8891304,22 45.965942,21.8815233 45.3065217,21.6445698 C43.6673913,15.5825106 42.5652174,8.89844852 42,1.59238364 C42.1695652,1.39492243 42.5181159,1.24682652 43.0456522,1.14809591 C43.5731884,1.0493653 44.1572464,1 44.7978261,1 C45.4007246,1 46.0789855,1.06911142 46.8326087,1.20733427 L47.0021739,3.84344147 C47.1152174,5.79830748 47.2376812,7.49153738 47.3695652,8.92313117 C47.5014493,10.354725 47.6898551,11.7715092 47.9347826,13.1734838 C48.1608696,12.0874471 48.5094203,10.112835 48.9804348,7.24964739 C49.5456522,3.75458392 49.9224638,1.67136812 50.1108696,1 C50.8456522,1.15796897 51.684058,1.23695346 52.626087,1.23695346 C53.5681159,1.23695346 54.2369565,1.2764457 54.6326087,1.35543018 L55,1.35543018 Z" id="V"></path>
            <path d="M69,19.2118644 C69,20.220339 68.8954678,21.1200565 68.6864035,21.9110169 C67.8501462,21.9110169 66.6147661,21.930791 64.9802632,21.970339 L61.245614,22 C59.5540936,22 57.8625731,21.940678 56.1710526,21.8220339 C56.1900585,21.1892655 56.1615497,18.7274011 56.0855263,14.4364407 C56.0285088,12.0042373 56,10.1355932 56,8.83050847 C56,6.12146893 56.0665205,3.60028249 56.1995614,1.26694915 L58.7083333,1.1779661 C61.5211988,1.05932203 63.6688596,1 65.1513158,1 C66.4247076,1 67.6600877,1.04943503 68.8574561,1.14830508 C68.9334795,1.56355932 68.9714912,2.0480226 68.9714912,2.60169492 C68.9714912,2.89830508 68.9524854,3.38276836 68.9144737,4.05508475 C68.876462,4.68785311 68.8574561,5.18220339 68.8574561,5.53813559 C67.7171053,5.79519774 66.4437135,5.92372881 65.0372807,5.92372881 L61.3311404,5.95338983 C61.2361111,6.88276836 61.1885965,7.6539548 61.1885965,8.26694915 C61.1885965,8.74152542 61.245614,9.15677966 61.3596491,9.51271186 L63.2412281,9.27542373 C63.5073099,9.27542373 63.9064327,9.29519774 64.4385965,9.33474576 L64.8092105,9.36440678 C64.9042398,9.95762712 64.9517544,10.6002825 64.9517544,11.2923729 L64.8947368,13.6652542 C64.2865497,13.8432203 63.4692982,13.9322034 62.4429825,13.9322034 L61.7017544,13.9025424 C61.5687135,13.9025424 61.4831871,13.9223164 61.4451754,13.9618644 L61.3311404,15.5042373 C61.3311404,16.3149718 61.369152,16.9872881 61.4451754,17.5211864 C62.4334795,17.5211864 63.3932749,17.5508475 64.3245614,17.6101695 C64.6476608,17.6299435 65.0467836,17.6497175 65.5219298,17.6694915 C65.997076,17.6892655 66.5577485,17.6991525 67.2039474,17.6991525 L68.9429825,17.6398305 C68.9809942,18.549435 69,19.0734463 69,19.2118644 Z" id="E"></path>
            <path d="M81.9476744,16.4615385 C82.7228682,17.6346154 83.3478682,18.625 83.8226744,19.4326923 C84.2974806,20.2403846 84.6899225,21.0576923 85,21.8846154 L84.5348837,21.8846154 C84.3023256,21.8846154 83.7790698,21.9038462 82.9651163,21.9423077 C82.1511628,21.9807692 81.501938,22 81.0174419,22 C80.746124,22 80.3391473,21.9807692 79.7965116,21.9423077 L79.3023256,21.9134615 C78.0426357,19.0673077 76.9186047,16.9326923 75.9302326,15.5096154 L75.9302326,16.2596154 C75.9302326,17.4519231 75.998062,18.9903846 76.1337209,20.875 L76.1337209,20.8461538 C76.1531008,20.9807692 76.1627907,21.2115385 76.1627907,21.5384615 C75.503876,21.8461538 74.4186047,22 72.9069767,22 L72.2093023,21.9711538 L70.6686047,21.9711538 C70.4554264,21.9711538 70.3488372,20.2307692 70.3488372,16.75 C70.3488372,13.5961538 70.3197674,10.4375 70.2616279,7.27403846 C70.2034884,4.11057692 70.1162791,2.21153846 70,1.57692308 L70.7848837,1.46153846 C71.9476744,1.30769231 72.9069767,1.19230769 73.6627907,1.11538462 C74.4186047,1.03846154 75.1937984,1 75.9883721,1 C76.8410853,1 77.5678295,1.03846154 78.1686047,1.11538462 C79.2926357,1.25 80.3439922,1.63461538 81.3226744,2.26923077 C82.3013566,2.90384615 83.0862403,3.68269231 83.6773256,4.60576923 C84.2684109,5.52884615 84.5639535,6.48076923 84.5639535,7.46153846 C84.5639535,8.40384615 84.253876,9.43269231 83.6337209,10.5480769 C83.246124,11.2403846 82.7325581,11.8173077 82.0930233,12.2788462 C81.4534884,12.7403846 80.6879845,13.0192308 79.7965116,13.1153846 C80.3197674,14.0384615 80.9302326,15 81.627907,16 C81.7635659,16.2307692 81.870155,16.3846154 81.9476744,16.4615385 Z M77.7616279,9.10576923 C78.0329457,9.02884615 78.246124,8.83653846 78.4011628,8.52884615 C78.5562016,8.22115385 78.6337209,7.85576923 78.6337209,7.43269231 C78.6337209,6.64423077 78.4399225,6.13461538 78.0523256,5.90384615 C77.8003876,5.75 77.5436047,5.65384615 77.2819767,5.61538462 C77.0203488,5.57692308 76.7248062,5.55769231 76.3953488,5.55769231 L75.1453488,5.75961538 C75.1841085,6.33653846 75.2034884,6.82692308 75.2034884,7.23076923 C75.2034884,8.26923077 75.2325581,8.90384615 75.2906977,9.13461538 C75.620155,9.17307692 76.0271318,9.19230769 76.5116279,9.19230769 C76.9573643,9.19230769 77.374031,9.16346154 77.7616279,9.10576923 Z" id="R"></path>
            <path d="M95.5583864,5.86666667 C95.5187544,5.94488889 95.4692144,6.56088889 95.4097665,7.71466667 C95.3503185,8.86844444 95.3205945,10.0417778 95.3205945,11.2346667 C95.3205945,12.4471111 95.3503185,13.464 95.4097665,14.2853333 C95.4692144,14.8133333 95.6277424,15.3266667 95.8853503,15.8253333 C96.1429582,16.324 96.4501062,16.6613333 96.8067941,16.8373333 C97.5003539,16.8764444 98.0254777,16.5635556 98.3821656,15.8986667 L98.3524416,15.8986667 C98.5307856,15.5271111 98.6199575,14.9697778 98.6199575,14.2266667 C98.6199575,13.64 98.6595895,13.1804444 98.7388535,12.848 C99.2342534,12.9262222 99.7098372,12.9653333 100.165605,12.9653333 L101.532909,12.936 C102.246285,12.936 102.920028,13.0142222 103.55414,13.1706667 C103.791932,13.8551111 103.910828,14.5688889 103.910828,15.312 C103.910828,16.4266667 103.62845,17.4826667 103.063694,18.48 C102.498938,19.4773333 101.721161,20.2888889 100.730361,20.9146667 C99.7395612,21.5404444 98.6397735,21.8728889 97.4309979,21.912 C97.07431,21.9706667 96.6581741,22 96.1825902,22 C94.6369427,22 93.2795471,21.6577778 92.1104034,20.9733333 C90.9412597,20.2888889 90.2873319,19.2622222 90.14862,17.8933333 C90.04954,15.9377778 90,13.8355556 90,11.5866667 C90,9.72888889 90.009908,8.20355556 90.029724,7.01066667 L90.059448,5.69066667 C90.039632,5.39733333 90.064402,5.06 90.133758,4.67866667 C90.2031139,4.29733333 90.2972399,3.96 90.4161359,3.66666667 C90.5944798,3.21688889 90.8273178,2.76711111 91.1146497,2.31733333 C91.4019816,1.86755556 91.7041755,1.496 92.0212314,1.20266667 C92.4373673,0.870222222 93.0516631,0.586666667 93.8641189,0.352 C94.6369427,0.117333333 95.4394904,0 96.2717622,0 C97.6192498,0 98.8874735,0.308 100.076433,0.924 C101.265393,1.54 102.216561,2.38088889 102.929936,3.44666667 C103.643312,4.51244444 104,5.67111111 104,6.92266667 C104,7.66577778 103.861288,8.40888889 103.583864,9.152 C102.751592,9.328 102.058033,9.416 101.503185,9.416 C100.750177,9.416 99.7098372,9.28888889 98.3821656,9.03466667 L98.2929936,7.92 C98.2533616,7.02044444 98.1394197,6.34088889 97.9511677,5.88133333 C97.7629158,5.42177778 97.3616419,5.20177778 96.7473461,5.22133333 C96.7275301,5.22133333 96.7027601,5.22622222 96.6730361,5.236 C96.6433121,5.24577778 96.5987261,5.25066667 96.5392781,5.25066667 L96.5690021,5.25066667 C95.9547063,5.34844444 95.6178344,5.55377778 95.5583864,5.86666667 Z" id="C"></path>
            <path d="M118,21.7961165 C117.352133,21.9320388 116.653651,22 115.904555,22 C115.013738,22 114.041938,21.8932039 112.989154,21.6796117 C112.847433,21.3106796 112.624729,20.5339806 112.321041,19.3495146 C112.017354,18.1456311 111.774403,17.3495146 111.592191,16.961165 L110.984816,16.9320388 L110.468547,16.961165 C110.387563,17.1941748 110.255965,17.7669903 110.073753,18.6796117 C109.932032,19.4368932 109.790311,20.0533981 109.64859,20.5291262 C109.506869,21.0048544 109.304411,21.4368932 109.041215,21.8252427 C108.838756,21.8640777 108.535069,21.8834951 108.130152,21.8834951 C107.947939,21.8834951 107.553145,21.8640777 106.94577,21.8252427 C105.184382,21.7475728 104.202458,21.7087379 104,21.7087379 C104,21.6116505 104.020246,21.3834951 104.060738,21.0242718 C104.101229,20.6650485 104.161967,20.2621359 104.24295,19.815534 L104.911063,16.1456311 C105.437455,13.1359223 105.938539,10.5145631 106.414317,8.2815534 C106.890094,6.04854369 107.512654,3.68932039 108.281996,1.2038835 C108.565437,1.16504854 108.950108,1.14563107 109.436009,1.14563107 L109.618221,1.14563107 C110.934201,1.14563107 112.219812,1.09708738 113.475054,1 C113.718004,1.91262136 113.940709,2.81067961 114.143167,3.69417476 C114.345625,4.5776699 114.527838,5.36893204 114.689805,6.06796117 C115.337672,8.76699029 115.772957,10.5631068 115.995662,11.4563107 L118,21.7961165 Z M111.652928,13.2330097 C111.20752,9.34951456 110.994939,7.40776699 111.015184,7.40776699 L110.984816,7.11650485 C110.984816,7.11650485 110.96457,7.34951456 110.924078,7.81553398 C110.863341,9.27184466 110.772234,10.4271845 110.650759,11.2815534 L110.37744,13.2330097 L111.652928,13.2330097 Z" id="A"></path>
            <path d="M125.416107,19.2722008 C124.194631,16.6081081 123.390007,14.7644788 123.002237,13.7413127 L123.002237,19.3011583 C123.002237,20.4980695 123.011931,21.3185328 123.03132,21.7625483 C122.50783,21.9169884 121.935869,21.9942085 121.315436,21.9942085 C121.121551,21.9942085 120.830723,21.9749035 120.442953,21.9362934 C120.016406,21.8976834 119.706189,21.8783784 119.512304,21.8783784 L118.087248,21.8204633 L118.087248,19.6486486 C118.087248,18.4131274 118.06786,16.6563707 118.029083,14.3783784 C118.009694,13.2393822 118,11.511583 118,9.19498069 C118,6.08687259 118.087248,3.48069498 118.261745,1.37644788 C118.785235,1.24131274 119.36689,1.17374517 120.006711,1.17374517 C120.433259,1.17374517 120.951902,1.21235521 121.56264,1.28957529 C122.173378,1.36679537 122.595078,1.48262548 122.82774,1.63706564 C123.09918,2.13899614 123.433632,2.83880309 123.831096,3.73648649 C124.228561,4.63416988 124.611484,5.52702703 124.979866,6.41505792 L126.143177,9.07915058 C126.1044,7.72779923 126.085011,6.13513514 126.085011,4.3011583 C126.085011,2.81467181 126.094705,1.79150579 126.114094,1.23166023 C126.909023,1.07722008 127.752424,1 128.644295,1 C129.400447,1 130.185682,1.08687259 131,1.26061776 L131,21.7915058 C130.941834,21.7915058 130.825503,21.8204633 130.651007,21.8783784 C130.457122,21.9555985 130.117823,21.9942085 129.63311,21.9942085 C129.536167,22.0135135 129.022371,21.984556 128.091723,21.9073359 C127.85906,21.8880309 127.563386,21.8687259 127.204698,21.8494208 C126.84601,21.8301158 126.637584,21.8301158 126.579418,21.8494208 L125.416107,19.2722008 Z" id="N"></path>
            <path d="M136.257511,22 C135.776824,21.9409283 135.316166,21.9113924 134.875536,21.9113924 C134.575107,21.9113924 134.164521,21.931083 133.643777,21.9704641 L132.381974,22 C131.981402,22 131.520744,21.9704641 131,21.9113924 C131.480687,20.4936709 132.402003,18.0520394 133.763948,14.5864979 L134.995708,11.5147679 C134.795422,10.7271449 134.545064,9.95428973 134.244635,9.19620253 C133.944206,8.43811533 133.563662,7.53727145 133.103004,6.49367089 C132.562232,5.17440225 132.156652,4.16033755 131.886266,3.45147679 C131.61588,2.74261603 131.380544,1.99437412 131.180258,1.20675105 C131.560801,1.22644163 132.151645,1.19690577 132.95279,1.11814346 C133.593705,1.03938115 134.064378,1 134.364807,1 C135.065808,1 135.646638,1.12798875 136.107296,1.38396624 C136.287554,2.11251758 136.562947,3.01828411 136.933476,4.10126582 C137.304006,5.18424754 137.659514,6.14908579 138,6.99578059 C138.100143,6.79887482 138.420601,5.90295359 138.961373,4.30801688 C139.562232,2.53586498 139.902718,1.57102672 139.982833,1.41350211 C141.084406,1.19690577 142.175966,1.08860759 143.257511,1.08860759 C143.918455,1.08860759 144.499285,1.12798875 145,1.20675105 C144.519313,2.97890295 143.928469,4.68706048 143.227468,6.33122363 C142.526466,7.97538678 141.575107,10.0379747 140.373391,12.5189873 C139.412017,14.4486639 138.610873,16.1371308 137.969957,17.5843882 C137.329041,19.0316456 136.758226,20.5035162 136.257511,22 Z" id="Y"></path>
            <path d="M157.914847,6.09793103 C157.971616,6.69655172 158,7.30482759 158,7.92275862 L157.971616,8.44413793 L157.971616,8.96551724 C157.93377,9.60275862 157.914847,10.5393103 157.914847,11.7751724 C157.914847,13.1462069 157.886463,14.1889655 157.829694,14.9034483 L157.744541,15.8593103 C157.649927,17.4234483 157.262009,18.7558621 156.580786,19.8565517 C156.296943,20.262069 155.871179,20.6193103 155.303493,20.9282759 C154.735808,21.2372414 154.111354,21.4882759 153.430131,21.6813793 C152.729985,21.8937931 151.906841,22 150.960699,22 C150.525473,22 150.222707,21.9903448 150.052402,21.9710345 C149.125182,21.8937931 148.297307,21.6862069 147.568777,21.3482759 C146.840247,21.0103448 146.305677,20.5131034 145.965066,19.8565517 C145.510917,18.9875862 145.26492,17.8965517 145.227074,16.5834483 L145.170306,15.6565517 C145.151383,15.502069 145.141921,15.1834483 145.141921,14.7006897 C145.047307,13.1172414 145,11.6013793 145,10.1531034 C145,9.26482759 145.028384,8.37655172 145.085153,7.48827586 C145.141921,6.52275862 145.307496,5.58137931 145.581878,4.66413793 C145.856259,3.74689655 146.277293,2.94068966 146.844978,2.24551724 L147.469432,1.89793103 C148.680495,1.29931034 150.005095,1 151.443231,1 C152.351528,1 153.207787,1.12068966 154.012009,1.36206897 C154.81623,1.60344828 155.521106,1.95586207 156.126638,2.41931034 C156.788937,3.03724138 157.224163,3.64551724 157.432314,4.24413793 C157.659389,4.86206897 157.820233,5.48 157.914847,6.09793103 Z M153.515284,9.25517241 L153.401747,7.74896552 C153.363901,7.20827586 153.236172,6.73034483 153.018559,6.31517241 C152.800946,5.9 152.521834,5.60551724 152.181223,5.43172414 C152.02984,5.3737931 151.878457,5.34482759 151.727074,5.34482759 C151.272926,5.34482759 150.828239,5.49931034 150.393013,5.80827586 C150.165939,6.00137931 149.943595,6.27655172 149.725983,6.6337931 C149.50837,6.99103448 149.342795,7.35310345 149.229258,7.72 C149.040029,8.56965517 148.945415,9.65103448 148.945415,10.9641379 C148.945415,11.6206897 148.954876,12.1131034 148.973799,12.4413793 L148.973799,12.4124138 C149.049491,12.7986207 149.106259,13.3103448 149.144105,13.9475862 L149.172489,14.3531034 C149.24818,15.3186207 149.352256,16.0331034 149.484716,16.4965517 L149.484716,16.4675862 C149.655022,16.8537931 149.90575,17.1482759 150.2369,17.3510345 C150.568049,17.5537931 150.922853,17.6551724 151.30131,17.6551724 C151.604076,17.6551724 151.911572,17.5827586 152.223799,17.437931 C152.536026,17.2931034 152.805677,17.0855172 153.032751,16.8151724 C153.22198,16.5641379 153.340247,16.3517241 153.387555,16.177931 C153.434862,16.0041379 153.458515,15.7337931 153.458515,15.3668966 C153.458515,15.0386207 153.467977,14.7972414 153.4869,14.6427586 L153.515284,14.2662069 L153.543668,13.7158621 L153.543668,13.3103448 L153.572052,12.76 L153.572052,11.3696552 L153.515284,9.4 L153.515284,9.25517241 Z" id="O"></path>
            <path d="M166.416107,19.2722008 C165.194631,16.6081081 164.390007,14.7644788 164.002237,13.7413127 L164.002237,19.3011583 C164.002237,20.4980695 164.011931,21.3185328 164.03132,21.7625483 C163.50783,21.9169884 162.935869,21.9942085 162.315436,21.9942085 C162.121551,21.9942085 161.830723,21.9749035 161.442953,21.9362934 C161.016406,21.8976834 160.706189,21.8783784 160.512304,21.8783784 L159.087248,21.8204633 L159.087248,19.6486486 C159.087248,18.4131274 159.06786,16.6563707 159.029083,14.3783784 C159.009694,13.2393822 159,11.511583 159,9.19498069 C159,6.08687259 159.087248,3.48069498 159.261745,1.37644788 C159.785235,1.24131274 160.36689,1.17374517 161.006711,1.17374517 C161.433259,1.17374517 161.951902,1.21235521 162.56264,1.28957529 C163.173378,1.36679537 163.595078,1.48262548 163.82774,1.63706564 C164.09918,2.13899614 164.433632,2.83880309 164.831096,3.73648649 C165.228561,4.63416988 165.611484,5.52702703 165.979866,6.41505792 L167.143177,9.07915058 C167.1044,7.72779923 167.085011,6.13513514 167.085011,4.3011583 C167.085011,2.81467181 167.094705,1.79150579 167.114094,1.23166023 C167.909023,1.07722008 168.752424,1 169.644295,1 C170.400447,1 171.185682,1.08687259 172,1.26061776 L172,21.7915058 C171.941834,21.7915058 171.825503,21.8204633 171.651007,21.8783784 C171.457122,21.9555985 171.117823,21.9942085 170.63311,21.9942085 C170.536167,22.0135135 170.022371,21.984556 169.091723,21.9073359 C168.85906,21.8880309 168.563386,21.8687259 168.204698,21.8494208 C167.84601,21.8301158 167.637584,21.8301158 167.579418,21.8494208 L166.416107,19.2722008 Z" id="N"></path>
            <path d="M191.971302,19.7085635 C191.990434,19.9406077 192,20.2790055 192,20.7237569 C192,21.1298343 191.966519,21.4150552 191.899558,21.5794199 C191.832597,21.7437845 191.732156,21.8453039 191.598234,21.8839779 C191.464312,21.9226519 191.234731,21.941989 190.909492,21.941989 L190.708609,21.941989 L190.249448,21.9129834 L189.503311,21.941989 C188.317145,21.980663 186.566593,22 184.251656,22 C182.051508,22 180.300957,21.9903315 179,21.9709945 L179,21.3038674 C179.133922,18.1132597 179.200883,14.9033149 179.200883,11.6740331 C179.200883,10.7265193 179.181751,9.09254144 179.143488,6.77209945 L179.143488,6.07596685 L179.143488,5.00276243 C179.124356,4.67403315 179.11479,4.08425414 179.11479,3.23342541 L179.086093,1.3480663 C179.353937,1.25138122 179.727005,1.1691989 180.205298,1.10151934 C180.683591,1.03383978 181.161884,1 181.640177,1 C182.175865,1 182.711553,1.03867403 183.247241,1.1160221 C183.782929,1.19337017 184.213392,1.29972376 184.538631,1.43508287 C184.500368,2.82734807 184.481236,3.93922652 184.481236,4.77071823 C184.481236,5.93093923 184.500368,7.67127072 184.538631,9.99171271 C184.557763,11.1519337 184.567329,12.8632597 184.567329,15.1256906 L184.567329,17.0110497 C185.198675,17.0110497 185.97351,17.0400552 186.891832,17.0980663 L188.412804,17.1560773 C189.216336,17.2140884 189.972038,17.2430939 190.679912,17.2430939 C191.177336,17.2430939 191.617366,17.2237569 192,17.1850829 C192,17.6298343 191.990434,17.9198895 191.971302,18.0552486 L191.971302,18.0262431 C191.933039,18.5483425 191.923473,18.9254144 191.942605,19.1574586 L191.971302,19.7085635 Z" id="L"></path>
            <path d="M205.971302,19.7085635 C205.990434,19.9406077 206,20.2790055 206,20.7237569 C206,21.1298343 205.966519,21.4150552 205.899558,21.5794199 C205.832597,21.7437845 205.732156,21.8453039 205.598234,21.8839779 C205.464312,21.9226519 205.234731,21.941989 204.909492,21.941989 L204.708609,21.941989 L204.249448,21.9129834 L203.503311,21.941989 C202.317145,21.980663 200.566593,22 198.251656,22 C196.051508,22 194.300957,21.9903315 193,21.9709945 L193,21.3038674 C193.133922,18.1132597 193.200883,14.9033149 193.200883,11.6740331 C193.200883,10.7265193 193.181751,9.09254144 193.143488,6.77209945 L193.143488,6.07596685 L193.143488,5.00276243 C193.124356,4.67403315 193.11479,4.08425414 193.11479,3.23342541 L193.086093,1.3480663 C193.353937,1.25138122 193.727005,1.1691989 194.205298,1.10151934 C194.683591,1.03383978 195.161884,1 195.640177,1 C196.175865,1 196.711553,1.03867403 197.247241,1.1160221 C197.782929,1.19337017 198.213392,1.29972376 198.538631,1.43508287 C198.500368,2.82734807 198.481236,3.93922652 198.481236,4.77071823 C198.481236,5.93093923 198.500368,7.67127072 198.538631,9.99171271 C198.557763,11.1519337 198.567329,12.8632597 198.567329,15.1256906 L198.567329,17.0110497 C199.198675,17.0110497 199.97351,17.0400552 200.891832,17.0980663 L202.412804,17.1560773 C203.216336,17.2140884 203.972038,17.2430939 204.679912,17.2430939 C205.177336,17.2430939 205.617366,17.2237569 206,17.1850829 C206,17.6298343 205.990434,17.9198895 205.971302,18.0552486 L205.971302,18.0262431 C205.933039,18.5483425 205.923473,18.9254144 205.942605,19.1574586 L205.971302,19.7085635 Z" id="L"></path>
            <path d="M211.558386,5.86666667 C211.518754,5.94488889 211.469214,6.56088889 211.409766,7.71466667 C211.350318,8.86844444 211.320594,10.0417778 211.320594,11.2346667 C211.320594,12.4471111 211.350318,13.464 211.409766,14.2853333 C211.469214,14.8133333 211.627742,15.3266667 211.88535,15.8253333 C212.142958,16.324 212.450106,16.6613333 212.806794,16.8373333 C213.500354,16.8764444 214.025478,16.5635556 214.382166,15.8986667 L214.352442,15.8986667 C214.530786,15.5271111 214.619958,14.9697778 214.619958,14.2266667 C214.619958,13.64 214.65959,13.1804444 214.738854,12.848 C215.234253,12.9262222 215.709837,12.9653333 216.165605,12.9653333 L217.532909,12.936 C218.246285,12.936 218.920028,13.0142222 219.55414,13.1706667 C219.791932,13.8551111 219.910828,14.5688889 219.910828,15.312 C219.910828,16.4266667 219.62845,17.4826667 219.063694,18.48 C218.498938,19.4773333 217.721161,20.2888889 216.730361,20.9146667 C215.739561,21.5404444 214.639774,21.8728889 213.430998,21.912 C213.07431,21.9706667 212.658174,22 212.18259,22 C210.636943,22 209.279547,21.6577778 208.110403,20.9733333 C206.94126,20.2888889 206.287332,19.2622222 206.14862,17.8933333 C206.04954,15.9377778 206,13.8355556 206,11.5866667 C206,9.72888889 206.009908,8.20355556 206.029724,7.01066667 L206.059448,5.69066667 C206.039632,5.39733333 206.064402,5.06 206.133758,4.67866667 C206.203114,4.29733333 206.29724,3.96 206.416136,3.66666667 C206.59448,3.21688889 206.827318,2.76711111 207.11465,2.31733333 C207.401982,1.86755556 207.704176,1.496 208.021231,1.20266667 C208.437367,0.870222222 209.051663,0.586666667 209.864119,0.352 C210.636943,0.117333333 211.43949,0 212.271762,0 C213.61925,0 214.887473,0.308 216.076433,0.924 C217.265393,1.54 218.216561,2.38088889 218.929936,3.44666667 C219.643312,4.51244444 220,5.67111111 220,6.92266667 C220,7.66577778 219.861288,8.40888889 219.583864,9.152 C218.751592,9.328 218.058033,9.416 217.503185,9.416 C216.750177,9.416 215.709837,9.28888889 214.382166,9.03466667 L214.292994,7.92 C214.253362,7.02044444 214.13942,6.34088889 213.951168,5.88133333 C213.762916,5.42177778 213.361642,5.20177778 212.747346,5.22133333 C212.72753,5.22133333 212.70276,5.22622222 212.673036,5.236 C212.643312,5.24577778 212.598726,5.25066667 212.539278,5.25066667 L212.569002,5.25066667 C211.954706,5.34844444 211.617834,5.55377778 211.558386,5.86666667 Z" id="C"></path>
        </g>
        <g id="icon-filled">
            <path d="M1.81869373,24.7576964 C-5.62255936,49.3117831 10.8671055,67.0675296 31.3512209,57.2451545 L59.1734272,57.2451545 C61.3985719,57.2451545 63.4260302,56.3319962 64.8954747,54.8635389 L64.9063339,54.8529265 C66.1748835,53.5836365 67.0295504,51.8992296 67.238096,50.0294762 C73.1385795,44.9187512 72.532193,35.7597733 67.2884431,28.525585 L67.2884431,17.0279346 C67.2884431,14.8020495 66.3757784,12.7748381 64.9063339,11.3051468 L64.8954747,11.2945344 C63.4260302,9.8253367 61.3985719,8.91267198 59.1734272,8.91267198 L49.6607856,8.91267198 L49.6607856,7.31267053 C49.6607856,5.30026703 48.8384495,3.46950801 47.5138763,2.14616885 C46.190784,0.822336085 44.3600249,0 42.3476215,0 L32.627915,0 C30.6140307,0 28.7854928,0.822336085 27.4616601,2.14616885 C26.1378273,3.46950801 25.3154912,5.30026703 25.3154912,7.31267053 L25.3154912,8.91267198 L15.8033432,8.91267198 C13.5764709,8.91267198 11.5507402,9.8253367 10.0810489,11.2945344 L10.0704365,11.3051468 C8.60123883,12.7748381 7.68882092,14.8020495 7.68882092,17.0279346 L7.68882092,28.8651812 C5.64309948,27.7871608 3.68696629,26.2792156 1.81869373,24.7576964 Z M31.0284071,8.91267198 L43.9471293,8.91267198 L43.9471293,7.31267053 C43.9471293,6.87509493 43.7667188,6.47478607 43.4762358,6.184303 C43.1859995,5.89480714 42.7849502,5.71291587 42.3476215,5.71291587 L32.627915,5.71291587 C32.1910798,5.71291587 31.7902773,5.89480714 31.5005346,6.184303 C31.2100516,6.47478607 31.0284071,6.87509493 31.0284071,7.31267053 L31.0284071,8.91267198 Z" id="Fill-3" fill="#ED5F3B"></path>
            <path d="M40.0491773,51.5322386 C45.3319216,47.2529813 50.4122902,42.7091549 56.2429294,41.3169587 C58.2810001,41.2170049 60.0678288,41.9221112 61.5747868,42.9685412 L61.5747868,49.1303855 C61.5747868,49.7900807 61.3082433,50.3900503 60.8795525,50.8251579 L60.8686933,50.8360171 C60.4333389,51.2654483 59.8333692,51.5322386 59.1734272,51.5322386 L40.0491773,51.5322386 Z" id="Path" fill="#000000"></path>
            <path d="M61.5747868,22.8447531 C52.9113824,16.6059074 39.1772345,14.9000289 22.9279524,25.9628186 C21.1068186,27.2022459 19.4621464,28.321235 18.2042091,29.0522553 C16.5568222,30.0068759 14.9568207,30.4185375 13.4017368,30.4340859 L13.4017368,17.0279346 C13.4017368,16.3679926 13.6682803,15.7680229 14.0977115,15.3331621 L14.1085707,15.3218094 C14.5439251,14.8923782 15.1434012,14.6258346 15.8033432,14.6258346 L59.1734272,14.6258346 C59.8333692,14.6258346 60.4333389,14.8923782 60.8686933,15.3218094 L60.8795525,15.3331621 C61.3082433,15.7680229 61.5747868,16.3679926 61.5747868,17.0279346 L61.5747868,22.8447531 Z" id="Path" fill="#000000"></path>
            <path d="M41.5070222,30.2336847 C37.1058459,33.1029762 33.8142804,35.9468474 28.3930816,38.511835 C28.3930816,38.511835 32.6140942,30.6910042 33.679281,25.9857709 C27.6023358,32.2885377 15.2480442,40.8396483 6.68360637,35.7489141 C6.29884588,43.6437848 9.40383096,49.5343963 17.1669107,52.4382398 C26.7434734,56.019548 37.4748112,47.8374027 43.4310715,39.7404032 C40.5748603,40.7295758 38.3292313,42.0366261 34.9409203,42.0129334 C37.7309892,39.0476368 40.4351718,34.8722821 41.5070222,30.2336847 L41.5070222,30.2336847 Z" id="Path" fill="#FFFFFF"></path>
        </g>
        <g id="://" transform="translate(80.3648, 8.96)" fill="#000000" fill-rule="nonzero">
            <polygon id="Path" points="0 43.7 12.4818125 0 14.8817188 0 2.3934375 43.7"></polygon>
            <polygon id="Path" points="15.2275275 43.7 27.70934 0 30.1092462 0 17.620965 43.7"></polygon>
        </g>
        <g id="hop.gdn" transform="translate(117.6765, 11.7)" fill="#000000" fill-rule="nonzero">
            <path d="M0,33.3 L0,0 L8.85234375,0 L8.85234375,10.5588281 C9.665625,10.0188281 10.4524219,9.57960938 11.2127344,9.24117187 C11.9730469,8.90273437 12.7444922,8.64890625 13.5270703,8.4796875 C14.3096484,8.31046875 15.1061719,8.22585937 15.9166406,8.22585937 C17.5244531,8.22585937 18.8707031,8.5153125 19.9553906,9.09421875 C21.0400781,9.673125 21.8633203,10.5053906 22.4251172,11.5910156 C22.9869141,12.6766406 23.2678125,14.0010937 23.2678125,15.564375 L23.2678125,33.3 L14.383125,33.3 L14.383125,18.3958594 C14.383125,17.3866406 14.1782812,16.6750781 13.7685937,16.2611719 C13.3589063,15.8472656 12.7982812,15.6403125 12.0867188,15.6403125 C11.735625,15.6403125 11.3873437,15.6760547 11.041875,15.7475391 C10.6964063,15.8190234 10.344375,15.9181641 9.98578125,16.0449609 C9.6271875,16.1717578 9.249375,16.3242188 8.85234375,16.5023437 L8.85234375,33.3 L0,33.3 Z" id="Path"></path>
            <path d="M25.9386821,20.9432813 C25.9386821,19.0242188 26.1369633,17.2846875 26.5335258,15.7246875 C26.9300883,14.1646875 27.5936039,12.8273438 28.5240727,11.7126563 C29.4545414,10.5979688 30.7207524,9.73816406 32.3227055,9.13324219 C33.9246586,8.52832031 35.9310258,8.22585938 38.3418071,8.22585938 C40.7525883,8.22585938 42.7534477,8.52832031 44.3443852,9.13324219 C45.9353227,9.73816406 47.2015336,10.5979688 48.143018,11.7126563 C49.0845024,12.8273438 49.7535258,14.1646875 50.1500883,15.7246875 C50.5466508,17.2846875 50.7449321,19.0242188 50.7449321,20.9432813 C50.7449321,22.891875 50.5316508,24.6557813 50.1050883,26.235 C49.6785258,27.8142188 48.984893,29.1611719 48.0241899,30.2758594 C47.0634867,31.3905469 45.7897758,32.2482422 44.2030571,32.8489453 C42.6163383,33.4496484 40.6625883,33.75 38.3418071,33.75 C36.0210258,33.75 34.0671586,33.4496484 32.4802055,32.8489453 C30.8932524,32.2482422 29.6195414,31.3905469 28.6590727,30.2758594 C27.6986039,29.1611719 27.0050883,27.8142188 26.5785258,26.235 C26.1519633,24.6557813 25.9386821,22.891875 25.9386821,20.9432813 Z M35.0427446,20.9432813 C35.0427446,22.5248438 35.1491508,23.7631641 35.3619633,24.6582422 C35.5747758,25.5533203 35.9263383,26.1823828 36.4166508,26.5454297 C36.9069633,26.9084766 37.5486821,27.09 38.3418071,27.09 C39.1433696,27.09 39.7816899,26.9084766 40.256768,26.5454297 C40.7318461,26.1823828 41.0812992,25.5533203 41.3051274,24.6582422 C41.5289555,23.7631641 41.6408696,22.5248438 41.6408696,20.9432813 C41.6408696,19.3696875 41.5385649,18.1428516 41.3339555,17.2627734 C41.1293461,16.3826953 40.7895024,15.7611328 40.3144242,15.3980859 C39.8393461,15.0350391 39.1818071,14.8535156 38.3418071,14.8535156 C37.5018071,14.8535156 36.844268,15.0350391 36.3691899,15.3980859 C35.8941117,15.7611328 35.554268,16.3826953 35.3496586,17.2627734 C35.1450492,18.1428516 35.0427446,19.3696875 35.0427446,20.9432813 Z" id="Shape"></path>
            <path d="M53.4868645,42.75 L53.4868645,8.63789063 L61.4687395,8.63789063 L61.747177,10.5742969 C63.0788957,9.76429688 64.3692473,9.17039063 65.6182317,8.79257813 C66.867216,8.41476563 68.1470207,8.22585938 69.4576457,8.22585938 C72.200302,8.22585938 74.2981926,9.28066406 75.7513176,11.3902734 C77.2044426,13.4998828 77.9310051,16.5625781 77.9310051,20.5783594 C77.9310051,23.5164844 77.4931926,25.9614844 76.6175676,27.9133594 C75.7419426,29.8652344 74.404716,31.3259766 72.6058879,32.2955859 C70.8070598,33.2651953 68.5330363,33.75 65.7838176,33.75 C65.2686613,33.75 64.7160051,33.7248047 64.1258488,33.6744141 C63.5356926,33.6240234 62.9467082,33.5622656 62.3588957,33.4891406 L62.3588957,42.75 L53.4868645,42.75 Z M65.184052,27.3529688 C66.0043645,27.3529688 66.6756145,27.1733203 67.197802,26.8140234 C67.7199895,26.4547266 68.1104582,25.8433594 68.3692082,24.9799219 C68.6279582,24.1164844 68.7573332,22.9460156 68.7573332,21.4685156 C68.7573332,19.9422656 68.6537395,18.7489453 68.446552,17.8885547 C68.2393645,17.0281641 67.924716,16.4117578 67.5026067,16.0393359 C67.0804973,15.6669141 66.541552,15.4807031 65.8857707,15.4807031 C65.5510832,15.4807031 65.191552,15.5138672 64.807177,15.5801953 C64.422802,15.6465234 64.0294035,15.7446094 63.6269817,15.8744531 C63.2245598,16.0042969 62.7967082,16.1749219 62.343427,16.3863281 L62.343427,26.8804688 C62.8201457,27.0328125 63.2993254,27.1496484 63.780966,27.2309766 C64.2626067,27.3123047 64.730302,27.3529688 65.184052,27.3529688 Z" id="Shape"></path>
            <path d="M80.0436004,29.0439844 C80.0436004,27.4924219 80.4120379,26.3334375 81.1489129,25.5670313 C81.8857879,24.800625 83.1101629,24.4174219 84.8220379,24.4174219 C86.5470379,24.4174219 87.7746941,24.800625 88.5050066,25.5670313 C89.2353191,26.3334375 89.6004754,27.4924219 89.6004754,29.0439844 C89.6004754,30.5702344 89.2353191,31.7165625 88.5050066,32.4829688 C87.7746941,33.249375 86.5470379,33.6325781 84.8220379,33.6325781 C83.1115691,33.6325781 81.8875457,33.249375 81.1499676,32.4829688 C80.4123894,31.7165625 80.0436004,30.5702344 80.0436004,29.0439844 Z" id="Path"></path>
            <path d="M102.272623,43.2 C98.6032484,43.2 95.8200453,42.6944531 93.9230141,41.6833594 C92.0259828,40.6722656 91.0774672,39.1492969 91.0774672,37.1144531 C91.0774672,36.2960156 91.2253578,35.5546875 91.5211391,34.8904687 C91.8169203,34.22625 92.2573109,33.6328125 92.8423109,33.1101562 C93.4273109,32.5875 94.1440297,32.1485156 94.9924672,31.7932031 L99.1521547,33.3717187 C98.8713734,33.5339062 98.6352406,33.6969141 98.4437562,33.8607422 C98.2522719,34.0245703 98.1076625,34.2042187 98.0099281,34.3996875 C97.9121937,34.5951562 97.8633266,34.8335156 97.8633266,35.1147656 C97.8633266,35.5835156 98.0106312,35.9562891 98.3052406,36.2330859 C98.59985,36.5098828 99.1137172,36.7130859 99.8468422,36.8426953 C100.579967,36.9723047 101.588483,37.0371094 102.872389,37.0371094 C104.078014,37.0371094 105.083717,36.9626953 105.889498,36.8138672 C106.69528,36.6650391 107.302194,36.4535156 107.710241,36.1792969 C108.118287,35.9050781 108.322311,35.5614844 108.322311,35.1485156 C108.322311,34.8377344 108.259616,34.6016016 108.134225,34.4401172 C108.008834,34.2786328 107.748795,34.1586328 107.354108,34.0801172 C106.95942,34.0016016 106.366686,33.9623437 105.575905,33.9623437 L101.050592,33.9623437 C99.2444984,33.9623437 97.6689125,33.7652344 96.3238344,33.3710156 C94.9787562,32.9767969 93.9361391,32.3660156 93.1959828,31.5386719 C92.4558266,30.7113281 92.0857484,29.6519531 92.0857484,28.3605469 C92.0857484,27.0311719 92.4342641,25.9216406 93.1312953,25.0319531 C93.8283266,24.1422656 94.7426234,23.4082031 95.8741859,22.8297656 L100.178014,23.8971094 C99.6956703,24.1839844 99.3383656,24.4726172 99.1061,24.7630078 C98.8738344,25.0533984 98.7577016,25.4163281 98.7577016,25.8517969 C98.7577016,26.2957031 98.9263344,26.6295703 99.2636,26.8533984 C99.6008656,27.0772266 100.119186,27.1891406 100.818561,27.1891406 L108.593717,27.1891406 C111.126842,27.1891406 113.092428,27.7981641 114.490475,29.0162109 C115.888522,30.2342578 116.587545,31.9171875 116.587545,34.065 C116.587545,36.0210937 116.052702,37.6810547 114.983014,39.0448828 C113.913327,40.4087109 112.318053,41.4421875 110.197194,42.1453125 C108.076334,42.8484375 105.434811,43.2 102.272623,43.2 Z M103.169108,25.3209375 C99.5273891,25.3209375 96.7876625,24.6005859 94.9499281,23.1598828 C93.1121937,21.7191797 92.1933266,19.5923437 92.1933266,16.779375 C92.1933266,13.936875 93.1121937,11.8006641 94.9499281,10.3707422 C96.7876625,8.94082031 99.5273891,8.22585937 103.169108,8.22585937 C106.810827,8.22585937 109.550553,8.94082031 111.388287,10.3707422 C113.226022,11.8006641 114.144889,13.936875 114.144889,16.779375 C114.144889,19.5923437 113.226022,21.7191797 111.388287,23.1598828 C109.550553,24.6005859 106.810827,25.3209375 103.169108,25.3209375 Z M103.169108,19.8808594 C104.085983,19.8808594 104.760631,19.6621875 105.193053,19.2248437 C105.625475,18.7875 105.841686,17.9723437 105.841686,16.779375 C105.841686,15.556875 105.625475,14.7247266 105.193053,14.2829297 C104.760631,13.8411328 104.085983,13.6202344 103.169108,13.6202344 C102.26067,13.6202344 101.588131,13.8411328 101.151491,14.2829297 C100.71485,14.7247266 100.49653,15.556875 100.49653,16.779375 C100.49653,17.9723437 100.71485,18.7875 101.151491,19.2248437 C101.588131,19.6621875 102.26067,19.8808594 103.169108,19.8808594 Z M112.761139,14.900625 L109.486686,10.4203125 C109.928248,9.24890625 110.590592,8.38125 111.473717,7.81734375 C112.356842,7.2534375 113.463327,6.97148437 114.79317,6.97148437 C115.290983,6.97148437 115.761022,7.00476562 116.203287,7.07132812 C116.645553,7.13789062 117.038248,7.23773437 117.381373,7.37085937 L116.362545,13.9788281 C116.10942,13.9188281 115.837077,13.8684375 115.545514,13.8276562 C115.253952,13.786875 114.951608,13.7664844 114.638483,13.7664844 C114.262545,13.7664844 113.914381,13.8561328 113.593991,14.0354297 C113.2736,14.2147266 112.995983,14.503125 112.761139,14.900625 Z" id="Shape"></path>
            <path d="M135.144413,33.3773437 L134.145272,31.6117969 C132.985116,32.3219531 131.813827,32.8558594 130.631405,33.2135156 C129.448983,33.5711719 128.208554,33.75 126.910116,33.75 C124.183866,33.75 122.092069,32.6913281 120.634725,30.5739844 C119.177382,28.4566406 118.44871,25.3938281 118.44871,21.3855469 C118.44871,18.4291406 118.886054,15.9800391 119.760741,14.0382422 C120.635429,12.0964453 121.972069,10.6422656 123.770663,9.67570312 C125.569257,8.70914062 127.840819,8.22585937 130.58535,8.22585937 C131.145507,8.22585937 131.721718,8.24507812 132.313983,8.28351562 C132.906249,8.32195312 133.480116,8.38382812 134.035585,8.46914062 L134.035585,0 L142.920272,0 L142.920272,33.3773437 L135.144413,33.3773437 Z M134.035585,25.5459375 L134.035585,15.06375 C133.536366,14.8973437 133.054022,14.7820312 132.588554,14.7178125 C132.123085,14.6535937 131.655038,14.6214844 131.184413,14.6214844 C130.374882,14.6214844 129.705741,14.7996094 129.176991,15.1558594 C128.648241,15.5121094 128.25496,16.1129297 127.997147,16.9583203 C127.739335,17.8037109 127.610429,18.9848437 127.610429,20.5017187 C127.610429,21.9778125 127.714725,23.1517969 127.923319,24.0236719 C128.131913,24.8955469 128.4516,25.5193359 128.882382,25.8950391 C129.313163,26.2707422 129.8466,26.4585937 130.482694,26.4585937 C130.8366,26.4585937 131.201405,26.4255469 131.577108,26.3594531 C131.952811,26.2933594 132.348788,26.1901172 132.765038,26.0497266 C133.181288,25.9093359 133.604804,25.7414062 134.035585,25.5459375 Z" id="Shape"></path>
            <path d="M146.425198,33.3 L146.425198,8.67585938 L154.407073,8.67585938 L154.407073,10.7985938 C155.406448,10.1770313 156.337151,9.680625 157.199182,9.309375 C158.061213,8.938125 158.909651,8.66472656 159.744495,8.48917969 C160.579338,8.31363281 161.447463,8.22585938 162.34887,8.22585938 C164.011057,8.22585938 165.385784,8.52996094 166.473049,9.13816406 C167.560315,9.74636719 168.367854,10.58625 168.895667,11.6578125 C169.423479,12.729375 169.687385,13.9882031 169.687385,15.4342969 L169.687385,33.3 L160.830823,33.3 L160.830823,18.3832031 C160.830823,17.3678906 160.621643,16.6548047 160.203284,16.2439453 C159.784924,15.8330859 159.229807,15.6276563 158.537932,15.6276563 C158.19762,15.6276563 157.851448,15.6665625 157.499417,15.744375 C157.147385,15.8221875 156.790667,15.9234375 156.42926,16.048125 C156.067854,16.1728125 155.685354,16.3246875 155.28176,16.50375 L155.28176,33.3 L146.425198,33.3 Z" id="Path"></path>
        </g>
        <g id="powered-by" transform="translate(401.756, 5.128)" fill="#6E6E6E" fill-rule="nonzero">
            <path d="M3.864,15.888 C3.144,15.888 2.4,15.768 1.608,15.48 C1.584,11.808 1.536,9.504 1.488,7.368 C2.352,6.672 3.432,6.216 4.56,6.216 C6.552,6.216 8.064,7.896 8.064,10.92 C8.064,14.112 6.168,15.888 3.864,15.888 Z M1.608,20.832 L1.608,16.992 C2.184,17.112 2.76,17.16 3.288,17.16 C6.6,17.16 9.504,14.688 9.504,10.56 C9.504,7.152 7.608,4.992 5.088,4.992 C3.576,4.992 2.376,5.664 1.44,6.432 L1.344,5.208 L0,5.304 C0.096,7.848 0.144,11.544 0.144,16.896 L0.144,20.952 L1.608,20.832 Z" id="Shape"></path>
            <path d="M17.352,17.208 C20.256,17.208 22.704,14.688 22.704,10.872 C22.704,7.176 20.64,4.944 17.76,4.944 C14.856,4.944 12.384,7.464 12.384,11.232 C12.384,14.952 14.496,17.208 17.352,17.208 Z M17.568,15.984 C15.384,15.984 13.848,14.16 13.848,10.944 C13.848,7.896 15.384,6.168 17.52,6.168 C19.728,6.168 21.264,7.968 21.264,11.16 C21.264,14.232 19.728,15.984 17.568,15.984 Z" id="Shape"></path>
            <path d="M33.216,16.872 L34.608,16.872 C35.04,13.944 35.52,9.552 35.808,5.256 L34.416,5.256 C34.2,8.712 33.984,11.808 33.72,14.952 L33.648,14.952 C33.456,14.4 31.416,8.616 31.272,8.208 L30.312,8.208 C30.168,8.616 28.2,14.352 27.984,14.904 L27.888,14.904 C27.6,11.76 27.384,8.688 27.168,5.256 L25.704,5.256 C25.992,9.552 26.448,13.944 26.928,16.872 L28.272,16.872 L30.744,9.864 L33.216,16.872 Z" id="Path"></path>
            <path d="M48.144,17.136 L48.336,15.864 C42.384,15.696 40.632,14.424 40.488,11.424 L48.744,11.232 C49.176,7.536 47.568,4.968 44.448,4.968 C41.448,4.968 39.048,7.68 39.048,11.208 C39.048,14.976 41.04,17.016 48.144,17.136 Z M44.16,6.192 C46.368,6.192 47.448,7.848 47.4,10.272 L40.488,10.464 C40.632,7.776 42.024,6.192 44.16,6.192 Z" id="Shape"></path>
            <path d="M60.912,16.872 L61.056,15.744 L56.856,15.744 C56.832,12.864 56.784,10.344 56.76,8.16 C58.032,7.224 59.784,6.576 62.352,6.384 L62.28,4.848 C59.76,5.112 57.888,6.072 56.712,7.2 C56.688,6.648 56.616,5.568 56.592,5.256 L52.32,5.256 L52.2,6.288 L55.272,6.456 C55.344,8.952 55.368,11.904 55.44,15.744 L52.152,15.744 L52.152,16.872 L60.912,16.872 Z" id="Path"></path>
            <path d="M74.544,17.136 L74.736,15.864 C68.784,15.696 67.032,14.424 66.888,11.424 L75.144,11.232 C75.576,7.536 73.968,4.968 70.848,4.968 C67.848,4.968 65.448,7.68 65.448,11.208 C65.448,14.976 67.44,17.016 74.544,17.136 Z M70.56,6.192 C72.768,6.192 73.848,7.848 73.8,10.272 L66.888,10.464 C67.032,7.776 68.424,6.192 70.56,6.192 Z" id="Shape"></path>
            <path d="M83.376,15.912 C81.312,15.912 79.848,14.328 79.848,11.256 C79.848,8.016 81.768,6.24 84.192,6.24 C84.888,6.24 85.56,6.36 86.28,6.6 C86.28,10.2 86.304,12.528 86.352,14.76 C85.536,15.408 84.456,15.912 83.376,15.912 Z M86.52,16.92 L87.912,16.824 C87.792,14.136 87.744,10.392 87.744,5.352 L87.744,0 L86.28,0.12 L86.28,5.112 C85.824,5.04 85.368,4.992 84.864,4.992 C81.432,4.992 78.384,7.392 78.384,11.64 C78.384,15.072 80.304,17.16 82.848,17.16 C84.336,17.16 85.56,16.464 86.424,15.672 L86.52,16.92 Z" id="Shape"></path>
            <path d="M109.032,17.136 C112.176,17.136 115.104,14.64 115.104,10.56 C115.104,7.152 113.208,4.992 110.688,4.992 C109.248,4.992 108.072,5.592 107.16,6.336 L107.16,0 L105.696,0.12 L105.696,16.56 C106.728,16.944 107.88,17.136 109.032,17.136 Z M109.536,15.864 C108.792,15.864 108,15.72 107.16,15.432 L107.16,7.32 C108,6.648 109.08,6.216 110.16,6.216 C112.176,6.216 113.664,7.896 113.664,10.92 C113.664,14.112 111.864,15.864 109.536,15.864 Z" id="Shape"></path>
            <path d="M118.224,21.144 C121.968,20.616 123.024,19.512 124.488,15.816 C126.192,11.712 127.464,8.28 128.544,5.256 L127.152,5.256 C126.312,7.536 124.656,12.336 123.552,14.976 L123.384,14.976 C121.92,11.76 120.504,8.448 119.208,5.208 L117.72,5.28 C119.064,8.52 121.128,13.344 122.688,16.68 L122.712,16.68 C121.8,18.744 121.152,19.272 118.08,19.752 L118.224,21.144 Z" id="Path"></path>
        </g>
    </g>
</svg>