<svg xmlns="http://www.w3.org/2000/svg" width="428" height="267" viewBox="0 0 428 267"><g fill="none" fill-rule="evenodd"><path fill="#000" fill-rule="nonzero" d="M10.3227176 11.4666667C10.2491154 11.6195556 10.1571125 12.8235556 10.0467091 15.0786667 9.93630573 17.3337778 9.88110403 19.6271111 9.88110403 21.9586667 9.88110403 24.3284444 9.93630573 26.316 10.0467091 27.9213333 10.1571125 28.9533333 10.4515216 29.9566667 10.9299363 30.9313333 11.408351 31.906 11.9787686 32.5653333 12.641189 32.9093333 13.9292286 32.9857778 14.9044586 32.3742222 15.566879 31.0746667L15.5116773 31.0746667C15.8428875 30.3484444 16.0084926 29.2591111 16.0084926 27.8066667 16.0084926 26.66 16.0820948 25.7617778 16.2292994 25.112 17.1493277 25.2648889 18.0325548 25.3413333 18.8789809 25.3413333L21.418259 25.284C22.7430998 25.284 23.9943383 25.4368889 25.1719745 25.7426667 25.6135881 27.0804444 25.8343949 28.4755556 25.8343949 29.928 25.8343949 32.1066667 25.3099788 34.1706667 24.2611465 36.12 23.2123142 38.0693333 21.7678698 39.6555556 19.9278132 40.8786667 18.0877565 42.1017778 16.0452937 42.7515556 13.8004246 42.828 13.1380042 42.9426667 12.3651805 43 11.4819533 43 8.61146497 43 6.0905874 42.3311111 3.91932059 40.9933333 1.74805379 39.6555556.533616419 37.6488889.276008493 34.9733333.0920028309 31.1511111 0 27.0422222 0 22.6466667 0 19.0155556.0184005662 16.0342222.0552016985 13.7026667L.110403397 11.1226667C.0736022647 10.5493333.11960368 9.89.248407643 9.14466667.377211607 8.39933333.552016985 7.74.772823779 7.16666667 1.10403397 6.28755556 1.53644728 5.40844444 2.07006369 4.52933333 2.60368011 3.65022222 3.16489738 2.924 3.7537155 2.35066667 4.52653928 1.70088889 5.66737438 1.14666667 7.17622081.688 8.61146497.229333333 10.1019108 0 11.6475584 0 14.1500354 0 16.5053079.602 18.7133758 1.806 20.9214437 3.01 22.6878981 4.65355556 24.0127389 6.73666667 25.3375796 8.81977778 26 11.0844444 26 13.5306667 26 14.9831111 25.7423921 16.4355556 25.2271762 17.888 23.6815287 18.232 22.393489 18.404 21.3630573 18.404 19.9646143 18.404 18.0325548 18.1555556 15.566879 17.6586667L15.4012739 15.48C15.3276716 13.7217778 15.1160651 12.3935556 14.7664544 11.4953333 14.4168436 10.5971111 13.6716207 10.1671111 12.5307856 10.2053333 12.4939844 10.2053333 12.447983 10.2148889 12.3927813 10.234 12.3375796 10.2531111 12.2547771 10.2626667 12.1443737 10.2626667L12.1995754 10.2626667C11.0587403 10.4537778 10.433121 10.8551111 10.3227176 11.4666667ZM52.9426049 37.5262431C52.9808683 37.9792818 53 38.6399632 53 39.5082873 53 40.301105 52.933039 40.857965 52.799117 41.1788674 52.665195 41.4997698 52.464312 41.6979742 52.196468 41.7734807 51.928624 41.8489871 51.4694628 41.8867403 50.8189845 41.8867403L50.4172185 41.8867403 49.4988962 41.8301105 48.0066225 41.8867403C45.6342899 41.9622468 42.1331862 42 37.5033113 42 33.1030169 42 29.6019132 41.9811234 27 41.9433702L27 40.640884C27.267844 34.4116022 27.401766 28.1445672 27.401766 21.839779 27.401766 19.9898711 27.3635026 16.7997238 27.2869757 12.269337L27.2869757 10.910221 27.2869757 8.81491713C27.2487123 8.17311234 27.2295806 7.02163904 27.2295806 5.36049724L27.1721854 1.67955801C27.7078734 1.4907919 28.4540103 1.3303407 29.410596 1.19820442 30.3671818 1.06606814 31.3237675 1 32.2803532 1 33.3517292 1 34.4231052 1.07550645 35.4944812 1.22651934 36.5658572 1.37753223 37.4267844 1.58517495 38.0772627 1.84944751 38.0007358 4.56767956 37.9624724 6.73848987 37.9624724 8.36187845 37.9624724 10.6270718 38.0007358 14.0248619 38.0772627 18.5552486 38.1155261 20.820442 38.1346578 24.1616022 38.1346578 28.5787293L38.1346578 32.2596685C39.397351 32.2596685 40.9470199 32.3162983 42.7836645 32.429558L45.8256071 32.5428177C47.4326711 32.6560773 48.9440765 32.7127072 50.3598234 32.7127072 51.3546726 32.7127072 52.2347314 32.674954 53 32.5994475 53 33.4677716 52.9808683 34.03407 52.9426049 34.2983425L52.9426049 34.2417127C52.866078 35.2610497 52.8469463 35.9972376 52.8852097 36.4502762L52.9426049 37.5262431ZM81 36.5564972C81 38.5254237 80.7909357 40.2820151 80.372807 41.8262712 78.7002924 41.8262712 76.2295322 41.8648776 72.9605263 41.9420904L65.4912281 42C62.1081871 42 58.7251462 41.8841808 55.3421053 41.6525424 55.380117 40.4171375 55.3230994 35.6106403 55.1710526 27.2330508 55.0570175 22.4844633 55 18.8361582 55 16.2881356 55 10.9990584 55.1330409 6.076742 55.3991228 1.52118644L60.4166667 1.34745763C66.0423977 1.11581921 70.3377193 1 73.3026316 1 75.8494152 1 78.3201754 1.09651601 80.7149123 1.28954802 80.8669591 2.10028249 80.9429825 3.04613936 80.9429825 4.12711864 80.9429825 4.70621469 80.9049708 5.65207156 80.8289474 6.96468927 80.752924 8.20009416 80.7149123 9.16525424 80.7149123 9.86016949 78.4342105 10.3620527 75.8874269 10.6129944 73.0745614 10.6129944L65.6622807 10.670904C65.4722222 12.4854049 65.377193 13.9910546 65.377193 15.1878531 65.377193 16.1144068 65.4912281 16.9251412 65.7192982 17.6200565L69.4824561 17.1567797C70.0146199 17.1567797 70.8128655 17.1953861 71.877193 17.2725989L72.6184211 17.3305085C72.8084795 18.4887006 72.9035088 19.7434087 72.9035088 21.0946328L72.7894737 25.7274011C71.5730994 26.0748588 69.9385965 26.2485876 67.8859649 26.2485876L66.4035088 26.190678C66.1374269 26.190678 65.9663743 26.2292844 65.8903509 26.3064972L65.6622807 29.3177966C65.6622807 30.9006591 65.7383041 32.2132768 65.8903509 33.2556497 67.8669591 33.2556497 69.7865497 33.3135593 71.6491228 33.4293785 72.2953216 33.4679849 73.0935673 33.5065913 74.0438596 33.5451977 74.994152 33.5838041 76.1154971 33.6031073 77.4078947 33.6031073L80.8859649 33.4872881C80.9619883 35.2631827 81 36.2862524 81 36.5564972ZM107 1.69393512C105.831884 8.05500705 104.513043 14.2425952 103.043478 20.2566996 101.573913 26.2708039 99.7275362 33.4414669 97.5043478 41.7686883 96.6753623 41.7686883 96.1101449 41.7879643 95.8086957 41.8265162L95.2434783 41.8843441C94.5652174 41.961448 93.8681159 42 93.1521739 42 90.7782609 42 88.9318841 41.7686883 87.6130435 41.3060649 84.3347826 29.4706159 82.1304348 16.4207804 81 2.15655853 81.3391304 1.77103902 82.0362319 1.48189939 83.0913043 1.28913963 84.1463768 1.09637988 85.3144928 1 86.5956522 1 87.8014493 1 89.157971 1.13493183 90.6652174 1.40479549L91.0043478 6.55148096C91.2304348 10.3681241 91.4753623 13.6739539 91.7391304 16.4689704 92.0028986 19.2639868 92.3797101 22.0300893 92.8695652 24.7672779 93.3217391 22.6469205 94.0188406 18.7917254 94.9608696 13.2016925 96.0913043 6.37799718 96.8449275 2.31076634 97.2217391 1 98.6913043 1.30841561 100.368116 1.46262341 102.252174 1.46262341 104.136232 1.46262341 105.473913 1.53972732 106.265217 1.69393512L107 1.69393512ZM133 36.5564972C133 38.5254237 132.790936 40.2820151 132.372807 41.8262712 130.700292 41.8262712 128.229532 41.8648776 124.960526 41.9420904L117.491228 42C114.108187 42 110.725146 41.8841808 107.342105 41.6525424 107.380117 40.4171375 107.323099 35.6106403 107.171053 27.2330508 107.057018 22.4844633 107 18.8361582 107 16.2881356 107 10.9990584 107.133041 6.076742 107.399123 1.52118644L112.416667 1.34745763C118.042398 1.11581921 122.337719 1 125.302632 1 127.849415 1 130.320175 1.09651601 132.714912 1.28954802 132.866959 2.10028249 132.942982 3.04613936 132.942982 4.12711864 132.942982 4.70621469 132.904971 5.65207156 132.828947 6.96468927 132.752924 8.20009416 132.714912 9.16525424 132.714912 9.86016949 130.434211 10.3620527 127.887427 10.6129944 125.074561 10.6129944L117.662281 10.670904C117.472222 12.4854049 117.377193 13.9910546 117.377193 15.1878531 117.377193 16.1144068 117.491228 16.9251412 117.719298 17.6200565L121.482456 17.1567797C122.01462 17.1567797 122.812865 17.1953861 123.877193 17.2725989L124.618421 17.3305085C124.80848 18.4887006 124.903509 19.7434087 124.903509 21.0946328L124.789474 25.7274011C123.573099 26.0748588 121.938596 26.2485876 119.885965 26.2485876L118.403509 26.190678C118.137427 26.190678 117.966374 26.2292844 117.890351 26.3064972L117.662281 29.3177966C117.662281 30.9006591 117.738304 32.2132768 117.890351 33.2556497 119.866959 33.2556497 121.78655 33.3135593 123.649123 33.4293785 124.295322 33.4679849 125.093567 33.5065913 126.04386 33.5451977 126.994152 33.5838041 128.115497 33.6031073 129.407895 33.6031073L132.885965 33.4872881C132.961988 35.2631827 133 36.2862524 133 36.5564972ZM158.098837 30.9230769C159.597545 33.2692308 160.805879 35.25 161.723837 36.8653846 162.641796 38.4807692 163.400517 40.1153846 164 41.7692308L163.100775 41.7692308C162.651163 41.7692308 161.639535 41.8076923 160.065891 41.8846154 158.492248 41.9615385 157.23708 42 156.300388 42 155.77584 42 154.989018 41.9615385 153.939922 41.8846154L152.984496 41.8269231C150.549096 36.1346154 148.375969 31.8653846 146.465116 29.0192308L146.465116 30.5192308C146.465116 32.9038462 146.596253 35.9807692 146.858527 39.75L146.858527 39.6923077C146.895995 39.9615385 146.914729 40.4230769 146.914729 41.0769231 145.640827 41.6923077 143.542636 42 140.620155 42L139.271318 41.9423077 136.292636 41.9423077C135.880491 41.9423077 135.674419 38.4615385 135.674419 31.5 135.674419 25.1923077 135.618217 18.875 135.505814 12.5480769 135.393411 6.22115385 135.224806 2.42307692 135 1.15384615L136.517442.923076923C138.765504.615384615 140.620155.384615385 142.081395.230769231 143.542636.0769230769 145.041344 0 146.577519 0 148.226098 0 149.631137.0769230769 150.792636.230769231 152.965762.5 154.998385 1.26923077 156.890504 2.53846154 158.782623 3.80769231 160.300065 5.36538462 161.442829 7.21153846 162.585594 9.05769231 163.156977 10.9615385 163.156977 12.9230769 163.156977 14.8076923 162.557494 16.8653846 161.358527 19.0961538 160.609173 20.4807692 159.616279 21.6346154 158.379845 22.5576923 157.143411 23.4807692 155.663437 24.0384615 153.939922 24.2307692 154.95155 26.0769231 156.131783 28 157.48062 30 157.742894 30.4615385 157.948966 30.7692308 158.098837 30.9230769ZM150.005814 16.2115385C150.530362 16.0576923 150.942506 15.6730769 151.242248 15.0576923 151.54199 14.4423077 151.69186 13.7115385 151.69186 12.8653846 151.69186 11.2884615 151.317183 10.2692308 150.567829 9.80769231 150.080749 9.5 149.584302 9.30769231 149.078488 9.23076923 148.572674 9.15384615 148.001292 9.11538462 147.364341 9.11538462L144.947674 9.51923077C145.02261 10.6730769 145.060078 11.6538462 145.060078 12.4615385 145.060078 14.5384615 145.116279 15.8076923 145.228682 16.2692308 145.865633 16.3461538 146.652455 16.3846154 147.589147 16.3846154 148.450904 16.3846154 149.25646 16.3269231 150.005814 16.2115385ZM186.322718 11.4666667C186.249115 11.6195556 186.157113 12.8235556 186.046709 15.0786667 185.936306 17.3337778 185.881104 19.6271111 185.881104 21.9586667 185.881104 24.3284444 185.936306 26.316 186.046709 27.9213333 186.157113 28.9533333 186.451522 29.9566667 186.929936 30.9313333 187.408351 31.906 187.978769 32.5653333 188.641189 32.9093333 189.929229 32.9857778 190.904459 32.3742222 191.566879 31.0746667L191.511677 31.0746667C191.842887 30.3484444 192.008493 29.2591111 192.008493 27.8066667 192.008493 26.66 192.082095 25.7617778 192.229299 25.112 193.149328 25.2648889 194.032555 25.3413333 194.878981 25.3413333L197.418259 25.284C198.7431 25.284 199.994338 25.4368889 201.171975 25.7426667 201.613588 27.0804444 201.834395 28.4755556 201.834395 29.928 201.834395 32.1066667 201.309979 34.1706667 200.261146 36.12 199.212314 38.0693333 197.76787 39.6555556 195.927813 40.8786667 194.087757 42.1017778 192.045294 42.7515556 189.800425 42.828 189.138004 42.9426667 188.36518 43 187.481953 43 184.611465 43 182.090587 42.3311111 179.919321 40.9933333 177.748054 39.6555556 176.533616 37.6488889 176.276008 34.9733333 176.092003 31.1511111 176 27.0422222 176 22.6466667 176 19.0155556 176.018401 16.0342222 176.055202 13.7026667L176.110403 11.1226667C176.073602 10.5493333 176.119604 9.89 176.248408 9.14466667 176.377212 8.39933333 176.552017 7.74 176.772824 7.16666667 177.104034 6.28755556 177.536447 5.40844444 178.070064 4.52933333 178.60368 3.65022222 179.164897 2.924 179.753715 2.35066667 180.526539 1.70088889 181.667374 1.14666667 183.176221.688 184.611465.229333333 186.101911 0 187.647558 0 190.150035 0 192.505308.602 194.713376 1.806 196.921444 3.01 198.687898 4.65355556 200.012739 6.73666667 201.33758 8.81977778 202 11.0844444 202 13.5306667 202 14.9831111 201.742392 16.4355556 201.227176 17.888 199.681529 18.232 198.393489 18.404 197.363057 18.404 195.964614 18.404 194.032555 18.1555556 191.566879 17.6586667L191.401274 15.48C191.327672 13.7217778 191.116065 12.3935556 190.766454 11.4953333 190.416844 10.5971111 189.671621 10.1671111 188.530786 10.2053333 188.493984 10.2053333 188.447983 10.2148889 188.392781 10.234 188.33758 10.2531111 188.254777 10.2626667 188.144374 10.2626667L188.199575 10.2626667C187.05874 10.4537778 186.433121 10.8551111 186.322718 11.4666667ZM229 41.6019417C227.796819 41.8673139 226.499638 42 225.10846 42 223.454085 42 221.649313 41.7914933 219.694143 41.3744799 219.430947 40.654184 219.017354 39.1377716 218.453362 36.8252427 217.889371 34.4748035 217.438178 32.9204808 217.099783 32.1622746L215.9718 32.1054092 215.013015 32.1622746C214.862617 32.6171983 214.618221 33.7355525 214.279826 35.517337 214.016631 36.9958391 213.753435 38.1994914 213.490239 39.128294 213.227043 40.0570966 212.851048 40.900601 212.362256 41.6588072 211.986262 41.7346278 211.42227 41.7725381 210.670282 41.7725381 210.331887 41.7725381 209.598698 41.7346278 208.470716 41.6588072 205.199566 41.507166 203.375994 41.4313454 203 41.4313454 203 41.2417938 203.037599 40.7963477 203.112798 40.0950069 203.187997 39.3936662 203.300795 38.6070273 203.451193 37.7350902L204.691974 30.5700416C205.669559 24.6939436 206.600145 19.5760518 207.483731 15.2163662 208.367317 10.8566805 209.5235 6.2505779 210.952278 1.39805825 211.47867 1.32223763 212.193059 1.28432732 213.095445 1.28432732L213.433839 1.28432732C215.877802 1.28432732 218.265365 1.18955155 220.596529 1 221.047722 2.78178456 221.461316 4.53513638 221.83731 6.26005548 222.213304 7.98497457 222.551699 9.52981969 222.852495 10.8945908 224.055676 16.1641239 224.864064 19.6708276 225.277657 21.4147018L229 41.6019417ZM217.212581 24.8834951C216.385394 17.3014332 215.9906 13.5104022 216.0282 13.5104022L215.9718 12.9417476C215.9718 12.9417476 215.934201 13.3966713 215.859002 14.3065187 215.746204 17.149792 215.577007 19.4054554 215.35141 21.073509L214.843818 24.8834951 217.212581 24.8834951ZM243.832215 36.6742967C241.389262 31.472973 239.780015 27.8735062 239.004474 25.8758963L239.004474 36.7308329C239.004474 39.0676595 239.023863 40.6695165 239.06264 41.5364038 238.01566 41.8379298 236.871738 41.9886928 235.630872 41.9886928 235.243102 41.9886928 234.661447 41.951002 233.885906 41.8756205 233.032811 41.800239 232.412379 41.7625483 232.024609 41.7625483L229.174497 41.649476 229.174497 37.4092664C229.174497 34.9970583 229.13572 31.5671999 229.058166 27.1196911 229.019389 24.8959368 229 21.5226145 229 16.9997242 229 10.9315131 229.174497 5.84326163 229.52349 1.73496966 230.57047 1.4711344 231.733781 1.33921677 233.013423 1.33921677 233.866518 1.33921677 234.903803 1.41459827 236.12528 1.56536128 237.346756 1.71612429 238.190157 1.9422688 238.655481 2.24379482 239.198359 3.22375437 239.867263 4.59004413 240.662192 6.34266409 241.457122 8.09528406 242.222968 9.83848134 242.959732 11.5722559L245.286353 16.7735797C245.208799 14.1352271 245.170022 11.02574 245.170022 7.44511859 245.170022 4.54293069 245.189411 2.54532083 245.228188 1.45228902 246.818046 1.15076301 248.504847 1 250.288591 1 251.800895 1 253.371365 1.16960838 255 1.50882515L255 41.5929399C254.883669 41.5929399 254.651007 41.649476 254.302013 41.7625483 253.914243 41.9133113 253.235645 41.9886928 252.266219 41.9886928 252.072334 42.0263835 251.044743 41.9698474 249.183445 41.8190844 248.718121 41.7813936 248.126771 41.7437029 247.409396 41.7060121 246.692021 41.6683214 246.275168 41.6683214 246.158837 41.7060121L243.832215 36.6742967ZM265.763948 42C264.871245 41.8846695 264.015737 41.8270042 263.197425 41.8270042 262.639485 41.8270042 261.876967 41.8654477 260.909871 41.9423347L258.566524 42C257.822604 42 256.967096 41.9423347 256 41.8270042 256.892704 39.0590717 258.60372 34.2920769 261.133047 27.5260197L263.420601 21.5288326C263.048641 19.9910924 262.583691 18.4821847 262.025751 17.0021097 261.467811 15.5220347 260.761087 13.7632443 259.905579 11.7257384 258.901288 9.15002344 258.148069 7.17018284 257.645923 5.7862166 257.143777 4.40225035 256.706724 2.94139709 256.334764 1.40365682 257.041488 1.44210033 258.13877 1.38443507 259.626609 1.23066104 260.816881 1.07688701 261.690987 1 262.248927 1 263.550787 1 264.629471 1.24988279 265.484979 1.74964838 265.819742 3.17205813 266.331187 4.94045945 267.019313 7.05485232 267.707439 9.16924519 268.367668 11.052977 269 12.7060478 269.18598 12.3216128 269.781116 10.5724332 270.785408 7.45850914 271.901288 3.99859353 272.533619 2.1148617 272.682403 1.80731364 274.728183 1.38443507 276.755365 1.17299578 278.763948 1.17299578 279.991416 1.17299578 281.0701 1.24988279 282 1.40365682 281.107296 4.86357243 280.010014 8.19854665 278.708155 11.4085795 277.406295 14.6186123 275.639485 18.6455696 273.407725 23.4894515 271.622318 27.2569151 270.134478 30.5534459 268.944206 33.3790436 267.753934 36.2046414 266.693848 39.0782935 265.763948 42ZM306.829694 11.9531034C306.943231 13.1218391 307 14.3094253 307 15.5158621L306.943231 16.5337931 306.943231 17.5517241C306.86754 18.7958621 306.829694 20.6243678 306.829694 23.0372414 306.829694 25.714023 306.772926 27.7498851 306.659389 29.1448276L306.489083 31.0110345C306.299854 34.0648276 305.524017 36.6662069 304.161572 38.8151724 303.593886 39.6068966 302.742358 40.3043678 301.606987 40.9075862 300.471616 41.5108046 299.222707 42.0009195 297.860262 42.377931 296.459971 42.7926437 294.813683 43 292.921397 43 292.050946 43 291.445415 42.9811494 291.104803 42.9434483 289.250364 42.7926437 287.594614 42.3873563 286.137555 41.7275862 284.680495 41.0678161 283.611354 40.0970115 282.930131 38.8151724 282.021834 37.1186207 281.52984 34.9885057 281.454148 32.4248276L281.340611 30.6151724C281.302766 30.3135632 281.283843 29.6914943 281.283843 28.7489655 281.094614 25.6574713 281 22.697931 281 19.8703448 281 18.136092 281.056769 16.4018391 281.170306 14.6675862 281.283843 12.7825287 281.614993 10.9445977 282.163755 9.1537931 282.712518 7.36298851 283.554585 5.78896552 284.689956 4.43172414L285.938865 3.75310345C288.36099 2.58436782 291.010189 2 293.886463 2 295.703057 2 297.415575 2.23563218 299.024017 2.70689655 300.63246 3.17816092 302.042213 3.8662069 303.253275 4.77103448 304.577875 5.97747126 305.448326 7.16505747 305.864629 8.3337931 306.318777 9.54022989 306.640466 10.7466667 306.829694 11.9531034ZM298.030568 18.1172414 297.803493 15.1765517C297.727802 14.1209195 297.472344 13.1878161 297.037118 12.3772414 296.601892 11.5666667 296.043668 10.9917241 295.362445 10.6524138 295.05968 10.5393103 294.756914 10.4827586 294.454148 10.4827586 293.545852 10.4827586 292.656477 10.7843678 291.786026 11.3875862 291.331878 11.7645977 290.887191 12.3018391 290.451965 12.9993103 290.016739 13.6967816 289.68559 14.4036782 289.458515 15.12 289.080058 16.7788506 288.89083 18.8901149 288.89083 21.4537931 288.89083 22.7356322 288.909753 23.6970115 288.947598 24.337931L288.947598 24.2813793C289.098981 25.0354023 289.212518 26.0344828 289.28821 27.2786207L289.344978 28.0703448C289.496361 29.9554023 289.704512 31.3503448 289.969432 32.2551724L289.969432 32.1986207C290.310044 32.9526437 290.811499 33.5275862 291.473799 33.9234483 292.136099 34.3193103 292.845706 34.5172414 293.60262 34.5172414 294.208151 34.5172414 294.823144 34.3758621 295.447598 34.0931034 296.072052 33.8103448 296.611354 33.4050575 297.065502 32.8772414 297.443959 32.3871264 297.680495 31.9724138 297.775109 31.6331034 297.869723 31.2937931 297.917031 30.765977 297.917031 30.0496552 297.917031 29.4087356 297.935953 28.9374713 297.973799 28.6358621L298.030568 27.9006897 298.087336 26.8262069 298.087336 26.0344828 298.144105 24.96 298.144105 22.2455172 298.030568 18.4 298.030568 18.1172414ZM324.832215 36.6742967C322.389262 31.472973 320.780015 27.8735062 320.004474 25.8758963L320.004474 36.7308329C320.004474 39.0676595 320.023863 40.6695165 320.06264 41.5364038 319.01566 41.8379298 317.871738 41.9886928 316.630872 41.9886928 316.243102 41.9886928 315.661447 41.951002 314.885906 41.8756205 314.032811 41.800239 313.412379 41.7625483 313.024609 41.7625483L310.174497 41.649476 310.174497 37.4092664C310.174497 34.9970583 310.13572 31.5671999 310.058166 27.1196911 310.019389 24.8959368 310 21.5226145 310 16.9997242 310 10.9315131 310.174497 5.84326163 310.52349 1.73496966 311.57047 1.4711344 312.733781 1.33921677 314.013423 1.33921677 314.866518 1.33921677 315.903803 1.41459827 317.12528 1.56536128 318.346756 1.71612429 319.190157 1.9422688 319.655481 2.24379482 320.198359 3.22375437 320.867263 4.59004413 321.662192 6.34266409 322.457122 8.09528406 323.222968 9.83848134 323.959732 11.5722559L326.286353 16.7735797C326.208799 14.1352271 326.170022 11.02574 326.170022 7.44511859 326.170022 4.54293069 326.189411 2.54532083 326.228188 1.45228902 327.818046 1.15076301 329.504847 1 331.288591 1 332.800895 1 334.371365 1.16960838 336 1.50882515L336 41.5929399C335.883669 41.5929399 335.651007 41.649476 335.302013 41.7625483 334.914243 41.9133113 334.235645 41.9886928 333.266219 41.9886928 333.072334 42.0263835 332.044743 41.9698474 330.183445 41.8190844 329.718121 41.7813936 329.126771 41.7437029 328.409396 41.7060121 327.692021 41.6683214 327.275168 41.6683214 327.158837 41.7060121L324.832215 36.6742967ZM374.942605 37.5262431C374.980868 37.9792818 375 38.6399632 375 39.5082873 375 40.301105 374.933039 40.857965 374.799117 41.1788674 374.665195 41.4997698 374.464312 41.6979742 374.196468 41.7734807 373.928624 41.8489871 373.469463 41.8867403 372.818985 41.8867403L372.417219 41.8867403 371.498896 41.8301105 370.006623 41.8867403C367.63429 41.9622468 364.133186 42 359.503311 42 355.103017 42 351.601913 41.9811234 349 41.9433702L349 40.640884C349.267844 34.4116022 349.401766 28.1445672 349.401766 21.839779 349.401766 19.9898711 349.363503 16.7997238 349.286976 12.269337L349.286976 10.910221 349.286976 8.81491713C349.248712 8.17311234 349.229581 7.02163904 349.229581 5.36049724L349.172185 1.67955801C349.707873 1.4907919 350.45401 1.3303407 351.410596 1.19820442 352.367182 1.06606814 353.323767 1 354.280353 1 355.351729 1 356.423105 1.07550645 357.494481 1.22651934 358.565857 1.37753223 359.426784 1.58517495 360.077263 1.84944751 360.000736 4.56767956 359.962472 6.73848987 359.962472 8.36187845 359.962472 10.6270718 360.000736 14.0248619 360.077263 18.5552486 360.115526 20.820442 360.134658 24.1616022 360.134658 28.5787293L360.134658 32.2596685C361.397351 32.2596685 362.94702 32.3162983 364.783664 32.429558L367.825607 32.5428177C369.432671 32.6560773 370.944077 32.7127072 372.359823 32.7127072 373.354673 32.7127072 374.234731 32.674954 375 32.5994475 375 33.4677716 374.980868 34.03407 374.942605 34.2983425L374.942605 34.2417127C374.866078 35.2610497 374.846946 35.9972376 374.88521 36.4502762L374.942605 37.5262431ZM401.942605 37.5262431C401.980868 37.9792818 402 38.6399632 402 39.5082873 402 40.301105 401.933039 40.857965 401.799117 41.1788674 401.665195 41.4997698 401.464312 41.6979742 401.196468 41.7734807 400.928624 41.8489871 400.469463 41.8867403 399.818985 41.8867403L399.417219 41.8867403 398.498896 41.8301105 397.006623 41.8867403C394.63429 41.9622468 391.133186 42 386.503311 42 382.103017 42 378.601913 41.9811234 376 41.9433702L376 40.640884C376.267844 34.4116022 376.401766 28.1445672 376.401766 21.839779 376.401766 19.9898711 376.363503 16.7997238 376.286976 12.269337L376.286976 10.910221 376.286976 8.81491713C376.248712 8.17311234 376.229581 7.02163904 376.229581 5.36049724L376.172185 1.67955801C376.707873 1.4907919 377.45401 1.3303407 378.410596 1.19820442 379.367182 1.06606814 380.323767 1 381.280353 1 382.351729 1 383.423105 1.07550645 384.494481 1.22651934 385.565857 1.37753223 386.426784 1.58517495 387.077263 1.84944751 387.000736 4.56767956 386.962472 6.73848987 386.962472 8.36187845 386.962472 10.6270718 387.000736 14.0248619 387.077263 18.5552486 387.115526 20.820442 387.134658 24.1616022 387.134658 28.5787293L387.134658 32.2596685C388.397351 32.2596685 389.94702 32.3162983 391.783664 32.429558L394.825607 32.5428177C396.432671 32.6560773 397.944077 32.7127072 399.359823 32.7127072 400.354673 32.7127072 401.234731 32.674954 402 32.5994475 402 33.4677716 401.980868 34.03407 401.942605 34.2983425L401.942605 34.2417127C401.866078 35.2610497 401.846946 35.9972376 401.88521 36.4502762L401.942605 37.5262431ZM412.322718 11.4666667C412.249115 11.6195556 412.157113 12.8235556 412.046709 15.0786667 411.936306 17.3337778 411.881104 19.6271111 411.881104 21.9586667 411.881104 24.3284444 411.936306 26.316 412.046709 27.9213333 412.157113 28.9533333 412.451522 29.9566667 412.929936 30.9313333 413.408351 31.906 413.978769 32.5653333 414.641189 32.9093333 415.929229 32.9857778 416.904459 32.3742222 417.566879 31.0746667L417.511677 31.0746667C417.842887 30.3484444 418.008493 29.2591111 418.008493 27.8066667 418.008493 26.66 418.082095 25.7617778 418.229299 25.112 419.149328 25.2648889 420.032555 25.3413333 420.878981 25.3413333L423.418259 25.284C424.7431 25.284 425.994338 25.4368889 427.171975 25.7426667 427.613588 27.0804444 427.834395 28.4755556 427.834395 29.928 427.834395 32.1066667 427.309979 34.1706667 426.261146 36.12 425.212314 38.0693333 423.76787 39.6555556 421.927813 40.8786667 420.087757 42.1017778 418.045294 42.7515556 415.800425 42.828 415.138004 42.9426667 414.36518 43 413.481953 43 410.611465 43 408.090587 42.3311111 405.919321 40.9933333 403.748054 39.6555556 402.533616 37.6488889 402.276008 34.9733333 402.092003 31.1511111 402 27.0422222 402 22.6466667 402 19.0155556 402.018401 16.0342222 402.055202 13.7026667L402.110403 11.1226667C402.073602 10.5493333 402.119604 9.89 402.248408 9.14466667 402.377212 8.39933333 402.552017 7.74 402.772824 7.16666667 403.104034 6.28755556 403.536447 5.40844444 404.070064 4.52933333 404.60368 3.65022222 405.164897 2.924 405.753715 2.35066667 406.526539 1.70088889 407.667374 1.14666667 409.176221.688 410.611465.229333333 412.101911 0 413.647558 0 416.150035 0 418.505308.602 420.713376 1.806 422.921444 3.01 424.687898 4.65355556 426.012739 6.73666667 427.33758 8.81977778 428 11.0844444 428 13.5306667 428 14.9831111 427.742392 16.4355556 427.227176 17.888 425.681529 18.232 424.393489 18.404 423.363057 18.404 421.964614 18.404 420.032555 18.1555556 417.566879 17.6586667L417.401274 15.48C417.327672 13.7217778 417.116065 12.3935556 416.766454 11.4953333 416.416844 10.5971111 415.671621 10.1671111 414.530786 10.2053333 414.493984 10.2053333 414.447983 10.2148889 414.392781 10.234 414.33758 10.2531111 414.254777 10.2626667 414.144374 10.2626667L414.199575 10.2626667C413.05874 10.4537778 412.433121 10.8551111 412.322718 11.4666667Z" transform="translate(0 224)"/><g transform="translate(88)"><path fill="#ED5F3B" d="M6.44033603,87.4771939 C-19.9105385,174.234967 38.4824611,236.971938 111.020561,202.266213 L209.544218,202.266213 C217.423873,202.266213 224.603484,199.03972 229.807062,193.851171 L229.845517,193.813674 C234.337689,189.328849 237.364225,183.377278 238.102724,176.770816 C258.997444,158.712921 256.850116,126.351199 238.281013,100.7904 L238.281013,60.165369 C238.281013,52.300575 235.049096,45.1377611 229.845517,39.9448519 L229.807062,39.9073548 C224.603484,34.7161897 217.423873,31.491441 209.544218,31.491441 L175.858167,31.491441 L175.858167,25.8381025 C175.858167,18.7276102 172.946121,12.2589283 168.255559,7.58312992 C163.57024,2.9055875 157.087179,0 149.96088,0 L115.541574,0 C108.410032,0 101.934836,2.9055875 97.2468953,7.58312992 C92.5589549,12.2589283 89.6469084,18.7276102 89.6469084,25.8381025 L89.6469084,31.491441 L55.9626058,31.491441 C48.0768328,31.491441 40.9033401,34.7161897 35.6988873,39.9073548 L35.6613068,39.9448519 C30.4586019,45.1377611 27.2275587,52.300575 27.2275587,60.165369 L27.2275587,101.990307 C19.983275,98.1813015 13.05624,92.8532284 6.44033603,87.4771939 Z M109.877416,31.491441 L155.625038,31.491441 L155.625038,25.8381025 C155.625038,24.2920021 154.98617,22.8775774 153.957515,21.8512039 C152.929734,20.8283186 151.509543,20.1856361 149.96088,20.1856361 L115.541574,20.1856361 C113.994658,20.1856361 112.575342,20.8283186 111.549309,21.8512039 C110.520653,22.8775774 109.877416,24.2920021 109.877416,25.8381025 L109.877416,31.491441 Z"/><path fill="#000" d="M142 181C160.65167 165.933226 178.588817 149.934935 199.174927 145.033172 206.370699 144.681246 212.679416 147.163844 218 150.848205L218 172.543351C218 174.866062 217.058921 176.978486 215.545351 178.51045L215.507011 178.548684C213.969915 180.060662 211.851615 181 209.521572 181L142 181ZM217 81.115139C186.42733 59.0143163 137.96029 52.9713206 80.6174824 92.1607419 74.1908029 96.5513559 68.3868467 100.515323 63.9476564 103.104929 58.1341199 106.486628 52.4878043 107.944921 47 108L47 60.5093282C47 58.1715142 47.9406171 56.0461493 49.4560559 54.505675L49.4943773 54.4654583C51.0307186 52.9442181 53.1462363 52 55.4751346 52L208.525736 52C210.854635 52 212.971894 52.9442181 214.508236 54.4654583L214.546557 54.505675C216.059383 56.0461493 217 58.1715142 217 60.5093282L217 81.115139Z"/><path fill="#FFF" d="M147.146909,107.083541 C131.47077,117.271855 119.74685,127.369905 100.437588,136.477693 C100.437588,136.477693 115.472019,108.707397 119.266008,92 C97.6211046,114.379937 53.6175068,144.74332 23.1126355,126.667082 C21.742193,154.70028 32.8015494,175.616731 60.4521381,185.927732 C94.5620027,198.644283 132.784953,169.591027 154,140.840107 C143.826728,144.352473 135.828232,148.993562 123.759723,148.909434 C133.697409,138.380225 143.329185,123.554327 147.146909,107.083541 L147.146909,107.083541 Z"/></g></g></svg>