<svg xmlns="http://www.w3.org/2000/svg" width="428" height="267" viewBox="0 0 428 267"><g fill="none" fill-rule="evenodd"><path fill="#000" fill-rule="nonzero" d="M14.225806,226.53617 C14.1315043,226.729986 14.0136273,228.256284 13.8721748,231.115064 C13.7307223,233.973844 13.6599961,236.881078 13.6599961,239.836766 C13.6599961,242.840908 13.7307223,245.360511 13.8721748,247.395574 C14.0136273,248.70383 14.3908338,249.975745 15.0037946,251.211319 C15.6167553,252.446894 16.347593,253.282723 17.1963078,253.718809 C18.8465867,253.815716 20.0960835,253.040454 20.9447983,251.393021 L20.8740721,251.393021 C21.2984295,250.472397 21.5106082,249.091461 21.5106082,247.250213 C21.5106082,245.796596 21.6049098,244.657929 21.7935131,243.834213 C22.9722837,244.028028 24.1039035,244.124936 25.1883724,244.124936 L28.4417792,244.052255 C30.1392089,244.052255 31.7423369,244.246071 33.2511632,244.633702 C33.8169731,246.329589 34.099878,248.098156 34.099878,249.939404 C34.099878,252.701277 33.4279788,255.317787 32.0841803,257.788936 C30.7403819,260.260085 28.889712,262.270922 26.5321709,263.821447 C24.1746297,265.371972 21.557759,266.195688 18.6815588,266.292596 C17.832844,266.437957 16.8426767,266.510638 15.7110569,266.510638 C12.0332927,266.510638 8.80346127,265.662695 6.02156269,263.966809 C3.23966411,262.270922 1.68368694,259.727092 1.35363118,256.335319 C1.11787706,251.489929 1,246.281135 1,240.708936 C1,236.105816 1.02357541,232.326411 1.07072624,229.370723 L1.14145247,226.100085 C1.09430165,225.373277 1.15324018,224.537447 1.31826806,223.592596 C1.48329594,222.647745 1.70726235,221.811915 1.99016729,221.085106 C2.4145247,219.970667 2.96854688,218.856227 3.65223382,217.741787 C4.33592076,216.627348 5.05497081,215.706723 5.80938399,214.979915 C6.79955128,214.156199 8.2612268,213.453617 10.1944106,212.87217 C12.0332927,212.290723 13.942901,212 15.9232356,212 C19.1294916,212 22.1471443,212.763149 24.9761937,214.289447 C27.8052431,215.815745 30.0684826,217.899262 31.7659123,220.54 C33.4633419,223.180738 34.3120567,226.051631 34.3120567,229.152681 C34.3120567,230.993929 33.982001,232.835177 33.3218894,234.676426 C31.3415549,235.112511 29.691276,235.330553 28.371053,235.330553 C26.5793217,235.330553 24.1039035,235.015603 20.9447983,234.385702 L20.7326196,231.62383 C20.6383179,229.39495 20.3672007,227.711177 19.9192679,226.572511 C19.4713351,225.433844 18.5165309,224.888738 17.0548554,224.937191 C17.0077045,224.937191 16.948766,224.949305 16.8780398,224.973532 C16.8073135,224.997759 16.7012242,225.009872 16.5597717,225.009872 L16.630498,225.009872 C15.1688224,225.252142 14.3672584,225.760908 14.225806,226.53617 Z M68.5600332,259.773494 C68.6090576,260.353513 68.6335697,261.199374 68.6335697,262.311077 C68.6335697,263.326111 68.5477771,264.039051 68.3761918,264.449897 C68.2046065,264.860744 67.9472286,265.114503 67.6040581,265.211172 C67.2608875,265.307842 66.6725951,265.356177 65.8391809,265.356177 L65.324425,265.356177 L64.1478402,265.283675 L62.23589,265.356177 C59.1963793,265.452847 54.7106498,265.501182 48.7787015,265.501182 C43.1408994,265.501182 38.6551699,265.477015 35.321513,265.42868 L35.321513,263.761125 C35.6646836,255.785863 35.8362688,247.762265 35.8362688,239.690333 C35.8362688,237.321922 35.7872445,233.237621 35.6891957,227.437431 L35.6891957,225.697373 L35.6891957,223.014785 C35.6401714,222.193092 35.6156592,220.718876 35.6156592,218.59214 L35.5421226,213.879485 C36.2284638,213.63781 37.1844389,213.432387 38.4100481,213.263215 C39.6356572,213.094042 40.8612664,213.009456 42.0868755,213.009456 C43.4595578,213.009456 44.83224,213.106126 46.2049223,213.299466 C47.5776045,213.492805 48.6806528,213.758648 49.514067,214.096992 C49.4160182,217.577106 49.3669939,220.356364 49.3669939,222.434766 C49.3669939,225.334861 49.4160182,229.685005 49.514067,235.485195 C49.5630913,238.385291 49.5876035,242.662931 49.5876035,248.318117 L49.5876035,253.030772 C51.2054076,253.030772 53.1908944,253.103274 55.544064,253.248279 L59.4415011,253.393284 C61.5005245,253.538289 63.4369869,253.610791 65.2508885,253.610791 C66.525522,253.610791 67.6530824,253.562456 68.6335697,253.465786 C68.6335697,254.57749 68.6090576,255.302513 68.5600332,255.640858 L68.5600332,255.568355 C68.4619845,256.873398 68.4374723,257.815929 68.4864966,258.395948 L68.5600332,259.773494 Z M94.1024169,213.009456 C97.36544,213.009456 100.531059,213.133024 103.599275,213.380161 C103.794083,214.418133 103.891486,215.6291 103.891486,217.013062 C103.891486,217.754471 103.842784,218.965438 103.745381,220.645964 C103.647977,222.227636 103.599275,223.463317 103.599275,224.353007 C100.677165,224.995561 97.4141419,225.316838 93.8102059,225.316838 L84.3133476,225.390979 C84.0698385,227.714059 83.9480839,229.641722 83.9480839,231.173966 C83.9480839,232.36022 84.0941894,233.398192 84.3864004,234.287882 L89.2078823,233.694755 C89.889708,233.694755 90.9124466,233.744182 92.276098,233.843037 L93.2257839,233.917178 C93.4692931,235.399995 93.5910477,237.00638 93.5910477,238.736333 L93.4449421,244.667602 C91.8864833,245.112447 89.7923043,245.334869 87.1624051,245.334869 L85.2630335,245.260728 C84.9221206,245.260728 84.7029623,245.310156 84.6055587,245.40901 L84.3133476,249.264335 C84.3133476,251.290851 84.4107513,252.971377 84.6055587,254.305913 C87.1380542,254.305913 89.597497,254.380054 91.983887,254.528335 C92.8118183,254.577763 93.8345568,254.62719 95.0521028,254.676617 C96.2696487,254.726044 97.7063529,254.750758 99.3622154,254.750758 L103.818433,254.602476 C103.915837,256.876129 103.964539,258.185951 103.964539,258.531942 C103.964539,261.052731 103.696679,263.30167 103.160959,265.278759 C101.018078,265.278759 97.8524584,265.328187 93.6641004,265.427041 L84.0941894,265.501182 C79.7597259,265.501182 75.4252623,265.3529 71.0907988,265.056337 C71.0991957,264.783635 71.1039732,264.375023 71.1051314,263.8305 L71.1051965,263.303734 C71.1006362,260.486426 71.0227842,254.916936 70.8716405,246.595264 C70.725535,240.515714 70.6524823,235.84484 70.6524823,232.582642 C70.6524823,225.811111 70.8229387,219.509138 71.1638516,213.676724 L77.5924941,213.454301 C84.800366,213.157738 90.3036736,213.009456 94.1024169,213.009456 Z M124.748366,213.009456 C126.631221,213.404316 128.779607,213.601747 131.193525,213.601747 C133.607442,213.601747 135.321323,213.700462 136.335168,213.897892 L137.276596,213.897892 C135.779967,222.041883 134.090225,229.963765 132.20737,237.663539 C130.324514,245.363313 127.958876,254.543812 125.110453,265.205037 C124.04833,265.205037 123.324155,265.229716 122.937928,265.279073 L122.213753,265.353109 C121.344743,265.451825 120.451593,265.501182 119.534305,265.501182 C116.492769,265.501182 114.12713,265.205037 112.437388,264.612747 C108.237172,249.459987 105.412889,232.752465 103.964539,214.490182 C104.399044,213.996607 105.292193,213.626425 106.643987,213.379638 C107.995781,213.13285 109.492409,213.009456 111.133873,213.009456 C112.67878,213.009456 114.4168,213.182208 116.347934,213.52771 L116.782439,220.11694 C117.072109,225.003334 117.385918,229.235742 117.723867,232.814162 C118.061815,236.392583 118.544599,239.933985 119.172217,243.438369 C119.751557,240.723705 120.644707,235.787953 121.851665,228.631112 C123.300015,219.894831 124.265582,214.687612 124.748366,213.009456 Z M170.588652,258.531942 C170.588652,261.052731 170.320792,263.30167 169.785072,265.278759 C167.642191,265.278759 164.476572,265.328187 160.288214,265.427041 L150.718303,265.501182 C146.383839,265.501182 142.049376,265.3529 137.714912,265.056337 C137.763614,263.474665 137.690561,257.320974 137.495754,246.595264 C137.349649,240.515714 137.276596,235.84484 137.276596,232.582642 C137.276596,225.811111 137.447052,219.509138 137.787965,213.676724 L144.216608,213.454301 C151.424479,213.157738 156.927787,213.009456 160.72653,213.009456 C163.989554,213.009456 167.155173,213.133024 170.223389,213.380161 C170.418196,214.418133 170.5156,215.6291 170.5156,217.013062 C170.5156,217.754471 170.466898,218.965438 170.369494,220.645964 C170.272091,222.227636 170.223389,223.463317 170.223389,224.353007 C167.301278,224.995561 164.038255,225.316838 160.434319,225.316838 L150.937461,225.390979 C150.693952,227.714059 150.572197,229.641722 150.572197,231.173966 C150.572197,232.36022 150.718303,233.398192 151.010514,234.287882 L155.831996,233.694755 C156.513821,233.694755 157.53656,233.744182 158.900212,233.843037 L159.849897,233.917178 C160.093407,235.399995 160.215161,237.00638 160.215161,238.736333 L160.069056,244.667602 C158.510597,245.112447 156.416418,245.334869 153.786519,245.334869 L151.887147,245.260728 C151.546234,245.260728 151.327076,245.310156 151.229672,245.40901 L150.937461,249.264335 C150.937461,251.290851 151.034865,252.971377 151.229672,254.305913 C153.762168,254.305913 156.22161,254.380054 158.608,254.528335 C159.435932,254.577763 160.45867,254.62719 161.676216,254.676617 C162.893762,254.726044 164.330466,254.750758 165.986329,254.750758 L170.442547,254.602476 C170.539951,256.876129 170.588652,258.185951 170.588652,258.531942 Z M201.553137,251.39098 C203.431195,254.379599 204.945379,256.902778 206.09569,258.960516 C207.246,261.018253 208.196767,263.100488 208.947991,265.207219 L207.821156,265.207219 C207.257738,265.207219 205.990049,265.256213 204.018088,265.354201 C202.046127,265.452188 200.473253,265.501182 199.299467,265.501182 C198.642146,265.501182 197.656166,265.452188 196.341525,265.354201 L195.144263,265.28071 C192.092418,258.029634 189.369234,252.591327 186.97471,248.965789 L186.97471,250.876546 C186.97471,253.914159 187.13904,257.833659 187.4677,262.635047 L187.4677,262.561557 C187.514652,262.904513 187.538127,263.492438 187.538127,264.325332 C185.941778,265.109232 183.312497,265.501182 179.650283,265.501182 L177.960031,265.427691 L174.22739,265.427691 C173.710924,265.427691 173.452691,260.993756 173.452691,252.125887 C173.452691,244.09091 173.382264,236.043686 173.24141,227.984213 C173.100555,219.92474 172.889274,215.086607 172.607565,213.469813 L174.509099,213.17585 C177.326186,212.7839 179.650283,212.489938 181.48139,212.293963 C183.312497,212.097988 185.190555,212 187.115564,212 C189.181428,212 190.942108,212.097988 192.397603,212.293963 C195.120787,212.636919 197.667904,213.616794 200.038952,215.233588 C202.410001,216.850382 204.311534,218.834629 205.743554,221.186329 C207.175573,223.53803 207.891583,225.963221 207.891583,228.461902 C207.891583,230.862596 207.14036,233.483762 205.637913,236.3254 C204.698884,238.089175 203.45467,239.558988 201.905272,240.734838 C200.355874,241.910688 198.501292,242.621098 196.341525,242.866067 C197.609214,245.217767 199.088185,247.667455 200.778438,250.21513 C201.107098,250.803055 201.365331,251.195005 201.553137,251.39098 Z M191.411622,232.650868 C192.068943,232.454893 192.585409,231.964956 192.96102,231.181056 C193.336632,230.397156 193.524438,229.466274 193.524438,228.388412 C193.524438,226.379668 193.054923,225.081333 192.115894,224.493408 C191.505525,224.101458 190.883419,223.856489 190.249574,223.758502 C189.615729,223.660514 188.89972,223.61152 188.101545,223.61152 L185.073176,224.125955 C185.167079,225.595767 185.21403,226.845108 185.21403,227.873977 C185.21403,230.51964 185.284458,232.136434 185.425312,232.724359 C186.223487,232.822346 187.209467,232.87134 188.383254,232.87134 C189.463137,232.87134 190.472593,232.79785 191.411622,232.650868 Z M238.325097,226.53617 C238.230795,226.729986 238.112918,228.256284 237.971466,231.115064 C237.830013,233.973844 237.759287,236.881078 237.759287,239.836766 C237.759287,242.840908 237.830013,245.360511 237.971466,247.395574 C238.112918,248.70383 238.490125,249.975745 239.103085,251.211319 C239.716046,252.446894 240.446884,253.282723 241.295599,253.718809 C242.945877,253.815716 244.195374,253.040454 245.044089,251.393021 L244.973363,251.393021 C245.39772,250.472397 245.609899,249.091461 245.609899,247.250213 C245.609899,245.796596 245.704201,244.657929 245.892804,243.834213 C247.071574,244.028028 248.203194,244.124936 249.287663,244.124936 L252.54107,244.052255 C254.2385,244.052255 255.841628,244.246071 257.350454,244.633702 C257.916264,246.329589 258.199169,248.098156 258.199169,249.939404 C258.199169,252.701277 257.52727,255.317787 256.183471,257.788936 C254.839673,260.260085 252.989003,262.270922 250.631462,263.821447 C248.27392,265.371972 245.65705,266.195688 242.78085,266.292596 C241.932135,266.437957 240.941967,266.510638 239.810348,266.510638 C236.132583,266.510638 232.902752,265.662695 230.120853,263.966809 C227.338955,262.270922 225.782978,259.727092 225.452922,256.335319 C225.217168,251.489929 225.099291,246.281135 225.099291,240.708936 C225.099291,236.105816 225.122866,232.326411 225.170017,229.370723 L225.240743,226.100085 C225.193592,225.373277 225.252531,224.537447 225.417559,223.592596 C225.582587,222.647745 225.806553,221.811915 226.089458,221.085106 C226.513815,219.970667 227.067838,218.856227 227.751525,217.741787 C228.435212,216.627348 229.154262,215.706723 229.908675,214.979915 C230.898842,214.156199 232.360518,213.453617 234.293701,212.87217 C236.132583,212.290723 238.042192,212 240.022526,212 C243.228782,212 246.246435,212.763149 249.075484,214.289447 C251.904534,215.815745 254.167773,217.899262 255.865203,220.54 C257.562633,223.180738 258.411348,226.051631 258.411348,229.152681 C258.411348,230.993929 258.081292,232.835177 257.42118,234.676426 C255.440846,235.112511 253.790567,235.330553 252.470344,235.330553 C250.678612,235.330553 248.203194,235.015603 245.044089,234.385702 L244.83191,231.62383 C244.737609,229.39495 244.466491,227.711177 244.018559,226.572511 C243.570626,225.433844 242.615822,224.888738 241.154146,224.937191 C241.106995,224.937191 241.048057,224.949305 240.977331,224.973532 C240.906604,224.997759 240.800515,225.009872 240.659063,225.009872 L240.729789,225.009872 C239.268113,225.252142 238.466549,225.760908 238.325097,226.53617 Z M318.999048,213.009456 C320.936662,213.009456 322.9488,213.226604 325.035461,213.660898 L325.035461,264.980029 C324.886414,264.980029 324.588319,265.052411 324.141178,265.197176 C323.644353,265.390196 322.774911,265.486706 321.532851,265.486706 C321.284439,265.53496 319.967855,265.462578 317.583099,265.269558 C316.98691,265.221303 316.229254,265.173048 315.310129,265.124793 C314.391004,265.076539 313.856918,265.076539 313.707871,265.124793 L310.726927,258.682759 C307.596935,252.023577 305.535115,247.41523 304.541466,244.857718 L304.541466,258.755141 C304.541466,261.746948 304.566308,263.797783 304.61599,264.907646 C303.274565,265.293686 301.808934,265.486706 300.219097,265.486706 C299.722272,265.486706 298.977036,265.438451 297.983388,265.341941 C296.890375,265.245431 296.095456,265.197176 295.598632,265.197176 L292.358,265.068 L292.214548,265.098513 C290.820487,265.366959 289.331268,265.501182 287.746891,265.501182 C285.627252,265.501182 283.314918,265.234234 280.80989,264.700337 C280.472675,263.778153 279.942765,261.836711 279.220161,258.876013 C278.497556,255.866778 277.919473,253.876801 277.48591,252.90608 L276.040702,252.833276 L274.812275,252.90608 C274.61958,253.488512 274.306452,254.920326 273.872889,257.201519 C273.535674,259.094425 273.198458,260.635444 272.861243,261.824577 C272.524028,263.01371 272.042292,264.093637 271.416035,265.064358 C270.934298,265.16143 270.211694,265.209966 269.248222,265.209966 C268.814659,265.209966 267.875274,265.16143 266.430065,265.064358 C262.23896,264.870214 259.90254,264.773141 259.420804,264.773141 C259.420804,264.530461 259.468977,263.960163 259.565325,263.062246 C259.661672,262.164329 259.806193,261.157207 259.998887,260.040878 L261.588617,250.867566 C262.841131,243.34448 264.033428,236.792115 265.165508,231.210471 C266.297588,225.628826 267.778926,219.731698 269.609524,213.519085 C270.283955,213.422013 271.199253,213.373477 272.35542,213.373477 L272.788983,213.373477 C275.920268,213.373477 278.979293,213.252136 281.966057,213.009456 C282.54414,215.29065 283.07405,217.535442 283.555786,219.743832 C284.037522,221.952221 284.471085,223.930065 284.856474,225.677362 C286.39803,232.423872 287.433763,236.913455 287.963672,239.146113 L291.946,260.731 L291.946157,258.915991 C291.939342,255.877717 291.889932,251.72243 291.797928,246.450131 C291.751672,243.799437 291.726949,239.872971 291.723759,234.670732 L291.723404,233.493679 C291.723404,225.724633 291.946975,219.210216 292.394117,213.950428 C293.735542,213.612643 295.226014,213.443751 296.865534,213.443751 C297.958547,213.443751 299.287551,213.540261 300.852547,213.73328 C302.417543,213.9263 303.498136,214.21583 304.094325,214.601869 C304.789878,215.856498 305.6469,217.605739 306.665389,219.849594 C307.683879,222.093449 308.665106,224.32524 309.609072,226.544967 L312.590017,233.204149 C312.490652,229.826304 312.44097,225.845271 312.44097,221.261051 C312.44097,217.545421 312.465811,214.987909 312.515493,213.588516 C314.552472,213.202476 316.713657,213.009456 318.999048,213.009456 Z M276.040702,228.298308 C276.040702,228.298308 275.992528,228.880741 275.896181,230.045606 C275.75166,233.685809 275.534879,236.573703 275.245837,238.709289 L274.595493,243.587161 L277.630431,243.587161 C276.570612,233.879953 276.064789,229.026349 276.112962,229.026349 L276.040702,228.298308 Z M373.848622,214.018913 C376.176102,214.018913 378.370237,214.320589 380.431027,214.923942 C382.491816,215.527295 384.298038,216.408191 385.849691,217.566629 C387.546812,219.111213 388.662062,220.631663 389.195443,222.127979 C389.777313,223.672563 390.189471,225.217147 390.431917,226.761731 C390.577384,228.258047 390.650118,229.778497 390.650118,231.323081 L390.577384,232.626324 L390.577384,233.929567 C390.480406,235.522419 390.431917,237.86343 390.431917,240.952598 C390.431917,244.379644 390.359183,246.98613 390.213716,248.772055 L389.995514,251.161334 C389.753069,255.071062 388.759041,258.401572 387.013431,261.152862 C386.286093,262.166495 385.195087,263.059458 383.740412,263.83175 C382.285737,264.604042 380.685595,265.23153 378.939985,265.714212 C377.145886,266.245163 375.036607,266.510638 372.612149,266.510638 C371.496898,266.510638 370.721071,266.486504 370.284669,266.438236 C367.9087,266.245163 365.787299,265.726279 363.920466,264.881585 C362.053633,264.03689 360.683814,262.793983 359.811009,261.152862 C358.647269,258.980791 358.01691,256.253634 357.919931,252.971393 L357.774464,250.654517 C357.725975,250.268371 357.70173,249.471945 357.70173,248.265238 C357.459284,244.307242 357.338061,240.518184 357.338061,236.898065 C357.338061,234.677725 357.410795,232.457385 357.556263,230.237046 C357.70173,227.823633 358.12601,225.470556 358.829103,223.177814 C359.532196,220.885072 360.61108,218.869872 362.065755,217.132215 L363.665898,216.263386 C366.769204,214.76707 370.163446,214.018913 373.848622,214.018913 Z M334.051248,213.009456 C335.719234,213.009456 337.101279,213.329378 338.197384,213.969221 C338.626295,215.790312 339.281575,218.054371 340.163225,220.761399 C341.044874,223.468426 341.890781,225.880142 342.700946,227.996545 C342.939229,227.504359 343.701737,225.264908 344.988469,221.278195 C346.418171,216.848514 347.228335,214.436798 347.418962,214.043049 C350.040083,213.501643 352.637375,213.23094 355.210838,213.23094 C356.78351,213.23094 358.165556,213.329378 359.356974,213.526252 C358.213212,217.955934 356.807339,222.225655 355.139353,226.335415 C353.471367,230.445175 351.207673,235.600832 348.348269,241.802386 C346.060745,246.625817 344.154476,250.846319 342.629461,254.463892 C341.104445,258.081466 339.746228,261.760562 338.55481,265.501182 C337.411048,265.353526 336.314943,265.279698 335.266495,265.279698 C334.551644,265.279698 333.574681,265.328917 332.335606,265.427354 L329.333232,265.501182 C328.380097,265.501182 327.283992,265.427354 326.044917,265.279698 C327.188679,261.735953 329.380889,255.632836 332.621546,246.970348 L335.552436,239.292233 C335.075868,237.323486 334.480159,235.391653 333.765308,233.496733 C333.050457,231.601814 332.144979,229.350059 331.048874,226.741469 C329.762142,223.443817 328.797094,220.909055 328.153728,219.137182 C327.510362,217.36531 326.950395,215.495 326.473828,213.526252 C327.379306,213.575471 328.785179,213.501643 330.691449,213.304768 C332.216464,213.107894 333.336397,213.009456 334.051248,213.009456 Z M374.57596,224.87927 C373.41222,224.87927 372.272724,225.265416 371.157474,226.037708 C370.575604,226.52039 370.005856,227.208213 369.448231,228.101176 C368.890605,228.994138 368.466325,229.899168 368.17539,230.816265 C367.690498,232.940068 367.448052,235.64309 367.448052,238.925331 C367.448052,240.566452 367.472297,241.797292 367.520786,242.617853 L367.520786,242.54545 C367.714743,243.510815 367.86021,244.789924 367.957189,246.382777 L368.029922,247.39641 C368.223879,249.809823 368.49057,251.595748 368.829994,252.754186 L368.829994,252.681784 C369.266396,253.647149 369.908878,254.38324 370.757438,254.890056 C371.605998,255.396873 372.51517,255.650281 373.484954,255.650281 C374.26078,255.650281 375.048729,255.469275 375.8488,255.107263 C376.648872,254.745251 377.339842,254.226368 377.921712,253.550612 C378.406604,252.923125 378.709661,252.392174 378.830884,251.95776 C378.952107,251.523346 379.012718,250.84759 379.012718,249.930493 C379.012718,249.109933 379.036963,248.50658 379.085452,248.120434 L379.158186,247.179203 L379.23092,245.803558 L379.23092,244.789924 L379.303653,243.414279 L379.303653,239.938965 L379.158186,235.015603 L379.158186,234.653591 L378.867251,230.888667 C378.770273,229.537156 378.442971,228.342517 377.885345,227.304749 C377.32772,226.266982 376.612505,225.530891 375.7397,225.096477 C375.351786,224.951672 374.963873,224.87927 374.57596,224.87927 Z M413.691466,258.682759 C410.561474,252.023577 408.499654,247.41523 407.506005,244.857718 L407.506005,258.755141 C407.506005,261.746948 407.530847,263.797783 407.580529,264.907646 C406.239104,265.293686 404.773473,265.486706 403.183636,265.486706 C402.686811,265.486706 401.941575,265.438451 400.947927,265.341941 C399.854914,265.245431 399.059995,265.197176 398.563171,265.197176 L394.911514,265.052411 L394.911514,259.62373 C394.911514,256.535414 394.861832,252.144214 394.762467,246.450131 C394.712784,243.603089 394.687943,239.284272 394.687943,233.493679 C394.687943,225.724633 394.911514,219.210216 395.358656,213.950428 C396.700081,213.612643 398.190553,213.443751 399.830073,213.443751 C400.923086,213.443751 402.25209,213.540261 403.817086,213.73328 C405.382082,213.9263 406.462675,214.21583 407.058864,214.601869 C407.754417,215.856498 408.611439,217.605739 409.629928,219.849594 C410.648418,222.093449 411.629645,224.32524 412.573611,226.544967 L415.554556,233.204149 C415.455191,229.826304 415.405509,225.845271 415.405509,221.261051 C415.405509,217.545421 415.43035,214.987909 415.480032,213.588516 C417.517011,213.202476 419.678196,213.009456 421.963587,213.009456 C423.901201,213.009456 425.913339,213.226604 428,213.660898 L428,264.980029 C427.850953,264.980029 427.552858,265.052411 427.105717,265.197176 C426.608892,265.390196 425.73945,265.486706 424.49739,265.486706 C424.248978,265.53496 422.932394,265.462578 420.547638,265.269558 C419.951449,265.221303 419.193793,265.173048 418.274668,265.124793 C417.355543,265.076539 416.821457,265.076539 416.67241,265.124793 L413.691466,258.682759 Z"/><g transform="translate(88)"><path fill="#ED5F3B" d="M6.44033603,87.4771939 C-19.9105385,174.234967 38.4824611,236.971938 111.020561,202.266213 L209.544218,202.266213 C217.423873,202.266213 224.603484,199.03972 229.807062,193.851171 L229.845517,193.813674 C234.337689,189.328849 237.364225,183.377278 238.102724,176.770816 C258.997444,158.712921 256.850116,126.351199 238.281013,100.7904 L238.281013,60.165369 C238.281013,52.300575 235.049096,45.1377611 229.845517,39.9448519 L229.807062,39.9073548 C224.603484,34.7161897 217.423873,31.491441 209.544218,31.491441 L175.858167,31.491441 L175.858167,25.8381025 C175.858167,18.7276102 172.946121,12.2589283 168.255559,7.58312992 C163.57024,2.9055875 157.087179,0 149.96088,0 L115.541574,0 C108.410032,0 101.934836,2.9055875 97.2468953,7.58312992 C92.5589549,12.2589283 89.6469084,18.7276102 89.6469084,25.8381025 L89.6469084,31.491441 L55.9626058,31.491441 C48.0768328,31.491441 40.9033401,34.7161897 35.6988873,39.9073548 L35.6613068,39.9448519 C30.4586019,45.1377611 27.2275587,52.300575 27.2275587,60.165369 L27.2275587,101.990307 C19.983275,98.1813015 13.05624,92.8532284 6.44033603,87.4771939 Z M109.877416,31.491441 L155.625038,31.491441 L155.625038,25.8381025 C155.625038,24.2920021 154.98617,22.8775774 153.957515,21.8512039 C152.929734,20.8283186 151.509543,20.1856361 149.96088,20.1856361 L115.541574,20.1856361 C113.994658,20.1856361 112.575342,20.8283186 111.549309,21.8512039 C110.520653,22.8775774 109.877416,24.2920021 109.877416,25.8381025 L109.877416,31.491441 Z"/><path fill="#000" d="M142 181C160.65167 165.933226 178.588817 149.934935 199.174927 145.033172 206.370699 144.681246 212.679416 147.163844 218 150.848205L218 172.543351C218 174.866062 217.058921 176.978486 215.545351 178.51045L215.507011 178.548684C213.969915 180.060662 211.851615 181 209.521572 181L142 181ZM217 81.115139C186.42733 59.0143163 137.96029 52.9713206 80.6174824 92.1607419 74.1908029 96.5513559 68.3868467 100.515323 63.9476564 103.104929 58.1341199 106.486628 52.4878043 107.944921 47 108L47 60.5093282C47 58.1715142 47.9406171 56.0461493 49.4560559 54.505675L49.4943773 54.4654583C51.0307186 52.9442181 53.1462363 52 55.4751346 52L208.525736 52C210.854635 52 212.971894 52.9442181 214.508236 54.4654583L214.546557 54.505675C216.059383 56.0461493 217 58.1715142 217 60.5093282L217 81.115139Z"/><path fill="#FFF" d="M147.146909,107.083541 C131.47077,117.271855 119.74685,127.369905 100.437588,136.477693 C100.437588,136.477693 115.472019,108.707397 119.266008,92 C97.6211046,114.379937 53.6175068,144.74332 23.1126355,126.667082 C21.742193,154.70028 32.8015494,175.616731 60.4521381,185.927732 C94.5620027,198.644283 132.784953,169.591027 154,140.840107 C143.826728,144.352473 135.828232,148.993562 123.759723,148.909434 C133.697409,138.380225 143.329185,123.554327 147.146909,107.083541 L147.146909,107.083541 Z"/></g></g></svg>