<svg xmlns="http://www.w3.org/2000/svg" width="1200" height="630" viewBox="0 0 1200 630"><g fill="none" fill-rule="evenodd"><rect width="1200" height="630" fill="#000"/><g transform="translate(345 180.85)"><path fill="#ED5F3B" d="M12.9824956,176.729417 C-40.1358682,352.005395 77.5733406,478.752354 223.796387,408.636678 L422.401388,408.636678 C438.285278,408.636678 452.75801,402.118222 463.247438,391.635841 L463.324955,391.560086 C472.380322,382.499434 478.481244,370.475526 479.969919,357.128548 C522.08971,320.64634 517.761104,255.266233 480.329314,203.625973 L480.329314,121.551574 C480.329314,105.662399 473.814383,91.1914279 463.324955,80.7002384 L463.247438,80.6244833 C452.75801,70.1368173 438.285278,63.6218855 422.401388,63.6218855 L354.496701,63.6218855 L354.496701,52.2004947 C354.496701,37.8352287 348.626568,24.7666067 339.171284,15.3201317 C329.726571,5.87013326 316.657949,0 302.292683,0 L232.909892,0 C218.534056,0 205.481289,5.87013326 196.031291,15.3201317 C186.581292,24.7666067 180.711159,37.8352287 180.711159,52.2004947 L180.711159,63.6218855 L112.809996,63.6218855 C96.9137737,63.6218855 82.4533734,70.1368173 71.9621838,80.6244833 L71.8864288,80.7002384 C61.3987627,91.1914279 54.8855927,105.662399 54.8855927,121.551574 L54.8855927,206.050134 C40.2824911,198.354833 26.3189028,187.590573 12.9824956,176.729417 Z M221.492025,63.6218855 L313.71055,63.6218855 L313.71055,52.2004947 C313.71055,49.0769214 312.422715,46.2193716 310.349141,44.1457981 C308.277329,42.0792716 305.414494,40.7808658 302.292683,40.7808658 L232.909892,40.7808658 C229.791604,40.7808658 226.930531,42.0792716 224.862242,44.1457981 C222.788669,46.2193716 221.492025,49.0769214 221.492025,52.2004947 L221.492025,63.6218855 Z"/><path fill="#000" d="M285.885555 367.855812C323.595699 337.308921 359.861213 304.87344 401.482431 294.935438 416.030919 294.221931 428.78595 299.255236 439.543163 306.725033L439.543163 350.710513C439.543163 355.419656 437.640479 359.702457 434.580329 362.808413L434.502812 362.88593C431.395094 365.951366 427.112293 367.855812 422.401388 367.855812L285.885555 367.855812ZM439.543163 163.074134C377.70064 118.538991 279.661311 106.361811 163.668041 185.332016 150.668127 194.179498 138.927861 202.167249 129.948248 207.385536 118.188602 214.199965 106.767212 217.138555 95.6664584 217.249545L95.6664584 121.551574C95.6664584 116.840669 97.5691427 112.557867 100.634578 109.453673L100.712095 109.372633C103.819813 106.307197 108.099091 104.404513 112.809996 104.404513L422.401388 104.404513C427.112293 104.404513 431.395094 106.307197 434.502812 109.372633L434.580329 109.453673C437.640479 112.557867 439.543163 116.840669 439.543163 121.551574L439.543163 163.074134Z"/><path fill="#FFF" d="M296.29218,215.819008 C264.874988,236.301052 241.378599,256.601636 202.680115,274.911448 C202.680115,274.911448 232.811234,219.083521 240.414924,185.495859 C197.035485,230.487294 108.84607,291.528224 47.7100066,255.188716 C44.9634467,311.545167 67.1279564,353.594489 122.543635,374.323177 C190.904614,399.887853 267.508796,341.480732 310.026742,283.681413 C289.638071,290.742486 273.607956,300.072685 249.420963,299.903558 C269.337487,278.736196 288.640923,248.930999 296.29218,215.819008 L296.29218,215.819008 Z"/></g><g transform="translate(10.046 13)"><path fill="#FFF" fill-rule="nonzero" d="M24.7120316 26.4299803C24.5358317 26.78238 24.3155819 29.5575279 24.0512821 34.7554241 23.7869822 39.9533202 23.6548323 45.2393162 23.6548323 50.6134122 23.6548323 56.0756082 23.7869822 60.6568047 24.0512821 64.357002 24.3155819 66.7357002 25.0203813 69.0483235 26.1656805 71.2948718 27.3109796 73.5414201 28.6765286 75.061144 30.2623274 75.8540434 33.3458251 76.0302433 35.6804734 74.6206443 37.2662722 71.6252465L37.1341223 71.6252465C37.9270217 69.9513478 38.3234714 67.4404997 38.3234714 64.0927022 38.3234714 61.4497041 38.4996713 59.3793557 38.852071 57.8816568 41.0545694 58.2340565 43.1689678 58.4102564 45.1952663 58.4102564L51.2741617 58.2781065C54.4457594 58.2781065 57.4411571 58.6305062 60.260355 59.3353057 61.3175542 62.4188034 61.8461538 65.634451 61.8461538 68.9822485 61.8461538 74.0039448 60.5907298 78.7613412 58.0798817 83.2544379 55.5690335 87.7475345 52.1111111 91.4036818 47.7061144 94.2228797 43.3011177 97.0420776 38.4115713 98.5397765 33.0374753 98.7159763 31.4516765 98.9802761 29.6015779 99.112426 27.4871795 99.112426 20.6153846 99.112426 14.5805391 97.5706772 9.382643 94.4871795 4.18474688 91.4036818 1.27744905 86.7784352.660749507 80.6114398.220249836 71.8014464 0 62.3307035 0 52.199211 0 43.8297173.0440499671 36.9579224.132149901 31.5838264L.264299803 25.6370809C.176199869 24.3155819.286324786 22.795858.594674556 21.0779093.903024326 19.3599606 1.32149901 17.8402367 1.85009862 16.5187377 2.64299803 14.4924392 3.67817226 12.4661407 4.9556213 10.4398422 6.23307035 8.41354372 7.57659435 6.73964497 8.98619329 5.41814596 10.8362919 3.92044707 13.5673899 2.64299803 17.1794872 1.58579882 20.6153846.528599606 24.183432 0 27.8836292 0 33.8744247 0 39.5128205 1.38757396 44.7988166 4.16272189 50.0848126 6.93786982 54.3136095 10.726167 57.4852071 15.5276134 60.6568047 20.3290598 62.2426036 25.5489809 62.2426036 31.1873767 62.2426036 34.5351742 61.625904 37.8829717 60.3925049 41.2307692 56.6923077 42.0236686 53.60881 42.4201183 51.1420118 42.4201183 47.7942143 42.4201183 43.1689678 41.8474688 37.2662722 40.7021696L36.8698225 35.6804734C36.6936226 31.6278764 36.187048 28.5664037 35.3500986 26.4960552 34.5131492 24.4257068 32.7291256 23.4345825 29.9980276 23.5226824 29.9099277 23.5226824 29.7998028 23.5447074 29.6676529 23.5887574 29.535503 23.6328074 29.3372781 23.6548323 29.0729783 23.6548323L29.2051282 23.6548323C26.4740302 24.095332 24.9763314 25.0203813 24.7120316 26.4299803ZM124.881657 87.086785C124.969757 88.1439842 125.013807 89.6857331 125.013807 91.7120316 125.013807 93.5621302 124.859632 94.8616042 124.551282 95.6104536 124.242932 96.3593031 123.780408 96.8218277 123.163708 96.9980276 122.547009 97.1742275 121.489809 97.2623274 119.99211 97.2623274L119.067061 97.2623274 116.952663 97.1301775 113.516765 97.2623274C108.054569 97.4385273 99.9934254 97.5266272 89.3333333 97.5266272 79.2018409 97.5266272 71.1406969 97.4825773 65.1499014 97.3944773L65.1499014 94.3550296C65.7666009 79.8185404 66.0749507 65.1939513 66.0749507 50.4812623 66.0749507 46.1643655 65.9868508 38.7199211 65.8106509 28.147929L65.8106509 24.9763314 65.8106509 20.086785C65.722551 18.5890861 65.678501 15.9020381 65.678501 12.025641L65.5463511 3.43589744C66.7797502 2.99539776 68.4976989 2.62097304 70.7001972 2.31262327 72.9026956 2.0042735 75.105194 1.85009862 77.3076923 1.85009862 79.7744905 1.85009862 82.2412886 2.02629849 84.7080868 2.37869822 87.1748849 2.73109796 89.1571335 3.2156476 90.6548323 3.83234714 90.4786325 10.1755424 90.3905325 15.2412886 90.3905325 19.0295858 90.3905325 24.3155819 90.4786325 32.2445759 90.6548323 42.816568 90.7429323 48.1025641 90.7869822 55.8994083 90.7869822 66.2071006L90.7869822 74.7968442C93.6942801 74.7968442 97.2623274 74.9289941 101.491124 75.1932939L108.495069 75.4575937C112.195266 75.7218935 115.675214 75.8540434 118.934911 75.8540434 121.22551 75.8540434 123.251808 75.7659435 125.013807 75.5897436 125.013807 77.6160421 124.969757 78.9375411 124.881657 79.5542406L124.881657 79.4220907C124.705457 81.800789 124.661407 83.5187377 124.749507 84.5759369L124.881657 87.086785ZM186.727811 84.8402367C186.727811 89.3333333 186.243261 93.3418803 185.274162 96.8658777 181.397765 96.8658777 175.671269 96.9539776 168.094675 97.1301775L150.783037 97.2623274C142.942143 97.2623274 135.101249 96.9980276 127.260355 96.469428 127.348455 93.6502301 127.216305 82.6817883 126.863905 63.5641026 126.599606 52.7278107 126.467456 44.4023669 126.467456 38.5877712 126.467456 26.5180802 126.775805 15.2853386 127.392505 4.88954635L139.021696 4.49309665C152.060487 3.96449704 162.015779 3.70019724 168.887574 3.70019724 174.79027 3.70019724 180.516765 3.92044707 186.067061 4.36094675 186.419461 6.21104536 186.595661 8.36949375 186.595661 10.8362919 186.595661 12.1577909 186.507561 14.3162393 186.331361 17.3116371 186.155161 20.130835 186.067061 22.3333333 186.067061 23.9191321 180.781065 25.0644313 174.878369 25.6370809 168.358974 25.6370809L151.179487 25.7692308C150.738988 29.9099277 150.518738 33.3458251 150.518738 36.0769231 150.518738 38.1913215 150.783037 40.0414201 151.311637 41.6272189L160.033531 40.5700197C161.26693 40.5700197 163.117028 40.6581197 165.583826 40.8343195L167.301775 40.9664694C167.742275 43.6094675 167.962525 46.4727153 167.962525 49.556213L167.698225 60.1282051C164.879027 60.9211045 161.09073 61.3175542 156.333333 61.3175542L152.897436 61.1854043C152.280736 61.1854043 151.884287 61.2735043 151.708087 61.4497041L151.179487 68.321499C151.179487 71.9335963 151.355687 74.9289941 151.708087 77.3076923 156.289283 77.3076923 160.73833 77.4398422 165.055227 77.704142 166.552926 77.7922419 168.403024 77.8803419 170.605523 77.9684418 172.808021 78.0565417 175.406969 78.1005917 178.402367 78.1005917L186.463511 77.8362919C186.639711 81.8888889 186.727811 84.2235371 186.727811 84.8402367ZM247.781065 5.55029586C245.049967 20.086785 241.966469 34.2268245 238.530572 47.9704142 235.094675 61.7140039 230.777778 78.1005917 225.579882 97.1301775 223.641683 97.1301775 222.320184 97.1742275 221.615385 97.2623274L220.293886 97.3944773C218.708087 97.5706772 217.078238 97.6587771 215.404339 97.6587771 209.854043 97.6587771 205.537147 97.1301775 202.453649 96.0729783 194.788955 69.0262985 189.635108 39.2044707 186.99211 6.60749507 187.78501 5.72649573 189.414859 5.06574622 191.881657 4.62524655 194.348455 4.18474688 197.079553 3.96449704 200.074951 3.96449704 202.894149 3.96449704 206.065746 4.27284681 209.589744 4.88954635L210.382643 16.6508876C210.911243 25.3727811 211.483892 32.9273504 212.100592 39.3145957 212.717291 45.7018409 213.598291 52.0230112 214.74359 58.2781065 215.800789 53.4326101 217.430638 44.6226167 219.633136 31.8481262 222.276134 16.2544379 224.038133 6.95989481 224.919132 3.96449704 228.35503 4.66929652 232.275477 5.02169625 236.680473 5.02169625 241.08547 5.02169625 244.213018 5.19789612 246.063116 5.55029586L247.781065 5.55029586ZM308.43787 84.8402367C308.43787 89.3333333 307.95332 93.3418803 306.984221 96.8658777 303.107824 96.8658777 297.381328 96.9539776 289.804734 97.1301775L272.493097 97.2623274C264.652202 97.2623274 256.811308 96.9980276 248.970414 96.469428 249.058514 93.6502301 248.926364 82.6817883 248.573964 63.5641026 248.309665 52.7278107 248.177515 44.4023669 248.177515 38.5877712 248.177515 26.5180802 248.485865 15.2853386 249.102564 4.88954635L260.731755 4.49309665C273.770546 3.96449704 283.725838 3.70019724 290.597633 3.70019724 296.500329 3.70019724 302.226824 3.92044707 307.77712 4.36094675 308.12952 6.21104536 308.30572 8.36949375 308.30572 10.8362919 308.30572 12.1577909 308.21762 14.3162393 308.04142 17.3116371 307.86522 20.130835 307.77712 22.3333333 307.77712 23.9191321 302.491124 25.0644313 296.588429 25.6370809 290.069034 25.6370809L272.889546 25.7692308C272.449047 29.9099277 272.228797 33.3458251 272.228797 36.0769231 272.228797 38.1913215 272.493097 40.0414201 273.021696 41.6272189L281.74359 40.5700197C282.976989 40.5700197 284.827087 40.6581197 287.293886 40.8343195L289.011834 40.9664694C289.452334 43.6094675 289.672584 46.4727153 289.672584 49.556213L289.408284 60.1282051C286.589086 60.9211045 282.800789 61.3175542 278.043393 61.3175542L274.607495 61.1854043C273.990796 61.1854043 273.594346 61.2735043 273.418146 61.4497041L272.889546 68.321499C272.889546 71.9335963 273.065746 74.9289941 273.418146 77.3076923 277.999343 77.3076923 282.448389 77.4398422 286.765286 77.704142 288.262985 77.7922419 290.113083 77.8803419 292.315582 77.9684418 294.51808 78.0565417 297.117028 78.1005917 300.112426 78.1005917L308.17357 77.8362919C308.34977 81.8888889 308.43787 84.2235371 308.43787 84.8402367ZM365.130178 72.0216963C368.654175 77.3957922 371.495398 81.9329389 373.653846 85.6331361 375.812295 89.3333333 377.596318 93.0775805 379.005917 96.8658777L376.891519 96.8658777C375.83432 96.8658777 373.455621 96.9539776 369.755424 97.1301775 366.055227 97.3063774 363.103879 97.3944773 360.901381 97.3944773 359.667982 97.3944773 357.817883 97.3063774 355.351085 97.1301775L353.104536 96.9980276C347.378041 83.9592373 342.268245 74.1801446 337.775148 67.6607495L337.775148 71.0966469C337.775148 76.5588429 338.083498 83.6068376 338.700197 92.2406312L338.700197 92.1084813C338.788297 92.7251808 338.832347 93.78238 338.832347 95.2800789 335.836949 96.6896778 330.903353 97.3944773 324.031558 97.3944773L320.859961 97.2623274 313.856016 97.2623274C312.886917 97.2623274 312.402367 89.2892834 312.402367 73.3431953 312.402367 58.894806 312.270217 44.4243918 312.005917 29.9319527 311.741617 15.4395135 311.345168 6.73964497 310.816568 3.83234714L314.384615 3.30374753C319.670611 2.59894806 324.031558 2.07034845 327.467456 1.71794872 330.903353 1.36554898 334.42735 1.18934911 338.039448 1.18934911 341.915845 1.18934911 345.219592 1.36554898 347.95069 1.71794872 353.060487 2.33464826 357.839908 4.09664694 362.288955 7.00394477 366.738001 9.9112426 370.306049 13.4792899 372.993097 17.7080868 375.680145 21.9368836 377.023669 26.2978304 377.023669 30.790927 377.023669 35.1078238 375.61407 39.8211703 372.794872 44.9309665 371.032873 48.1025641 368.698225 50.7455621 365.790927 52.8599606 362.883629 54.974359 359.403682 56.251808 355.351085 56.6923077 357.729783 60.9211045 360.504931 65.3261012 363.676529 69.9072978 364.293228 70.964497 364.777778 71.6692965 365.130178 72.0216963ZM346.100592 38.3234714C347.333991 37.9710717 348.30309 37.0900723 349.00789 35.6804734 349.712689 34.2708744 350.065089 32.5969757 350.065089 30.6587771 350.065089 27.0466798 349.184089 24.7120316 347.422091 23.6548323 346.276792 22.9500329 345.109467 22.5095332 343.920118 22.3333333 342.730769 22.1571335 341.387245 22.0690335 339.889546 22.0690335L334.207101 22.9940828C334.3833 25.6370809 334.4714 27.8836292 334.4714 29.7337278 334.4714 34.4911243 334.60355 37.3984221 334.86785 38.4556213 336.365549 38.6318212 338.215648 38.7199211 340.418146 38.7199211 342.444444 38.7199211 344.338593 38.5877712 346.100592 38.3234714ZM430.280079 26.4299803C430.103879 26.78238 429.883629 29.5575279 429.619329 34.7554241 429.35503 39.9533202 429.22288 45.2393162 429.22288 50.6134122 429.22288 56.0756082 429.35503 60.6568047 429.619329 64.357002 429.883629 66.7357002 430.588429 69.0483235 431.733728 71.2948718 432.879027 73.5414201 434.244576 75.061144 435.830375 75.8540434 438.913872 76.0302433 441.248521 74.6206443 442.83432 71.6252465L442.70217 71.6252465C443.495069 69.9513478 443.891519 67.4404997 443.891519 64.0927022 443.891519 61.4497041 444.067719 59.3793557 444.420118 57.8816568 446.622617 58.2340565 448.737015 58.4102564 450.763314 58.4102564L456.842209 58.2781065C460.013807 58.2781065 463.009204 58.6305062 465.828402 59.3353057 466.885602 62.4188034 467.414201 65.634451 467.414201 68.9822485 467.414201 74.0039448 466.158777 78.7613412 463.647929 83.2544379 461.137081 87.7475345 457.679158 91.4036818 453.274162 94.2228797 448.869165 97.0420776 443.979619 98.5397765 438.605523 98.7159763 437.019724 98.9802761 435.169625 99.112426 433.055227 99.112426 426.183432 99.112426 420.148586 97.5706772 414.95069 94.4871795 409.752794 91.4036818 406.845496 86.7784352 406.228797 80.6114398 405.788297 71.8014464 405.568047 62.3307035 405.568047 52.199211 405.568047 43.8297173 405.612097 36.9579224 405.700197 31.5838264L405.832347 25.6370809C405.744247 24.3155819 405.854372 22.795858 406.162722 21.0779093 406.471072 19.3599606 406.889546 17.8402367 407.418146 16.5187377 408.211045 14.4924392 409.24622 12.4661407 410.523669 10.4398422 411.801118 8.41354372 413.144642 6.73964497 414.554241 5.41814596 416.404339 3.92044707 419.135437 2.64299803 422.747535 1.58579882 426.183432.528599606 429.751479 0 433.451677 0 439.442472 0 445.080868 1.38757396 450.366864 4.16272189 455.65286 6.93786982 459.881657 10.726167 463.053254 15.5276134 466.224852 20.3290598 467.810651 25.5489809 467.810651 31.1873767 467.810651 34.5351742 467.193951 37.8829717 465.960552 41.2307692 462.260355 42.0236686 459.176857 42.4201183 456.710059 42.4201183 453.362262 42.4201183 448.737015 41.8474688 442.83432 40.7021696L442.43787 35.6804734C442.26167 31.6278764 441.755095 28.5664037 440.918146 26.4960552 440.081197 24.4257068 438.297173 23.4345825 435.566075 23.5226824 435.477975 23.5226824 435.36785 23.5447074 435.2357 23.5887574 435.10355 23.6328074 434.905325 23.6548323 434.641026 23.6548323L434.773176 23.6548323C432.042078 24.095332 430.544379 25.0203813 430.280079 26.4299803ZM527.806706 96.9980276C524.987508 97.6147272 521.94806 97.9230769 518.688363 97.9230769 514.811966 97.9230769 510.583169 97.4385273 506.001972 96.469428 505.385273 94.7955293 504.416174 91.2715319 503.094675 85.8974359 501.773176 80.43524 500.715976 76.8231427 499.923077 75.061144L497.280079 74.9289941 495.033531 75.061144C494.681131 76.1183432 494.108481 78.7172913 493.315582 82.8579882 492.698882 86.2938856 492.082183 89.0910585 491.465483 91.2495069 490.848784 93.4079553 489.967784 95.3681788 488.822485 97.1301775 487.941486 97.3063774 486.619987 97.3944773 484.857988 97.3944773 484.065089 97.3944773 482.34714 97.3063774 479.704142 97.1301775 472.039448 96.7777778 467.766601 96.6015779 466.885602 96.6015779 466.885602 96.1610782 466.973702 95.125904 467.149901 93.4960552 467.326101 91.8662064 467.590401 90.0381328 467.942801 88.0118343L470.850099 71.3609467C473.140697 57.7054569 475.32117 45.8119658 477.391519 35.6804734 479.461867 25.5489809 482.17094 14.8448389 485.518738 3.56804734 486.752137 3.39184747 488.426036 3.30374753 490.540434 3.30374753L491.333333 3.30374753C497.059829 3.30374753 502.654175 3.0834977 508.116371 2.64299803 509.17357 6.78369494 510.142669 10.8583169 511.023669 14.8668639 511.904668 18.8754109 512.697567 22.4654832 513.402367 25.6370809 516.221565 37.8829717 518.115713 46.0322156 519.084813 50.0848126L527.806706 96.9980276ZM500.187377 58.1459566C498.249178 40.5259698 497.324129 31.7159763 497.412229 31.7159763L497.280079 30.3944773C497.280079 30.3944773 497.191979 31.4516765 497.015779 33.566075 496.751479 40.17357 496.35503 45.4155161 495.82643 49.2919132L494.637081 58.1459566 500.187377 58.1459566ZM562.16568 85.5009862C556.615385 73.3431953 552.959237 64.9296515 551.197239 60.260355L551.197239 85.6331361C551.197239 91.095332 551.241289 94.8395792 551.329389 96.8658777 548.95069 97.5706772 546.351742 97.9230769 543.532544 97.9230769 542.651545 97.9230769 541.330046 97.834977 539.568047 97.6587771 537.629849 97.4825773 536.22025 97.3944773 535.33925 97.3944773L528.863905 97.1301775 528.863905 87.2189349C528.863905 81.5805391 528.775805 73.5634451 528.599606 63.1676529 528.511506 57.9697567 528.467456 50.0848126 528.467456 39.5128205 528.467456 25.3287311 528.863905 13.43524 529.656805 3.83234714 532.035503 3.2156476 534.678501 2.90729783 537.585799 2.90729783 539.523997 2.90729783 541.880671 3.0834977 544.655819 3.43589744 547.430966 3.78829717 549.34714 4.31689678 550.404339 5.02169625 551.637738 7.31229454 553.157462 10.5059172 554.963511 14.6025641 556.76956 18.699211 558.509533 22.773833 560.183432 26.82643L565.469428 38.9842209C565.293228 32.8172255 565.205128 25.5489809 565.205128 17.1794872 565.205128 10.3957922 565.249178 5.72649573 565.337278 3.17159763 568.949375 2.46679816 572.781723 2.11439842 576.83432 2.11439842 580.270217 2.11439842 583.838264 2.51084813 587.538462 3.30374753L587.538462 96.9980276C587.274162 96.9980276 586.745562 97.1301775 585.952663 97.3944773 585.071663 97.7468771 583.529915 97.9230769 581.327416 97.9230769 580.886917 98.0111769 578.552268 97.879027 574.323471 97.5266272 573.266272 97.4385273 571.922748 97.3504274 570.292899 97.2623274 568.663051 97.1742275 567.715976 97.1742275 567.451677 97.2623274L562.16568 85.5009862ZM613.439842 97.5266272C611.325444 97.2623274 609.299145 97.1301775 607.360947 97.1301775 606.039448 97.1301775 604.233399 97.2182774 601.942801 97.3944773L596.392505 97.5266272C594.630506 97.5266272 592.604208 97.3944773 590.313609 97.1301775 592.428008 90.7869822 596.480605 79.8625904 602.4714 64.357002L607.889546 50.6134122C607.008547 47.0894149 605.907298 43.6314924 604.585799 40.239645 603.2643 36.8477975 601.590401 32.8172255 599.564103 28.147929 597.185404 22.2452334 595.401381 17.7080868 594.212032 14.5364892 593.022682 11.3648915 591.987508 8.01709402 591.106509 4.49309665 592.780408 4.58119658 595.379356 4.44904668 598.903353 4.09664694 601.722551 3.74424721 603.792899 3.56804734 605.114398 3.56804734 608.197896 3.56804734 610.752794 4.14069691 612.779093 5.28599606 613.571992 8.54569362 614.783366 12.5982906 616.413215 17.443787 618.043064 22.2892834 619.606838 26.6061801 621.104536 30.3944773 621.545036 29.513478 622.954635 25.504931 625.333333 18.3688363 627.976331 10.4398422 629.47403 6.12294543 629.82643 5.41814596 634.671926 4.44904668 639.473373 3.96449704 644.230769 3.96449704 647.138067 3.96449704 649.692965 4.14069691 651.895464 4.49309665 649.781065 12.4220907 647.182117 20.06476 644.098619 27.4211045 641.015122 34.777449 636.830375 44.0059172 631.544379 55.1065089 627.315582 63.7403024 623.791584 71.2948718 620.972387 77.770217 618.153189 84.2455621 615.642341 90.8310322 613.439842 97.5266272ZM710.43787 26.5621302C710.70217 29.2932281 710.83432 32.0683761 710.83432 34.887574L710.70217 37.2662722 710.70217 39.6449704C710.52597 42.5522682 710.43787 46.8251151 710.43787 52.4635108 710.43787 58.7186062 710.30572 63.4760026 710.04142 66.7357002L709.64497 71.0966469C709.204471 78.2327416 707.398422 84.3116371 704.226824 89.3333333 702.905325 91.183432 700.923077 92.8132807 698.280079 94.2228797 695.637081 95.6324786 692.729783 96.7777778 689.558185 97.6587771 686.298488 98.6278764 682.466141 99.112426 678.061144 99.112426 676.034845 99.112426 674.625247 99.0683761 673.832347 98.9802761 669.51545 98.6278764 665.661078 97.6808021 662.269231 96.1390533 658.877383 94.5973044 656.38856 92.3287311 654.802761 89.3333333 652.688363 85.3688363 651.543064 80.39119 651.366864 74.4003945L651.102564 70.1715976C651.014464 69.4667982 650.970414 68.0131492 650.970414 65.8106509 650.529915 58.5864563 650.309665 51.6706114 650.309665 45.0631164 650.309665 41.0105194 650.441815 36.9579224 650.706114 32.9053254 650.970414 28.5003287 651.741289 24.2054569 653.018738 20.0207101 654.296187 15.8359632 656.25641 12.1577909 658.899408 8.98619329L661.806706 7.40039448C667.445102 4.66929652 673.612097 3.30374753 680.307692 3.30374753 684.536489 3.30374753 688.523011 3.85437212 692.267258 4.9556213 696.011506 6.05687048 699.293228 7.66469428 702.112426 9.7790927 705.195924 12.5982906 707.222222 15.3734385 708.191321 18.1045365 709.248521 20.9237344 709.99737 23.7429323 710.43787 26.5621302ZM689.954635 40.9664694 689.426036 34.0946746C689.249836 31.6278764 688.655161 29.447403 687.642012 27.5532544 686.628863 25.6591059 685.329389 24.3155819 683.74359 23.5226824 683.03879 23.2583826 682.333991 23.1262327 681.629191 23.1262327 679.514793 23.1262327 677.444444 23.8310322 675.418146 25.2406312 674.360947 26.1216305 673.325773 27.3770546 672.312623 29.0069034 671.299474 30.6367521 670.5286 32.2886259 670 33.9625247 669.119001 37.8389218 668.678501 42.7725181 668.678501 48.7633136 668.678501 51.7587114 668.722551 54.0052597 668.810651 55.5029586L668.810651 55.3708087C669.163051 57.1328074 669.42735 59.4674556 669.60355 62.3747535L669.7357 64.2248521C670.0881 68.6298488 670.57265 71.8895464 671.189349 74.0039448L671.189349 73.8717949C671.982249 75.6337936 673.149573 76.9773176 674.691321 77.9023669 676.23307 78.8274162 677.884944 79.2899408 679.646943 79.2899408 681.056542 79.2899408 682.488166 78.9595661 683.941815 78.2988166 685.395464 77.6380671 686.650888 76.6909928 687.708087 75.4575937 688.589086 74.3122945 689.139711 73.3431953 689.359961 72.5502959 689.58021 71.7573964 689.690335 70.5239974 689.690335 68.8500986 689.690335 67.3523997 689.734385 66.2511506 689.822485 65.5463511L689.954635 63.8284024 690.086785 61.3175542 690.086785 59.4674556 690.218935 56.9566075 690.218935 50.6134122 689.954635 41.6272189 689.954635 40.9664694ZM749.289941 85.5009862C743.739645 73.3431953 740.083498 64.9296515 738.321499 60.260355L738.321499 85.6331361C738.321499 91.095332 738.365549 94.8395792 738.453649 96.8658777 736.074951 97.5706772 733.476003 97.9230769 730.656805 97.9230769 729.775805 97.9230769 728.454306 97.834977 726.692308 97.6587771 724.754109 97.4825773 723.34451 97.3944773 722.463511 97.3944773L715.988166 97.1301775 715.988166 87.2189349C715.988166 81.5805391 715.900066 73.5634451 715.723866 63.1676529 715.635766 57.9697567 715.591716 50.0848126 715.591716 39.5128205 715.591716 25.3287311 715.988166 13.43524 716.781065 3.83234714 719.159763 3.2156476 721.802761 2.90729783 724.710059 2.90729783 726.648258 2.90729783 729.004931 3.0834977 731.780079 3.43589744 734.555227 3.78829717 736.4714 4.31689678 737.5286 5.02169625 738.761999 7.31229454 740.281723 10.5059172 742.087771 14.6025641 743.89382 18.699211 745.633794 22.773833 747.307692 26.82643L752.593688 38.9842209C752.417488 32.8172255 752.329389 25.5489809 752.329389 17.1794872 752.329389 10.3957922 752.373439 5.72649573 752.461538 3.17159763 756.073636 2.46679816 759.905983 2.11439842 763.95858 2.11439842 767.394477 2.11439842 770.962525 2.51084813 774.662722 3.30374753L774.662722 96.9980276C774.398422 96.9980276 773.869822 97.1301775 773.076923 97.3944773 772.195924 97.7468771 770.654175 97.9230769 768.451677 97.9230769 768.011177 98.0111769 765.676529 97.879027 761.447732 97.5266272 760.390533 97.4385273 759.047009 97.3504274 757.41716 97.2623274 755.787311 97.1742275 754.840237 97.1742275 754.575937 97.2623274L749.289941 85.5009862ZM865.211834 87.086785C865.299934 88.1439842 865.343984 89.6857331 865.343984 91.7120316 865.343984 93.5621302 865.189809 94.8616042 864.88146 95.6104536 864.57311 96.3593031 864.110585 96.8218277 863.493886 96.9980276 862.877186 97.1742275 861.819987 97.2623274 860.322288 97.2623274L859.397239 97.2623274 857.28284 97.1301775 853.846943 97.2623274C848.384747 97.4385273 840.323603 97.5266272 829.663511 97.5266272 819.532018 97.5266272 811.470874 97.4825773 805.480079 97.3944773L805.480079 94.3550296C806.096778 79.8185404 806.405128 65.1939513 806.405128 50.4812623 806.405128 46.1643655 806.317028 38.7199211 806.140828 28.147929L806.140828 24.9763314 806.140828 20.086785C806.052728 18.5890861 806.008679 15.9020381 806.008679 12.025641L805.876529 3.43589744C807.109928 2.99539776 808.827876 2.62097304 811.030375 2.31262327 813.232873 2.0042735 815.435371 1.85009862 817.63787 1.85009862 820.104668 1.85009862 822.571466 2.02629849 825.038264 2.37869822 827.505062 2.73109796 829.487311 3.2156476 830.98501 3.83234714 830.80881 10.1755424 830.72071 15.2412886 830.72071 19.0295858 830.72071 24.3155819 830.80881 32.2445759 830.98501 42.816568 831.07311 48.1025641 831.11716 55.8994083 831.11716 66.2071006L831.11716 74.7968442C834.024458 74.7968442 837.592505 74.9289941 841.821302 75.1932939L848.825247 75.4575937C852.525444 75.7218935 856.005391 75.8540434 859.265089 75.8540434 861.555687 75.8540434 863.581986 75.7659435 865.343984 75.5897436 865.343984 77.6160421 865.299934 78.9375411 865.211834 79.5542406L865.211834 79.4220907C865.035634 81.800789 864.991584 83.5187377 865.079684 84.5759369L865.211834 87.086785ZM926.132939 87.086785C926.221039 88.1439842 926.265089 89.6857331 926.265089 91.7120316 926.265089 93.5621302 926.110914 94.8616042 925.802564 95.6104536 925.494214 96.3593031 925.03169 96.8218277 924.41499 96.9980276 923.798291 97.1742275 922.741091 97.2623274 921.243393 97.2623274L920.318343 97.2623274 918.203945 97.1301775 914.768047 97.2623274C909.305851 97.4385273 901.244707 97.5266272 890.584615 97.5266272 880.453123 97.5266272 872.391979 97.4825773 866.401183 97.3944773L866.401183 94.3550296C867.017883 79.8185404 867.326233 65.1939513 867.326233 50.4812623 867.326233 46.1643655 867.238133 38.7199211 867.061933 28.147929L867.061933 24.9763314 867.061933 20.086785C866.973833 18.5890861 866.929783 15.9020381 866.929783 12.025641L866.797633 3.43589744C868.031032 2.99539776 869.748981 2.62097304 871.951479 2.31262327 874.153978 2.0042735 876.356476 1.85009862 878.558974 1.85009862 881.025773 1.85009862 883.492571 2.02629849 885.959369 2.37869822 888.426167 2.73109796 890.408416 3.2156476 891.906114 3.83234714 891.729915 10.1755424 891.641815 15.2412886 891.641815 19.0295858 891.641815 24.3155819 891.729915 32.2445759 891.906114 42.816568 891.994214 48.1025641 892.038264 55.8994083 892.038264 66.2071006L892.038264 74.7968442C894.945562 74.7968442 898.513609 74.9289941 902.742406 75.1932939L909.746351 75.4575937C913.446548 75.7218935 916.926496 75.8540434 920.186193 75.8540434 922.476792 75.8540434 924.50309 75.7659435 926.265089 75.5897436 926.265089 77.6160421 926.221039 78.9375411 926.132939 79.5542406L926.132939 79.4220907C925.956739 81.800789 925.912689 83.5187377 926.000789 84.5759369L926.132939 87.086785ZM951.37357 26.4299803C951.19737 26.78238 950.97712 29.5575279 950.712821 34.7554241 950.448521 39.9533202 950.316371 45.2393162 950.316371 50.6134122 950.316371 56.0756082 950.448521 60.6568047 950.712821 64.357002 950.97712 66.7357002 951.68192 69.0483235 952.827219 71.2948718 953.972518 73.5414201 955.338067 75.061144 956.923866 75.8540434 960.007364 76.0302433 962.342012 74.6206443 963.927811 71.6252465L963.795661 71.6252465C964.58856 69.9513478 964.98501 67.4404997 964.98501 64.0927022 964.98501 61.4497041 965.16121 59.3793557 965.513609 57.8816568 967.716108 58.2340565 969.830506 58.4102564 971.856805 58.4102564L977.9357 58.2781065C981.107298 58.2781065 984.102696 58.6305062 986.921893 59.3353057 987.979093 62.4188034 988.507692 65.634451 988.507692 68.9822485 988.507692 74.0039448 987.252268 78.7613412 984.74142 83.2544379 982.230572 87.7475345 978.77265 91.4036818 974.367653 94.2228797 969.962656 97.0420776 965.07311 98.5397765 959.699014 98.7159763 958.113215 98.9802761 956.263116 99.112426 954.148718 99.112426 947.276923 99.112426 941.242078 97.5706772 936.044181 94.4871795 930.846285 91.4036818 927.938988 86.7784352 927.322288 80.6114398 926.881788 71.8014464 926.661538 62.3307035 926.661538 52.199211 926.661538 43.8297173 926.705588 36.9579224 926.793688 31.5838264L926.925838 25.6370809C926.837738 24.3155819 926.947863 22.795858 927.256213 21.0779093 927.564563 19.3599606 927.983037 17.8402367 928.511637 16.5187377 929.304536 14.4924392 930.339711 12.4661407 931.61716 10.4398422 932.894609 8.41354372 934.238133 6.73964497 935.647732 5.41814596 937.49783 3.92044707 940.228928 2.64299803 943.841026 1.58579882 947.276923.528599606 950.84497 0 954.545168 0 960.535963 0 966.174359 1.38757396 971.460355 4.16272189 976.746351 6.93786982 980.975148 10.726167 984.146746 15.5276134 987.318343 20.3290598 988.904142 25.5489809 988.904142 31.1873767 988.904142 34.5351742 988.287442 37.8829717 987.054043 41.2307692 983.353846 42.0236686 980.270348 42.4201183 977.80355 42.4201183 974.455753 42.4201183 969.830506 41.8474688 963.927811 40.7021696L963.531361 35.6804734C963.355161 31.6278764 962.848586 28.5664037 962.011637 26.4960552 961.174688 24.4257068 959.390664 23.4345825 956.659566 23.5226824 956.571466 23.5226824 956.461341 23.5447074 956.329191 23.5887574 956.197041 23.6328074 955.998817 23.6548323 955.734517 23.6548323L955.866667 23.6548323C953.135569 24.095332 951.63787 25.0203813 951.37357 26.4299803Z" transform="translate(191.004 22.333)"/><path fill="#ED5F3B" d="M4.06174933,55.2921886 C-12.5570492,110.129649 24.2698689,149.784149 70.0177267,127.847512 L132.153988,127.847512 C137.123477,127.847512 141.651467,125.808125 144.933227,122.52857 L144.957479,122.504869 C147.790573,119.670121 149.699329,115.908279 150.165081,111.732497 C163.342828,100.318544 161.988564,79.8634937 150.277523,63.7071399 L150.277523,38.029054 C150.277523,33.0579106 148.239238,28.5304717 144.957479,25.2481611 L144.933227,25.2244601 C141.651467,21.943252 137.123477,19.9049674 132.153988,19.9049674 L110.909088,19.9049674 L110.909088,16.3316308 C110.909088,11.837263 109.072537,7.74856788 106.114324,4.79311042 C103.159418,1.83655059 99.0707224,0 94.5763546,0 L72.8690101,0 C68.3713352,0 64.2876007,1.83655059 61.3310408,4.79311042 C58.374481,7.74856788 56.5379304,11.837263 56.5379304,16.3316308 L56.5379304,19.9049674 L35.2941331,19.9049674 C30.3207849,19.9049674 25.7966531,21.943252 22.5143426,25.2244601 L22.4906416,25.2481611 C19.2094334,28.5304717 17.1717,33.0579106 17.1717,38.029054 L17.1717,64.4655714 C12.6029222,62.0579924 8.23422471,58.6902481 4.06174933,55.2921886 Z M69.2967759,19.9049674 L98.1485888,19.9049674 L98.1485888,16.3316308 C98.1485888,15.3543787 97.7456721,14.4603556 97.0969266,13.81161 C96.4487322,13.1650693 95.5530555,12.7588455 94.5763546,12.7588455 L72.8690101,12.7588455 C71.8934115,12.7588455 70.998286,13.1650693 70.351194,13.81161 C69.7024485,14.4603556 69.2967759,15.3543787 69.2967759,16.3316308 L69.2967759,19.9049674 Z"/><path fill="#000" d="M89.4431626 115.088666C101.241291 105.531658 112.587448 95.3837793 125.609209 92.274541 130.1609 92.0513108 134.151484 93.6260482 137.517024 95.9630754L137.517024 109.724528C137.517024 111.197847 136.921743 112.537779 135.964334 113.509519L135.940082 113.533772C134.96779 114.492835 133.627858 115.088666 132.153988 115.088666L89.4431626 115.088666ZM137.517024 51.0199486C118.168754 37.0865265 87.4958237 33.2767313 51.2057604 57.9836281 47.1385615 60.7516825 43.4654603 63.2507582 40.6560671 64.8833701 36.9769029 67.0153562 33.4035663 67.9347339 29.9305455 67.9694586L29.9305455 38.029054C29.9305455 36.5551836 30.525826 35.2152512 31.484889 34.2440621L31.5091412 34.2187076C32.4814327 33.2596446 33.8202626 32.6643641 35.2941331 32.6643641L132.153988 32.6643641C133.627858 32.6643641 134.96779 33.2596446 135.940082 34.2187076L135.964334 34.2440621C136.921743 35.2152512 137.517024 36.5551836 137.517024 38.029054L137.517024 51.0199486Z"/><path fill="#FFF" d="M92.6990162,67.5218958 C82.8697225,73.9299802 75.5185595,80.2812924 63.4112155,86.0097649 C63.4112155,86.0097649 72.8381437,68.5432428 75.217061,58.0348884 C61.6452167,72.1110675 34.0539653,91.208548 14.9267209,79.8392416 C14.0674225,97.4711193 21.0018891,110.626818 38.3394338,117.112069 C59.7270906,125.110324 83.6937451,106.836866 96.9960596,88.7535671 C90.617188,90.9627192 85.6019498,93.8817984 78.034722,93.8288846 C84.2658758,87.206389 90.305217,77.8814301 92.6990162,67.5218958 L92.6990162,67.5218958 Z"/></g></g></svg>