<svg xmlns="http://www.w3.org/2000/svg" width="1200" height="630" viewBox="0 0 1200 630"><g fill="none" fill-rule="evenodd"><rect width="1200" height="630" fill="#000"/><g transform="translate(345 180.85)"><path fill="#ED5F3B" d="M12.9824956,176.729417 C-40.1358682,352.005395 77.5733406,478.752354 223.796387,408.636678 L422.401388,408.636678 C438.285278,408.636678 452.75801,402.118222 463.247438,391.635841 L463.324955,391.560086 C472.380322,382.499434 478.481244,370.475526 479.969919,357.128548 C522.08971,320.64634 517.761104,255.266233 480.329314,203.625973 L480.329314,121.551574 C480.329314,105.662399 473.814383,91.1914279 463.324955,80.7002384 L463.247438,80.6244833 C452.75801,70.1368173 438.285278,63.6218855 422.401388,63.6218855 L354.496701,63.6218855 L354.496701,52.2004947 C354.496701,37.8352287 348.626568,24.7666067 339.171284,15.3201317 C329.726571,5.87013326 316.657949,0 302.292683,0 L232.909892,0 C218.534056,0 205.481289,5.87013326 196.031291,15.3201317 C186.581292,24.7666067 180.711159,37.8352287 180.711159,52.2004947 L180.711159,63.6218855 L112.809996,63.6218855 C96.9137737,63.6218855 82.4533734,70.1368173 71.9621838,80.6244833 L71.8864288,80.7002384 C61.3987627,91.1914279 54.8855927,105.662399 54.8855927,121.551574 L54.8855927,206.050134 C40.2824911,198.354833 26.3189028,187.590573 12.9824956,176.729417 Z M221.492025,63.6218855 L313.71055,63.6218855 L313.71055,52.2004947 C313.71055,49.0769214 312.422715,46.2193716 310.349141,44.1457981 C308.277329,42.0792716 305.414494,40.7808658 302.292683,40.7808658 L232.909892,40.7808658 C229.791604,40.7808658 226.930531,42.0792716 224.862242,44.1457981 C222.788669,46.2193716 221.492025,49.0769214 221.492025,52.2004947 L221.492025,63.6218855 Z"/><path fill="#000" d="M285.885555 367.855812C323.595699 337.308921 359.861213 304.87344 401.482431 294.935438 416.030919 294.221931 428.78595 299.255236 439.543163 306.725033L439.543163 350.710513C439.543163 355.419656 437.640479 359.702457 434.580329 362.808413L434.502812 362.88593C431.395094 365.951366 427.112293 367.855812 422.401388 367.855812L285.885555 367.855812ZM439.543163 163.074134C377.70064 118.538991 279.661311 106.361811 163.668041 185.332016 150.668127 194.179498 138.927861 202.167249 129.948248 207.385536 118.188602 214.199965 106.767212 217.138555 95.6664584 217.249545L95.6664584 121.551574C95.6664584 116.840669 97.5691427 112.557867 100.634578 109.453673L100.712095 109.372633C103.819813 106.307197 108.099091 104.404513 112.809996 104.404513L422.401388 104.404513C427.112293 104.404513 431.395094 106.307197 434.502812 109.372633L434.580329 109.453673C437.640479 112.557867 439.543163 116.840669 439.543163 121.551574L439.543163 163.074134Z"/><path fill="#FFF" d="M296.29218,215.819008 C264.874988,236.301052 241.378599,256.601636 202.680115,274.911448 C202.680115,274.911448 232.811234,219.083521 240.414924,185.495859 C197.035485,230.487294 108.84607,291.528224 47.7100066,255.188716 C44.9634467,311.545167 67.1279564,353.594489 122.543635,374.323177 C190.904614,399.887853 267.508796,341.480732 310.026742,283.681413 C289.638071,290.742486 273.607956,300.072685 249.420963,299.903558 C269.337487,278.736196 288.640923,248.930999 296.29218,215.819008 L296.29218,215.819008 Z"/></g><path fill="#FFF" fill-rule="nonzero" d="M36.6854316,39.2357557 C36.4238599,39.7588991 36.0968953,43.8786535 35.7045377,51.5950188 C35.3121801,59.3113841 35.1160014,67.1585352 35.1160014,75.1364722 C35.1160014,83.245195 35.3121801,90.0460594 35.7045377,95.5390652 C36.0968953,99.0702832 37.1431821,102.503412 38.8433982,105.838451 C40.5436142,109.17349 42.570795,111.429546 44.9249403,112.606619 C49.5024451,112.868191 52.9682702,110.775617 55.3224156,106.328898 L55.1262368,106.328898 C56.3033095,103.843967 56.8918458,100.11657 56.8918458,95.1467076 C56.8918458,91.223132 57.1534175,88.1496645 57.6765609,85.926305 C60.9462072,86.4494484 64.0850677,86.7110201 67.0931423,86.7110201 L76.1173661,86.5148414 C80.8256568,86.5148414 85.2723758,87.0379848 89.457523,88.0842716 C91.0269533,92.6617764 91.8116684,97.43546 91.8116684,102.405322 C91.8116684,109.860116 89.94797,116.922552 86.2205732,123.592631 C82.4931764,130.262709 77.3598317,135.690322 70.8205391,139.875469 C64.2812464,144.060616 57.0226316,146.283976 49.0446946,146.545548 C46.6905493,146.937905 43.9440464,147.134084 40.8051859,147.134084 C30.6038895,147.134084 21.6450586,144.845332 13.9286933,140.267827 C6.21232799,135.690322 1.89639486,128.824065 0.980893893,119.669055 C0.326964631,106.59047 0,92.5309906 0,77.4906175 C0,65.0659616 0.0653929262,54.8646651 0.196178779,46.8867281 L0.392357557,38.058683 C0.261571705,36.0968953 0.42505402,33.8408393 0.882804504,31.2905152 C1.34055499,28.7401911 1.96178779,26.4841351 2.7465029,24.5223473 C3.92357557,21.5142727 5.46030934,18.5061981 7.3567042,15.4981235 C9.25309906,12.4900489 11.2475833,10.0051177 13.3401569,8.04332992 C16.0866598,5.81997043 20.1410213,3.92357557 25.5032412,2.35414534 C30.6038895,0.784715114 35.9007165,0 41.3937223,0 C50.2871602,0 58.6574548,2.05987718 66.5046059,6.17963153 C74.3517571,10.2993859 80.629478,15.9231775 85.3377687,23.0510065 C90.0460594,30.1788354 92.4002047,37.9278972 92.4002047,46.2981917 C92.4002047,51.2680541 91.4847037,56.2379165 89.6537018,61.2077789 C84.160696,62.3848516 79.5831912,62.9733879 75.9211873,62.9733879 C70.9513249,62.9733879 64.0850677,62.1232799 55.3224156,60.4230638 L54.7338792,52.9682702 C54.4723075,46.952121 53.7202889,42.4073126 52.4778233,39.3338451 C51.2353577,36.2603776 48.5869442,34.7890367 44.5325827,34.9198226 C44.4017969,34.9198226 44.2383146,34.952519 44.0421358,35.017912 C43.845957,35.0833049 43.5516888,35.1160014 43.1593313,35.1160014 L43.3555101,35.1160014 C39.3011486,35.7699306 37.0777892,37.1431821 36.6854316,39.2357557 Z M185.388946,129.281815 C185.519732,130.851245 185.585125,133.139998 185.585125,136.148072 C185.585125,138.894575 185.356249,140.823667 184.898499,141.935346 C184.440748,143.047026 183.754123,143.733652 182.838622,143.995223 C181.923121,144.256795 180.35369,144.387581 178.130331,144.387581 L176.757079,144.387581 L173.618219,144.191402 L168.517571,144.387581 C160.408848,144.649153 148.441942,144.779939 132.616854,144.779939 C117.576481,144.779939 105.609576,144.714546 96.7161378,144.58376 L96.7161378,140.071648 C97.6316388,118.491982 98.0893893,96.7815308 98.0893893,74.9402934 C98.0893893,68.5317866 97.9586034,57.4803821 97.6970317,41.7860798 L97.6970317,37.0777892 L97.6970317,29.8191743 C97.5662459,27.5958149 97.500853,23.6068464 97.500853,17.8522689 L97.3046742,5.10064824 C99.1356761,4.44671898 101.686,3.89087911 104.955647,3.43312863 C108.225293,2.97537814 111.494939,2.7465029 114.764585,2.7465029 C118.426589,2.7465029 122.088593,3.0080746 125.750597,3.53121801 C129.412601,4.05436142 132.355283,4.77368361 134.578642,5.68918458 C134.31707,15.105766 134.186285,22.6259525 134.186285,28.2497441 C134.186285,36.0968953 134.31707,47.867622 134.578642,63.5619243 C134.709428,71.4090754 134.774821,82.9836233 134.774821,98.2855681 L134.774821,111.037189 C139.090754,111.037189 144.387581,111.233367 150.665302,111.625725 L161.062777,112.018083 C166.555783,112.41044 171.721824,112.606619 176.560901,112.606619 C179.961333,112.606619 182.969407,112.475833 185.585125,112.214261 C185.585125,115.222336 185.519732,117.184124 185.388946,118.099625 L185.388946,117.903446 C185.127374,121.434664 185.061981,123.984988 185.192767,125.554418 L185.388946,129.281815 Z M277.200614,125.946776 C277.200614,132.616854 276.481292,138.567611 275.042648,143.799045 C269.28807,143.799045 260.78699,143.929831 249.539406,144.191402 L223.839986,144.387581 C212.200045,144.387581 200.560105,143.995223 188.920164,143.210508 C189.05095,139.025361 188.854771,122.742522 188.331627,94.3619925 C187.93927,78.2753327 187.743091,65.9160696 187.743091,57.2842033 C187.743091,39.3665416 188.200842,22.6913454 189.116343,7.25861481 L206.380075,6.67007847 C225.736381,5.88536336 240.515183,5.4930058 250.716479,5.4930058 C259.479131,5.4930058 267.980212,5.81997043 276.21972,6.47389969 C276.742864,9.22040259 277.004435,12.424656 277.004435,16.0866598 C277.004435,18.0484476 276.873649,21.252701 276.612078,25.69942 C276.350506,29.8845673 276.21972,33.1542136 276.21972,35.5083589 C268.372569,37.208575 259.609917,38.058683 249.931764,38.058683 L224.428523,38.2548618 C223.774593,44.4017969 223.447629,49.5024451 223.447629,53.5568066 C223.447629,56.695667 223.839986,59.4421699 224.624701,61.7963153 L237.572501,60.226885 C239.403503,60.226885 242.150006,60.3576709 245.81201,60.6192426 L248.362334,60.8154214 C249.016263,64.7389969 249.343228,68.9895371 249.343228,73.567042 L248.95087,89.2613443 C244.765723,90.4384169 239.141931,91.0269533 232.079495,91.0269533 L226.978847,90.8307745 C226.063346,90.8307745 225.47481,90.9615603 225.213238,91.223132 L224.428523,101.424429 C224.428523,106.786648 224.690094,111.233367 225.213238,114.764585 C232.014102,114.764585 238.618788,114.960764 245.027294,115.353122 C247.250654,115.483908 249.997157,115.614694 253.266803,115.745479 C256.536449,115.876265 260.394632,115.941658 264.841351,115.941658 L276.808257,115.549301 C277.069828,121.56545 277.200614,125.031275 277.200614,125.946776 Z M367.83521,8.2395087 C363.780848,29.8191743 359.203344,50.8103037 354.102695,71.2128966 C349.002047,91.6154896 342.59354,115.941658 334.877175,144.191402 C331.999886,144.191402 330.038098,144.256795 328.991812,144.387581 L327.030024,144.58376 C324.675879,144.845332 322.25634,144.976117 319.771409,144.976117 C311.5319,144.976117 305.123394,144.191402 300.545889,142.621972 C289.16752,102.470715 281.516547,58.1997043 277.592972,9.80893893 C278.770044,8.5010804 281.189583,7.52018651 284.851586,6.86625725 C288.51359,6.21232799 292.567952,5.88536336 297.014671,5.88536336 C301.199818,5.88536336 305.908109,6.34311384 311.139543,7.25861481 L312.316615,24.7185261 C313.101331,37.6663255 313.951439,48.8812123 314.86694,58.3631866 C315.782441,67.8451609 317.090299,77.2290458 318.790515,86.5148414 C320.359945,79.3216195 322.779484,66.2430342 326.04913,47.2790856 C329.972706,24.1299898 332.588423,10.3320823 333.896281,5.88536336 C338.996929,6.93165018 344.8169,7.45479359 351.356192,7.45479359 C357.895485,7.45479359 362.538383,7.71636529 365.284886,8.2395087 L367.83521,8.2395087 Z M457.881269,125.946776 C457.881269,132.616854 457.161947,138.567611 455.723303,143.799045 C449.968725,143.799045 441.467645,143.929831 430.220061,144.191402 L404.520641,144.387581 C392.880701,144.387581 381.24076,143.995223 369.600819,143.210508 C369.731605,139.025361 369.535426,122.742522 369.012282,94.3619925 C368.619925,78.2753327 368.423746,65.9160696 368.423746,57.2842033 C368.423746,39.3665416 368.881497,22.6913454 369.796998,7.25861481 L387.06073,6.67007847 C406.417036,5.88536336 421.195838,5.4930058 431.397134,5.4930058 C440.159786,5.4930058 448.660867,5.81997043 456.900375,6.47389969 C457.423519,9.22040259 457.68509,12.424656 457.68509,16.0866598 C457.68509,18.0484476 457.554305,21.252701 457.292733,25.69942 C457.031161,29.8845673 456.900375,33.1542136 456.900375,35.5083589 C449.053224,37.208575 440.290572,38.058683 430.612419,38.058683 L405.109178,38.2548618 C404.455248,44.4017969 404.128284,49.5024451 404.128284,53.5568066 C404.128284,56.695667 404.520641,59.4421699 405.305357,61.7963153 L418.253156,60.226885 C420.084158,60.226885 422.830661,60.3576709 426.492665,60.6192426 L429.042989,60.8154214 C429.696918,64.7389969 430.023883,68.9895371 430.023883,73.567042 L429.631525,89.2613443 C425.446378,90.4384169 419.822586,91.0269533 412.76015,91.0269533 L407.659502,90.8307745 C406.744001,90.8307745 406.155465,90.9615603 405.893893,91.223132 L405.109178,101.424429 C405.109178,106.786648 405.370749,111.233367 405.893893,114.764585 C412.694757,114.764585 419.299443,114.960764 425.70795,115.353122 C427.931309,115.483908 430.677812,115.614694 433.947458,115.745479 C437.217105,115.876265 441.075287,115.941658 445.522006,115.941658 L457.488912,115.549301 C457.750483,121.56545 457.881269,125.031275 457.881269,125.946776 Z M542.041965,106.917434 C547.273399,114.895371 551.491243,121.630843 554.695496,127.123849 C557.89975,132.616854 560.548163,138.175253 562.640737,143.799045 L559.501876,143.799045 C557.932446,143.799045 554.401228,143.929831 548.908222,144.191402 C543.415217,144.452974 539.033891,144.58376 535.764244,144.58376 C533.933242,144.58376 531.186739,144.452974 527.524736,144.191402 L524.189696,143.995223 C515.688616,124.638917 508.103037,110.121688 501.432958,100.443535 L501.432958,105.544183 C501.432958,113.652906 501.890709,124.115774 502.806209,136.932787 L502.806209,136.736609 C502.936995,137.65211 503.002388,139.22154 503.002388,141.444899 C498.555669,143.537473 491.231662,144.58376 481.030365,144.58376 L476.322074,144.387581 L465.924599,144.387581 C464.485955,144.387581 463.766633,132.551461 463.766633,108.879222 C463.766633,87.4303423 463.570454,65.9487661 463.178096,44.4344933 C462.785739,22.9202206 462.197202,10.0051177 461.412487,5.68918458 L466.709314,4.90446946 C474.556465,3.85818265 481.030365,3.07346753 486.131013,2.55032412 C491.231662,2.02718071 496.463096,1.76560901 501.825316,1.76560901 C507.579893,1.76560901 512.484363,2.02718071 516.538724,2.55032412 C524.124303,3.46582509 531.219436,6.08154214 537.824121,10.3974753 C544.428807,14.7134084 549.725634,20.0102354 553.714603,26.2879563 C557.703571,32.5656772 559.698055,39.0395769 559.698055,45.7096554 C559.698055,52.1181622 557.605482,59.1152053 553.420334,66.7007847 C550.804617,71.4090754 547.338792,75.332651 543.022859,78.4715114 C538.706926,81.6103719 533.540885,83.5067667 527.524736,84.160696 C531.055954,90.4384169 535.175708,96.9777095 539.883999,103.778574 C540.7995,105.348004 541.518822,106.394291 542.041965,106.917434 Z M513.792221,56.8918458 C515.623223,56.3687024 517.061867,55.0608439 518.108154,52.9682702 C519.154441,50.8756966 519.677584,48.3907654 519.677584,45.5134766 C519.677584,40.1512567 518.369726,36.6854316 515.754009,35.1160014 C514.053793,34.0697145 512.32088,33.4157853 510.555271,33.1542136 C508.789662,32.8926419 506.795178,32.761856 504.571818,32.761856 L496.136131,34.1351075 C496.397703,38.058683 496.528489,41.3937223 496.528489,44.1402252 C496.528489,51.2026612 496.724667,55.5185943 497.117025,57.0880246 C499.340384,57.3495963 502.086887,57.4803821 505.356534,57.4803821 C508.364608,57.4803821 511.176504,57.2842033 513.792221,56.8918458 Z M643.466394,0 C652.359832,0 660.730126,2.05987718 668.577277,6.17963153 C676.424429,10.2993859 682.702149,15.9231775 687.41044,23.0510065 C692.118731,30.1788354 694.472876,37.9278972 694.472876,46.2981917 C694.472876,51.2680541 693.557375,56.2379165 691.726373,61.2077789 C686.233367,62.3848516 681.655863,62.9733879 677.993859,62.9733879 C673.023996,62.9733879 666.157739,62.1232799 657.395087,60.4230638 L656.806551,52.9682702 C656.544979,46.952121 655.79296,42.4073126 654.550495,39.3338451 C653.308029,36.2603776 650.659616,34.7890367 646.605254,34.9198226 C646.474468,34.9198226 646.310986,34.952519 646.114807,35.017912 C645.918628,35.0833049 645.62436,35.1160014 645.232003,35.1160014 L645.428182,35.1160014 C641.37382,35.7699306 639.150461,37.1431821 638.758103,39.2357557 C638.496531,39.7588991 638.169567,43.8786535 637.777209,51.5950188 C637.384852,59.3113841 637.188673,67.1585352 637.188673,75.1364722 C637.188673,83.245195 637.384852,90.0460594 637.777209,95.5390652 C638.169567,99.0702832 639.215854,102.503412 640.91607,105.838451 C642.616286,109.17349 644.643466,111.429546 646.997612,112.606619 C651.575117,112.868191 655.040942,110.775617 657.395087,106.328898 L657.198908,106.328898 C658.375981,103.843967 658.964517,100.11657 658.964517,95.1467076 C658.964517,91.223132 659.226089,88.1496645 659.749232,85.926305 C663.018879,86.4494484 666.157739,86.7110201 669.165814,86.7110201 L678.190038,86.5148414 C682.898328,86.5148414 687.345047,87.0379848 691.530194,88.0842716 C693.099625,92.6617764 693.88434,97.43546 693.88434,102.405322 C693.88434,109.860116 692.020641,116.922552 688.293245,123.592631 C684.565848,130.262709 679.432503,135.690322 672.893211,139.875469 C666.353918,144.060616 659.095303,146.283976 651.117366,146.545548 C648.763221,146.937905 646.016718,147.134084 642.877857,147.134084 C632.676561,147.134084 623.71773,144.845332 616.001365,140.267827 C608.284999,135.690322 603.969066,128.824065 603.053565,119.669055 C602.399636,106.59047 602.072671,92.5309906 602.072671,77.4906175 C602.072671,65.0659616 602.138064,54.8646651 602.26885,46.8867281 L602.465029,38.058683 C602.334243,36.0968953 602.497725,33.8408393 602.955476,31.2905152 C603.413226,28.7401911 604.034459,26.4841351 604.819174,24.5223473 C605.996247,21.5142727 607.532981,18.5061981 609.429376,15.4981235 C611.32577,12.4900489 613.320255,10.0051177 615.412828,8.04332992 C618.159331,5.81997043 622.213693,3.92357557 627.575913,2.35414534 C632.676561,0.784715114 637.973388,0 643.466394,0 Z M754.307404,3.92357557 C755.876834,10.0705106 757.315478,16.1193563 758.623337,22.0701126 C759.931195,28.0208689 761.108268,33.3503924 762.154555,38.058683 C766.339702,56.2379165 769.151598,68.3356079 770.590242,74.3517571 L783.538042,143.995223 C779.352894,144.910724 774.840782,145.368475 770.001706,145.368475 C764.247128,145.368475 757.969407,144.649153 751.168543,143.210508 C750.253042,140.725577 748.814398,135.494143 746.85261,127.516206 C744.890822,119.407483 743.321392,114.045263 742.144319,111.429546 L738.220744,111.233367 L734.885705,111.429546 C734.362561,112.998976 733.512453,116.857159 732.33538,123.004094 C731.419879,128.104742 730.504378,132.257193 729.588878,135.461447 C728.673377,138.6657 727.365518,141.575685 725.665302,144.191402 C724.357443,144.452974 722.395656,144.58376 719.779939,144.58376 C718.602866,144.58376 716.052542,144.452974 712.128966,144.191402 C700.750597,143.668259 694.407483,143.406687 693.099625,143.406687 C693.099625,142.752758 693.230411,141.216024 693.491982,138.796486 C693.753554,136.376948 694.145912,133.663141 694.669055,130.655067 L698.984988,105.93654 C702.38542,85.6647333 705.62237,68.0086432 708.695838,52.9682702 C711.769305,37.9278972 715.79097,22.0374161 720.760832,5.29682702 C722.591834,5.03525532 725.076766,4.90446946 728.215626,4.90446946 L729.392699,4.90446946 C737.893779,4.90446946 746.198681,4.57750483 754.307404,3.92357557 Z M738.22,45.126 L738.219,45.1420448 C738.202724,45.3373517 738.07252,46.8998067 737.828386,49.8294098 C737.436029,59.6383487 736.847492,67.4201069 736.062777,73.1746844 L734.297168,86.3186626 L742.536677,86.3186626 C739.659388,60.1614921 738.286137,47.0829069 738.416923,47.0829069 L738.22,45.126 Z M834.544524,126.92767 C826.305015,108.879222 820.877402,96.3891732 818.261685,89.457523 L818.261685,127.123849 C818.261685,135.232571 818.327078,140.79097 818.457864,143.799045 C814.926646,144.845332 811.068464,145.368475 806.883316,145.368475 C805.575458,145.368475 803.61367,145.237689 800.997953,144.976117 C798.120664,144.714546 796.028091,144.58376 794.720232,144.58376 L785.107472,144.191402 L785.107472,129.477994 C785.107472,121.107699 784.976686,109.206187 784.715114,93.7734562 C784.584328,86.0570909 784.518936,74.3517571 784.518936,58.6574548 C784.518936,37.6009326 785.107472,19.9448425 786.284545,5.68918458 C789.815763,4.77368361 793.739338,4.31593313 798.055271,4.31593313 C800.93256,4.31593313 804.431082,4.57750483 808.550836,5.10064824 C812.67059,5.62379165 815.515183,6.40850677 817.084613,7.45479359 C818.915615,10.8552257 821.171671,15.5962129 823.852781,21.677755 C826.533891,27.7592972 829.116911,33.8081428 831.601842,39.8242921 L839.448994,57.8727397 C839.187422,48.71773 839.056636,37.9278972 839.056636,25.5032412 C839.056636,15.4327306 839.122029,8.5010804 839.252815,4.70829069 C844.615035,3.66200387 850.304219,3.13886046 856.320368,3.13886046 C861.421017,3.13886046 866.717844,3.72739679 872.21085,4.90446946 L872.21085,143.995223 C871.818492,143.995223 871.033777,144.191402 869.856704,144.58376 C868.548846,145.106903 866.260093,145.368475 862.990447,145.368475 C862.336518,145.499261 858.870693,145.303082 852.592972,144.779939 C851.023541,144.649153 849.029057,144.518367 846.609519,144.387581 C844.189981,144.256795 842.784033,144.256795 842.391675,144.387581 L834.544524,126.92767 Z M1009.92835,4.90446946 C1016.20607,4.90446946 1022.12413,5.72188104 1027.68253,7.3567042 C1033.24093,8.99152735 1038.1127,11.3783692 1042.29785,14.5172296 C1046.87536,18.7023769 1049.88343,22.8221312 1051.32207,26.8764927 C1052.8915,31.0616399 1054.00318,35.2467872 1054.65711,39.4319345 C1055.04947,43.4862959 1055.24565,47.6060503 1055.24565,51.7911975 L1055.04947,55.3224156 L1055.04947,58.8536336 C1054.7879,63.1695667 1054.65711,69.5126805 1054.65711,77.8829751 C1054.65711,87.1687706 1054.46093,94.2312066 1054.06858,99.0702832 L1053.48004,105.544183 C1052.82611,116.137837 1050.145,125.162061 1045.43671,132.616854 C1043.47492,135.363357 1040.53224,137.782895 1036.60867,139.875469 C1032.68509,141.968043 1028.36916,143.668259 1023.66087,144.976117 C1018.82179,146.414762 1013.13261,147.134084 1006.59331,147.134084 C1003.58524,147.134084 1001.49266,147.068691 1000.31559,146.937905 C993.907085,146.414762 988.185204,145.008814 983.149949,142.720061 C978.114694,140.431309 974.419993,137.063573 972.065848,132.616854 C968.926987,126.731491 967.226771,119.34209 966.9652,110.448652 L966.572842,104.170931 C966.442056,103.124645 966.376663,100.966678 966.376663,97.6970317 C965.722734,86.9725918 965.395769,76.7059024 965.395769,66.8969635 C965.395769,60.8808143 965.591948,54.8646651 965.984306,48.8485159 C966.376663,42.3092232 967.521039,35.9334129 969.417434,29.721085 C971.313829,23.508757 974.223814,18.0484476 978.14739,13.3401569 L982.463323,10.9860116 C990.833618,6.93165018 999.988627,4.90446946 1009.92835,4.90446946 Z M898.302627,5.29682702 C902.880132,5.29682702 906.672922,6.14693506 909.680996,7.84715114 C910.858069,12.6862277 912.656374,18.7023769 915.075913,25.8955988 C917.495451,33.0888207 919.8169,39.4973274 922.040259,45.1211191 C922.694189,43.8132605 924.786762,37.8625043 928.31798,27.2688502 C932.241556,15.4981235 934.464915,9.08961674 934.988059,8.04332992 C942.181281,6.60468555 949.30911,5.88536336 956.371546,5.88536336 C960.687479,5.88536336 964.480268,6.14693506 967.749915,6.67007847 C964.611054,18.4408052 960.752872,29.7864779 956.175367,40.7070966 C951.597862,51.6277152 945.385534,65.3275333 937.538383,81.8065507 C931.260662,94.6235642 926.029228,105.838451 921.844081,115.451211 C917.658933,125.063971 913.931536,134.840214 910.66189,144.779939 C907.52303,144.387581 904.514955,144.191402 901.637666,144.191402 C899.675879,144.191402 896.994769,144.322188 893.594336,144.58376 L885.354828,144.779939 C882.739111,144.779939 879.731036,144.58376 876.330604,144.191402 C879.469464,134.774821 885.485614,118.557375 894.379052,95.5390652 L902.422381,75.1364722 C901.114523,69.9050381 899.4797,64.7716934 897.517912,59.7364381 C895.556124,54.7011828 893.071193,48.71773 890.063118,41.7860798 C886.5319,33.0234277 883.883487,26.2879563 882.117878,21.5796656 C880.352269,16.871375 878.815535,11.9015126 877.507677,6.67007847 C879.992608,6.80086432 883.85079,6.60468555 889.082224,6.08154214 C893.267372,5.55839873 896.340839,5.29682702 898.302627,5.29682702 Z M1011.89014,34.3312863 C1008.75128,34.3312863 1005.67781,35.3775731 1002.66974,37.4701467 C1001.10031,38.7780052 999.563573,40.6417036 998.059536,43.0612419 C996.555499,45.4807802 995.411122,47.9330149 994.626407,50.4179461 C993.318549,56.1725236 992.66462,63.4965313 992.66462,72.3899693 C992.66462,76.8366883 992.730013,80.1717275 992.860798,82.395087 L992.860798,82.1989082 C993.383942,84.8146253 993.776299,88.2804504 994.037871,92.5963835 L994.23405,95.3428864 C994.757193,101.882179 995.476515,106.721256 996.392016,109.860116 L996.392016,109.663937 C997.569089,112.279654 999.302002,114.274139 1001.59075,115.64739 C1003.87951,117.020641 1006.33174,117.707267 1008.94746,117.707267 C1011.04003,117.707267 1013.1653,117.21682 1015.32327,116.235926 C1017.48124,115.255032 1019.34493,113.849084 1020.91436,112.018083 C1022.22222,110.317866 1023.03963,108.879222 1023.3666,107.702149 C1023.69356,106.525077 1023.85705,104.694075 1023.85705,102.209144 C1023.85705,99.9857841 1023.92244,98.350961 1024.05322,97.3046742 L1024.2494,94.7543501 L1024.44558,91.0269533 L1024.44558,88.2804504 L1024.64176,84.5530536 L1024.64176,75.1364722 L1024.2494,61.7963153 L1024.2494,60.8154214 L1023.46469,50.6141249 C1023.20312,46.952121 1022.32031,43.7151712 1020.81627,40.9032753 C1019.31224,38.0913795 1017.38315,36.0968953 1015.029,34.9198226 C1013.98271,34.527465 1012.93643,34.3312863 1011.89014,34.3312863 Z M1112.33367,126.92767 C1104.09417,108.879222 1098.66655,96.3891732 1096.05084,89.457523 L1096.05084,127.123849 C1096.05084,135.232571 1096.11623,140.79097 1096.24701,143.799045 C1092.7158,144.845332 1088.85761,145.368475 1084.67247,145.368475 C1083.36461,145.368475 1081.40282,145.237689 1078.7871,144.976117 C1075.90981,144.714546 1073.81724,144.58376 1072.50938,144.58376 L1062.89662,144.191402 L1062.89662,129.477994 C1062.89662,121.107699 1062.76584,109.206187 1062.50426,93.7734562 C1062.37348,86.0570909 1062.30809,74.3517571 1062.30809,58.6574548 C1062.30809,37.6009326 1062.89662,19.9448425 1064.07369,5.68918458 C1067.60491,4.77368361 1071.52849,4.31593313 1075.84442,4.31593313 C1078.72171,4.31593313 1082.22023,4.57750483 1086.33999,5.10064824 C1090.45974,5.62379165 1093.30433,6.40850677 1094.87376,7.45479359 C1096.70477,10.8552257 1098.96082,15.5962129 1101.64193,21.677755 C1104.32304,27.7592972 1106.90606,33.8081428 1109.39099,39.8242921 L1117.23814,57.8727397 C1116.97657,48.71773 1116.84579,37.9278972 1116.84579,25.5032412 C1116.84579,15.4327306 1116.91118,8.5010804 1117.04197,4.70829069 C1122.40419,3.66200387 1128.09337,3.13886046 1134.10952,3.13886046 C1139.21017,3.13886046 1144.50699,3.72739679 1150,4.90446946 L1150,143.995223 C1149.60764,143.995223 1148.82293,144.191402 1147.64585,144.58376 C1146.338,145.106903 1144.04924,145.368475 1140.7796,145.368475 C1140.12567,145.499261 1136.65984,145.303082 1130.38212,144.779939 C1128.81269,144.649153 1126.81821,144.518367 1124.39867,144.387581 C1121.97913,144.256795 1120.57318,144.256795 1120.18083,144.387581 L1112.33367,126.92767 Z" transform="translate(25 21)"/></g></svg>