<svg xmlns="http://www.w3.org/2000/svg" width="315" height="60" viewBox="0 0 315 60"><g fill="none" transform="translate(2.308 1.817)"><path fill="#FFF" d="M94.5729084,55.5526729 C95.4062418,55.5526729 96.1354084,55.2922562 96.7604084,54.7714229 C97.3854084,54.2505896 97.7604084,53.5735062 97.8854084,52.7401729 L97.8854084,52.7401729 L101.260408,35.3026729 C101.385408,34.4276729 101.510408,33.5735062 101.635408,32.7401729 L101.710408,32.2376729 C101.810408,31.5643396 101.910408,30.8776729 102.010408,30.1776729 L102.010408,30.1776729 L102.760408,30.1776729 C102.927075,31.0526729 103.052075,31.9068396 103.135408,32.7401729 C103.218742,33.5735062 103.322908,34.4276729 103.447908,35.3026729 L103.447908,35.3026729 L106.885408,52.7401729 C106.968742,53.5735062 107.322908,54.2505896 107.947908,54.7714229 C108.572908,55.2922562 109.302075,55.5526729 110.135408,55.5526729 L110.135408,55.5526729 L117.135408,55.5526729 C117.927075,55.5526729 118.614575,55.3339229 119.197908,54.8964229 C119.781242,54.4589229 120.156242,53.8651729 120.322908,53.1151729 L120.322908,53.1151729 L127.947908,24.6776729 L118.635408,24.6776729 L114.385408,44.6776729 C114.218742,45.5526729 114.083325,46.3964229 113.979158,47.2089229 C113.874992,48.0214229 113.739575,48.8651729 113.572908,49.7401729 L113.572908,49.7401729 L112.822908,49.7401729 C112.697908,48.8651729 112.552075,48.0110062 112.385408,47.1776729 C112.218742,46.3443396 112.072908,45.5110062 111.947908,44.6776729 L111.947908,44.6776729 L108.635408,27.4901729 C108.510408,26.6568396 108.145825,25.9797562 107.541658,25.4589229 C106.937492,24.9380896 106.218742,24.6776729 105.385408,24.6776729 L105.385408,24.6776729 L99.3854084,24.6776729 C98.5520751,24.6776729 97.8333251,24.9380896 97.2291584,25.4589229 C96.6249918,25.9797562 96.2812418,26.6360062 96.1979084,27.4276729 L96.1979084,27.4276729 L92.7604084,44.6776729 C92.6354084,45.5110062 92.4999918,46.3547562 92.3541584,47.2089229 L92.2679084,47.7201729 C92.1545751,48.4001729 92.0479084,49.0735062 91.9479084,49.7401729 L91.9479084,49.7401729 L91.1354084,49.7401729 C91.0520751,48.9068396 90.9479084,48.0630896 90.8229084,47.2089229 C90.6979084,46.3547562 90.5520751,45.5110062 90.3854084,44.6776729 L90.3854084,44.6776729 L86.1354084,24.6776729 L76.8854084,24.6776729 L84.5104084,53.1151729 C84.6770751,53.8651729 85.0520751,54.4589229 85.6354084,54.8964229 C86.2187418,55.3339229 86.8854084,55.5526729 87.6354084,55.5526729 L87.6354084,55.5526729 L94.5729084,55.5526729 Z M146.95328,55.5526729 C147.787427,55.5526729 148.779248,55.4356889 149.928743,55.2017208 C151.078239,54.9677527 152.273511,54.5557654 153.514559,53.9657588 C154.755607,53.3757523 155.981396,52.5670365 157.191927,51.5396114 C158.402458,50.5121863 159.490918,49.2050167 160.457308,47.6181026 C161.423698,46.0311885 162.201896,44.1238399 162.791903,41.8960567 C163.381909,39.6682735 163.676912,37.0590206 163.676912,34.0682979 C163.676912,30.7113643 163.28527,27.6341752 162.501986,24.8367305 C161.718701,22.0392859 160.574292,19.6283972 159.068758,17.6040645 C157.563224,15.5797318 155.716911,14.0080766 153.529818,12.8890987 C151.342725,11.7701208 148.855542,11.2106319 146.06827,11.2106319 C143.403068,11.2106319 140.85485,11.7599483 138.423616,12.8585811 C135.992383,13.9572139 133.698478,15.6356807 131.541903,17.8939815 L131.541903,17.8939815 L134.624178,20.7015987 C135.112459,20.0709021 135.743156,19.4249467 136.516268,18.7637325 C137.28938,18.1025183 138.164217,17.5023393 139.14078,16.9631954 C140.117342,16.4240515 141.190544,15.9815466 142.360384,15.6356807 C143.530225,15.2898148 144.766186,15.1168819 146.06827,15.1168819 C147.736564,15.1168819 149.231925,15.371195 150.554354,15.8798213 C151.876782,16.3884477 153.046623,17.0852657 154.063875,17.9702754 C155.081128,18.8552852 155.950879,19.8979691 156.673128,21.0983272 C157.395378,22.2986853 157.985384,23.6007686 158.443148,25.0045772 C158.900911,26.4083858 159.236605,27.8834021 159.450228,29.429626 C159.663851,30.97585 159.770662,32.522074 159.770662,34.0682979 C159.770662,36.6521195 159.526522,38.8799027 159.03824,40.7516475 C158.549959,42.6233923 157.914176,44.2103064 157.130892,45.5123897 C156.347607,46.814473 155.47277,47.8673295 154.50638,48.670959 C153.53999,49.4745886 152.583773,50.0951127 151.637728,50.5325313 C150.691683,50.9699499 149.801587,51.2649532 148.96744,51.4175411 C148.133293,51.570129 147.461906,51.6464229 146.95328,51.6464229 C144.979809,51.6464229 143.214876,51.3361609 141.65848,50.7156368 C140.102083,50.0951127 138.784741,49.2355342 137.706453,48.1369014 C136.628166,47.0382686 135.804191,45.7361853 135.23453,44.2306514 C134.664868,42.7251176 134.380037,41.0873409 134.380037,39.3173213 C134.380037,37.8728227 134.624178,36.4842728 135.112459,35.1516719 C135.60074,33.819071 136.333162,32.639058 137.309725,31.6116329 C138.286287,30.5842077 139.50699,29.7602331 140.971834,29.139709 C142.436678,28.519185 144.145662,28.2089229 146.098787,28.2089229 L146.098787,28.2089229 L146.098787,24.3026729 C144.349113,24.3026729 142.74694,24.5061234 141.292269,24.9130245 C139.837598,25.3199255 138.530428,25.8743282 137.37076,26.5762325 C136.211092,27.2781368 135.198926,28.1071977 134.334261,29.0634151 C133.469596,30.0196325 132.752433,31.0521439 132.182772,32.1609493 C131.61311,33.2697546 131.185864,34.4345088 130.901033,35.655212 C130.616203,36.8759151 130.473787,38.0864457 130.473787,39.2868038 C130.473787,41.6264848 130.880688,43.7881465 131.69449,45.7717891 C132.508293,47.7554317 133.647615,49.4745886 135.112459,50.9292598 C136.577303,52.383931 138.316805,53.5181677 140.330965,54.3319698 C142.345125,55.1457719 144.552563,55.5526729 146.95328,55.5526729 Z M185.555819,56.3026729 C188.680819,56.3026729 191.222485,55.8964229 193.180819,55.0839229 C195.139152,54.2714229 196.670402,53.1255896 197.774569,51.6464229 C198.878735,50.1672562 199.649569,48.4276729 200.087069,46.4276729 C200.524569,44.4276729 200.743319,42.2401729 200.743319,39.8651729 C200.743319,34.1568396 199.857902,30.0630896 198.087069,27.5839229 C196.316235,25.1047562 193.389152,23.8651729 189.305819,23.8651729 C187.805819,23.8651729 186.347485,24.1255896 184.930819,24.6464229 C183.514152,25.1672562 182.180819,25.8860062 180.930819,26.8026729 C180.071444,27.4328812 179.251457,28.1221716 178.470858,28.870544 L178.321614,29.0151729 L178.329569,28.9864229 C178.570957,28.0605896 178.750726,27.1179507 178.868874,26.1585062 L178.899569,25.8964229 C179.045402,24.5839229 179.118319,23.2193396 179.118319,21.8026729 L179.118319,21.8026729 L179.055819,11.8026729 L169.805819,11.8026729 L169.805819,53.8651729 L169.958693,53.9305296 C170.885285,54.3200725 171.980161,54.6628703 173.243319,54.9589229 C174.576652,55.2714229 175.982902,55.5318396 177.462069,55.7401729 C178.941235,55.9485062 180.389152,56.0943396 181.805819,56.1776729 C183.222485,56.2610062 184.472485,56.3026729 185.555819,56.3026729 Z M185.368319,49.6151729 C184.618319,49.6568396 183.743319,49.6464229 182.743319,49.5839229 C181.743319,49.5214229 180.764152,49.3964229 179.805819,49.2089229 C179.566235,49.1620479 179.33186,49.1132198 179.102694,49.0624385 L179.041864,49.0489229 L179.001364,33.6636729 L179.126131,33.5839229 C180.044881,33.0005896 180.902381,32.4989229 181.698631,32.0789229 L181.868319,31.9901729 C182.993319,31.4068396 184.243319,31.1151729 185.618319,31.1151729 C187.118319,31.1151729 188.274569,31.3755896 189.087069,31.8964229 C189.899569,32.4172562 190.462069,33.3130896 190.774569,34.5839229 C191.087069,35.8547562 191.243319,37.6360062 191.243319,39.9276729 C191.243319,42.4276729 191.045402,44.3755896 190.649569,45.7714229 C190.253735,47.1672562 189.639152,48.1464229 188.805819,48.7089229 C187.972485,49.2714229 186.826652,49.5735062 185.368319,49.6151729 Z M221.680819,56.3651729 C225.555819,56.3651729 228.659985,55.8339229 230.993319,54.7714229 C233.326652,53.7089229 235.003735,51.9901729 236.024569,49.6151729 C237.045402,47.2401729 237.555819,44.0943396 237.555819,40.1776729 C237.555819,36.1776729 237.045402,32.9901729 236.024569,30.6151729 C235.003735,28.2401729 233.326652,26.5214229 230.993319,25.4589229 C228.659985,24.3964229 225.555819,23.8651729 221.680819,23.8651729 C217.847485,23.8651729 214.764152,24.3964229 212.430819,25.4589229 C210.097485,26.5214229 208.409985,28.2401729 207.368319,30.6151729 C206.326652,32.9901729 205.805819,36.1776729 205.805819,40.1776729 C205.805819,44.0943396 206.326652,47.2401729 207.368319,49.6151729 C208.409985,51.9901729 210.097485,53.7089229 212.430819,54.7714229 C214.764152,55.8339229 217.847485,56.3651729 221.680819,56.3651729 Z M221.680819,49.6151729 C220.097485,49.6151729 218.847485,49.3547562 217.930819,48.8339229 C217.014152,48.3130896 216.368319,47.3651729 215.993319,45.9901729 C215.618319,44.6151729 215.430819,42.6776729 215.430819,40.1776729 C215.430819,37.5943396 215.618319,35.6151729 215.993319,34.2401729 C216.368319,32.8651729 217.014152,31.9068396 217.930819,31.3651729 C218.847485,30.8235062 220.097485,30.5526729 221.680819,30.5526729 C223.305819,30.5526729 224.576652,30.8235062 225.493319,31.3651729 C226.409985,31.9068396 227.045402,32.8651729 227.399569,34.2401729 C227.753735,35.6151729 227.930819,37.5943396 227.930819,40.1776729 C227.930819,42.6776729 227.753735,44.6151729 227.399569,45.9901729 C227.045402,47.3651729 226.409985,48.3130896 225.493319,48.8339229 C224.576652,49.3547562 223.305819,49.6151729 221.680819,49.6151729 Z M255.524569,56.3026729 C256.274569,56.3026729 257.191235,56.2505896 258.274569,56.1464229 C259.357902,56.0422562 260.441235,55.8964229 261.524569,55.7089229 C262.607902,55.5214229 263.524569,55.3026729 264.274569,55.0526729 L264.274569,55.0526729 L263.274569,48.8026729 L259.274569,48.8026729 C258.066235,48.8026729 257.201652,48.5630896 256.680819,48.0839229 C256.159985,47.6047562 255.899569,46.8026729 255.899569,45.6776729 L255.899569,45.6776729 L255.899364,30.7401729 L264.524569,30.7401729 L264.524569,24.6776729 L255.899364,24.6776729 L255.899569,16.1151729 L246.649569,16.1151729 L246.649364,24.7101729 L241.274569,24.9901729 L241.274569,30.7401729 L246.649364,30.7401729 L246.649569,47.7401729 C246.649569,50.3992638 247.402668,52.475958 248.908866,53.9702556 L248.993319,54.0526729 C250.555819,55.5526729 252.732902,56.3026729 255.524569,56.3026729 Z M282.618319,56.2401729 C285.909985,56.2401729 288.597485,55.9797562 290.680819,55.4589229 C292.764152,54.9380896 294.284985,53.9901729 295.243319,52.6151729 C296.201652,51.2401729 296.680819,49.2610062 296.680819,46.6776729 C296.680819,44.0526729 296.055819,42.0839229 294.805819,40.7714229 C293.555819,39.4589229 291.639152,38.4693396 289.055819,37.8026729 L289.055819,37.8026729 L280.993319,35.8651729 C279.534985,35.4901729 278.493319,35.1464229 277.868319,34.8339229 C277.243319,34.5214229 276.930819,33.8860062 276.930819,32.9276729 C276.930819,32.1360062 277.107902,31.5839229 277.462069,31.2714229 C277.816235,30.9589229 278.430819,30.7714229 279.305819,30.7089229 C280.180819,30.6464229 281.430819,30.6151729 283.055819,30.6151729 C284.972485,30.6151729 286.941235,30.6360062 288.962069,30.6776729 C290.982902,30.7193396 292.993319,30.7610062 294.993319,30.8026729 L294.993319,30.8026729 L295.618319,25.0526729 C294.326652,24.8026729 292.847485,24.5943396 291.180819,24.4276729 C289.514152,24.2610062 287.805819,24.1255896 286.055819,24.0214229 C284.305819,23.9172562 282.680819,23.8651729 281.180819,23.8651729 C277.972485,23.8651729 275.409985,24.1464229 273.493319,24.7089229 C271.576652,25.2714229 270.180819,26.1985062 269.305819,27.4901729 C268.430819,28.7818396 267.993319,30.4901729 267.993319,32.6151729 C267.993319,34.2818396 268.212069,35.7089229 268.649569,36.8964229 C269.087069,38.0839229 269.847485,39.0943396 270.930819,39.9276729 C272.014152,40.7610062 273.555819,41.4485062 275.555819,41.9901729 L275.555819,41.9901729 L283.368319,43.9276729 C284.909985,44.3443396 286.034985,44.7089229 286.743319,45.0214229 C287.451652,45.3339229 287.805819,45.9693396 287.805819,46.9276729 C287.805819,47.6776729 287.597485,48.2401729 287.180819,48.6151729 C286.764152,48.9901729 285.993319,49.2297562 284.868319,49.3339229 C283.743319,49.4380896 282.097485,49.4901729 279.930819,49.4901729 L275.51293,49.4900135 C274.251344,49.4886317 273.088557,49.4782681 272.024569,49.4589229 C270.878735,49.4380896 269.909985,49.4068396 269.118319,49.3651729 L269.118319,49.3651729 L268.555819,55.1151729 C271.555819,55.6568396 274.326652,55.9797562 276.868319,56.0839229 C279.409985,56.1880896 281.326652,56.2401729 282.618319,56.2401729 Z"/><path fill="#131415" stroke="#FFF" stroke-width="1.149" d="M33.1498388,-0.24670985 C35.0142415,-0.819728335 36.9455882,-0.617319549 38.5610835,0.172339866 C40.1865195,0.966858354 41.4913115,2.35465941 42.0956703,4.14273409 C42.7027828,5.93936205 42.4894323,7.80080967 41.6526447,9.35784696 C40.8824068,10.7910532 39.5825393,11.9670002 37.9062726,12.5898061 L37.9062726,12.5898061 L37.9062726,15.603373 L48.5888385,15.603373 C52.1762147,15.603373 54.9299143,16.4728903 56.9924498,17.8621231 C59.3086167,19.4221908 60.763627,21.6431808 61.5343146,24.0803303 C63.8727136,24.4454737 65.9742287,25.4782672 67.6142447,26.97137 C69.3482292,28.5500236 70.5665617,30.6429462 71.007698,33.0078561 C71.5667921,36.0046983 70.8007112,38.9345556 69.107517,41.2482671 C67.5006306,43.4440411 65.057447,45.0848558 62.1218758,45.6935982 C61.782633,48.7565829 60.5250085,51.7577819 58.0392205,53.8906628 C55.8916968,55.7333027 52.8191901,56.9396369 48.5888385,56.9396369 L48.5888385,56.9396369 L22.0415113,56.9396369 C18.6185122,56.9396369 15.0835763,55.9990302 12.4756837,53.7613799 C10.3854857,51.9679271 8.87599562,49.3431846 8.50351644,45.6778398 C6.2010554,45.1254137 4.16614305,43.9621559 2.61055233,42.383892 C0.965751875,40.7151181 -0.143714279,38.5828376 -0.472922958,36.214474 C-0.892246082,33.1973587 0.00867277385,30.3030282 1.80737578,28.06338 C3.5259904,25.9234536 6.06539971,24.3814432 9.05269059,23.9089081 C9.90158862,21.1487606 11.5286848,19.1562214 13.5543308,17.7962018 C16.0146178,16.144364 19.0721536,15.4311416 22.0415113,15.4311416 L22.0415113,15.4311416 L32.7441432,15.4311416 L32.7441432,12.5895777 C30.7549023,11.8485546 29.2139113,10.2888016 28.5547414,8.33789817 C27.9476372,6.54116341 28.1609842,4.67974365 28.9977455,3.12275537 C29.8290419,1.57593573 31.2772861,0.328813474 33.1498388,-0.24670985 Z"/><path fill="#FFF" d="M44.5317788 49.1600102 17.9844516 49.1600102C14.5932964 49.1600102 8.93468248 48.0309374 8.93468248 40.5293013L8.93468248 25.2198401C8.93468248 17.6990672 14.6133624 16.5891312 17.9844516 16.5891312L44.5317788 16.5891312C52.4177195 16.5891312 53.5815479 22.0048532 53.5815479 25.2198401L53.5815479 40.5293013C53.5815479 43.763425 52.3976535 49.1600102 44.5317788 49.1600102ZM4.92148109 37.8310088C1.26996947 36.7866165-.802347393 33.1166516.292754936 29.6342275.959448017 27.5141064 2.69866917 25.8556611 4.92148109 25.2198401L4.92148109 37.8310088ZM62.2435415 33.4163821C61.5768484 35.5365033 59.8376272 37.1949485 57.6148153 37.8307696L57.6148153 25.2196008C61.2663269 26.2642324 63.3386438 29.9339581 62.2435415 33.4163821ZM28.6685329 2.66373289C28.6118926 1.24978143 29.721888.0582293133 31.1473774.00205759435 32.5728668-.0541141246 33.7746143 1.04669907 33.8312546 2.46039636 33.8878949 3.87434782 32.7778995 5.06589994 31.3524101 5.12207166 31.3257558 5.12308834 31.2991016 5.12385085 31.2724473 5.12410663 29.8810446 5.12563004 28.7341433 4.04210046 28.6685329 2.66373289Z" transform="translate(4.057 3.416)"/><path fill="#131415" d="M46.8540913 44.4969103C43.286555 45.7001581 39.5873762 46.301782 35.756555 46.301782 31.9257337 46.301782 28.226555 45.7001581 24.6590187 44.4969103 23.5587288 44.4969103 22.6666423 45.3050416 22.6666423 46.301782 22.6666423 47.2985224 23.6548476 47.7100223 24.6590187 48.1066537 28.226555 49.1280496 31.9257337 49.6387475 35.756555 49.6387475 39.5873762 49.6387475 43.286555 49.1280496 46.8540913 48.1066537 48.0645555 47.6616035 48.8464677 47.2985224 48.8464677 46.301782 48.8464677 45.3050416 47.9543811 44.4969103 46.8540913 44.4969103ZM42.5997541 41.797113C44.4223341 41.797113 46.0333647 41.4119845 47.4328457 40.6417275 48.8323268 39.8714704 49.9226203 38.8028744 50.703726 37.4359394 51.4848317 36.0690044 51.8753846 34.5067929 51.8753846 32.749305 51.8753846 31.0569093 51.5011047 29.5272439 50.7525451 28.1603089 50.0039854 26.7933739 48.9408137 25.7085048 47.56303 24.9057017 46.1852463 24.1028986 44.5633671 23.701497 42.6973923 23.701497 40.8965096 23.701497 39.3776929 24.0703525 38.1409422 24.8080635 36.9041915 25.5457744 35.9603554 26.5547027 35.309434 27.8348482 34.6585125 26.5764 33.7201008 25.5728962 32.4941987 24.8243365 31.2682967 24.0757768 29.7549043 23.701497 27.9540217 23.701497 26.0880469 23.701497 24.4661676 24.0974742 23.0883839 24.8894286 21.7106002 25.6813831 20.6474285 26.7608278 19.8988689 28.1277628 19.1503092 29.4946978 18.7760294 31.0352119 18.7760294 32.749305 18.7760294 34.4633981 19.1503092 36.0039122 19.8988689 37.3708472 20.6474285 38.7377823 21.6997515 39.817227 23.0558379 40.6091814 24.4119242 41.4011358 26.0121061 41.797113 27.8563835 41.797113 29.6355687 41.797113 31.1543854 41.4228332 32.4128335 40.6742735 33.6712817 39.9257139 34.6368151 38.9113613 35.309434 37.6312158 35.9603554 38.8896639 36.8933428 39.8985922 38.1083961 40.6580005 39.3234495 41.4174088 40.8205688 41.797113 42.5997541 41.797113ZM27.628561 39.3887037C26.5436919 39.3887037 25.5510367 39.1174864 24.6505954 38.5750519 23.7501541 38.0326174 23.0395648 37.2677847 22.5188277 36.2805538 21.9980905 35.293323 21.737722 34.1379374 21.737722 32.8143972 21.737722 30.7748433 22.2964295 29.1475397 23.4138447 27.9324864 24.5312598 26.717433 26.0121061 26.1099063 27.8563835 26.1099063 29.6572661 26.1099063 31.1055663 26.7228574 32.2012841 27.9487594 33.2970018 29.1746615 33.8448607 30.785692 33.8448607 32.7818511 33.8448607 34.7346154 33.3078505 36.3239486 32.2338302 37.5498506 31.1598098 38.7757527 29.6247201 39.3887037 27.628561 39.3887037ZM46.1472759 38.4774137C45.7133283 36.1340965 44.7098244 34.2843947 43.1367643 32.9283084 41.5637041 31.5722221 39.5621207 30.7639946 37.132014 30.5036261 37.4574747 29.136691 38.1138205 28.0626707 39.1010513 27.2815649 40.0882822 26.5004592 41.4172468 26.1099063 43.0879451 26.1099063 44.2379064 26.1099063 45.2468346 26.3919723 46.1147298 26.9561042 46.9826251 27.5202361 47.6606683 28.3013419 48.1488593 29.2994214 48.6370504 30.2975009 48.881146 31.4691595 48.881146 32.8143972 48.881146 34.0945427 48.6370504 35.2228065 48.1488593 36.1991886 47.6606683 37.1755708 46.9934738 37.9349792 46.1472759 38.4774137ZM27.8238374 34.8322536C28.3662719 34.8322536 28.8436143 34.6532502 29.2558646 34.2952434 29.6681148 33.9372366 29.8742399 33.3785291 29.8742399 32.6191207 29.8742399 31.8597124 29.6735392 31.3064292 29.2721376 30.9592711 28.8707361 30.612113 28.3879693 30.4385339 27.8238374 30.4385339 27.2163107 30.4385339 26.7281196 30.6066886 26.3592642 30.942998 25.9904087 31.2793074 25.8059809 31.838015 25.8059809 32.6191207 25.8059809 33.3785291 25.995833 33.9372366 26.3755372 34.2952434 26.7552414 34.6532502 27.2380081 34.8322536 27.8238374 34.8322536ZM42.9577609 39.3887037C41.1351808 39.3887037 39.6706076 38.7974501 38.5640411 37.6149428 37.4574747 36.4324355 36.8933428 34.8431023 36.8716454 32.8469432 38.9979888 33.0856144 40.6524141 33.785355 41.8349214 34.9461649 43.0174287 36.1069748 43.6303797 37.5769724 43.6737744 39.3561576 43.4351032 39.377855 43.1964321 39.3887037 42.9577609 39.3887037Z"/><path fill="#FFF" fill-opacity=".5" d="M301.70733,23.6993115 L301.70733,16.3293544 L304.467584,16.3293544 L304.467584,15.4581454 L297.896155,15.4581454 L297.896155,16.3293544 L300.656408,16.3293544 L300.656408,23.6993115 L301.70733,23.6993115 Z M305.49933,23.6993115 L305.49933,18.154184 L305.314144,16.9297822 L305.380282,16.9297822 L305.856472,18.0482262 L308.409383,21.7802971 L308.74007,21.7802971 L311.147478,18.0599993 L311.650123,16.9297822 L311.716261,16.9297822 L311.583986,18.1659571 L311.583986,23.6993115 L312.681869,23.6993115 L312.681869,15.4581454 L311.822081,15.4581454 L309.057531,19.649367 L308.647478,20.5912146 L308.621023,20.5912146 L308.184515,19.6729132 L305.287689,15.4581454 L304.467584,15.4581454 L304.467584,23.6993115 L305.49933,23.6993115 Z"/></g></svg>