<svg xmlns="http://www.w3.org/2000/svg" width="315" height="60" viewBox="0 0 315 60"><g fill="none" fill-rule="evenodd"><path fill="#000" fill-rule="nonzero" d="M96.8806152,57.3700865 C97.7139486,57.3700865 98.4431152,57.1096698 99.0681152,56.5888365 C99.6931152,56.0680031 100.068115,55.3909198 100.193115,54.5575865 L100.193115,54.5575865 L103.568115,37.1200865 C103.693115,36.2450865 103.818115,35.3909198 103.943115,34.5575865 L104.018115,34.0550865 C104.118115,33.3817531 104.218115,32.6950865 104.318115,31.9950865 L104.318115,31.9950865 L105.068115,31.9950865 C105.234782,32.8700865 105.359782,33.7242531 105.443115,34.5575865 C105.526449,35.3909198 105.630615,36.2450865 105.755615,37.1200865 L105.755615,37.1200865 L109.193115,54.5575865 C109.276449,55.3909198 109.630615,56.0680031 110.255615,56.5888365 C110.880615,57.1096698 111.609782,57.3700865 112.443115,57.3700865 L112.443115,57.3700865 L119.443115,57.3700865 C120.234782,57.3700865 120.922282,57.1513365 121.505615,56.7138365 C122.088949,56.2763365 122.463949,55.6825865 122.630615,54.9325865 L122.630615,54.9325865 L130.255615,26.4950865 L120.943115,26.4950865 L116.693115,46.4950865 C116.526449,47.3700865 116.391032,48.2138365 116.286865,49.0263365 C116.182699,49.8388365 116.047282,50.6825865 115.880615,51.5575865 L115.880615,51.5575865 L115.130615,51.5575865 C115.005615,50.6825865 114.859782,49.8284198 114.693115,48.9950865 C114.526449,48.1617531 114.380615,47.3284198 114.255615,46.4950865 L114.255615,46.4950865 L110.943115,29.3075865 C110.818115,28.4742531 110.453532,27.7971698 109.849365,27.2763365 C109.245199,26.7555031 108.526449,26.4950865 107.693115,26.4950865 L107.693115,26.4950865 L101.693115,26.4950865 C100.859782,26.4950865 100.141032,26.7555031 99.5368652,27.2763365 C98.9326986,27.7971698 98.5889486,28.4534198 98.5056152,29.2450865 L98.5056152,29.2450865 L95.0681152,46.4950865 C94.9431152,47.3284198 94.8076986,48.1721698 94.6618652,49.0263365 L94.5756152,49.5375865 C94.4622819,50.2175865 94.3556152,50.8909198 94.2556152,51.5575865 L94.2556152,51.5575865 L93.4431152,51.5575865 C93.3597819,50.7242531 93.2556152,49.8805031 93.1306152,49.0263365 C93.0056152,48.1721698 92.8597819,47.3284198 92.6931152,46.4950865 L92.6931152,46.4950865 L88.4431152,26.4950865 L79.1931152,26.4950865 L86.8181152,54.9325865 C86.9847819,55.6825865 87.3597819,56.2763365 87.9431152,56.7138365 C88.5264486,57.1513365 89.1931152,57.3700865 89.9431152,57.3700865 L89.9431152,57.3700865 L96.8806152,57.3700865 Z M149.260986,57.3700865 C150.095133,57.3700865 151.086955,57.2531024 152.23645,57.0191343 C153.385946,56.7851662 154.581217,56.3731789 155.822266,55.7831724 C157.063314,55.1931659 158.289103,54.3844501 159.499634,53.3570249 C160.710164,52.3295998 161.798625,51.0224302 162.765015,49.4355161 C163.731405,47.8486021 164.509603,45.9412534 165.099609,43.7134702 C165.689616,41.485687 165.984619,38.8764341 165.984619,35.8857115 C165.984619,32.5287779 165.592977,29.4515887 164.809692,26.6541441 C164.026408,23.8566994 162.881999,21.4458107 161.376465,19.4214781 C159.870931,17.3971454 158.024618,15.8254901 155.837524,14.7065122 C153.650431,13.5875344 151.163249,13.0280454 148.375977,13.0280454 C145.710775,13.0280454 143.162557,13.5773618 140.731323,14.6759947 C138.30009,15.7746275 136.006185,17.4530943 133.849609,19.711395 L133.849609,19.711395 L136.931885,22.5190122 C137.420166,21.8883156 138.050863,21.2423602 138.823975,20.581146 C139.597087,19.9199318 140.471924,19.3197528 141.448486,18.7806089 C142.425049,18.241465 143.49825,17.7989602 144.668091,17.4530943 C145.837931,17.1072284 147.073893,16.9342954 148.375977,16.9342954 C150.044271,16.9342954 151.539632,17.1886086 152.862061,17.6972349 C154.184489,18.2058612 155.354329,18.9026792 156.371582,19.787689 C157.388835,20.6726988 158.258586,21.7153827 158.980835,22.9157408 C159.703084,24.1160988 160.293091,25.4181822 160.750854,26.8219908 C161.208618,28.2257993 161.544312,29.7008156 161.757935,31.2470396 C161.971558,32.7932635 162.078369,34.3394875 162.078369,35.8857115 C162.078369,38.4695331 161.834229,40.6973163 161.345947,42.5690611 C160.857666,44.4408059 160.221883,46.0277199 159.438599,47.3298033 C158.655314,48.6318866 157.780477,49.684743 156.814087,50.4883726 C155.847697,51.2920021 154.891479,51.9125262 153.945435,52.3499449 C152.99939,52.7873635 152.109294,53.0823667 151.275146,53.2349546 C150.440999,53.3875425 149.769613,53.4638365 149.260986,53.4638365 C147.287516,53.4638365 145.522583,53.1535744 143.966187,52.5330503 C142.40979,51.9125262 141.092448,51.0529478 140.01416,49.954315 C138.935872,48.8556822 138.111898,47.5535988 137.542236,46.048065 C136.972575,44.5425311 136.687744,42.9047544 136.687744,41.1347349 C136.687744,39.6902362 136.931885,38.3016864 137.420166,36.9690855 C137.908447,35.6364846 138.640869,34.4564715 139.617432,33.4290464 C140.593994,32.4016213 141.814697,31.5776467 143.279541,30.9571226 C144.744385,30.3365985 146.453369,30.0263365 148.406494,30.0263365 L148.406494,30.0263365 L148.406494,26.1200865 C146.65682,26.1200865 145.054647,26.323537 143.599976,26.730438 C142.145304,27.1373391 140.838135,27.6917417 139.678467,28.393646 C138.518799,29.0955503 137.506632,29.9246112 136.641968,30.8808286 C135.777303,31.8370461 135.06014,32.8695575 134.490479,33.9783628 C133.920817,35.0871682 133.493571,36.2519224 133.20874,37.4726255 C132.92391,38.6933286 132.781494,39.9038592 132.781494,41.1042173 C132.781494,43.4438983 133.188395,45.6055601 134.002197,47.5892027 C134.815999,49.5728452 135.955322,51.2920021 137.420166,52.7466734 C138.88501,54.2013446 140.624512,55.3355812 142.638672,56.1493833 C144.652832,56.9631854 146.86027,57.3700865 149.260986,57.3700865 Z M187.863525,58.1200865 C190.988525,58.1200865 193.530192,57.7138365 195.488525,56.9013365 C197.446859,56.0888365 198.978109,54.9430031 200.082275,53.4638365 C201.186442,51.9846698 201.957275,50.2450865 202.394775,48.2450865 C202.832275,46.2450865 203.051025,44.0575865 203.051025,41.6825865 C203.051025,35.9742531 202.165609,31.8805031 200.394775,29.4013365 C198.623942,26.9221698 195.696859,25.6825865 191.613525,25.6825865 C190.113525,25.6825865 188.655192,25.9430031 187.238525,26.4638365 C185.821859,26.9846698 184.488525,27.7034198 183.238525,28.6200865 C182.37915,29.2502948 181.559163,29.9395852 180.778564,30.6879575 L180.62932,30.8325865 L180.637275,30.8038365 C180.878664,29.8780031 181.058433,28.9353642 181.176581,27.9759198 L181.207275,27.7138365 C181.353109,26.4013365 181.426025,25.0367531 181.426025,23.6200865 L181.426025,23.6200865 L181.363525,13.6200865 L172.113525,13.6200865 L172.113525,55.6825865 L172.266399,55.7479431 C173.192992,56.137486 174.287867,56.4802838 175.551025,56.7763365 C176.884359,57.0888365 178.290609,57.3492531 179.769775,57.5575865 C181.248942,57.7659198 182.696859,57.9117531 184.113525,57.9950865 C185.530192,58.0784198 186.780192,58.1200865 187.863525,58.1200865 Z M187.676025,51.4325865 C186.926025,51.4742531 186.051025,51.4638365 185.051025,51.4013365 C184.051025,51.3388365 183.071859,51.2138365 182.113525,51.0263365 C181.873942,50.9794615 181.639567,50.9306333 181.4104,50.8798521 L181.34957,50.8663365 L181.30907,35.4810865 L181.433838,35.4013365 C182.352588,34.8180031 183.210088,34.3163365 184.006338,33.8963365 L184.176025,33.8075865 C185.301025,33.2242531 186.551025,32.9325865 187.926025,32.9325865 C189.426025,32.9325865 190.582275,33.1930031 191.394775,33.7138365 C192.207275,34.2346698 192.769775,35.1305031 193.082275,36.4013365 C193.394775,37.6721698 193.551025,39.4534198 193.551025,41.7450865 C193.551025,44.2450865 193.353109,46.1930031 192.957275,47.5888365 C192.561442,48.9846698 191.946859,49.9638365 191.113525,50.5263365 C190.280192,51.0888365 189.134359,51.3909198 187.676025,51.4325865 Z M223.988525,58.1825865 C227.863525,58.1825865 230.967692,57.6513365 233.301025,56.5888365 C235.634359,55.5263365 237.311442,53.8075865 238.332275,51.4325865 C239.353109,49.0575865 239.863525,45.9117531 239.863525,41.9950865 C239.863525,37.9950865 239.353109,34.8075865 238.332275,32.4325865 C237.311442,30.0575865 235.634359,28.3388365 233.301025,27.2763365 C230.967692,26.2138365 227.863525,25.6825865 223.988525,25.6825865 C220.155192,25.6825865 217.071859,26.2138365 214.738525,27.2763365 C212.405192,28.3388365 210.717692,30.0575865 209.676025,32.4325865 C208.634359,34.8075865 208.113525,37.9950865 208.113525,41.9950865 C208.113525,45.9117531 208.634359,49.0575865 209.676025,51.4325865 C210.717692,53.8075865 212.405192,55.5263365 214.738525,56.5888365 C217.071859,57.6513365 220.155192,58.1825865 223.988525,58.1825865 Z M223.988525,51.4325865 C222.405192,51.4325865 221.155192,51.1721698 220.238525,50.6513365 C219.321859,50.1305031 218.676025,49.1825865 218.301025,47.8075865 C217.926025,46.4325865 217.738525,44.4950865 217.738525,41.9950865 C217.738525,39.4117531 217.926025,37.4325865 218.301025,36.0575865 C218.676025,34.6825865 219.321859,33.7242531 220.238525,33.1825865 C221.155192,32.6409198 222.405192,32.3700865 223.988525,32.3700865 C225.613525,32.3700865 226.884359,32.6409198 227.801025,33.1825865 C228.717692,33.7242531 229.353109,34.6825865 229.707275,36.0575865 C230.061442,37.4325865 230.238525,39.4117531 230.238525,41.9950865 C230.238525,44.4950865 230.061442,46.4325865 229.707275,47.8075865 C229.353109,49.1825865 228.717692,50.1305031 227.801025,50.6513365 C226.884359,51.1721698 225.613525,51.4325865 223.988525,51.4325865 Z M257.832275,58.1200865 C258.582275,58.1200865 259.498942,58.0680031 260.582275,57.9638365 C261.665609,57.8596698 262.748942,57.7138365 263.832275,57.5263365 C264.915609,57.3388365 265.832275,57.1200865 266.582275,56.8700865 L266.582275,56.8700865 L265.582275,50.6200865 L261.582275,50.6200865 C260.373942,50.6200865 259.509359,50.3805031 258.988525,49.9013365 C258.467692,49.4221698 258.207275,48.6200865 258.207275,47.4950865 L258.207275,47.4950865 L258.20707,32.5575865 L266.832275,32.5575865 L266.832275,26.4950865 L258.20707,26.4950865 L258.207275,17.9325865 L248.957275,17.9325865 L248.95707,26.5275865 L243.582275,26.8075865 L243.582275,32.5575865 L248.95707,32.5575865 L248.957275,49.5575865 C248.957275,52.2166774 249.710375,54.2933716 251.216573,55.7876691 L251.301025,55.8700865 C252.863525,57.3700865 255.040609,58.1200865 257.832275,58.1200865 Z M284.926025,58.0575865 C288.217692,58.0575865 290.905192,57.7971698 292.988525,57.2763365 C295.071859,56.7555031 296.592692,55.8075865 297.551025,54.4325865 C298.509359,53.0575865 298.988525,51.0784198 298.988525,48.4950865 C298.988525,45.8700865 298.363525,43.9013365 297.113525,42.5888365 C295.863525,41.2763365 293.946859,40.2867531 291.363525,39.6200865 L291.363525,39.6200865 L283.301025,37.6825865 C281.842692,37.3075865 280.801025,36.9638365 280.176025,36.6513365 C279.551025,36.3388365 279.238525,35.7034198 279.238525,34.7450865 C279.238525,33.9534198 279.415609,33.4013365 279.769775,33.0888365 C280.123942,32.7763365 280.738525,32.5888365 281.613525,32.5263365 C282.488525,32.4638365 283.738525,32.4325865 285.363525,32.4325865 C287.280192,32.4325865 289.248942,32.4534198 291.269775,32.4950865 C293.290609,32.5367531 295.301025,32.5784198 297.301025,32.6200865 L297.301025,32.6200865 L297.926025,26.8700865 C296.634359,26.6200865 295.155192,26.4117531 293.488525,26.2450865 C291.821859,26.0784198 290.113525,25.9430031 288.363525,25.8388365 C286.613525,25.7346698 284.988525,25.6825865 283.488525,25.6825865 C280.280192,25.6825865 277.717692,25.9638365 275.801025,26.5263365 C273.884359,27.0888365 272.488525,28.0159198 271.613525,29.3075865 C270.738525,30.5992531 270.301025,32.3075865 270.301025,34.4325865 C270.301025,36.0992531 270.519775,37.5263365 270.957275,38.7138365 C271.394775,39.9013365 272.155192,40.9117531 273.238525,41.7450865 C274.321859,42.5784198 275.863525,43.2659198 277.863525,43.8075865 L277.863525,43.8075865 L285.676025,45.7450865 C287.217692,46.1617531 288.342692,46.5263365 289.051025,46.8388365 C289.759359,47.1513365 290.113525,47.7867531 290.113525,48.7450865 C290.113525,49.4950865 289.905192,50.0575865 289.488525,50.4325865 C289.071859,50.8075865 288.301025,51.0471698 287.176025,51.1513365 C286.051025,51.2555031 284.405192,51.3075865 282.238525,51.3075865 L277.820636,51.307427 C276.55905,51.3060452 275.396263,51.2956817 274.332275,51.2763365 C273.186442,51.2555031 272.217692,51.2242531 271.426025,51.1825865 L271.426025,51.1825865 L270.863525,56.9325865 C273.863525,57.4742531 276.634359,57.7971698 279.176025,57.9013365 C281.717692,58.0055031 283.634359,58.0575865 284.926025,58.0575865 Z"/><g fill-rule="nonzero" transform="translate(2.308 1.817)"><path fill="#131415" stroke="#FFF" stroke-width="1.149" d="M33.1498388,-0.24670985 C35.0142415,-0.819728335 36.9455882,-0.617319549 38.5610835,0.172339866 C40.1865195,0.966858354 41.4913115,2.35465941 42.0956703,4.14273409 C42.7027828,5.93936205 42.4894323,7.80080967 41.6526447,9.35784696 C40.8824068,10.7910532 39.5825393,11.9670002 37.9062726,12.5898061 L37.9062726,12.5898061 L37.9062726,15.603373 L48.5888385,15.603373 C52.1762147,15.603373 54.9299143,16.4728903 56.9924498,17.8621231 C59.3086167,19.4221908 60.763627,21.6431808 61.5343146,24.0803303 C63.8727136,24.4454737 65.9742287,25.4782672 67.6142447,26.97137 C69.3482292,28.5500236 70.5665617,30.6429462 71.007698,33.0078561 C71.5667921,36.0046983 70.8007112,38.9345556 69.107517,41.2482671 C67.5006306,43.4440411 65.057447,45.0848558 62.1218758,45.6935982 C61.782633,48.7565829 60.5250085,51.7577819 58.0392205,53.8906628 C55.8916968,55.7333027 52.8191901,56.9396369 48.5888385,56.9396369 L48.5888385,56.9396369 L22.0415113,56.9396369 C18.6185122,56.9396369 15.0835763,55.9990302 12.4756837,53.7613799 C10.3854857,51.9679271 8.87599562,49.3431846 8.50351644,45.6778398 C6.2010554,45.1254137 4.16614305,43.9621559 2.61055233,42.383892 C0.965751875,40.7151181 -0.143714279,38.5828376 -0.472922958,36.214474 C-0.892246082,33.1973587 0.00867277385,30.3030282 1.80737578,28.06338 C3.5259904,25.9234536 6.06539971,24.3814432 9.05269059,23.9089081 C9.90158862,21.1487606 11.5286848,19.1562214 13.5543308,17.7962018 C16.0146178,16.144364 19.0721536,15.4311416 22.0415113,15.4311416 L22.0415113,15.4311416 L32.7441432,15.4311416 L32.7441432,12.5895777 C30.7549023,11.8485546 29.2139113,10.2888016 28.5547414,8.33789817 C27.9476372,6.54116341 28.1609842,4.67974365 28.9977455,3.12275537 C29.8290419,1.57593573 31.2772861,0.328813474 33.1498388,-0.24670985 Z"/><path fill="#FFF" d="M44.5317788 49.1600102 17.9844516 49.1600102C14.5932964 49.1600102 8.93468248 48.0309374 8.93468248 40.5293013L8.93468248 25.2198401C8.93468248 17.6990672 14.6133624 16.5891312 17.9844516 16.5891312L44.5317788 16.5891312C52.4177195 16.5891312 53.5815479 22.0048532 53.5815479 25.2198401L53.5815479 40.5293013C53.5815479 43.763425 52.3976535 49.1600102 44.5317788 49.1600102ZM4.92148109 37.8310088C1.26996947 36.7866165-.802347393 33.1166516.292754936 29.6342275.959448017 27.5141064 2.69866917 25.8556611 4.92148109 25.2198401L4.92148109 37.8310088ZM62.2435415 33.4163821C61.5768484 35.5365033 59.8376272 37.1949485 57.6148153 37.8307696L57.6148153 25.2196008C61.2663269 26.2642324 63.3386438 29.9339581 62.2435415 33.4163821ZM28.6685329 2.66373289C28.6118926 1.24978143 29.721888.0582293133 31.1473774.00205759435 32.5728668-.0541141246 33.7746143 1.04669907 33.8312546 2.46039636 33.8878949 3.87434782 32.7778995 5.06589994 31.3524101 5.12207166 31.3257558 5.12308834 31.2991016 5.12385085 31.2724473 5.12410663 29.8810446 5.12563004 28.7341433 4.04210046 28.6685329 2.66373289Z" transform="translate(4.057 3.416)"/><path fill="#131415" d="M46.8540913 44.4969103C43.286555 45.7001581 39.5873762 46.301782 35.756555 46.301782 31.9257337 46.301782 28.226555 45.7001581 24.6590187 44.4969103 23.5587288 44.4969103 22.6666423 45.3050416 22.6666423 46.301782 22.6666423 47.2985224 23.6548476 47.7100223 24.6590187 48.1066537 28.226555 49.1280496 31.9257337 49.6387475 35.756555 49.6387475 39.5873762 49.6387475 43.286555 49.1280496 46.8540913 48.1066537 48.0645555 47.6616035 48.8464677 47.2985224 48.8464677 46.301782 48.8464677 45.3050416 47.9543811 44.4969103 46.8540913 44.4969103ZM42.5997541 41.797113C44.4223341 41.797113 46.0333647 41.4119845 47.4328457 40.6417275 48.8323268 39.8714704 49.9226203 38.8028744 50.703726 37.4359394 51.4848317 36.0690044 51.8753846 34.5067929 51.8753846 32.749305 51.8753846 31.0569093 51.5011047 29.5272439 50.7525451 28.1603089 50.0039854 26.7933739 48.9408137 25.7085048 47.56303 24.9057017 46.1852463 24.1028986 44.5633671 23.701497 42.6973923 23.701497 40.8965096 23.701497 39.3776929 24.0703525 38.1409422 24.8080635 36.9041915 25.5457744 35.9603554 26.5547027 35.309434 27.8348482 34.6585125 26.5764 33.7201008 25.5728962 32.4941987 24.8243365 31.2682967 24.0757768 29.7549043 23.701497 27.9540217 23.701497 26.0880469 23.701497 24.4661676 24.0974742 23.0883839 24.8894286 21.7106002 25.6813831 20.6474285 26.7608278 19.8988689 28.1277628 19.1503092 29.4946978 18.7760294 31.0352119 18.7760294 32.749305 18.7760294 34.4633981 19.1503092 36.0039122 19.8988689 37.3708472 20.6474285 38.7377823 21.6997515 39.817227 23.0558379 40.6091814 24.4119242 41.4011358 26.0121061 41.797113 27.8563835 41.797113 29.6355687 41.797113 31.1543854 41.4228332 32.4128335 40.6742735 33.6712817 39.9257139 34.6368151 38.9113613 35.309434 37.6312158 35.9603554 38.8896639 36.8933428 39.8985922 38.1083961 40.6580005 39.3234495 41.4174088 40.8205688 41.797113 42.5997541 41.797113ZM27.628561 39.3887037C26.5436919 39.3887037 25.5510367 39.1174864 24.6505954 38.5750519 23.7501541 38.0326174 23.0395648 37.2677847 22.5188277 36.2805538 21.9980905 35.293323 21.737722 34.1379374 21.737722 32.8143972 21.737722 30.7748433 22.2964295 29.1475397 23.4138447 27.9324864 24.5312598 26.717433 26.0121061 26.1099063 27.8563835 26.1099063 29.6572661 26.1099063 31.1055663 26.7228574 32.2012841 27.9487594 33.2970018 29.1746615 33.8448607 30.785692 33.8448607 32.7818511 33.8448607 34.7346154 33.3078505 36.3239486 32.2338302 37.5498506 31.1598098 38.7757527 29.6247201 39.3887037 27.628561 39.3887037ZM46.1472759 38.4774137C45.7133283 36.1340965 44.7098244 34.2843947 43.1367643 32.9283084 41.5637041 31.5722221 39.5621207 30.7639946 37.132014 30.5036261 37.4574747 29.136691 38.1138205 28.0626707 39.1010513 27.2815649 40.0882822 26.5004592 41.4172468 26.1099063 43.0879451 26.1099063 44.2379064 26.1099063 45.2468346 26.3919723 46.1147298 26.9561042 46.9826251 27.5202361 47.6606683 28.3013419 48.1488593 29.2994214 48.6370504 30.2975009 48.881146 31.4691595 48.881146 32.8143972 48.881146 34.0945427 48.6370504 35.2228065 48.1488593 36.1991886 47.6606683 37.1755708 46.9934738 37.9349792 46.1472759 38.4774137ZM27.8238374 34.8322536C28.3662719 34.8322536 28.8436143 34.6532502 29.2558646 34.2952434 29.6681148 33.9372366 29.8742399 33.3785291 29.8742399 32.6191207 29.8742399 31.8597124 29.6735392 31.3064292 29.2721376 30.9592711 28.8707361 30.612113 28.3879693 30.4385339 27.8238374 30.4385339 27.2163107 30.4385339 26.7281196 30.6066886 26.3592642 30.942998 25.9904087 31.2793074 25.8059809 31.838015 25.8059809 32.6191207 25.8059809 33.3785291 25.995833 33.9372366 26.3755372 34.2952434 26.7552414 34.6532502 27.2380081 34.8322536 27.8238374 34.8322536ZM42.9577609 39.3887037C41.1351808 39.3887037 39.6706076 38.7974501 38.5640411 37.6149428 37.4574747 36.4324355 36.8933428 34.8431023 36.8716454 32.8469432 38.9979888 33.0856144 40.6524141 33.785355 41.8349214 34.9461649 43.0174287 36.1069748 43.6303797 37.5769724 43.6737744 39.3561576 43.4351032 39.377855 43.1964321 39.3887037 42.9577609 39.3887037Z"/></g><path fill="#000" fill-opacity=".5" fill-rule="nonzero" d="M304.015037,25.516725 L304.015037,18.1467679 L306.77529,18.1467679 L306.77529,17.2755589 L300.203862,17.2755589 L300.203862,18.1467679 L302.964115,18.1467679 L302.964115,25.516725 L304.015037,25.516725 Z M307.807036,25.516725 L307.807036,19.9715976 L307.621851,18.7471957 L307.687989,18.7471957 L308.164179,19.8656397 L310.717089,23.5977106 L311.047777,23.5977106 L313.455185,19.8774128 L313.95783,18.7471957 L314.023968,18.7471957 L313.891692,19.9833706 L313.891692,25.516725 L314.989576,25.516725 L314.989576,17.2755589 L314.129788,17.2755589 L311.365237,21.4667805 L310.955185,22.4086281 L310.92873,22.4086281 L310.492222,21.4903267 L307.595396,17.2755589 L306.77529,17.2755589 L306.77529,25.516725 L307.807036,25.516725 Z"/></g></svg>